<svg version="1.1" xmlns="http://www.w3.org/2000/svg" xmlns:xlink="http://www.w3.org/1999/xlink" width="102.04039" height="150.68191" viewBox="0,0,102.04039,150.68191"><g transform="translate(-80.79976,-22.26844)"><g data-paper-data="{&quot;isPaintingLayer&quot;:true}" fill-rule="nonzero" stroke-linecap="butt" stroke-linejoin="miter" stroke-miterlimit="10" stroke-dasharray="" stroke-dashoffset="0" style="mix-blend-mode: normal"><path d="M111.68851,27.92213v-4.65369h39.22394v4.65369z" fill="none" stroke="#000000" stroke-width="2"/><path d="M168.25321,43.5217c0,5.64736 -2.52999,10.22545 -5.6509,10.22545c-3.12091,0 -5.65091,-4.57809 -5.65091,-10.22545c0,-5.64736 2.53,-10.22545 5.65091,-10.22545c3.12091,0 5.6509,4.57809 5.6509,10.22545z" fill="#090909" stroke="#000000" stroke-width="2"/><path d="M105.41451,43.8402c0,5.64736 -2.53,10.22545 -5.65091,10.22545c-3.12091,0 -5.65091,-4.57809 -5.65091,-10.22545c0,-5.64736 2.53,-10.22545 5.65091,-10.22545c3.12091,0 5.65091,4.57809 5.65091,10.22545z" fill="#090909" stroke="#000000" stroke-width="2"/><path d="M181.20315,131.3422c0,6.97615 -3.12529,12.63144 -6.98053,12.63144c-3.85524,0 -6.98054,-5.65529 -6.98054,-12.63144c0,-6.97615 3.12529,-12.63144 6.98054,-12.63144c3.85524,0 6.98053,5.65529 6.98053,12.63144z" fill="#090909" stroke="#000000" stroke-width="2"/><path d="M95.76083,131.6607c0,6.97615 -3.12529,12.63144 -6.98053,12.63144c-3.85524,0 -6.98053,-5.65529 -6.98053,-12.63144c0,-6.97615 3.12529,-12.63144 6.98053,-12.63144c3.85524,0 6.98053,5.65529 6.98053,12.63144z" fill="#090909" stroke="#000000" stroke-width="2"/><path d="M181.84015,78.7942c0,6.97615 -3.12529,12.63144 -6.98053,12.63144c-3.85524,0 -6.98054,-5.65529 -6.98054,-12.63144c0,-6.97615 3.12529,-12.63144 6.98054,-12.63144c3.85524,0 6.98053,5.65529 6.98053,12.63144z" fill="#090909" stroke="#000000" stroke-width="2"/><path d="M97.06264,81.10714c0,6.97615 -3.12529,12.63144 -6.98053,12.63144c-3.85524,0 -6.98054,-5.65529 -6.98054,-12.63144c0,-6.97615 3.1253,-12.63144 6.98054,-12.63144c3.85524,0 6.98053,5.65529 6.98053,12.63144z" fill="#090909" stroke="#000000" stroke-width="2"/><path d="M100.3867,61.82757v-35.23507h61.16275v35.23507z" fill="#6b77d7" stroke="#000000" stroke-width="2"/><path d="M88.42007,148.91802v-94.40338h86.42564v94.40339z" fill="#5261d6" stroke="#000000" stroke-width="2"/><path d="M175.51052,148.31364l-16.62032,23.20801l-60.49795,-0.72525l-10.637,-23.208z" data-paper-data="{&quot;index&quot;:null}" fill="#d6d6d6" stroke="#000000" stroke-width="2"/><text transform="translate(99.72189,157.82385) scale(0.25791,0.25791)" font-size="40" xml:space="preserve" fill="#265555" fill-rule="nonzero" stroke="none" stroke-width="1" stroke-linecap="butt" stroke-linejoin="miter" stroke-miterlimit="10" stroke-dasharray="" stroke-dashoffset="0" font-family="Sans Serif" font-weight="normal" text-anchor="start" style="mix-blend-mode: normal"><tspan x="0" dy="0">Agricultura</tspan><tspan x="0" dy="46.15px">   Familiar</tspan></text></g></g></svg>