<svg version="1.1" xmlns="http://www.w3.org/2000/svg" xmlns:xlink="http://www.w3.org/1999/xlink" width="76" height="141" viewBox="0,0,76,141"><g transform="translate(-158.5,-27)"><g data-paper-data="{&quot;isPaintingLayer&quot;:true}" fill-rule="nonzero" stroke="#000000" stroke-width="2" stroke-linecap="butt" stroke-linejoin="miter" stroke-miterlimit="10" stroke-dasharray="" stroke-dashoffset="0" style="mix-blend-mode: normal"><path d="M166,136.25c-3.58985,0 -6.5,-5.37259 -6.5,-12c0,-6.62741 2.91015,-12 6.5,-12c3.58985,0 6.5,5.37259 6.5,12c0,6.62741 -2.91015,12 -6.5,12z" data-paper-data="{&quot;index&quot;:null}" fill="#000000"/><path d="M233.5,124.25c0,6.62742 -2.91015,12 -6.5,12c-3.58985,0 -6.5,-5.37258 -6.5,-12c0,-6.62741 2.91015,-12 6.5,-12c3.58985,0 6.5,5.37259 6.5,12z" fill="#000000"/><path d="M231.5,77.75c0,6.62741 -2.91015,12 -6.5,12c-3.58985,0 -6.5,-5.37259 -6.5,-12c0,-6.62741 2.91015,-12 6.5,-12c3.58985,0 6.5,5.37259 6.5,12z" fill="#000000"/><path d="M172.5,78.75c0,6.62742 -2.91015,12 -6.5,12c-3.58985,0 -6.5,-5.37258 -6.5,-12c0,-6.62742 2.91015,-12 6.5,-12c3.58985,0 6.5,5.37258 6.5,12z" fill="#000000"/><path d="M170,167v-35h50v35z" fill="#ffffff"/><path d="M165,141v-78h62v78z" fill="#ffffff"/><path d="M165,63l5,-35h50l7,35z" fill="#ffffff"/><path d="M167.79167,105c0,0 0,-12.17663 0,-18c0,-5.49033 0,-16 0,-16l3.41667,5v21z" fill="#bcbcbc"/><path d="M222.79167,95.25v-21l3.41667,-5c0,0 0,10.50967 0,16c0,5.82337 0,18 0,18z" data-paper-data="{&quot;index&quot;:null}" fill="#bcbcbc"/></g></g></svg>