<svg version="1.1" xmlns="http://www.w3.org/2000/svg" xmlns:xlink="http://www.w3.org/1999/xlink" width="726.17736" height="539.67545" viewBox="0,0,726.17736,539.67545"><g transform="translate(122.65488,91.13341)"><g data-paper-data="{&quot;isPaintingLayer&quot;:true}" fill-rule="nonzero" stroke-linejoin="miter" stroke-miterlimit="10" stroke-dasharray="" stroke-dashoffset="0" style="mix-blend-mode: normal"><path d="M-122.65488,315.59609v-406.7295h726.17736v406.7295z" fill="#009f94" stroke="#000000" stroke-width="0" stroke-linecap="butt"/><path d="M-122.26033,448.54204v-238.53885c0,0 636.79841,0 703.51322,0c11.06371,0 19.34771,0 19.34771,0v238.53885z" fill="#0d6c20" stroke="none" stroke-width="0" stroke-linecap="butt"/><path d="M193.37529,383.15156c0,0 -18.69373,-30.38668 -5.89478,-38.79628c4.4801,-2.94367 10.09065,-14.28397 23.39085,-17.19392c10.22221,-2.23652 23.43015,3.04693 35.32765,2.8287c16.84634,-0.309 31.81902,-5.61887 38.47994,-6.82995c6.09717,-1.10858 14.58482,1.7573 14.58482,1.7573c0,0 -0.36144,7.68219 4.51998,13.95353c4.02132,5.16633 13.36813,8.73247 14.02387,11.85108c0.8742,4.15755 -10.64907,11.74168 -10.64907,11.74168z" fill="#9e672c" stroke="#7b4d00" stroke-width="0" stroke-linecap="butt"/><path d="M178.81065,317.12968c-0.69484,-0.69664 -1.35006,-1.43491 -1.96178,-2.20563l-1.8927,-1.41952c-0.31022,-0.22746 -0.51164,-0.59457 -0.51164,-1.00873c0,-0.69036 0.55964,-1.25 1.25,-1.25c0.18469,0 0.36003,0.04006 0.5178,0.11195l1.7246,0.73911l-0.13007,0.30349c0.6887,0.23242 1.26478,0.56164 1.98208,1.06238c0.0626,-0.15325 0.12816,-0.30549 0.19637,-0.45674l-0.25346,-0.06337l0.49366,-1.97463c0.12632,-0.55665 0.62414,-0.9722 1.21902,-0.9722c0.69036,0 1.25,0.55964 1.25,1.25c0,0.06691 -0.00526,0.13259 -0.01538,0.19665l-0.0701,0.49442c0.08017,0.05042 0.15421,0.10969 0.22076,0.17644c0.97043,-0.49852 2.03563,-0.88701 2.52158,-1.06949l0.1059,0.01578l-0.00791,-0.03953l1.22469,-0.24494c0.08709,-0.01921 0.17759,-0.02934 0.27046,-0.02934c0.69036,0 1.25,0.55964 1.25,1.25c0,0.38261 -0.1719,0.72507 -0.44268,0.95436l-1.74383,1.49471l-0.20206,-0.23574c-1.29576,1.33935 -2.69298,2.45255 -4.33056,3.76275l-0.14699,0.1578c0,0 -0.51422,0.51422 -1.15045,0.36601c-0.68272,-0.00887 -1.23343,-0.56507 -1.23343,-1.24989c0,-0.00163 0,-0.00325 0.00001,-0.00488c-0.08549,-0.06283 -0.13389,-0.11124 -0.13389,-0.11124z" fill="#0a571a" stroke="none" stroke-width="0.5" stroke-linecap="butt"/><path d="M423,203.25c1.25,0 1.25,1.25 1.25,1.25l-0.02824,1.2642c-0.50891,2.33486 -1.66161,4.52679 -1.98113,6.88853c-0.1305,0.96458 0.26069,3.78611 -0.17732,4.50444c-0.43531,0.71389 -1.59622,0.63841 -2.18493,1.23218c-0.52875,0.5333 -0.49322,1.47632 -1.02562,2.00597c-0.91628,0.91154 -1.82622,1.44802 -2.59223,1.99123c0.08595,3.81423 0.65165,8.20941 -0.03309,11.84985c-0.27076,1.43951 -0.94362,2.81977 -0.97762,4.28412l-1.0496,3.21335c-0.73946,-1.12329 -1.72573,-2.11852 -2.21838,-3.36986c-1.04489,-2.65405 -0.22465,-7.38808 -0.22867,-10.22941c-0.00219,-1.54477 -0.08558,-3.09173 -0.00319,-4.6343c0.02411,-0.45137 0.4629,-0.98533 0.18669,-1.34313c-0.40291,-0.5219 -1.35435,-0.30706 -1.82057,-0.77328c-0.46622,-0.46622 -0.25141,-1.41763 -0.77328,-1.82057c-0.9586,-0.74015 -2.45463,0.44509 -3.63003,0.15324c-1.44238,-0.35813 -2.97511,-1.11903 -4.47187,-1.96017c-0.08122,-0.004 -0.16163,-0.00638 -0.24094,-0.00638c-4.52012,0 -4.11809,-2.68928 -4,-6.5l1.88388,2.36612c1.0881,0.49747 2.23469,1.19262 3.39822,1.8561c0.02065,-0.00995 0.0409,-0.02174 0.06073,-0.03553c0.43507,-0.30262 0.32557,-1.01066 0.53913,-1.4957c0.56214,-1.27675 1.56025,-2.37553 1.90148,-3.72818c0.15407,-0.61075 0.11989,-1.25912 0.16582,-1.88981c-0.13549,-0.75359 -0.4228,-1.40608 -0.94926,-1.823v0c0.9613,-0.29463 2.0276,-1.41083 2.88388,-0.88388c0.82527,0.50786 0.29368,1.91759 0.36612,2.88388c0.12565,1.67615 0.39616,3.2333 -0.41447,4.49765c0.34618,-0.38616 0.68948,-0.775 1.04835,-1.1493c0.62873,-0.65576 2.35587,-2.34581 3.10206,-3.07924l0.89602,-1.82812c0,0 0.55901,-1.11803 1.67705,-0.55902c0.07006,0.03503 0.13354,0.07226 0.19099,0.11127c0,-4.33108 0,-8.66216 0,-12.99323c0,-6.5273 0.78141,-12.45455 2.02256,-18.73638c0.28397,-1.43725 -0.02217,-2.93002 -0.02263,-4.39505c-0.00161,-5.05605 -0.11818,-9.76197 -0.98378,-14.66833c-0.52213,-2.95951 0.10091,-6.18553 -0.26758,-9.20133c-1.00145,-8.27053 -1.70131,-16.5763 -2.73863,-24.84165c-0.79662,-6.34746 -2.00511,-12.74396 -2.00993,-19.15725c0,0 0,-1.25 1.25,-1.25c1.25,0 1.25,1.25 1.25,1.25c-0.00505,6.30421 1.2069,12.60347 1.99007,18.84275c1.03808,8.27 1.73835,16.58043 2.74036,24.85562c0.35582,2.96362 -0.2836,6.20989 0.25342,9.10139c1.10678,5.95924 2.14511,13.81445 0.99358,19.93661c-0.15528,0.82558 -0.74563,1.5223 -0.93252,2.3413c-0.45293,1.98481 0.39769,4.2346 -0.07837,6.20951c-0.17467,0.7246 -0.81222,1.27868 -1,2c-0.56952,2.18769 0.03344,5.43619 0.03344,7.71281c0,8.54927 0,17.09855 0,25.64782c0.29984,-0.12432 0.58466,-0.26832 0.81011,-0.49503c0.54096,-0.54399 0.5127,-1.50604 1.0615,-2.04212c0.46993,-0.45905 1.41379,-0.24769 1.81507,-0.76782c0.71267,-0.92372 -0.33734,-2.3399 -0.17732,-3.49556c0.34106,-2.46314 1.49893,-4.68598 2.01887,-7.11147l-0.02824,-0.7358c0,0 0,-1.25 1.25,-1.25zM413.75,220.51462c0,-3.91053 0,-7.82104 0,-11.73157l-0.73595,1.44783c-1.20824,1.22554 -3.9448,4.99497 -5.5357,5.42396c-0.8062,0.2174 -1.85997,0.3466 -2.67154,0.08196c-0.11978,0.29274 -0.23464,0.59128 -0.37223,0.86849c0.62206,0.28644 1.24168,0.52402 1.8526,0.67813c1.44718,0.36507 2.93651,-0.72004 4.36997,0.15324c0.71194,0.43373 0.63724,1.58995 1.22672,2.17943c0.47847,0.47846 1.3303,0.51937 1.86612,0.89851z" fill="#93551f" stroke="none" stroke-width="0.5" stroke-linecap="butt"/><path d="M407,98.5l9,-19l9,22" fill="none" stroke="#004c02" stroke-width="6" stroke-linecap="round"/><path d="M413,75.5l1,23l-2,-16l-11,15" fill="none" stroke="#004c02" stroke-width="6" stroke-linecap="round"/><path d="M388,94.5l29,-23l26,25l-27,-21l-22,22l24,-20l17,22l-25,-14" fill="none" stroke="#004c02" stroke-width="6" stroke-linecap="round"/><path d="M403.94547,115.5l12.76363,-19l12.76363,22" fill="none" stroke="#004c02" stroke-width="6" stroke-linecap="round"/><path d="M412.45455,92.5l1.41818,23l-2.83636,-16l-15.6,15" fill="none" stroke="#004c02" stroke-width="6" stroke-linecap="round"/><path d="M377,111.5l41.12727,-23l36.87273,25l-38.29091,-21l-31.2,22l34.03636,-20l24.10909,22l-35.45454,-14" fill="none" stroke="#004c02" stroke-width="6" stroke-linecap="round"/><path d="M399.72919,128.66498l15.45763,-20.19832l10.24389,20.46884" data-paper-data="{&quot;index&quot;:null}" fill="none" stroke="#004c02" stroke-width="6" stroke-linecap="round"/><path d="M433.99789,129.02566l-13.56589,-16.86199l-4.84796,15.50942l4.33145,-22.63294" data-paper-data="{&quot;index&quot;:null}" fill="none" stroke="#004c02" stroke-width="6" stroke-linecap="round"/><path d="M422.86384,115.5l-36.94701,9.37779l26.71097,-18.75558l31.21676,24.16584l-28.14909,-25.78892l-40.6505,15.96028l39.75249,-20.10815l37.86861,28.0432" data-paper-data="{&quot;index&quot;:null}" fill="none" stroke="#004c02" stroke-width="6" stroke-linecap="round"/><path d="M398.77136,145.66498l19.24133,-20.19832l12.75138,20.46884" data-paper-data="{&quot;index&quot;:null}" fill="none" stroke="#004c02" stroke-width="6" stroke-linecap="round"/><path d="M441.42831,146.02566l-16.88654,-16.86199l-6.03464,15.50943l5.39169,-22.63294" data-paper-data="{&quot;index&quot;:null}" fill="none" stroke="#004c02" stroke-width="6" stroke-linecap="round"/><path d="M427.56889,132.5l-45.99086,9.37779l33.24925,-18.75558l38.85797,24.16584l-35.0394,-25.78892l-50.60088,15.96028l49.48305,-20.10815l47.13804,28.0432" data-paper-data="{&quot;index&quot;:null}" fill="none" stroke="#004c02" stroke-width="6" stroke-linecap="round"/><path d="M405.86981,132.5l11.04924,-19l11.04924,22" fill="none" stroke="#004c02" stroke-width="6" stroke-linecap="round"/><path d="M413.23597,109.5l1.22769,23l-2.45539,-16l-13.50463,15" fill="none" stroke="#004c02" stroke-width="6" stroke-linecap="round"/><path d="M382.54363,128.5l35.60312,-23l31.92003,25l-33.14773,-21l-27.00925,22l29.46464,-20l20.87079,22l-30.69234,-14" fill="none" stroke="#004c02" stroke-width="6" stroke-linecap="round"/><path d="M402.11976,149.5l15.66983,-19l15.66984,22" fill="none" stroke="#004c02" stroke-width="6" stroke-linecap="round"/><path d="M412.56632,126.5l1.74109,23l-3.48218,-16l-19.15202,15" fill="none" stroke="#004c02" stroke-width="6" stroke-linecap="round"/><path d="M369.039,145.5l50.49169,-23l45.26841,25l-47.0095,-21l-38.30404,22l41.78623,-20l29.59857,22l-43.52732,-14" fill="none" stroke="#004c02" stroke-width="6" stroke-linecap="round"/><path d="M396.94348,162.66498l18.97723,-20.19832l12.57636,20.46884" data-paper-data="{&quot;index&quot;:null}" fill="none" stroke="#004c02" stroke-width="6" stroke-linecap="round"/><path d="M439.01494,163.02566l-16.65476,-16.86199l-5.95181,15.50943l5.31768,-22.63294" data-paper-data="{&quot;index&quot;:null}" fill="none" stroke="#004c02" stroke-width="6" stroke-linecap="round"/><path d="M421.89024,149.5l-49.64353,9.37779l35.88997,-18.75558l41.94414,24.16584l-37.82229,-25.78892l-54.6197,15.96028l53.41309,-20.10815l50.88184,28.0432" data-paper-data="{&quot;index&quot;:null}" fill="none" stroke="#004c02" stroke-width="6" stroke-linecap="round"/><path d="M395.76756,179.66498l23.62246,-20.19832l15.65479,20.46884" data-paper-data="{&quot;index&quot;:null}" fill="none" stroke="#004c02" stroke-width="6" stroke-linecap="round"/><path d="M448.13722,180.02566l-20.73149,-16.86199l-7.40868,15.50942l6.61935,-22.63294" data-paper-data="{&quot;index&quot;:null}" fill="none" stroke="#004c02" stroke-width="6" stroke-linecap="round"/><path d="M430.28265,166.83706l-61.2226,9.16404l44.2611,-18.32809l51.72735,23.61504l-46.64411,-25.20112l-67.35942,15.5965l65.87138,-19.64983l62.74972,27.40402" data-paper-data="{&quot;index&quot;:null}" fill="none" stroke="#004c02" stroke-width="6" stroke-linecap="round"/><path d="M404.04714,174.5l18.71557,-19l18.71557,22" fill="none" stroke="#004c02" stroke-width="6" stroke-linecap="round"/><path d="M416.52418,151.5l2.07951,23l-4.15901,-16l-22.87459,15" fill="none" stroke="#004c02" stroke-width="6" stroke-linecap="round"/><path d="M364.53649,170.5l60.30573,-23l54.0672,25l-56.14671,-21l-45.74917,22l49.90819,-20l35.35162,22l-51.98769,-14" fill="none" stroke="#004c02" stroke-width="6" stroke-linecap="round"/><path d="M397.86474,187.66498l22.66583,-20.19832l15.02082,20.46884" data-paper-data="{&quot;index&quot;:null}" fill="none" stroke="#004c02" stroke-width="6" stroke-linecap="round"/><path d="M448.1136,188.02566l-19.89193,-16.86199l-7.10865,15.50942l6.35128,-22.63294" data-paper-data="{&quot;index&quot;:null}" fill="none" stroke="#004c02" stroke-width="6" stroke-linecap="round"/><path d="M427.66039,174.5l-59.29272,9.37779l42.86588,-18.75558l50.09678,24.16585l-45.17377,-25.78893l-65.23609,15.96028l63.79495,-20.10815l60.77171,28.0432" data-paper-data="{&quot;index&quot;:null}" fill="none" stroke="#004c02" stroke-width="6" stroke-linecap="round"/><path d="M396.46026,204.66498l28.21393,-20.19832l18.69761,20.46883" data-paper-data="{&quot;index&quot;:null}" fill="none" stroke="#004c02" stroke-width="6" stroke-linecap="round"/><path d="M459.00898,205.02566l-24.76106,-16.86199l-8.8487,15.50942l7.90594,-22.63294" data-paper-data="{&quot;index&quot;:null}" fill="none" stroke="#004c02" stroke-width="6" stroke-linecap="round"/><path d="M437.68402,191.83706l-73.12239,9.16404l52.8641,-18.32809l61.78157,23.61504l-55.71031,-25.20113l-80.45202,15.5965l78.67476,-19.64983l74.94634,27.40402" data-paper-data="{&quot;index&quot;:null}" fill="none" stroke="#004c02" stroke-width="6" stroke-linecap="round"/><path d="M391.28505,219.66498l30.23418,-20.19832l20.03644,20.46883" data-paper-data="{&quot;index&quot;:null}" fill="none" stroke="#004c02" stroke-width="6" stroke-linecap="round"/><path d="M435.46063,206.83706l-78.3583,9.16404l56.64942,-18.32809l66.20542,23.61504l-59.69943,-25.20113l-86.21277,15.5965l84.30824,-19.64983l80.31286,27.40402" data-paper-data="{&quot;index&quot;:null}" fill="none" stroke="#004c02" stroke-width="6" stroke-linecap="round"/><path d="M45.02653,336.99736c1.0958,0 1.0958,1.0958 1.0958,1.0958l-0.02476,1.10824c-0.44613,2.04683 -1.45663,3.96837 -1.73673,6.03877c-0.1144,0.84559 0.22853,3.31906 -0.15545,3.94877c-0.38161,0.62582 -1.39931,0.55966 -1.91539,1.08017c-0.46352,0.46751 -0.43238,1.2942 -0.8991,1.75851c-0.80325,0.79909 -1.60094,1.26939 -2.27245,1.74559c0.07534,3.34371 0.57126,7.1967 -0.02901,10.38806c-0.23736,1.26193 -0.82722,2.47192 -0.85702,3.75564l-0.92012,2.81695c-0.64824,-0.98472 -1.51284,-1.85718 -1.94472,-2.95416c-0.91599,-2.32665 -0.19694,-6.47669 -0.20046,-8.96751c-0.00192,-1.3542 -0.07502,-2.71034 -0.00279,-4.06261c0.02114,-0.39569 0.4058,-0.86378 0.16366,-1.17744c-0.35321,-0.45752 -1.18728,-0.26919 -1.59599,-0.67789c-0.4087,-0.4087 -0.2204,-1.24275 -0.67789,-1.59599c-0.84035,-0.64885 -2.15182,0.39018 -3.18223,0.13434c-1.26445,-0.31395 -2.6081,-0.98099 -3.92022,-1.71837c-0.0712,-0.00351 -0.14169,-0.0056 -0.21122,-0.0056c-3.96251,0 -3.61008,-2.35753 -3.50656,-5.69816l1.65149,2.07423c0.95387,0.4361 1.95902,1.0455 2.97902,1.62713c0.0181,-0.00872 0.03585,-0.01905 0.05324,-0.03115c0.3814,-0.26529 0.28541,-0.88599 0.47262,-1.31119c0.4928,-1.11925 1.36778,-2.08248 1.66691,-3.26827c0.13506,-0.53541 0.1051,-1.1038 0.14537,-1.65668c-0.11878,-0.66063 -0.37064,-1.23263 -0.83216,-1.59812v0c0.84271,-0.25828 1.77748,-1.23679 2.52813,-0.77485c0.72346,0.44521 0.25745,1.68103 0.32095,2.52813c0.11015,1.46939 0.34729,2.83444 -0.36334,3.94282c0.30348,-0.33852 0.60443,-0.6794 0.91903,-1.00752c0.55117,-0.57487 2.06525,-2.05644 2.71939,-2.69939l0.78549,-1.60261c0,0 0.49006,-0.98011 1.47017,-0.49006c0.06142,0.03071 0.11707,0.06335 0.16743,0.09754c0,-3.7968 0,-7.59359 0,-11.39039c0,-5.72209 0.68501,-10.91816 1.77305,-16.42507c0.24894,-1.25995 -0.01943,-2.56857 -0.01984,-3.85288c-0.00141,-4.43234 -0.1036,-8.55774 -0.86243,-12.85885c-0.45772,-2.59442 0.08847,-5.42249 -0.23457,-8.06626c-0.87792,-7.25028 -1.49144,-14.53145 -2.40079,-21.7772c-0.69835,-5.56444 -1.75776,-11.17187 -1.76199,-16.79401c0,0 0,-1.0958 1.0958,-1.0958c1.0958,0 1.0958,1.0958 1.0958,1.0958c-0.00443,5.52653 1.05801,11.04871 1.74458,16.51832c0.91002,7.24982 1.5239,14.53507 2.40231,21.78944c0.31192,2.59803 -0.24862,5.44384 0.22216,7.97865c0.97024,5.22411 1.88049,12.1103 0.87102,17.47724c-0.13613,0.72374 -0.65365,1.33451 -0.81748,2.05248c-0.39705,1.73996 0.34863,3.71222 -0.0687,5.4435c-0.15312,0.63521 -0.71202,1.12095 -0.87664,1.75328c-0.49927,1.91782 0.02931,4.76559 0.02931,6.76136c0,7.49463 0,14.98927 0,22.48391c0.26285,-0.10899 0.51254,-0.23522 0.71018,-0.43396c0.47423,-0.47688 0.44945,-1.32026 0.93055,-1.79021c0.41196,-0.40242 1.23939,-0.21714 1.59117,-0.67311c0.62475,-0.80977 -0.29573,-2.05125 -0.15545,-3.06435c0.29899,-2.15929 1.31402,-4.10792 1.76983,-6.2342l-0.02476,-0.64504c0,0 0,-1.0958 1.0958,-1.0958zM36.91761,352.13222c0,-3.42812 0,-6.85624 0,-10.28436l-0.64516,1.26923c-1.0592,1.07436 -3.45817,4.37879 -4.85282,4.75486c-0.70675,0.19058 -1.63053,0.30384 -2.34198,0.07185c-0.105,0.25663 -0.20569,0.51834 -0.32631,0.76136c0.54532,0.2511 1.0885,0.45937 1.62406,0.59448c1.26866,0.32004 2.57426,-0.63122 3.8309,0.13434c0.62412,0.38022 0.55863,1.39381 1.07539,1.91058c0.41944,0.41944 1.16619,0.4553 1.63591,0.78767z" fill="#93551f" stroke="none" stroke-width="0.5" stroke-linecap="butt"/><path d="M31.00029,245.16929l7.88976,-16.65617l7.88976,19.28609" fill="none" stroke="#004c02" stroke-width="6" stroke-linecap="round"/><path d="M36.26013,225.00656l0.87664,20.16273l-1.75328,-14.02624l-9.64304,13.1496" fill="none" stroke="#004c02" stroke-width="6" stroke-linecap="round"/><path d="M14.34413,241.66272l25.42257,-20.16273l22.79265,21.91601l-23.66929,-18.40945l-19.28609,19.28609l21.03937,-17.53281l14.90288,19.28609l-21.91601,-12.27296" fill="none" stroke="#004c02" stroke-width="6" stroke-linecap="round"/><path d="M28.32254,260.07217l11.18912,-16.65617l11.18912,19.28609" fill="none" stroke="#004c02" stroke-width="6" stroke-linecap="round"/><path d="M35.78196,239.90945l1.24323,20.16273l-2.48647,-14.02624l-13.67559,13.1496" fill="none" stroke="#004c02" stroke-width="6" stroke-linecap="round"/><path d="M4.70107,256.56561l36.05383,-20.16273l32.32412,21.91601l-33.56735,-18.40945l-27.35118,19.28609l29.83765,-17.53281l21.135,19.28609l-31.08088,-12.27296" fill="none" stroke="#004c02" stroke-width="6" stroke-linecap="round"/><path d="M24.6264,271.61312l13.55078,-17.70666l8.98021,17.94381" data-paper-data="{&quot;index&quot;:null}" fill="none" stroke="#004c02" stroke-width="6" stroke-linecap="round"/><path d="M54.66772,271.92931l-11.89241,-14.7819l-4.24992,13.59619l3.79712,-19.84095" data-paper-data="{&quot;index&quot;:null}" fill="none" stroke="#004c02" stroke-width="6" stroke-linecap="round"/><path d="M44.90717,260.07217l-32.38924,8.22095l23.41592,-16.4419l27.36587,21.18475l-24.67663,-22.60761l-35.63587,13.99142l34.84863,-17.62761l33.19715,24.5838" data-paper-data="{&quot;index&quot;:null}" fill="none" stroke="#004c02" stroke-width="6" stroke-linecap="round"/><path d="M23.78673,286.51601l16.86773,-17.70666l11.17837,17.94381" data-paper-data="{&quot;index&quot;:null}" fill="none" stroke="#004c02" stroke-width="6" stroke-linecap="round"/><path d="M61.18153,286.8322l-14.80342,-14.7819l-5.2902,13.59619l4.72657,-19.84095" data-paper-data="{&quot;index&quot;:null}" fill="none" stroke="#004c02" stroke-width="6" stroke-linecap="round"/><path d="M49.0318,274.97506l-40.31744,8.22095l29.14764,-16.4419l34.06446,21.18475l-30.71695,-22.60761l-44.35877,13.99142l43.37884,-17.62761l41.32311,24.5838" data-paper-data="{&quot;index&quot;:null}" fill="none" stroke="#004c02" stroke-width="6" stroke-linecap="round"/><path d="M30.00952,274.97506l9.68621,-16.65617l9.68621,19.28609" fill="none" stroke="#004c02" stroke-width="6" stroke-linecap="round"/><path d="M36.46699,254.81233l1.07625,20.16273l-2.15249,-14.02624l-11.8387,13.1496" fill="none" stroke="#004c02" stroke-width="6" stroke-linecap="round"/><path d="M9.56085,271.46849l31.21112,-20.16273l27.98238,21.91601l-29.05863,-18.40945l-23.6774,19.28609l25.82989,-17.53281l18.29618,19.28609l-26.90614,-12.27296" fill="none" stroke="#004c02" stroke-width="6" stroke-linecap="round"/><path d="M26.72208,289.87794l13.7368,-16.65617l13.73681,19.28609" fill="none" stroke="#004c02" stroke-width="6" stroke-linecap="round"/><path d="M35.87995,269.71522l1.52631,20.16273l-3.05262,-14.02624l-16.78943,13.1496" fill="none" stroke="#004c02" stroke-width="6" stroke-linecap="round"/><path d="M-2.27786,286.37138l44.26305,-20.16273l39.68411,21.91601l-41.21043,-18.40945l-33.57886,19.28609l36.63149,-17.53281l25.9473,19.28609l-38.1578,-12.27296" fill="none" stroke="#004c02" stroke-width="6" stroke-linecap="round"/><path d="M22.18433,301.41889l16.63621,-17.70666l11.02494,17.94381" data-paper-data="{&quot;index&quot;:null}" fill="none" stroke="#004c02" stroke-width="6" stroke-linecap="round"/><path d="M59.06587,301.73508l-14.60023,-14.7819l-5.21759,13.59619l4.6617,-19.84095" data-paper-data="{&quot;index&quot;:null}" fill="none" stroke="#004c02" stroke-width="6" stroke-linecap="round"/><path d="M44.05367,289.87794l-43.51952,8.22095l31.46259,-16.4419l36.76992,21.18475l-33.15654,-22.60761l-47.88183,13.99142l46.82407,-17.62761l44.60507,24.5838" data-paper-data="{&quot;index&quot;:null}" fill="none" stroke="#004c02" stroke-width="6" stroke-linecap="round"/><path d="M21.15348,316.32177l20.7084,-17.70666l13.72362,17.94381" data-paper-data="{&quot;index&quot;:null}" fill="none" stroke="#004c02" stroke-width="6" stroke-linecap="round"/><path d="M67.06283,316.63797l-18.17406,-14.7819l-6.49475,13.59619l5.80278,-19.84095" data-paper-data="{&quot;index&quot;:null}" fill="none" stroke="#004c02" stroke-width="6" stroke-linecap="round"/><path d="M51.41079,305.07631l-53.67019,8.03357l38.80106,-16.06714l45.34628,20.7019l-40.89011,-22.09232l-59.04998,13.67252l57.74551,-17.22583l55.00893,24.02347" data-paper-data="{&quot;index&quot;:null}" fill="none" stroke="#004c02" stroke-width="6" stroke-linecap="round"/><path d="M28.41169,311.79395l16.40682,-16.65617l16.40682,19.28609" fill="none" stroke="#004c02" stroke-width="6" stroke-linecap="round"/><path d="M39.34957,291.63122l1.82298,20.16273l-3.64596,-14.02624l-20.05278,13.1496" fill="none" stroke="#004c02" stroke-width="6" stroke-linecap="round"/><path d="M-6.22494,308.28739l52.86643,-20.16273l47.39749,21.91601l-49.22047,-18.40945l-40.10557,19.28609l43.75153,-17.53281l30.99066,19.28609l-45.5745,-12.27296" fill="none" stroke="#004c02" stroke-width="6" stroke-linecap="round"/><path d="M22.99195,323.3349l19.86978,-17.70666l13.16786,17.94381" data-paper-data="{&quot;index&quot;:null}" fill="none" stroke="#004c02" stroke-width="6" stroke-linecap="round"/><path d="M67.04213,323.65109l-17.43807,-14.7819l-6.23173,13.59619l5.56779,-19.84095" data-paper-data="{&quot;index&quot;:null}" fill="none" stroke="#004c02" stroke-width="6" stroke-linecap="round"/><path d="M49.11202,311.79395l-51.97838,8.22095l37.57796,-16.4419l43.91686,21.18475l-39.60115,-22.60761l-57.18859,13.99142l55.92523,-17.62761l53.27492,24.5838" data-paper-data="{&quot;index&quot;:null}" fill="none" stroke="#004c02" stroke-width="6" stroke-linecap="round"/><path d="M21.76073,338.23778l24.73347,-17.70666l16.39107,17.94381" data-paper-data="{&quot;index&quot;:null}" fill="none" stroke="#004c02" stroke-width="6" stroke-linecap="round"/><path d="M76.59346,338.55397l-21.70654,-14.7819l-7.75713,13.59619l6.93067,-19.84095" data-paper-data="{&quot;index&quot;:null}" fill="none" stroke="#004c02" stroke-width="6" stroke-linecap="round"/><path d="M57.89914,326.99231l-64.10203,8.03357l46.3428,-16.06714l54.16021,20.7019l-48.8379,-22.09232l-70.52749,13.67252l68.96946,-17.22583l65.70098,24.02347" data-paper-data="{&quot;index&quot;:null}" fill="none" stroke="#004c02" stroke-width="6" stroke-linecap="round"/><path d="M17.22393,351.38739l26.5045,-17.70666l17.56475,17.94381" data-paper-data="{&quot;index&quot;:null}" fill="none" stroke="#004c02" stroke-width="6" stroke-linecap="round"/><path d="M55.95002,340.14192l-68.69204,8.03357l49.66116,-16.06714l58.03834,20.7019l-52.33493,-22.09232l-75.57759,13.67252l73.908,-17.22583l70.40548,24.02347" data-paper-data="{&quot;index&quot;:null}" fill="none" stroke="#004c02" stroke-width="6" stroke-linecap="round"/><text transform="translate(-33.49195,52.17316) scale(0.65001,0.65001)" font-size="40" xml:space="preserve" fill="#f2f2f2" fill-rule="nonzero" stroke="none" stroke-width="1" stroke-linecap="butt" stroke-linejoin="miter" stroke-miterlimit="10" stroke-dasharray="" stroke-dashoffset="0" font-family="Curly" font-weight="normal" text-anchor="start" style="mix-blend-mode: normal"><tspan x="0" dy="0"> </tspan></text><path d="M-35.95166,39.34763c0.05041,1.26599 -0.22481,2.84422 -1.47395,4.22271c-2.59415,2.86278 -4.20043,-0.86144 -4.20043,-0.86144l-0.17934,-5.99623c3.12835,-6.94972 6.24309,-14.23461 9.15263,-21.41069c0.70406,-1.73646 1.03745,-3.85383 1.97585,-5.32034c1.24762,-1.94973 3.22416,-8.19728 4.85376,-9.47559c0,0 3.13325,-3.57216 4.29121,0.57203c1.15796,4.14419 -1.49621,8.4935 -1.49621,8.4935c-1.82074,1.4245 -2.01654,4.20283 -3.43307,6.51405c-1.40247,2.28829 -1.95253,5.48097 -3.10796,8.06235c-2.24203,5.00895 -4.21524,10.16426 -6.3825,15.19965z" data-paper-data="{&quot;index&quot;:null}" fill="#49ffff" stroke="none" stroke-width="0.5" stroke-linecap="butt"/><path d="M-28.19006,44.0974c-2.25565,-1.50376 -0.75189,-3.75944 -0.75189,-3.75944l1.31616,-1.91575c1.6171,-5.97056 2.59139,-11.83631 7.00832,-16.37033c0,0 1.91695,-1.91695 3.83388,0c1.91695,1.91695 0,3.83388 0,3.83388c-3.84494,3.7088 -4.43372,9.80036 -5.92102,14.81222l-1.72604,2.64754c0,0 -1.50379,2.25565 -3.75944,0.75189z" fill="#49ffff" stroke="none" stroke-width="0.5" stroke-linecap="butt"/><path d="M-7.24321,27.01102c0,1.05969 -0.41422,1.70516 -0.91884,2.09832c-1.86946,5.35233 -5.13709,9.5024 -8.28279,14.23618c0,0 -1.50378,2.25565 -3.75944,0.75189c-2.25565,-1.50376 -0.75189,-3.75944 -0.75189,-3.75944c3.0829,-4.61097 6.50282,-8.61315 8.01505,-14.0717l2.98693,-1.9662c0,0 2.71097,-0.00001 2.71097,2.71097z" fill="#49ffff" stroke="none" stroke-width="0.5" stroke-linecap="butt"/><path d="M-6.15143,43.79215c-1.61412,0 -2.26719,-0.96106 -2.53142,-1.73874c-0.11599,-0.3018 -0.17954,-0.62958 -0.17954,-0.97223v-1.5211c0.02253,-2.93903 -0.27543,-4.06018 1.01092,-6.842c1.38754,-3.00067 6.10489,-4.47625 4.15185,-7.68137c0,0 -1.06791,-2.49176 1.42388,-3.55967c2.49177,-1.06791 3.55968,1.42386 3.55968,1.42386c0.45295,1.26983 1.47748,2.4665 1.35884,3.80945c-0.43587,4.9343 -3.91374,4.67596 -5.57305,8.28348c-0.78809,1.71342 -0.52903,2.64918 -0.51019,4.56624v1.5211c0,0.34263 -0.06357,0.67043 -0.17954,0.97223c-0.26423,0.77768 -0.91729,1.73874 -2.53141,1.73874z" fill="#49ffff" stroke="none" stroke-width="0.5" stroke-linecap="butt"/><path d="M152.3742,9.13809c0,-1.49722 1.21374,-2.71097 2.71097,-2.71097c1.49722,0 2.71097,1.21374 2.71097,2.71097c0,1.49722 -1.21374,2.71097 -2.71097,2.71097c-0.28664,0 -0.56291,-0.04449 -0.82224,-0.12693l-2.16843,0.63236l0.52305,-2.09223c-0.15626,-0.34248 -0.24334,-0.72314 -0.24334,-1.12416z" fill="#49ffff" stroke="none" stroke-width="0.5" stroke-linecap="butt"/><path d="M176.92646,17.68437c-0.12358,-0.13473 -0.86551,-1.01699 0.01674,-1.89924c0.95847,-0.95847 1.91695,0 1.91695,0l0.77728,1.33875c0,1.01407 0,2.02814 0,3.0422c0,9.82841 -6.8659,21.92785 -16.99828,24.51179c0,0 -1.31501,0.32875 -1.64376,-0.98627c-0.04246,-0.16985 -0.0575,-0.32323 -0.05149,-0.46158c-0.93039,-0.33406 -1.37494,-0.92739 -1.57381,-1.51802c-1.53118,0.48032 -3.06902,1.02397 -4.43736,1.72146c-0.00126,0.00065 -0.00191,0.00096 -0.00191,0.00096c0,0 -0.01466,0.00733 -0.04159,0.01879l-1.05931,0.47826c-0.25495,0.05099 -0.50989,0.10199 -0.76485,0.15297c-0.1825,0.40013 -0.50573,0.79801 -1.03941,1.1538c-2.25566,1.50376 -3.75943,-0.75189 -3.75943,-0.75189l-1.11155,-1.89984c-0.11634,-0.53455 -0.31529,-1.06636 -0.49295,-1.59887c-0.71913,1.01882 -1.74124,2.04554 -2.73088,2.99696l-0.5495,1.09902c-0.21734,0.45849 -0.68439,0.77556 -1.22551,0.77556c-0.07986,0 -0.15813,-0.0069 -0.23421,-0.02016c-0.25807,0.49538 -0.73205,0.95706 -1.57044,1.23652c-2.57185,0.85728 -3.42913,-1.71456 -3.42913,-1.71456l-0.49845,-1.66186c-0.27386,-2.28438 -0.59027,-3.76741 -0.36675,-5.70015c-0.77929,0.37819 -1.56052,0.76491 -2.33649,1.20609c-1.05619,0.60049 -3.05163,1.57424 -3.91571,2.45436c-0.88445,0.90086 -0.4371,1.57763 -1.69874,2.43118c-1.40769,0.95235 -3.49499,1.03528 -5.32734,1.02341c-1.39073,0.70219 -2.78418,-0.3429 -2.78418,-0.3429l-2.58455,-2.97335c-0.07479,-0.75025 -0.26237,-1.5034 -0.36005,-2.25425c-0.0033,0.00525 -0.00512,0.00796 -0.00512,0.00796l-0.9299,1.34741c-1.30981,0.8995 -2.69334,1.5698 -4.00934,2.451c0,0 -0.52778,0.35186 -1.10196,0.21312c-0.06932,0.17941 -0.14079,0.35327 -0.21483,0.52062l-0.22757,1.07758c0,0 -0.65751,2.63001 -3.28752,1.97251c-2.63003,-0.65751 -1.97251,-3.28752 -1.97251,-3.28752l0.53299,-1.96462c1.20295,-2.69309 1.72701,-6.40417 3.13198,-8.92943c0.58553,-1.05242 1.71358,-1.7254 2.33522,-2.75691c1.14522,-1.90029 1.78678,-4.0668 2.80955,-6.0349c-1.15028,0.38002 -2.39902,0.64851 -3.49437,0.851c-0.03046,0.0526 -0.0494,0.08102 -0.0494,0.08102c-3.91513,5.86496 -5.99894,12.68228 -10.44047,18.10467l-0.32609,1.17269c0,0 -1.00683,2.51706 -3.5239,1.51024c-2.51706,-1.00682 -1.51024,-3.5239 -1.51024,-3.5239l1.195,-2.63005c0.95979,-1.12628 1.71014,-2.30683 2.35869,-3.52697c-2.2208,2.97376 -4.61414,5.91882 -7.88003,7.08894c-0.43146,0.7016 -1.38784,1.70985 -3.14046,1.12565c-2.57185,-0.85728 -1.71457,-3.42913 -1.71457,-3.42913l0.38603,-1.14443c-0.22115,0.25693 -0.4702,0.51558 -0.76476,0.77418c-1.03844,0.9117 -3.18132,1.81379 -4.429,2.43991c0,0 -0.75116,0.37557 -1.36659,-0.05578c-0.14142,0.50656 -0.47977,1.02697 -1.15831,1.47934c-2.25566,1.50376 -3.75943,-0.75189 -3.75943,-0.75189l-1.10063,-2.74562c-2.57951,2.40771 -4.97764,4.062 -8.92696,4.85267c0,0 -1.32916,0.26583 -1.595,-1.06333c-0.02841,-0.14203 -0.0386,-0.27191 -0.03415,-0.39063c-0.96738,-0.79298 -0.96738,-2.15685 -0.96738,-2.15685l0.01373,-1.96607c-1.98776,0.8394 -4.11871,1.38742 -6.00062,2.37395c-0.00901,0.28516 -0.1606,2.68335 -2.71039,2.68335c-2.71097,0 -2.71097,-2.71097 -2.71097,-2.71097v-0.76055c0.01063,-6.518 1.80015,-10.744 5.91725,-15.06014c-0.46297,-0.09677 -0.91388,-0.20876 -1.33708,-0.34462c-1.61591,2.10664 -2.86997,4.54242 -4.74044,6.50232c-4.87809,5.11126 -12.74408,6.14415 -18.37143,10.36711c0,0 -0.83513,0.62636 -1.58929,0.04681c-1.77049,1.29703 -3.42259,-0.35507 -3.42259,-0.35507l-1.17429,-2.29722c0,-4.08369 -0.22246,-6.32363 1.97641,-9.86982c0,0 1.1708,-1.75622 2.99589,-1.13628l0.19048,-0.70949c1.71847,-3.78587 3.65823,-5.21266 7.00045,-7.60278c0,0 2.206,-1.57572 3.78172,0.63028c0.51552,0.72173 0.62625,1.37596 0.5419,1.92966c2.22973,3.72417 1.13856,7.58279 -2.22418,10.54323c-1.31535,1.15799 -3.86803,3.57477 -5.95608,2.91621c-0.45611,-0.14385 -1.78321,-2.22865 -2.16015,-2.79405l-0.03327,-0.22096c-1.0504,1.72118 -0.8043,3.24773 -0.71571,5.28552c0.11388,0.18156 0.23131,0.40516 0.31935,0.65983c3.72226,-2.41103 8.01507,-3.63629 11.41258,-6.05479c1.71829,-1.22316 4.07656,-1.71241 5.56518,-3.30756c1.63868,-1.75594 2.75651,-4.00733 4.21184,-5.88779c-0.60675,-0.41548 -1.2724,-0.8445 -1.21334,-1.49356c0.16586,-1.82271 3.85899,-3.17111 5.0858,-1.59474c0.35025,0.45006 0.24863,1.03315 0.07719,1.63675c0.89506,0.22066 1.82974,0.48073 2.75322,0.73543c0.66701,-0.20626 1.54243,-0.21593 2.39863,0.55037c0.38164,0.0639 1.14244,0.31859 1.14244,1.3341c0,0.23515 -0.04079,0.42948 -0.10823,0.59013c0.0717,1.2616 -0.95482,2.18545 -0.95482,2.18545c-3.79314,3.31914 -5.49659,6.20451 -5.86781,10.69418c2.10564,-0.82387 4.34422,-1.40938 6.24537,-2.59454c1.13228,-6.47018 3.69757,-13.23737 7.23246,-19.39765c-0.7321,-0.00597 -1.46483,-0.00926 -2.19833,-0.00926c0,0 -1.35548,0 -1.35548,-1.35548c0,-1.35548 1.35548,-1.35548 1.35548,-1.35548c1.27903,0 2.55568,0.01001 3.83076,0.02675c3.08646,-4.82641 6.76364,-9.16716 10.78555,-12.54242c0,0 2.08262,-1.73553 3.81813,0.3471c1.73552,2.08262 -0.34709,3.81813 -0.34709,3.81813c-2.2708,1.87666 -3.52034,3.67456 -5.26741,6.004c-0.62532,0.83376 -1.24263,1.67227 -1.84841,2.51682c4.19381,0.10117 8.38631,0.20987 12.60553,0.20987h0.76055c0,0 1.35548,0 1.35548,1.35548c0,0.10076 -0.00749,0.19403 -0.02135,0.28036c0.57878,0.02358 1.22102,0.26993 1.8361,0.96437c0.42256,0.47707 0.63361,0.94133 0.70927,1.37242c0.30487,-0.41061 1.07007,-1.24627 2.22312,-1.2013c-0.0851,-0.76252 -0.10823,-1.53332 -0.07249,-2.29737c0.03988,-0.85277 -1.52854,0.77104 -2.23605,1.24878c0,0 -1.12783,0.7519 -1.87971,-0.37594c-0.75189,-1.12784 0.37594,-1.87973 0.37594,-1.87973c1.8421,-1.21528 4.44027,-3.06049 6.13,-0.27231c0.72699,1.1996 0.23422,2.80207 0.51435,4.17651l0.02633,1.02639c0,0 -0.00001,0.32737 -0.16089,0.66035c0.12553,0.97246 -0.36191,1.82549 -0.36191,1.82549c-1.34263,2.34959 -3.39772,4.89302 -4.43785,7.35722c-1.35065,3.19982 -2.37523,6.54661 -3.68088,9.8124c0.99637,-0.95524 1.52394,-2.22709 2.81533,-3.78272c1.49098,-1.79606 3.15001,-3.50488 4.6678,-5.29052c1.27174,-1.49617 2.63302,-2.5467 3.05123,-4.44629l0.48292,-1.03799c0,0 0.56189,-1.1238 1.68567,-0.66649c0.49878,-0.72685 0.99304,-1.44006 1.45406,-2.13246c0,0 1.50376,-2.25565 3.75943,-0.75187c0.3792,0.2528 0.65215,0.52683 0.84386,0.80784c1.59462,-0.44943 3.10421,-1.06025 4.71084,-1.69377c0.72028,-0.28401 1.39537,-1.03575 2.15235,-0.8732c3.27564,0.70331 2.51577,2.40115 1.45139,3.99847c0.94129,1.2922 0.07365,2.85398 0.07365,2.85398c-1.17244,2.10047 -1.84425,4.46221 -3.07806,6.52724c-0.58112,0.97263 -1.6519,1.59134 -2.22806,2.56693c-0.73964,1.25242 -1.23279,2.99174 -1.70987,4.7111c0.72447,-0.40855 1.45595,-0.79926 2.16661,-1.24957l0.59119,-0.93424c0,0 0.75187,-1.12783 1.87971,-0.37594c0.15863,0.10574 0.28006,0.21893 0.37165,0.33538c0.84212,-5.38025 7.24253,-10.68723 10.47154,-14.61819c0,0 1.52433,-1.85569 3.45018,-0.63925c1.75712,-0.71898 4.15144,-1.37298 5.21784,-0.80566c3.68291,1.95929 -0.40608,7.07062 -2.39882,8.47652l-1.14083,0.76056c0,0 -1.12784,0.75189 -1.87973,-0.37595c-0.75189,-1.12783 0.37595,-1.87971 0.37595,-1.87971l1.14081,-0.76056c1.21864,-0.73656 1.4278,-1.82346 2.24144,-2.975c0.19059,-0.26975 0.95977,-0.89843 0.68359,-0.71728c-0.91234,0.5984 -1.8759,0.57028 -2.84657,0.74987c-0.08549,0.9156 -0.65422,1.60797 -0.65422,1.60797c-3.22198,3.92241 -9.82302,8.80042 -8.91167,14.2948l0.45764,-0.69168c0,0 1.04699,0.78523 1.14047,1.992c0.82676,-0.05031 1.60697,-0.196 2.15625,-0.55093c1.0664,-0.68907 1.41739,-2.31298 2.7624,-3.10657c2.47535,-1.46052 5.07659,-2.66668 7.55566,-4.11168c2.0385,-5.7375 7.03547,-10.16735 10.81637,-14.70465c0,0 1.7355,-2.08263 3.81813,-0.34712c2.08262,1.73552 0.3471,3.81813 0.3471,3.81813c-4.64449,5.57314 -10.15355,10.22167 -10.1751,17.5401c0.20708,0.21765 0.41416,0.4353 0.62122,0.65294c0.50262,-0.95287 1.84881,-1.69414 2.48896,-2.72349c0.58884,-0.94682 0.35767,-3.12726 0.62508,-4.22421l-0.04048,-0.05152c0,0 0,-1.35548 1.35548,-1.35548c1.35548,0 1.35548,1.35548 1.35548,1.35548l-0.03284,0.57533c0.57507,-0.79337 1.19354,-1.56958 1.69512,-2.38085c3.5054,-5.66973 7.28766,-10.55019 13.2625,-13.54859c0,0 2.42476,-1.21238 3.63715,1.21238c0.11115,0.2223 0.19173,0.43441 0.2464,0.63633c0.40631,0.01834 0.81274,0.05015 1.21755,0.0963c0.59225,-0.53783 1.87574,-1.34261 3.44199,-0.16792c2.16877,1.62657 0.5422,3.79535 0.5422,3.79535c-3.10946,4.03045 -4.80292,9.3858 -6.83967,14.1123l-0.61258,2.16113c7.46007,-3.49858 12.29404,-13.27151 12.29404,-20.9422c0,-0.82724 0,-1.65447 0,-2.48171zM166.11314,23.8032c0,0 -0.07847,0 -0.19765,-0.01888c-0.27294,0.21841 -0.49134,0.3276 -0.49134,0.3276c-5.03023,2.50493 -8.12069,6.72405 -11.0751,11.54955c-1.31629,2.14992 -2.99046,3.23842 -1.98109,5.43551l0.31989,0.29822c0.20346,-0.04069 0.40692,-0.08138 0.61037,-0.12207l0.24868,-0.15594c0.09981,-0.0717 0.17152,-0.10755 0.17152,-0.10755c0.00044,-0.00021 0.00086,-0.00043 0.00129,-0.00064c1.79253,-0.88192 3.92158,-1.69684 5.9059,-2.10307l0.51071,-1.77509c1.90873,-4.47521 3.6095,-9.19353 6.12872,-13.32846c-0.05066,0.0003 -0.1013,0.00057 -0.15192,0.00082zM79.5648,40.62937c1.10995,-0.55273 3.00814,-1.31418 3.93705,-2.12339c1.38767,-1.20883 1.75745,-2.66796 3.31617,-3.70711l0.59119,-0.93424c0,0 0.3844,-0.57659 1.01578,-0.63039c0.69272,-1.9578 1.37658,-3.91097 2.19612,-5.79886c0.64271,-1.48054 1.59017,-2.98328 2.55204,-4.46234c-6.21064,5.22126 -13.51336,9.9031 -14.49516,18.4444l0.32619,-0.6992c0,0 0.05862,0.08793 0.13536,0.24065c0.20558,-0.21969 0.42527,-0.32953 0.42527,-0.32953zM74.46687,35.92296c0.01157,0 0.02305,0.00009 0.03442,0.0003c2.87353,-7.60929 9.65439,-12.23224 16.03259,-17.82434c-4.74533,-0.00543 -9.45766,-0.14515 -14.17676,-0.25362c-4.50241,6.68978 -8.08332,13.83107 -9.08738,22.05106l0.01979,2.19786c2.34286,-1.11008 4.00183,-2.79665 6.21887,-5.01369l-0.39701,0.19793c0,0 0,-1.35548 1.35548,-1.35548zM35.02677,34.87333c0.51103,0.23028 0.92762,-0.63048 1.37307,-0.97072c0.60959,-0.46561 1.21836,-0.93389 1.79745,-1.43693c2.07053,-1.79862 3.08163,-3.96894 2.19945,-6.20822c-2.12959,1.47102 -3.49392,2.26368 -4.5078,4.86366l-0.24202,1.1107c0,0 -0.27738,1.10953 -1.19249,1.70711c0.10813,0.39903 0.22718,0.77885 0.57234,0.9344z" fill="#49ffff" stroke="none" stroke-width="0.5" stroke-linecap="butt"/><path d="M-23.79845,28.84083c1.21238,0.6062 0.60618,1.81857 0.60618,1.81857l-0.46482,0.90624c-1.18102,1.74901 -1.71234,3.79629 -3.12177,5.43132c-2.6134,3.03172 -6.48393,5.66108 -9.80325,7.87396c0,0 -1.12783,0.7519 -1.87971,-0.37594c-0.75189,-1.12783 0.37595,-1.87973 0.37595,-1.87973c3.08254,-2.05502 6.80045,-4.50514 9.21051,-7.33703c1.32748,-1.55983 1.84988,-3.5297 2.96262,-5.21638l0.29573,-0.61485c0,0 0.6062,-1.21238 1.81857,-0.6062z" fill="#49ffff" stroke="none" stroke-width="0.5" stroke-linecap="butt"/><path d="M10.59522,43.34631c-0.57919,-1.71283 1.02077,-2.91279 1.02077,-2.91279l1.6439,-1.22771c5.80441,-3.85361 7.01737,-7.59748 7.14645,-13.93271c-0.19738,0.16686 -0.39691,0.33503 -0.60029,0.50451c-2.08101,1.73418 -4.26002,3.32828 -6.58266,4.71538c-1.22894,3.0331 -1.93447,6.40855 -3.18663,9.35905c-0.59723,1.40724 -1.19758,2.8061 -1.79476,4.20177c0.68039,0.06837 1.53928,-0.27675 2.35322,-0.70749zM2.99542,42.18919c-1.53867,1.00299 -2.42662,0.4386 -4.03767,0.61761c-1.28219,0.14247 -2.47559,1.04774 -3.84741,0.23005c-2.93786,-1.75113 -0.71746,-5.01863 0.16054,-7.06732c0.28932,-0.67508 0.33455,-1.71176 0.6762,-2.27645c0.12829,-2.58342 0.72975,-4.54784 2.64714,-6.4997c0.0838,-0.08531 2.66159,-3.02664 2.28165,-3.02664c-0.28351,0 -0.71425,0.0182 -1.2064,0.05593c0.06313,0.15653 0.09788,0.32756 0.09788,0.50671c0,0.64508 -0.45061,1.18491 -1.05423,1.32189l-1.38449,0.34612c-1.90158,0.96601 -3.63456,2.08953 -5.67889,2.6531c-0.26974,0.11301 -0.62521,0.17134 -1.00352,-0.01368c-0.04926,-0.01807 -0.09845,-0.03961 -0.14697,-0.0652l-0.44667,0.29778c-0.21818,0.15009 -0.48247,0.23794 -0.76731,0.23794c-0.74861,0 -1.35548,-0.60687 -1.35548,-1.35548c0,-0.4491 0.21841,-0.8472 0.55481,-1.09386l1.50849,-1.13136l0.11466,0.15288c0.07567,-0.02617 0.151,-0.0526 0.22597,-0.07927c0.13932,-0.15482 0.28131,-0.30676 0.42594,-0.45556c0.03593,-0.31408 0.04846,-0.62674 -0.00755,-0.93627c-0.0822,-0.45422 -2.36368,0.18599 -2.43956,0.21974c-2.16245,0.96193 -4.29478,2.8429 -6.29464,4.09287c0,0 -1.14944,0.71841 -1.86784,-0.43104c-0.71841,-1.14946 0.43104,-1.86784 0.43104,-1.86784c2.55001,-1.59368 9.80511,-7.9822 12.5612,-3.2929c0.02274,0.03869 0.04235,0.10906 0.05929,0.20423c1.62942,-1.03903 3.49483,-1.67404 5.59056,-1.68067c0.82279,-0.0026 3.55512,-0.07586 4.00067,0.39701c2.19321,2.32768 -0.91759,5.52578 -2.28165,6.86053c-0.62729,0.61381 -0.92903,1.70576 -1.4839,2.39677c0.43929,0.22423 0.74008,0.68101 0.74008,1.20806c0,0.28482 -0.08784,0.54914 -0.23793,0.76731l-0.75026,1.12539l-0.06889,-0.04593c-0.29123,0.84978 -0.60956,1.68628 -0.96016,2.50433c-0.06101,0.14235 -1.73115,3.56765 -1.36055,3.58039c0.92209,0.03171 4.38537,-0.2102 5.04425,-0.67345c0.70325,-0.49443 1.44026,-2.3751 1.95593,-3.09737c1.32437,-1.85495 2.5065,-4.05848 4.0798,-5.76338c1.23011,-3.53036 2.59306,-6.91062 5.37721,-9.82112c0,0 1.91695,-1.91695 3.83388,0c0.96488,0.96488 0.95843,1.92978 0.71402,2.65019c1.47767,-1.16933 2.97341,-2.33004 4.59848,-3.3792c1.38165,-0.892 3.68076,-2.60262 5.51756,-0.97445c0.27545,0.24417 0.54654,3.94225 0.36075,4.69237c-0.40285,1.62642 -1.1921,2.99248 -2.03447,4.32696c-0.00378,0.97397 -0.01056,1.73624 -0.02246,1.82203c-0.54922,3.95943 -2.36995,7.01679 -4.91359,9.56515c-0.2722,0.45407 -0.59638,0.88539 -0.99573,1.28474c-0.91027,0.91027 -2.07596,1.62241 -3.32639,2.22777c-0.1033,0.07041 -0.20708,0.14049 -0.31133,0.21025l-1.39829,1.05395c0,0 -1.20533,0.90399 -2.49277,0.46556c-0.43085,0.16836 -0.84908,0.33595 -1.24737,0.50664c-1.12048,0.4802 -2.23189,1.38705 -3.44163,1.23682c-0.21531,-0.02674 -0.41175,-0.10933 -0.59892,-0.21942c-2.37087,5.59733 -4.6236,11.19783 -6.34593,17.13903c-0.00066,0.08304 -0.04286,2.70896 -2.71095,2.70896c-2.71097,0 -2.71097,-2.71097 -2.71097,-2.71097l0.10431,-1.12504c2.05625,-7.19315 4.82954,-13.93173 7.74383,-20.70128c-0.05699,0.04035 -0.11475,0.07964 -0.17333,0.11782zM25.59374,21.50482c-0.0667,-0.21566 -0.38974,0.22804 -0.58108,0.34783c-0.01782,0.01115 -0.03565,0.02231 -0.0535,0.03344c0.22632,0.20558 0.39451,0.44288 0.51955,0.68205c0.12221,-0.4475 0.18339,-0.84225 0.11503,-1.06332zM0.66727,64.16071c-0.00969,0.03381 -0.01937,0.06763 -0.02903,0.10145z" fill="#49ffff" stroke="none" stroke-width="0.5" stroke-linecap="butt"/><path d="M222.39384,42.65133c-0.96623,0 -1.58808,-0.34437 -1.98829,-0.78765c-0.23974,0.09286 -0.4706,0.20181 -0.6823,0.34535c-1.96488,1.33227 -6.41311,4.86971 -9.07,3.06742c-0.75302,-0.51081 -0.91144,-1.57515 -1.36716,-2.36272c-0.0127,-0.97301 0.03644,-2.17242 0.20067,-3.36591c-0.9091,1.02672 -1.56531,2.41859 -2.48627,3.25242c-1.33372,1.2075 -2.55537,1.54259 -3.52921,1.2906c-0.3599,0.10135 -0.78825,0.1296 -1.29741,0.04475c-2.67407,-0.44568 -2.2284,-3.11977 -2.2284,-3.11977l0.25227,-1.48233c-1.73143,1.71962 -3.81941,3.15629 -6.06818,3.63931c-1.01979,0.21904 -1.89264,0.2066 -2.62082,0.001c-0.40005,0.35867 -0.97943,0.61839 -1.81853,0.61839c-2.71097,0 -2.71097,-2.71097 -2.71097,-2.71097l0.1043,-1.12503c0.96232,-3.3286 1.80009,-6.61947 3.33497,-9.64663c0.02634,-0.58095 0.09819,-1.14662 0.35823,-1.65646c0.39012,-0.76484 1.14171,-1.41485 2.007,-2.00327c0.20118,-0.24557 0.41058,-0.4883 0.62879,-0.72805c2.00233,-2.2001 4.12213,-2.75882 5.81053,-5.35808c0,0 1.50378,-2.25565 3.75944,-0.75189c0.03852,0.02568 0.07593,0.05158 0.1123,0.07769c1.19064,0.18481 2.29004,0.93061 3.26407,1.78178c2.60635,-5.64929 5.71562,-11.06795 9.21603,-16.31858c0,0 1.50379,-2.25565 3.75944,-0.75189c2.25566,1.50376 0.75187,3.75943 0.75187,3.75943c-6.49724,9.74585 -11.61814,20.05285 -14.45635,31.47711l-0.02426,0.14927c1.05569,-1.14538 2.24079,-2.67804 2.61011,-2.98827c0.04286,-0.036 1.46025,-0.77115 2.40952,-1.25078c0.27692,-0.4745 0.61702,-0.92554 0.98486,-1.36825c-0.0563,-0.12199 -0.08688,-0.24575 -0.0587,-0.37439c0.24816,-1.13266 1.45843,-1.80875 2.2785,-2.62851c0.22711,-0.22703 0.45117,-0.4672 0.67325,-0.71748c0.02994,-0.05859 0.05992,-0.11714 0.08995,-0.17564c0.03361,-0.07194 0.06579,-0.14455 0.09649,-0.21787c0.73929,-1.76618 1.74352,-3.42995 2.95233,-4.82107c0.84571,-1.1129 1.82511,-2.17809 3.01643,-3.17787c0,0 1.29668,-1.08057 2.69637,-0.51327c1.60533,-0.36695 3.3299,-0.25957 5.11747,0.48081c0.43648,0.0014 0.87625,0.00551 1.32093,0.00891l0.15455,-0.03865c0.0256,-0.04003 0.05149,-0.07986 0.0777,-0.1195c0,0 1.50376,-2.25565 3.75943,-0.75187c2.25566,1.50376 0.75189,3.75943 0.75189,3.75943c-1.04882,1.55783 -1.58145,3.43126 -2.67273,4.95965c-2.07462,2.9056 -4.33222,4.69208 -6.02347,7.54498c-0.10934,1.48565 -0.13442,2.98704 -0.09656,4.17117c0.01823,0.57016 0.97224,-0.60963 1.50352,-0.81737c1.86063,-0.72759 3.77539,-1.45889 5.62605,-2.24997c1.51581,-0.64796 3.10981,-1.56615 4.55653,-2.40332c0.64192,-0.8899 0.48786,-2.42327 0.76122,-3.53077c0.74487,-3.01773 3.08199,-7.48233 2.32572,-10.58394c-0.32416,-0.13185 -0.58577,-0.38554 -0.72801,-0.7042c-0.18172,-0.36835 -0.29109,-0.93936 0.27993,-1.51037c0.571,-0.571 1.14202,-0.46166 1.51037,-0.27993c0.24358,0.10872 0.44921,0.2872 0.59147,0.51005l0.9322,1.16016c0.7144,3.14095 -0.64127,5.72415 -1.53682,8.70077c-0.84702,2.81533 -0.6782,5.75558 -2.26527,8.20025c-3.47089,2.1345 -7.32596,3.86042 -11.11281,5.23386c-1.65365,0.59976 -2.71518,1.94722 -4.58088,-0.05682c-0.22645,-0.24326 -0.30298,-0.55868 -0.31991,-0.90119c-0.25909,0.07387 -0.55513,0.11605 -0.89334,0.11605zM219.90206,37.35136c1.88888,-4.36376 4.82025,-6.6282 7.47214,-10.33908c0.41249,-0.57721 0.74592,-1.20315 1.05736,-1.84284c-0.14993,-0.086 -0.30314,-0.16543 -0.45919,-0.23833c-0.97895,0.00212 -1.94952,0.02315 -2.92305,0.1213c-0.27181,0.83921 -0.91997,1.37933 -0.91997,1.37933c-4.63514,3.83063 -5.75892,9.34849 -8.98673,14.25187l-0.40508,1.49061c1.6194,-0.66377 3.43503,-1.74975 4.98248,-2.67246zM203.73438,23.57121c-1.84841,2.71948 -4.30893,3.79226 -6.35827,6.05018c-2.92443,3.22207 -3.76481,7.01186 -4.83669,10.94857c0.76767,0.08975 1.78844,-0.26627 2.60414,-0.68841c2.1969,-1.1369 3.94964,-2.90274 5.33166,-4.88128c-0.0094,-0.27569 0.08184,-0.50681 0.20185,-0.68938c0.12363,-0.24331 0.33533,-0.48523 0.69783,-0.60028c0.14678,-0.08697 0.2895,-0.17587 0.42831,-0.26663c0.98238,-3.13512 2.12322,-6.19547 3.4065,-9.19002c-0.38136,-0.38042 -0.82057,-0.79198 -1.24771,-1.1223c-0.11651,0.2729 -0.22761,0.43955 -0.22761,0.43955z" fill="#49ffff" stroke="none" stroke-width="0.5" stroke-linecap="butt"/><path d="M278.90218,-4.99962c0.49685,-0.50469 1.03907,-0.97878 1.64173,-1.41236c2.53804,-1.82604 5.70392,-2.63897 8.22997,-4.32301c4.39586,-1.13239 9.80735,-5.71722 14.54968,-4.26263c3.20888,0.98424 2.79193,2.82639 2.14442,5.45073c-1.11804,4.53133 -2.88417,8.65336 -5.49347,12.56489c-5.83359,9.72266 -18.78898,17.86513 -30.37505,15.04063c-0.70942,-0.18091 -1.38952,-0.46287 -2.05477,-0.78191c-0.37613,0.98212 -0.45035,1.91956 -0.94017,3.05746c-0.80714,1.87505 -2.15403,3.56107 -3.05789,5.35802c-1.6208,3.22234 -1.71312,6.75567 -2.16024,10.23077c-0.40342,3.13542 -0.19938,5.78373 2.62552,7.72138c1.22836,0.29627 3.36573,-0.1605 4.40773,0.32256c1.33821,0.62037 8.29541,1.28485 8.31585,2.10081c0.01574,0.62892 -6.60377,1.34783 -7.54754,2.20587c-1.90198,1.72922 -6.18787,0.26074 -8.38632,0.2475c-0.99117,-0.00597 -2.01476,0.21584 -2.97335,-0.03627c-0.87999,-0.23144 0.13603,-2.03375 -0.39191,-2.77486c-0.4477,-0.62845 -0.92909,-1.88361 -1.03692,-2.74457c-0.48259,-3.85359 -0.78536,-7.04016 -0.78536,-10.91205c0.12565,-6.35035 2.86803,-11.40702 6.14869,-16.73683c-0.05286,-0.02127 -0.10386,-0.04814 -0.15267,-0.08177c-0.62553,-0.43094 -0.75202,-1.32279 -1.18971,-1.94361c-2.40567,-3.41219 -4.07601,-8.18391 -2.81746,-12.53158c0.86985,-3.00495 4.74298,-5.73035 6.80352,-7.79089c0,0 0.95847,-0.95847 1.91695,0c0.95847,0.95847 0,1.91695 0,1.91695c-1.64567,1.64566 -5.4447,4.2182 -6.12582,6.65954c-1.06306,3.8103 0.65224,7.2823 2.50637,10.28491c0.20097,0.32546 0.0067,0.89642 0.3314,1.09859c0.0155,0.00965 0.03124,0.01791 0.04724,0.0249c2.40717,-4.85634 5.51955,-9.34916 9.47779,-13.33741c2.21737,-2.10962 3.58489,-2.82144 6.12283,-4.5352zM268.54669,14.80476c0.55339,0.25786 1.11982,0.47978 1.71026,0.62382c10.41681,2.68451 22.23153,-5.20159 27.42675,-13.86028c2.11184,-3.16962 3.88476,-6.58838 4.77396,-10.25161c0.09026,-0.37183 1.1323,-3.17883 0.92251,-3.52193c-0.24174,-0.39536 -2.94327,-0.31447 -3.39774,-0.17585c-3.41364,1.04123 -6.56241,3.26785 -10.11186,4.12531c-2.3766,1.5844 -5.34185,2.3443 -7.74158,4.04305c-0.06058,0.04289 -0.12052,0.08627 -0.17983,0.13014c-0.0123,0.88621 -0.94463,1.19697 -0.94463,1.19697l-0.57273,0.15564c-2.47548,2.61997 -3.73876,6.1584 -6.03289,8.92467c-0.55108,0.66449 -1.10621,1.31678 -1.64856,1.97096c-1.69945,2.04988 -3.27346,4.11841 -4.20367,6.6391z" fill="#49ffff" stroke="none" stroke-width="0.5" stroke-linecap="butt"/><path d="M418.79257,26.51045c1.25854,0.50342 0.75512,1.76195 0.75512,1.76195l-0.52233,1.29053c-1.10575,4.76158 -5.45907,4.82676 -9.10896,6.72284c-0.57979,0.30121 -1.08356,0.73655 -1.56646,1.20953c-2.09598,3.9313 -4.86225,5.69822 -9.98395,7.06861c-2.53912,0.67937 -7.38478,0.36676 -8.37117,-2.79709c-0.06102,-0.19574 -0.0893,-0.40848 -0.0888,-0.63408c-2.17567,1.79281 -4.48577,3.51816 -6.33285,0.75649c-0.84078,-1.25709 0.0462,-4.13176 0.51694,-5.33274c1.36852,-3.4916 2.85804,-7.28792 4.91992,-10.38847c0.34467,-0.5183 0.7367,-1.32948 1.17483,-2.07882c-0.70875,0.17269 -1.44401,0.16381 -2.21763,-0.26554c-0.61731,-0.34262 -0.5231,-1.89712 -1.21088,-1.73774c-2.10679,0.48822 -3.58301,1.76192 -5.30583,3.04703c-1.49986,1.50268 -3.4306,3.43247 -4.49019,5.26649c-1.49196,2.58238 -2.30612,6.26587 -4.42459,8.43871c-2.34275,2.40286 -5.06807,3.33948 -7.95528,4.77175c-2.01113,0.99766 -2.74891,1.0811 -5.07506,0.69947c0,0 -1.10523,-0.1842 -1.1385,-1.22251c-0.62358,-0.40588 -0.96331,-0.97211 -0.96331,-0.97211l-0.38003,-0.79058c-2.39547,1.9798 -5.08492,3.18992 -7.31704,5.42204c0,0 -0.95847,0.95847 -1.91695,0c-0.95847,-0.95847 0,-1.91695 0,-1.91695c2.44833,-2.44833 5.34036,-3.6834 7.91017,-5.93862c0.13332,-0.117 0.26219,-0.24023 0.3872,-0.36887c-0.24065,-2.73142 -0.36556,-5.46247 -0.34102,-8.18894c-0.70392,0.86539 -1.34971,1.75639 -1.80396,2.7411c-0.41271,0.89466 -0.51683,0.77141 -0.98876,1.6363c-1.83592,3.36463 -8.12237,6.29013 -11.46826,7.6038c-1.3937,0.17421 -3.53816,0.81858 -5.5773,0.98238c-0.27355,0.08524 -0.58974,0.13451 -0.95518,0.13451c-0.41869,0 -0.77274,-0.06468 -1.07209,-0.17403c-1.25017,-0.18617 -2.32124,-0.73448 -2.95573,-1.93075c-0.28856,-0.54404 -0.3624,-1.17806 -0.30384,-1.84724c-1.48918,1.67514 -3.45287,2.75387 -5.30053,4.03541c-0.73468,0.50958 -1.25408,1.49991 -2.14056,1.61641c-1.01894,0.13389 -2.34018,-0.11035 -2.93316,-0.94971c-0.24287,-0.34378 -0.08249,-1.18811 0.22092,-2.13657c-0.17225,-0.3997 0.67423,-0.88322 0.5983,-1.46034c-0.31293,-2.37888 0.28743,-3.60205 1.55656,-5.203c2.55187,-3.21909 3.15148,-7.76436 5.31869,-11.08972c-1.37158,0.97796 -2.85293,3.42821 -3.98885,4.27196c-0.40029,0.29733 -3.07126,1.23726 -3.51602,1.4001c-0.16573,-0.06796 -0.34675,-0.11951 -0.53492,-0.16337c-0.18549,0.51565 -0.37153,0.91057 -0.52786,1.10013c-0.48323,0.58601 -1.19774,1.01012 -1.96337,1.37186c-0.0072,0.03541 -0.01443,0.07085 -0.02166,0.10631c-1.30958,3.27395 -2.11685,6.68587 -3.41927,9.97118l-0.55136,1.3784c-0.19222,0.51479 -0.68843,0.88138 -1.27025,0.88138c-0.58183,0 -1.07805,-0.36658 -1.27027,-0.88138l-0.55136,-1.3784l0.07517,-0.03007c-0.07154,-0.15131 -0.13017,-0.30852 -0.17211,-0.47335c-0.2151,-0.8455 1.18709,-2.69694 1.54889,-3.41774c0.68799,-1.37069 0.84198,-2.55485 1.03946,-3.85216c-2.68855,1.55346 -5.2153,3.00762 -8.10942,3.53298c-1.20609,2.15118 -2.76866,4.02989 -5.19056,5.23277c-2.74435,1.36302 -6.07428,2.21399 -8.67877,0.47363c-0.84462,-0.56439 -1.6916,-0.92023 -2.17504,-1.61032c-4.35447,2.52772 -8.91132,4.29463 -13.73933,6.2487c0,0 -1.25852,0.50342 -1.76193,-0.75512c-0.50342,-1.25854 0.75511,-1.76195 0.75511,-1.76195c4.59282,-1.8187 8.79825,-3.55172 12.92859,-5.86975c-0.0588,-0.54533 0.28604,-1.00513 0.28604,-1.00513c0.9712,-1.29492 2.49645,-4.34318 4.54691,-4.33458c0.4168,-0.90153 0.98589,-1.75994 1.62292,-2.55095c-0.05209,-4.95823 3.81347,-8.47107 8.29098,-9.91971c1.88198,-0.6089 7.76917,-0.36238 8.93115,1.76959c0.93616,1.71764 -1.07891,4.34044 -2.00961,5.58139c-0.84922,1.70919 -1.53764,3.55549 -2.29914,5.3513c2.68677,-0.83237 5.21049,-2.37533 7.68554,-3.87298c0.4324,-0.75756 0.94645,-1.47419 1.39282,-2.22481c0.49319,-2.34453 1.36586,-5.2403 3.01299,-5.85052c0.78126,-1.00698 1.69213,-1.6727 2.65323,-1.33315c2.23363,0.78912 2.00245,2.69626 1.23237,4.14409c2.48779,-2.23511 5.33421,-5.79816 8.17633,-4.94978c2.50191,0.74682 2.89744,3.60647 2.12458,5.55535c-0.93666,2.36194 -3.29254,4.24025 -4.5057,6.47744c-1.21837,2.24678 -2.3274,4.53166 -3.64539,6.72832c-0.15832,0.39895 -0.27456,0.81701 -0.39399,1.23313c0.83987,-0.44455 1.2295,-1.44421 1.9382,-2.00302c0.90745,-0.71554 1.66279,-1.1419 2.43013,-1.44824l2.20879,-1.47254c0.21817,-0.15009 0.48249,-0.23794 0.76731,-0.23794c0.16713,0 0.32719,0.03025 0.47501,0.08557c0.19251,-0.4419 0.37564,-0.85014 0.51881,-1.20429c1.29337,-3.19955 2.88384,-6.46069 5.10931,-9.07563c0.3307,-0.7389 0.66227,-1.47858 0.99203,-2.2206c0,0 1.05194,-2.36685 3.41287,-1.44538c0.51686,-0.28304 1.05748,-0.53601 1.62355,-0.75542c0.08983,-0.00133 0.34051,-0.00688 0.66936,-0.01245c0.09204,-0.012 0.15006,-0.012 0.15006,-0.012c0.23582,0 0.75476,-0.00644 1.32545,-0.00088c0.45116,0.00135 0.86583,0.0097 1.11943,0.03132c0.52921,0.02847 0.96296,0.08002 1.08316,0.172c2.57543,1.97096 1.59004,5.78317 0.09023,7.87873l-0.40745,0.42672c0,0 -0.53845,0.53845 -1.21177,0.40462c-0.2278,0.32425 -0.44805,0.62013 -0.6491,0.87882c-0.64586,0.83103 -1.615,1.35391 -2.36228,2.09509c-1.74893,1.7347 -2.92936,4.3811 -5.26591,5.53164c-0.14409,0.43998 -0.28297,0.88236 -0.41604,1.32746l0.06039,0.48082c1.03489,-0.19271 2.05784,-0.45897 3.19838,-0.60154c2.4528,-1.00282 4.68776,-2.15745 7.19243,-3.05722c1.06509,-0.38262 2.57224,-0.78912 3.21272,-1.9007c0.44996,-0.78093 1.81491,-1.86804 2.17436,-2.69456c0.48037,-1.10458 1.7279,-3.73941 2.45537,-4.82923c0.47012,-0.70428 -0.42877,-0.66461 0.07952,-1.29362c0.12115,-1.68043 0.3063,-3.35822 0.56343,-5.03236c0,0 0.41222,-2.67944 3.09166,-2.26722c2.67944,0.41222 2.26722,3.09166 2.26722,3.09166c-0.50281,3.26254 -0.70865,6.54345 -0.68518,9.8307c2.16378,-2.35531 4.58662,-4.42072 6.56819,-6.92378c2.25009,-2.24626 4.43253,-3.63879 6.95375,-5.52969l0.77018,-0.40953c0,0 1.21238,-0.6062 1.81857,0.60618c0.6062,1.21238 -0.6062,1.81857 -0.6062,1.81857l-0.35598,0.15356c-2.41971,1.81479 -4.42728,3.03236 -6.56031,5.16892c-2.40532,2.97852 -5.41395,5.35615 -7.82481,8.37647c-0.21461,0.26886 -0.42006,0.55186 -0.61994,0.84421c0.06978,1.13373 0.16346,2.26761 0.27824,3.40117l0.47176,0.28269c0,0 0.66233,1.10391 0.31346,2.24671c3.3353,-0.56028 7.58649,-2.79688 8.83067,-5.42262c1.09709,-2.31532 2.09973,-4.86705 3.39502,-7.06913c1.23747,-2.10377 3.35658,-4.27214 5.08227,-5.99523c1.86246,-1.40345 4.54177,-3.91811 7.08206,-3.71c1.1658,0.0955 2.05202,1.2512 2.73073,2.20386c0.47166,0.66203 1.47269,-0.68893 2.21655,-1.01667l0.14602,0.01433l-0.0098,-0.04901l1.38026,-0.27606c0.09445,-0.02083 0.19258,-0.03181 0.29328,-0.03181c0.74861,0 1.35547,0.60687 1.35547,1.35548c0,0.31009 -0.10412,0.59585 -0.27931,0.82425l-0.83641,1.11523l-0.09213,-0.0691c-1.67271,3.77111 -4.06216,7.20556 -5.65235,11.03626c-0.5533,1.33288 -1.601,2.79863 -1.89206,4.24229c-0.07587,0.37631 0.04772,0.7682 0.02445,1.15138c-0.01845,0.30367 -0.38661,1.10106 -0.15947,0.89867c1.96415,-1.75018 3.60328,-3.52706 6.16848,-4.40331c0.12489,-0.06206 0.24899,-0.12593 0.37222,-0.1916c0.73366,-0.76846 1.50121,-1.36062 2.12776,-1.5953c0.05286,-0.0198 0.10602,-0.03851 0.15942,-0.0562l-0.02263,-0.03771l1.38861,-0.83316c0.14888,-0.09289 0.31707,-0.15768 0.49719,-0.18698c-0.00615,-0.11713 -0.00952,-0.23433 -0.01001,-0.35142c0,-7.04085 3.46077,-12.04929 10.92794,-12.05411c1.87068,-0.00121 4.33934,-0.041 5.61268,1.70083c1.94451,2.65995 -1.0437,7.40623 -2.78582,10.40277c2.55045,-0.85719 5.56362,-1.4758 6.0094,-4.37733l0.60384,-1.52489c0,0 0.5034,-1.25854 1.76195,-0.75512zM406.11096,36.01547c0.36112,-0.74381 0.71016,-1.59874 1.08171,-2.59436c1.02117,-2.04419 2.241,-4.0522 3.08092,-6.15554c0.1707,-0.4275 1.18932,-2.35753 0.71363,-2.93891c-0.64345,-0.78644 -2.55117,-0.55085 -3.3967,-0.5515c-6.00628,-0.00463 -8.21698,3.76985 -8.21698,9.34315c-0.01309,2.52878 0.59036,3.40842 2.95136,4.04397c0.96764,0.26048 1.00279,0.82591 1.89693,0.34946c0.70558,-0.37598 1.30459,-0.92277 1.88911,-1.49625zM401.97864,40.32753c-2.09624,-0.44167 -3.78709,-2.10575 -4.66312,-4.14333l-0.72442,0.54331c-0.28049,0.22248 -0.56831,0.43627 -0.86235,0.64165c-0.49805,0.72771 -1.54678,1.2629 -2.25715,2.1933c-0.31478,0.41227 -1.2512,0.8186 -0.94434,1.23682c1.59738,2.17709 4.58319,1.32831 6.75143,0.60557c1.05561,-0.35186 1.94126,-0.69873 2.69994,-1.07731zM344.24337,23.77516c0,0 -0.09321,0 -0.23074,-0.02444c-0.04549,0.00007 -0.07237,0.00007 -0.07601,-0.00001c-0.12472,0.05244 -0.24804,0.1073 -0.36996,0.1645c0.10065,0.84473 -0.2245,1.5763 -0.2245,1.5763c-1.2182,2.74079 -2.47247,5.44812 -3.60076,8.20726c2.07529,-2.20466 3.93984,-5.22922 5.00957,-7.15694c0.40482,-0.72953 1.56356,-1.87629 1.60471,-2.79374c0.00012,-0.00255 -1.1258,0.00001 -1.84153,0.00161c-0.09161,0.01591 -0.18211,0.02548 -0.27077,0.02548zM298.4572,34.6377c0.3151,0.08583 0.73373,0.29557 0.89813,0.80811c0.42176,-0.00426 0.80293,-0.01832 1.07918,-0.01832c0.94738,0.1579 1.87009,0.19031 2.77187,0.12195c1.15253,-2.43967 1.91449,-5.20348 3.00186,-7.36692c0.59665,-0.79553 1.03294,-1.69961 1.5602,-2.54271c0.08696,-0.13904 0.48744,-0.2059 0.3718,-0.32218c-0.66839,-0.6722 -4.6175,-0.84141 -5.68971,-0.4893c-0.04797,0.14061 -0.11841,0.27083 -0.20703,0.38636l-0.83641,1.11523l-0.03653,-0.0274l-0.02386,0.10222c-0.4868,0.48682 -0.89484,1.00176 -1.26544,1.52858c-0.36818,0.82756 -0.93538,1.6471 -1.39233,2.47054c-0.37332,0.67276 -1.70845,1.85717 -1.30344,2.84887c0.22128,0.54183 0.66333,0.9524 1.07172,1.38495zM301.57003,38.28794c-0.44216,-0.02913 -0.89475,-0.08133 -1.35914,-0.15873c-1.61971,0 -4.18067,-0.02197 -5.51906,-1.13534l-0.6558,1.31163c0.5396,1.27781 1.30143,2.65988 1.26819,3.8043c1.59899,-0.45565 3.45307,-1.42628 4.26214,-1.9516c0.77765,-0.50494 1.43449,-1.14262 2.00368,-1.87025zM328.50311,23.97804l1.90544,0.855c0.10459,-0.1713 0.16381,-0.28841 0.15312,-0.31996c-0.09018,-0.26594 -0.58776,-0.09636 -0.79082,-0.29032c-0.39154,-0.374 -0.81988,-0.4166 -1.26773,-0.24473z" fill="#49ffff" stroke="none" stroke-width="0.5" stroke-linecap="butt"/><path d="M399.46889,14.45026c1.21238,0.6062 0.6062,1.81857 0.6062,1.81857l-0.68065,1.04128c-4.19406,3.01855 -8.51341,-0.86894 -12.9793,1.01877c0,0 -1.25853,0.50342 -1.76195,-0.75511c-0.50342,-1.25853 0.75512,-1.76195 0.75512,-1.76195c1.97815,-0.75977 4.13778,-0.87358 6.26784,-0.65344c2.3661,0.24456 3.99518,1.65696 6.09173,-0.01704l-0.11755,-0.08489c0,0 0.6062,-1.21238 1.81857,-0.6062z" fill="#49ffff" stroke="none" stroke-width="0.5" stroke-linecap="butt"/><path d="M379.75958,40.12553c-0.81329,-1.08439 0.27109,-1.89767 0.27109,-1.89767l1.12617,-0.84463c0,0 0.00243,-0.00182 0.00715,-0.00519c0.01204,-0.4092 0.2069,-0.734 0.2069,-0.734c2.53121,-4.20867 4.62614,-8.93692 8.07219,-12.35234c0.52683,-0.52215 1.45215,-2.34249 2.0564,-2.52135c3.29983,-0.97674 3.84129,0.80453 3.2662,3.7019c-0.11942,0.60171 -0.91006,0.84089 -1.24685,1.35362c-1.30221,1.98248 -2.89102,3.24395 -4.27037,5.13488c-1.74312,2.18311 -2.70939,6.3461 -3.7682,8.9829l-0.8624,1.01628c0,0 -0.95847,0.95847 -1.91695,0c-0.16054,-0.16054 -0.2673,-0.32108 -0.33379,-0.47712c-0.46082,0.18497 -0.92255,0.37004 -1.3299,0.64348c-2.81339,1.88858 -5.90439,4.6315 -9.62522,2.56729c-2.57687,-1.42957 -2.86019,-4.75716 -0.94334,-6.75776c0.58815,-0.61384 1.08882,-1.79806 1.92901,-1.66837c0.18108,0.02795 0.3503,0.06919 0.50791,0.12216c0.37128,-2.20178 1.01232,-4.37954 2.07627,-5.78514c0.91743,-1.21205 2.70167,-2.01246 3.84781,-3.01491c2.25855,-1.97541 4.48921,-4.15963 6.27921,-6.54631c0,0 0.81329,-1.08439 1.89768,-0.2711c1.08439,0.81329 0.27109,1.89768 0.27109,1.89768c-1.90424,2.53899 -4.27086,4.86618 -6.67175,6.96775c-0.02692,0.02357 -0.05441,0.04703 -0.08241,0.0704c-2.65134,3.99336 -3.88077,7.67556 -4.82585,12.40393l-0.1164,0.36107c1.41384,-0.42447 2.9351,-1.36711 4.24525,-2.26319c-0.02249,-0.02674 -0.0448,-0.05482 -0.06691,-0.08431zM389.28808,28.25979c0.25123,-0.20275 0.50139,-0.40614 0.74415,-0.61574c0.27148,-0.23441 0.47814,-0.53095 0.65558,-0.8561c-0.55309,0.40861 -0.89827,0.52929 -1.34208,1.36356c-0.0192,0.0361 -0.03842,0.07219 -0.05764,0.10826zM372.40833,42.10943c0.01352,0.01052 0.02738,0.02105 0.04156,0.03159v-0.06484z" fill="#49ffff" stroke="none" stroke-width="0.5" stroke-linecap="butt"/><path d="M411.4799,23.54585c0,0.60098 -0.26646,0.9355 -0.5631,1.1217v1.69372h-0.02152c0.00636,0.03194 0.0124,0.06396 0.01811,0.09608c0.52095,2.93401 -3.11552,7.23028 -4.77237,9.44503l-0.83517,1.11355c-0.24665,0.33639 -0.64475,0.55482 -1.09386,0.55482c-0.53605,0 -0.99942,-0.31117 -1.21935,-0.76273c-0.00872,0.0051 -0.01746,0.01019 -0.0262,0.0153l-0.00031,-0.07315c-0.07055,-0.1641 -0.10963,-0.34495 -0.10963,-0.5349c0,-0.18591 0.03743,-0.36308 0.10516,-0.52439l-0.00822,-1.94982c0.24858,-0.57628 0.49716,-1.15254 0.74575,-1.72882c0.80648,-0.64088 1.63488,-1.21855 2.29395,-2.02243c0.45396,-0.55371 0.8886,-1.12841 1.25267,-1.74495c0.04996,-0.08459 0.09755,-0.16738 0.14281,-0.24839c0.2749,-0.75837 0.49863,-1.54058 0.64208,-2.36554c-0.26541,-0.81842 -1.49123,-0.84239 -3.26545,-0.28456c-0.6102,0.19186 -0.47135,1.19765 -0.81424,1.73761c-0.87567,1.37892 -3.21548,2.59551 -3.17009,4.59717c0.00306,0.13494 0.0124,0.27328 0.02727,0.41456c0.59799,1.39655 1.10288,2.95528 1.38928,3.75163l0.07985,-0.04791l0.83316,1.38861c0.12969,0.20787 0.20462,0.45343 0.20462,0.7165c0,0.74861 -0.60687,1.35548 -1.35548,1.35548c-0.4491,0 -0.84719,-0.21841 -1.09384,-0.55482l-0.83517,-1.11355l0.07099,-0.05324l-0.16827,-0.09597c-0.53246,-1.30494 -1.50683,-2.95477 -1.75105,-4.34766c-0.02135,-0.12173 0.01866,-0.30498 0.07033,-0.48943c-0.05096,-0.19321 -0.09307,-0.36416 -0.1239,-0.50424c-0.05903,0.05612 -0.12119,0.12468 -0.18595,0.20396c0.01513,0.08107 0.02304,0.16467 0.02304,0.25014c0,0.18883 -0.03861,0.36863 -0.10837,0.53195l-0.55167,1.37917c-0.4657,1.14132 -1.07233,2.10133 -1.77502,2.94791c0.20974,1.3108 0.6619,3.26524 0.43067,3.8871c-1.01383,2.72668 -4.08535,2.26474 -5.7698,0.61648c-0.76356,0.56396 -1.52767,1.14948 -2.26565,1.79694c-1.17843,1.03389 -2.84894,3.18073 -4.72589,2.85366c-3.52401,-0.61406 -2.58546,-5.62177 -2.58546,-8.1008c0,0 0,-1.35548 1.35548,-1.35548c1.35548,0 1.35547,1.35548 1.35547,1.35548c0,1.36623 -0.05272,2.74612 -0.00462,4.11134c0.01554,0.44068 -0.19054,1.41901 0.23459,1.30191c0.93848,-0.25851 1.9404,-1.64345 2.59421,-2.2141c0.91802,-0.80126 1.92684,-1.50521 2.93064,-2.20604c0.23963,-1.8692 3.59392,-6.52463 5.0481,-7.16049c0.06664,-0.02913 0.13384,-0.05656 0.20153,-0.08245l-0.01515,-0.03032l1.32683,-0.66341c0.93787,-1.24046 1.98927,-2.25796 3.08109,-2.22258c0.77656,-1.35141 2.07573,-2.26198 2.93471,-3.6629c0.59502,-0.97039 0.9861,-2.25201 2.0012,-2.76706c1.92125,-0.97481 4.19427,-1.08537 5.61354,-0.07912l0.85212,-0.60202c0,0 1.35548,0 1.35548,1.35548zM393.01717,39.81183c-0.14936,0.11898 -0.30016,0.23671 -0.45221,0.35354c0.35181,0.2425 0.71732,0.48165 0.86399,0.65717c0.22289,0.26671 -0.31653,-0.62554 -0.4001,-0.96292c-0.00394,-0.01591 -0.00784,-0.03185 -0.01167,-0.04779z" fill="#49ffff" stroke="none" stroke-width="0.5" stroke-linecap="butt"/><path d="M277.24116,45.95693c0.39412,1.5765 -1.18237,1.97062 -1.18237,1.97062l-1.92892,0.46968c-5.25024,0 -12.46281,2.28781 -16.94775,-2.19712c-2.19525,-2.19525 -2.62397,-8.58724 -2.64264,-11.54916c0,0 0,-1.62501 1.62501,-1.62501c1.62501,0 1.62501,1.62501 1.62501,1.62501c-0.01593,2.00752 0.20063,7.76094 1.69073,9.25104c0.40307,0.40308 2.33914,0.77942 2.71176,0.87258c0.35992,0.08997 0.70874,0.21531 1.05306,0.35505c0.16185,-0.72686 0.81056,-1.27024 1.58617,-1.27024c0.89748,0 1.62501,0.72755 1.62501,1.62501c0,0.25467 -0.05859,0.49568 -0.16302,0.71024c2.40059,0.29606 5.0814,-1.02307 7.43954,-1.02307l1.53777,-0.397c0,0 1.57649,-0.39412 1.97062,1.18237z" fill="#49ffff" stroke="none" stroke-width="0.5" stroke-linecap="butt"/><path d="M64.95442,39.851c0,1.24468 -0.95338,1.536 -1.39963,1.60419c-3.18802,2.88971 -7.24768,5.18658 -10.90785,1.71157c0,0 -1.14907,-1.14905 0,-2.29811c1.14907,-1.14907 2.29811,0 2.29811,0c2.07686,2.25885 1.98655,0.52598 4.11702,-0.69837c0.88442,-0.50827 1.99453,-0.71741 2.68495,-1.46832l1.58239,-0.47596c0,0 1.62501,0 1.62501,1.62501z" fill="#49ffff" stroke="none" stroke-width="0.5" stroke-linecap="butt"/><path d="M88.18307,39.99094c0.72672,1.45347 -0.72673,2.18018 -0.72673,2.18018l-1.73334,0.86668c-1.15221,0.5582 -1.93314,1.78215 -3.13823,2.21454c-2.44029,0.87558 -4.52574,-0.76976 -6.54864,-1.78121c0,0 -1.45345,-0.72672 -0.72673,-2.18018c0.72673,-1.45347 2.18018,-0.72673 2.18018,-0.72673c0.46422,0.2321 3.17377,2.09639 3.85145,1.68548c1.03027,-0.62471 1.85601,-1.56973 2.9285,-2.11882l1.73336,-0.86667c0,0 1.45345,-0.72673 2.18018,0.72673z" fill="#49ffff" stroke="none" stroke-width="0.5" stroke-linecap="butt"/><path d="M119.22992,37.14263c0.97501,1.30001 -0.325,2.27502 -0.325,2.27502l-1.64364,1.22763c-2.42547,2.38451 -4.69443,4.05355 -7.45644,6.13911c0,0 -1.30001,0.97501 -2.27502,-0.325c-0.97501,-1.30001 0.325,-2.27502 0.325,-2.27502c2.68317,-2.00051 4.93655,-3.60669 7.27704,-5.99433l1.82305,-1.37241c0,0 1.30001,-0.97501 2.27502,0.325z" fill="#49ffff" stroke="none" stroke-width="0.5" stroke-linecap="butt"/><path d="M100.97766,30.78564c-0.9014,-1.35209 0.4507,-2.25349 0.4507,-2.25349l1.05235,-0.66364c0.97537,-0.97537 1.96221,-1.96597 2.97622,-2.92678c-0.3983,0.26454 -0.77879,0.5499 -1.11143,0.89152c0,0 -1.14905,1.14905 -2.29811,0c-1.14905,-1.14905 0,-2.29812 0,-2.29812c2.01846,-1.9785 8.54096,-8.06014 10.11981,-2.14459c0.7997,2.99628 -5.60564,6.99336 -7.38837,8.77608l-1.54768,1.06971c0,0 -1.35209,0.9014 -2.25349,-0.45069z" fill="#49ffff" stroke="none" stroke-width="0.5" stroke-linecap="butt"/><path d="M40.22258,31.03081c1.45347,0.72673 0.72673,2.18018 0.72673,2.18018l-0.86667,1.73334c-0.77762,1.53403 -1.93343,3.26625 -2.55216,4.66186c-0.28682,0.64694 0.26168,1.59354 -0.22048,2.11154c-0.93736,1.00705 -4.73731,1.32019 -5.81773,1.47529c0,0 -1.60869,0.22982 -1.8385,-1.37887c-0.22982,-1.60869 1.37887,-1.83849 1.37887,-1.83849c0.98359,-0.13979 1.9597,-0.35054 2.95079,-0.41936c0.25995,-0.01806 0.65678,0.3984 0.76489,0.16132c0.18988,-0.41641 -0.39471,-0.93197 -0.22048,-1.35516c0.58091,-1.41097 1.90118,-3.36088 2.64789,-4.87157l0.86667,-1.73336c0,0 0.72673,-1.45345 2.18018,-0.72673z" fill="#49ffff" stroke="none" stroke-width="0.5" stroke-linecap="butt"/><path d="M324.7668,28.8348c0.26061,-1.06769 0.41556,-2.15883 0.40664,-3.28395c0,0 0,-1.62501 1.62501,-1.62501c0.16103,0 0.30611,0.01596 0.43682,0.04472c0.43078,-0.14329 1.00486,-0.14283 1.57892,0.43124c1.14907,1.14905 0,2.29812 0,2.29812l0.01106,-0.39704c-0.28225,1.36902 -0.70398,2.78569 -1.22442,4.19644c-1.12625,3.68874 -3.11396,7.13466 -4.045,10.78213l-0.12513,0.13568l0.0545,0.02725l-0.85094,1.70186c-0.26056,0.54964 -0.82048,0.92977 -1.4692,0.92977c-0.77335,0 -1.42051,-0.54021 -1.58474,-1.26386l-0.4251,-1.70038l0.05911,-0.01477c-0.04255,-0.12389 0.5712,0.39981 0.54238,0.27065c-0.08125,-0.36408 0.24529,-1.35734 0.30583,-1.6837c0.23667,-1.27566 0.39997,-2.29318 1.0202,-3.28731c1.38668,-2.22266 2.75967,-4.90663 3.68403,-7.56184z" fill="#49ffff" stroke="none" stroke-width="0.5" stroke-linecap="butt"/><text transform="translate(-64.34648,93.74448) scale(0.81214,0.81214)" font-size="40" xml:space="preserve" fill="#ffffff" fill-rule="nonzero" stroke="none" stroke-width="1" stroke-linecap="butt" stroke-linejoin="miter" stroke-miterlimit="10" stroke-dasharray="" stroke-dashoffset="0" font-family="Curly" font-weight="normal" text-anchor="start" style="mix-blend-mode: normal"><tspan x="0" dy="0"> As conexes entre o campo e a cidade</tspan><tspan x="0" dy="46.15px">fortalecem as redes sociais e proporcionam</tspan><tspan x="0" dy="46.15px">troca de recursos e conhecimento. Esse</tspan><tspan x="0" dy="46.15px">relacionamento  fundamental para o</tspan><tspan x="0" dy="46.15px">desenolvimento econmico e a valorizao</tspan><tspan x="0" dy="46.15px">da cultura local.</tspan></text><path d="M181.87534,309.79794l-19.61761,-12.18774" fill="none" stroke="#000000" stroke-width="1.5" stroke-linecap="round"/><path d="M155.38725,305.79118c0,-0.1365 0.01823,-0.26873 0.05239,-0.39441c-0.03351,-0.13263 -0.05239,-0.28202 -0.05239,-0.45029c0,-1.5 1.5,-1.5 1.5,-1.5c2.53823,0 6.61246,-0.76227 9.0122,0.02707c0.91515,0.30102 2.04144,0.5995 2.50289,1.44518c0.26475,0.48519 -0.65389,4.1126 -0.46892,5.09384c0.44491,2.36019 1.30813,4.51728 0.8447,7.04334c-0.48891,2.66498 -2.48264,4.84715 -3.45901,7.31258l-0.55016,1.37539c-0.21272,0.56968 -0.76182,0.97535 -1.40569,0.97535c-0.7529,0 -1.37625,-0.5547 -1.48365,-1.27772l-0.27751,-1.66508l0.08368,-0.01394c-0.03852,-0.12909 -0.07073,-0.26024 -0.0954,-0.39386c-0.1273,-0.68956 1.00805,-2.17702 1.14464,-2.93811c0.22262,-1.24051 0.08847,-3.16868 -0.25315,-4.38034c-0.12939,-0.45889 -0.86495,-2.60575 -1.11657,-4.28045c-0.34615,0.89495 -0.71489,1.79082 -0.73064,2.02902c-0.10564,1.5972 1.10876,6.86178 -0.0688,7.88499c-3.53052,3.06778 -4.12459,-0.46655 -5.16567,-2.46228c0.46158,-3.85337 0.65948,-8.22138 0.00745,-12.05741l-0.01973,-1.3274c-0.00045,-0.0151 -0.00068,-0.03025 -0.00068,-0.04546z" fill="#6192a3" stroke="none" stroke-width="0.5" stroke-linecap="butt"/><path d="M162.62436,327.00123c-1.43492,1.38657 -5.42038,1.78577 -6.61417,0.84269c-0.91375,-0.72184 -1.84674,-4.36881 -0.92817,-5.4366c0.13225,-0.15373 0.28386,-0.29449 0.45004,-0.42097c-0.08945,-0.18808 -0.14481,-0.42088 -0.14481,-0.70905c0,-1.5 1.5,-1.5 1.5,-1.5c2.12353,0.10712 3.11145,-0.36042 4.2441,2.1685c0.06293,0.14049 -0.00332,0.28972 -0.10822,0.43993c0.18894,0.07628 0.38229,0.15477 0.56923,0.2314c1.02991,-1.61933 0.79346,-4.7724 4.60483,-1.4647c0.70606,0.61276 0.23358,1.85512 0.35036,2.78268c-0.2386,0.87545 -0.01128,2.05451 -0.7158,2.62634c-1.12079,0.9097 -2.18021,0.86388 -3.20739,0.43977zM157.98993,325.49325c-0.12786,-0.07436 -0.24747,-0.15502 -0.35726,-0.24179c0.02304,0.06637 0.06397,0.12106 0.13165,0.15873c0.07297,0.04062 0.14831,0.06735 0.22561,0.08306z" fill="#2b3534" stroke="none" stroke-width="0.5" stroke-linecap="butt"/><path d="M157.60814,289.38837c0.00799,-0.30599 0.12963,-0.64733 0.47098,-0.98868c0.84316,-0.84316 1.68633,-0.3458 1.99667,-0.10637c0.61284,-0.09855 1.20569,-0.77426 1.85962,-0.86548c3.12444,-0.43583 7.07307,3.36165 8.12139,5.87101c0.99786,1.6814 4.0712,3.72929 1.46813,6.13214c-0.18981,0.17521 -4.47618,-1.12705 -4.49438,-1.10399c-0.14487,0.18356 0.31376,0.37167 0.36304,0.60026c0.3964,1.83877 0.65092,3.79762 -1.37869,5.10336c-0.69994,0.4503 -1.66178,-0.10207 -2.49379,-0.12335c-1.67948,-0.04296 -3.54361,-0.15219 -5.22393,-0.02195c-0.84884,0.06579 -1.87229,0.86993 -2.53244,0.3323c-1.67479,-1.36397 -0.0267,-3.44982 -0.78285,-4.96806c-0.15876,-0.31878 -0.62296,0.34434 -0.95068,0.48747l-1.6446,1.0964c-0.24143,0.16609 -0.53392,0.2633 -0.84911,0.2633c-0.82843,0 -1.5,-0.67158 -1.5,-1.5c0,-0.09375 0.0086,-0.18549 0.02505,-0.27447l0.27692,-1.66152l0.05236,0.00873l-0.01729,-0.16631c0.48661,-1.14983 1.43437,-2.04586 2.2108,-3.02364c0.69693,-0.87766 0.75938,-2.19013 1.55185,-2.9826c1.08872,-1.08872 2.3649,-1.24755 3.47095,-2.10855zM159.78477,288.29246l-0.11683,-0.03014c0.03909,0.0132 0.07802,0.02315 0.11683,0.03014z" fill="#b24139" stroke="none" stroke-width="0.5" stroke-linecap="butt"/><path d="M167.54518,299.24512c0.07003,0.23999 -0.16996,0.31003 -0.16996,0.31003l-0.07724,0.02253c-0.92086,0.26459 -1.72965,0.49696 -2.66408,0.68758c0.07482,1.19025 0.21089,2.32437 0.58416,3.04494l0.08196,0.47381c0,0 0.0362,0.24737 -0.21116,0.28357c-0.24737,0.0362 -0.28357,-0.21117 -0.28357,-0.21117l-0.03462,-0.32293c-0.38956,-0.80451 -0.52787,-1.97005 -0.60645,-3.18132c-1.19251,0.18579 -2.50368,0.10283 -3.83862,-0.04499c0.15184,1.20464 0.43999,2.33676 0.46679,3.55246l0.00515,0.23673c0,0 0.00544,0.24994 -0.24451,0.25538c-0.24994,0.00543 -0.25538,-0.24451 -0.25538,-0.24451l-0.00514,-0.23673c-0.0263,-1.22775 -0.32502,-2.38956 -0.47478,-3.62216c-0.89774,-0.10789 -1.80075,-0.23333 -2.68049,-0.31492c0,0.16597 0,0.33194 0,0.49791c0,1.68948 0.27471,3.48042 -0.49228,4.99775l-0.09775,0.19334c0,0 -0.1128,0.2231 -0.3359,0.11031c-0.22311,-0.1128 -0.11031,-0.3359 -0.11031,-0.3359l0.09774,-0.19334c0.7226,-1.42906 0.4385,-3.17308 0.4385,-4.77217c0,-0.17978 0,-0.35956 0,-0.53933c-0.39267,-0.02828 -0.77949,-0.04525 -1.15783,-0.04525c0,0 -0.25,0 -0.25,-0.25c0,-0.25 0.25,-0.25 0.25,-0.25c0.37749,0 0.76441,0.01761 1.15783,0.0469c0,-1.11041 0,-2.22084 0,-3.33125c-0.43104,-0.55419 -0.87672,-1.12721 -1.31909,-1.69597c-0.72275,0.99093 -1.46919,2.01521 -2.16144,3.05865c0.31984,0.36656 0.66015,0.71507 0.99057,1.04826l0.10182,0.10267c0,0 0.17604,0.17751 -0.00148,0.35355c-0.17751,0.17604 -0.35355,-0.00148 -0.35355,-0.00148l-0.10182,-0.10268c-0.30726,-0.30984 -0.61968,-0.63219 -0.91778,-0.96892c-0.51391,0.79719 -0.99031,1.60434 -1.39495,2.4152c0,0 -0.11181,0.22361 -0.33541,0.1118c-0.2236,-0.11181 -0.11181,-0.33541 -0.11181,-0.33541c0.43215,-0.86271 0.94628,-1.73142 1.50196,-2.59116c-0.34591,-0.4241 -0.65937,-0.87064 -0.90515,-1.34301c-0.26827,0.62739 -0.49263,1.33096 -0.69379,2.13564c0,0 -0.06063,0.24254 -0.30317,0.1819c-0.24254,-0.06063 -0.18191,-0.30317 -0.18191,-0.30317c0.65255,-2.6102 1.60041,-4.24995 3.4147,-5.63027c-0.09199,-0.11828 -0.18282,-0.23505 -0.27227,-0.35006c0,0 -0.15349,-0.19734 0.04385,-0.35082c0.19734,-0.15348 0.35082,0.04385 0.35082,0.04385c0.09415,0.12105 0.1883,0.2421 0.28245,0.36315c0.43546,-0.30201 0.91657,-0.59355 1.44976,-0.88262l0.07618,-0.21607c0.00245,-0.01118 0.00564,-0.02275 0.00963,-0.03473c0.03095,-0.09283 0.08611,-0.13722 0.14179,-0.15686c0.04886,-0.02236 0.11165,-0.0297 0.18793,0.00325c0.3399,0.11349 0.67252,0.21469 0.99908,0.30291c0.00939,-0.01817 0.01866,-0.03637 0.02783,-0.05462l0.04149,-0.33659c0,0 0.03939,-0.24687 0.28626,-0.20748c0.24687,0.03939 0.20749,0.28627 0.20749,0.28627l-0.08025,0.4343c0.48117,0.11266 0.95008,0.19533 1.41089,0.2456c-0.05339,-0.51551 -0.10068,-1.03092 -0.13749,-1.54618c0,0 -0.01781,-0.24937 0.23155,-0.26718c0.24937,-0.01781 0.26718,0.23156 0.26718,0.23156c0.03866,0.54125 0.0888,1.08261 0.14539,1.62408c1.11776,0.06397 2.19594,-0.07249 3.29586,-0.44468c-0.16903,-1.12967 -0.28025,-2.26444 -0.28025,-3.41412c0,0 0,-0.25 0.25,-0.25c0.25,0 0.25,0.25 0.25,0.25c0,1.08995 0.10176,2.16639 0.25828,3.23803c0.37966,-0.15118 0.76291,-0.33068 1.15223,-0.53989l0.19258,-0.10296c0,0 0.22047,-0.11786 0.33834,0.10261c0.11786,0.22047 -0.10261,0.33834 -0.10261,0.33834l-0.19259,0.10296c-0.44332,0.23564 -0.87917,0.43527 -1.3108,0.60071c0.21633,1.34247 0.50724,2.67953 0.77998,4.02831c0.45964,-0.05541 0.92164,-0.10128 1.38855,-0.13086l0.34104,-0.00338c0,0 0.24999,-0.00222 0.2522,0.24777c0.00221,0.24999 -0.24778,0.25221 -0.24778,0.25221l-0.31399,0.00241c-0.44395,0.02787 -0.88394,0.07052 -1.32196,0.12212c0.0321,0.16252 0.06377,0.32524 0.09485,0.4882c0.16165,0.85258 0.18627,2.05109 0.24703,3.24372c0.89711,-0.18394 1.65852,-0.39915 2.55241,-0.66353l0.07724,-0.02254c0,0 0.23999,-0.07003 0.31002,0.16996zM163.86734,296.61122c-0.03309,-0.17346 -0.06683,-0.34668 -0.10102,-0.51968c-1.21949,0.16069 -2.42974,0.37402 -3.67476,0.51358c0.07142,0.78981 0.12383,1.57952 0.14163,2.36899c0.0006,0.28526 0.01512,0.56411 0.03914,0.83827c1.34952,0.15308 2.6731,0.23873 3.86243,0.03903c-0.06327,-1.1713 -0.09562,-2.34486 -0.2674,-3.24019zM159.73322,298.98026c-0.01745,-0.77437 -0.06842,-1.54905 -0.13804,-2.32387c-0.58637,0.05505 -1.1816,0.09033 -1.79019,0.09296l0.12429,0.15981c0,0 0.15349,0.19734 -0.04385,0.35082c-0.19734,0.15348 -0.35082,-0.04386 -0.35082,-0.04386c-0.12977,-0.16685 -0.26243,-0.3374 -0.39736,-0.51089c0,0.91038 0,1.82076 0,2.73114c0.86193,0.08237 1.74841,0.20774 2.62964,0.31607c-0.02075,-0.25338 -0.03314,-0.5104 -0.03367,-0.77218zM157.73195,296.2495c0.61846,0 1.2222,-0.03418 1.81627,-0.08903c-0.13465,-1.3567 -0.31674,-2.71374 -0.46645,-4.0702c-0.5542,-0.0543 -1.11892,-0.15344 -1.70068,-0.29385c-0.07621,0.1244 -0.15736,0.24592 -0.24383,0.36317c0,1.24374 0,2.48748 0,3.73122c0.12462,0.16021 0.24922,0.32044 0.37384,0.48065c0.06593,-0.12196 0.22086,-0.12196 0.22086,-0.12196zM162.90808,291.68039c-1.10809,0.36259 -2.19606,0.5013 -3.31987,0.44703c0.14723,1.32727 0.32398,2.65497 0.45622,3.98247c1.22866,-0.13635 2.42139,-0.34628 3.62408,-0.50743c-0.2652,-1.31264 -0.54636,-2.6149 -0.76043,-3.92208zM155.95696,291.76154c-0.51154,0.27442 -0.97088,0.54863 -1.38501,0.83103c0.24345,0.313 0.4869,0.62601 0.73035,0.93902c0.22609,-0.30638 0.44892,-0.60793 0.66618,-0.90381c0.25177,-0.17849 0.47405,-0.39575 0.66877,-0.63728c0,-0.13099 0,-0.26197 0,-0.39296c-0.16062,-0.04693 -0.32267,-0.09673 -0.48627,-0.14934zM151.82699,295.68146c0.14379,-0.00068 0.21568,0.1431 0.21568,0.1431c0.20773,0.41958 0.47684,0.8175 0.77722,1.19649c0.69738,-1.05025 1.44698,-2.08323 2.17419,-3.07133c-0.28108,-0.36139 -0.55901,-0.71873 -0.82908,-1.06597c-1.05306,0.79195 -1.78439,1.66689 -2.33801,2.79771zM156.63725,292.72382c-0.1001,0.09265 -0.20553,0.17937 -0.31666,0.25895c-0.22628,0.31685 -0.45922,0.6381 -0.69597,0.96324c0.33754,0.43398 0.67508,0.86796 1.01262,1.30194c0,-0.84138 0,-1.68275 0,-2.52413z" fill="#ffa952" stroke="none" stroke-width="0.5" stroke-linecap="butt"/><path d="M159.79925,299.79055c-0.88122,-0.10833 -1.83656,-0.23763 -2.69849,-0.32c0,-0.91038 0.00351,-1.89254 0.00351,-2.80291c0.13493,0.17349 0.26654,0.34498 0.39631,0.51183c0,0 0.16178,0.19111 0.35912,0.03762c0.19734,-0.15348 0.0883,-0.26158 0.0883,-0.26158l-0.16333,-0.25185c0.60859,-0.00263 1.25384,-0.03245 1.8402,-0.0875c0.06963,0.77483 0.13367,1.61563 0.15112,2.38999c0.00053,0.26178 0.00251,0.53101 0.02326,0.7844z" data-paper-data="{&quot;noHover&quot;:true,&quot;origItem&quot;:[&quot;Path&quot;,{&quot;applyMatrix&quot;:true,&quot;segments&quot;:[[[319.46644,597.96051],[0.00106,0.52356],[-0.0349,-1.54874]],[[319.19035,593.31276],[0.13925,1.54965],[-1.17273,0.11009]],[[315.60998,593.49868],[1.21718,-0.00526],[0,0]],[315.85857,593.81829],[[315.77086,594.51994],[0.39468,-0.30697],[-0.39468,0.30697]],[[315.06922,594.43223],[0,0],[-0.25954,-0.3337]],[[314.2745,593.41045],[0.26986,0.34697],[0,1.82076]],[[314.2745,598.87273],[0,-1.82076],[1.72385,0.16474]],[[319.53377,599.50488],[-1.76244,-0.21666],[-0.0415,-0.50677]]],&quot;closed&quot;:true}]}" fill="none" stroke="none" stroke-width="0.5" stroke-linecap="butt"/><path d="M167.30359,297.03106c-0.25,-0.0016 -0.2484,-0.2516 -0.2484,-0.2516l0.00165,-0.25833c0.00169,-0.263 0.00789,-0.52518 0.01739,-0.7869c-0.33752,-0.24231 -0.68125,-0.48095 -1.03399,-0.71612c0,0 -0.20801,-0.13868 -0.06933,-0.34669c0.13868,-0.20801 0.34669,-0.06934 0.34669,-0.06934c0.26578,0.17719 0.52649,0.3566 0.78333,0.5382c0.02568,-0.48717 0.05953,-0.9737 0.09355,-1.46197c-0.15992,-0.15164 -0.31821,-0.30435 -0.47504,-0.45763c-0.52221,-0.5104 -1.52581,-1.56928 -2.22992,-1.53938c0,0 -0.25,0 -0.25,-0.25c0,-0.25 0.25,-0.25 0.25,-0.25c0.84281,0.02472 1.79851,0.64562 2.77417,1.46377c0.04173,-0.67762 0.07306,-1.36172 0.07306,-2.05847c0,0 0,-0.25 0.25,-0.25c0.25,0 0.25,0.25 0.25,0.25c0,0.83636 -0.04525,1.65605 -0.0994,2.46842c0.72082,0.64117 1.44432,1.35426 2.13349,1.98035c0,-0.26828 0,-0.53221 0,-0.78842c0,0 0,-0.25 0.25,-0.25c0.25,0 0.25,0.25 0.25,0.25c0,0.41025 0,0.8205 0,1.23075c0.48577,0.41603 0.94873,0.76587 1.37479,0.98899c0.13665,0.10892 0.27332,0.21783 0.40998,0.32674l0.09246,0.07403c0,0 0.19515,0.15625 0.0389,0.3514c-0.15625,0.19515 -0.3514,0.0389 -0.3514,0.0389l-0.09246,-0.07403c-0.12355,-0.09942 -0.2471,-0.19885 -0.37064,-0.29827c-0.37728,-0.19605 -0.74414,-0.41106 -1.10161,-0.64145c0,0.47289 0,0.94577 0,1.41866c0.22172,0.18032 0.44463,0.36229 0.66961,0.54592l0.08356,0.06848c0,0 0.19336,0.15846 0.03489,0.35182c-0.15847,0.19336 -0.35182,0.0349 -0.35182,0.0349l-0.08356,-0.06848c-0.18129,-0.14925 -0.36129,-0.29718 -0.54046,-0.44385c-0.0188,0.00376 -0.03948,0.00583 -0.06222,0.00583c-0.25,0 -0.25,-0.25 -0.25,-0.25c0,-0.00358 0,-0.00714 0,-0.01072c-0.76699,-0.62432 -1.52374,-1.22538 -2.30734,-1.80555c-0.00346,0.14427 -0.00575,0.28868 -0.00668,0.43328l-0.00165,0.25833c0,0 -0.0016,0.25 -0.25159,0.2484zM169.87085,297.25759c0,-0.44153 0,-0.89656 0,-1.34967c-0.77553,-0.54269 -1.50717,-1.15308 -2.20648,-1.79197c-0.03116,0.45773 -0.06007,0.91441 -0.08012,1.37175c0.77983,0.56952 1.53014,1.15978 2.2866,1.7699z" fill="#ffa952" stroke="none" stroke-width="0.5" stroke-linecap="butt"/><path d="M176.89823,312.87387c-0.02975,0.01261 -0.06581,0.02024 -0.10951,0.02024c-0.25,0 -0.25,-0.25 -0.25,-0.25c0.0451,-2.50544 3.91528,-3.28616 5.79883,-3.28616c1.12348,0 3.25075,2.69432 2.48006,3.67232c-0.64171,0.81432 -2.28368,0.18804 -3.11006,0.17791c-1.40557,0.00003 -3.27841,-0.42052 -4.50004,-0.31408h-0.20939c0,0 -0.04679,0 -0.09989,-0.02024zM177.05027,312.39412h0.15724c1.40625,0.06531 2.96766,0.31405 4.50371,0.31409c0.98687,0.01664 1.84993,0.40133 2.75285,-0.03148c0.17578,-0.08426 -1.20063,-2.81876 -2.12651,-2.81876c-1.43228,0 -5.05107,0.58364 -5.28729,2.53616z" fill="#c3c3c3" stroke="none" stroke-width="0.5" stroke-linecap="butt"/><path d="M182.3736,309.82331c0.92588,0 2.31339,2.78581 2.13761,2.87007c-0.90292,0.43282 -1.78425,0.07229 -2.77113,0.05565c-1.53606,-0.00004 -3.17438,-0.27577 -4.58063,-0.34108l-0.15739,-0.00055c0.23622,-1.95252 3.93926,-2.58409 5.37154,-2.58409z" data-paper-data="{&quot;noHover&quot;:false,&quot;origItem&quot;:[&quot;Path&quot;,{&quot;applyMatrix&quot;:true,&quot;segments&quot;:[[[287.60053,650.78823],[0.47244,-3.90504],[0,0]],[[287.91501,650.78823],[0,0],[2.8125,0.13062]],[[296.92244,651.41641],[-3.07211,-0.00007],[1.97375,0.03327]],[[302.42813,651.35345],[-1.80583,0.86563],[0.35156,-0.16852]],[[298.17511,645.71592],[1.85176,0],[-2.86455,0]]],&quot;closed&quot;:true}]}" fill="#c3c3c3" stroke="none" stroke-width="0.5" stroke-linecap="butt"/><path d="M182.09389,313.02229c-0.15542,0 -0.21421,-0.09662 -0.23646,-0.16973c-1.03687,-0.33029 -2.59616,-0.5754 -3.63725,-0.56313c0,0 -0.25,0 -0.25,-0.25c0,-0.25 0.25,-0.25 0.25,-0.25c1.18442,0.01079 2.82844,0.27705 3.95277,0.64099l0.17094,0.34187c0,0 0,0.25 -0.25,0.25z" fill="#ffffff" stroke="none" stroke-width="0.5" stroke-linecap="butt"/><path d="M157.88193,288.47743c0,0 1.36103,-1.79853 1.36103,-2.30329c0,-0.4699 -0.94225,-1.57043 -0.94225,-1.57043h6.177c0,0 -0.62817,0.51676 -0.62817,0.94225c0,0.52896 0.20939,2.61737 0.20939,2.61737z" fill="#d08e6c" stroke="#c3c3c3" stroke-width="0" stroke-linecap="butt"/><path d="M154.63638,284.81311v-2.40798h14.97137v2.40798z" fill="#edc482" stroke="#b36534" stroke-width="0.5" stroke-linecap="butt"/><path d="M157.67254,283.0333c0,0 -0.56449,-4.81129 1.25633,-6.90986c1.82082,-2.09857 4.49508,-1.93849 6.177,0c1.68192,1.93849 1.15165,7.01456 1.15165,7.01456z" fill="#edc482" stroke="#b36534" stroke-width="1" stroke-linecap="butt"/><path d="M155.57841,303.87968c-0.88388,0.88388 -1.76777,0 -1.76777,0l-0.69397,-0.93872c-0.08558,0.00869 -0.17208,0.0118 -0.25965,0.00841c-0.75565,-0.02925 -1.15509,-1.15358 -1.90764,-1.22785c0,0 -1.22573,-0.24515 -0.98058,-1.47087c0.24515,-1.22573 1.47087,-0.98058 1.47087,-0.98058c0.55711,0.13941 1.18062,0.11987 1.67132,0.41822c0.02727,0.01658 0.05548,0.03913 0.08376,0.06621l0.07836,-0.1959c0.17726,-0.47474 0.63486,-0.8128 1.17141,-0.8128c0.69036,0 1.25,0.55964 1.25,1.25v1.25h-0.39103l0.17611,0.70079c-0.05173,0.01978 -0.10325,0.04086 -0.15459,0.063c0.04143,0.07768 0.07381,0.15845 0.09523,0.24107l0.15816,-0.13874c0,0 0.88388,0.88388 0,1.76777z" fill="#963730" stroke="none" stroke-width="0.5" stroke-linecap="butt"/><path d="M166.51343,299.21046c-0.12846,-0.28304 -0.16088,-0.65759 0.10923,-1.10778c0.64312,-1.07187 1.71499,-0.42875 1.71499,-0.42875c0.40032,0.24079 1.14534,1.06005 1.44448,1.2601l0.18213,-0.91067c0.10493,-0.58424 0.61583,-1.02756 1.23027,-1.02756c0.61444,0 1.12533,0.44333 1.23027,1.02756l0.24546,1.22729l-0.21111,0.04222c0.54324,1.22048 0.90263,2.59324 0.27545,3.3963c-0.67139,0.85967 -4.58756,1.05615 -5.49085,0.34171c-1.22556,-0.96933 -1.03006,-2.27252 -1.04921,-3.53508zM169.07866,301.02323c-0.19754,-0.11504 -0.41252,-0.24164 -0.62665,-0.36848c0.00317,0.14278 0.05409,0.25369 0.1933,0.30597c0.13832,0.05194 0.28402,0.06656 0.43334,0.06251z" fill="#963730" stroke="none" stroke-width="0.5" stroke-linecap="butt"/><path d="M201.19453,319.4958c0,1.25 -1.25,1.25 -1.25,1.25h-1.25c0,0 -0.47435,0 -0.83863,-0.29221c-0.10214,0.2394 -0.53735,1.06783 -1.55665,0.72806c-0.74486,-0.24829 -0.8659,-0.80848 -0.85292,-1.19079c-0.14745,-0.02178 -0.27374,-0.06941 -0.38166,-0.13264c-0.09533,0.16303 -0.24652,0.32115 -0.47702,0.45944c-1.07187,0.64312 -1.71499,-0.42875 -1.71499,-0.42875l-0.71544,-1.19563c-0.6176,-0.84165 -1.05946,-1.81487 -1.39854,-2.8022c0,0 -0.39528,-1.18585 0.79057,-1.58114c1.18585,-0.39528 1.58114,0.79057 1.58114,0.79057c0.24696,0.77081 0.59271,1.52984 1.08313,2.17387c0.05171,-0.37412 0.263,-0.85974 0.98587,-1.00431c0.91363,-0.18273 1.28246,0.45175 1.41105,0.7867c0.25801,-0.25436 0.67904,-0.46929 1.29833,-0.22157c0.8504,0.34016 0.82844,1.05419 0.75596,1.41157c0.01922,-0.00097 0.0298,-0.00097 0.0298,-0.00097h1.25c0,0 1.25,0 1.25,1.25z" fill="#0a571a" stroke="none" stroke-width="0.5" stroke-linecap="butt"/><path d="M198.19453,328.4958c-0.83169,0 -1.11001,-0.55337 -1.20315,-0.92373c-1.20229,0.38397 -2.72919,0.02392 -3.74707,-0.09241l-0.04122,-0.0266l-0.00369,0.01847l-1.22729,-0.24546c-0.58424,-0.10493 -1.02756,-0.61583 -1.02756,-1.23027c0,-0.59914 0.42153,-1.09983 0.98419,-1.22168c-0.31521,-0.11955 -0.63149,-0.24109 -0.94843,-0.36772c0,0 -1.1606,-0.46424 -0.69636,-1.62483c0.46424,-1.1606 1.62483,-0.69636 1.62483,-0.69636c1.02445,0.41027 2.03898,0.77624 3.03582,1.183c-0.02137,-0.37856 0.09154,-0.90533 0.7857,-1.183c1.1606,-0.46424 1.62483,0.69636 1.62483,0.69636c0.00365,0.00913 0.00739,0.01845 0.01121,0.02796c0.22052,-0.19521 0.51052,-0.31372 0.8282,-0.31372c0.61444,0 1.12533,0.44333 1.23027,1.02756l0.24546,1.22729l-0.31659,0.06332c0.12635,0.55905 0.16797,1.12432 0.06659,1.67697l0.02427,0.75485c0,0 0,1.25 -1.25,1.25z" fill="#0a571a" stroke="none" stroke-width="0.5" stroke-linecap="butt"/><path d="M185.07841,318.62968c-0.88388,0.88388 -1.76777,0 -1.76777,0l-0.08035,-0.22329c-0.86875,-0.35472 -1.61231,-0.78174 -2.32696,-1.25743l-1.7366,-0.43415c-0.55665,-0.12632 -0.9722,-0.62414 -0.9722,-1.21902c0,-0.21667 0.05513,-0.42046 0.15212,-0.59812c-0.0928,-0.16659 -0.15212,-0.37957 -0.15212,-0.65188c0,-1.25 1.25,-1.25 1.25,-1.25c1.07718,0.01199 2.1551,0.2444 3.17995,0.57627l0.02972,0.02456l0.00457,-0.01143l1.22297,0.48919c0.47474,0.17726 0.8128,0.63486 0.8128,1.17141c0,0.37251 -0.16294,0.70695 -0.42144,0.93596l0.80532,0.68016c0,0 0.88388,0.88388 0,1.76777z" fill="#9f7140" stroke="none" stroke-width="0.5" stroke-linecap="butt"/><path d="M231.78791,354.15853l0.71716,-0.12837c0.71081,-0.35924 1.3804,-0.80559 2.00429,-1.30063c1.84411,-0.94024 3.59165,-1.61832 5.70978,-1.22946c0.82256,0.15102 1.48184,0.91682 2.31689,0.96269c1.09468,0.06012 1.93808,-1.02755 2.87881,-1.59054c2.99955,-1.79512 5.5828,-4.01594 8.50412,-5.84033c2.70659,-1.6903 5.522,-1.14277 8.52271,-2.1026c0,0 1.1911,-0.37918 1.57029,0.81192c0.37918,1.1911 -0.81192,1.57028 -0.81192,1.57028c-2.07668,0.65823 -4.04018,0.4347 -5.9974,0.77178c-1.68669,0.29048 -3.39575,2.25502 -4.62031,3.25032c-2.30691,1.87502 -5.44631,3.81627 -8.15397,5.02932c-3.02788,1.35652 -5.23854,-1.24675 -8.56559,0.46861c-0.68822,0.54608 -1.43783,1.0198 -2.218,1.42376l-1.29086,0.33835c0,0 -1.21754,0.283 -1.50053,-0.93455c-0.28299,-1.21755 0.93455,-1.50054 0.93455,-1.50054z" data-paper-data="{&quot;index&quot;:null}" fill="#9f7140" stroke="#7b4d00" stroke-width="0" stroke-linecap="butt"/><path d="M236.78792,359.15853l0.71716,-0.12837c0.71081,-0.35924 1.38039,-0.80559 2.00429,-1.30063c1.84411,-0.94023 3.59165,-1.61832 5.70978,-1.22946c0.82256,0.15101 1.48185,0.91683 2.3169,0.96269c1.09468,0.06012 1.93808,-1.02755 2.87881,-1.59054c2.99955,-1.79512 5.5828,-4.01594 8.50411,-5.84033c2.70659,-1.6903 5.522,-1.14278 8.52271,-2.10261c0,0 1.1911,-0.37918 1.57029,0.81192c0.37919,1.1911 -0.81191,1.57028 -0.81191,1.57028c-2.07668,0.65823 -4.04019,0.43471 -5.9974,0.77178c-1.68669,0.29048 -3.39575,2.25502 -4.62032,3.25032c-2.30691,1.87502 -5.4463,3.81627 -8.15397,5.02932c-3.02788,1.35652 -5.23854,-1.24675 -8.56559,0.46861c-0.68822,0.54608 -1.43784,1.01979 -2.21801,1.42376l-1.29086,0.33835c0,0 -1.21754,0.28299 -1.50054,-0.93455c-0.28299,-1.21754 0.93455,-1.50054 0.93455,-1.50054z" data-paper-data="{&quot;index&quot;:null}" fill="#9f7140" stroke="#7b4d00" stroke-width="0" stroke-linecap="butt"/><path d="M241.78792,364.15853l0.71716,-0.12837c0.71081,-0.35924 1.38039,-0.80559 2.00429,-1.30063c1.84411,-0.94023 3.59165,-1.61832 5.70978,-1.22946c0.82256,0.15101 1.48185,0.91683 2.3169,0.96269c1.09468,0.06012 1.93808,-1.02755 2.87881,-1.59054c2.99955,-1.79512 5.58281,-4.01594 8.50412,-5.84033c2.70659,-1.6903 5.52199,-1.14278 8.5227,-2.10261c0,0 1.1911,-0.37918 1.57029,0.81192c0.37919,1.1911 -0.81191,1.57028 -0.81191,1.57028c-2.07668,0.65823 -4.04019,0.43471 -5.9974,0.77178c-1.68669,0.29048 -3.39575,2.25502 -4.62031,3.25032c-2.30691,1.87502 -5.4463,3.81627 -8.15397,5.02932c-3.02788,1.35652 -5.23854,-1.24675 -8.56559,0.46861c-0.68822,0.54608 -1.43784,1.01979 -2.21801,1.42376l-1.29086,0.33835c0,0 -1.21754,0.28299 -1.50054,-0.93455c-0.28299,-1.21754 0.93455,-1.50054 0.93455,-1.50054z" data-paper-data="{&quot;index&quot;:null}" fill="#9f7140" stroke="#7b4d00" stroke-width="0" stroke-linecap="butt"/><path d="M246.78792,369.15853l0.71716,-0.12837c0.71081,-0.35924 1.38039,-0.80559 2.00429,-1.30063c1.84411,-0.94023 3.59165,-1.61832 5.70978,-1.22946c0.82256,0.15101 1.48185,0.91683 2.3169,0.96269c1.09468,0.06012 1.93808,-1.02755 2.87881,-1.59054c2.99955,-1.79512 5.58281,-4.01594 8.50412,-5.84033c2.70659,-1.6903 5.52199,-1.14278 8.5227,-2.10261c0,0 1.1911,-0.37918 1.57029,0.81192c0.37919,1.1911 -0.81191,1.57028 -0.81191,1.57028c-2.07668,0.65823 -4.04019,0.43471 -5.9974,0.77178c-1.68669,0.29048 -3.39575,2.25502 -4.62031,3.25032c-2.30691,1.87502 -5.4463,3.81627 -8.15397,5.02932c-3.02788,1.35652 -5.23854,-1.24675 -8.56559,0.46861c-0.68822,0.54608 -1.43784,1.01979 -2.21801,1.42376l-1.29086,0.33835c0,0 -1.21754,0.28299 -1.50054,-0.93455c-0.28299,-1.21754 0.93455,-1.50054 0.93455,-1.50054z" data-paper-data="{&quot;index&quot;:null}" fill="#9f7140" stroke="#7b4d00" stroke-width="0" stroke-linecap="butt"/><path d="M209.28792,357.15853l0.71716,-0.12837c0.71081,-0.35924 1.38039,-0.80559 2.00429,-1.30063c1.84411,-0.94023 3.59165,-1.61832 5.70978,-1.22946c0.82256,0.15101 1.48184,0.91683 2.31689,0.96269c1.09468,0.06012 1.93808,-1.02755 2.87881,-1.59054c2.99955,-1.79512 5.58281,-4.01594 8.50412,-5.84033c2.70659,-1.6903 5.52199,-1.14278 8.5227,-2.10261c0,0 1.1911,-0.37918 1.57029,0.81192c0.37919,1.1911 -0.81191,1.57028 -0.81191,1.57028c-2.07668,0.65823 -4.04019,0.43471 -5.9974,0.77178c-1.68669,0.29048 -3.39575,2.25502 -4.62031,3.25032c-2.30691,1.87502 -5.4463,3.81627 -8.15397,5.02932c-3.02788,1.35652 -5.23854,-1.24675 -8.56559,0.46861c-0.68822,0.54608 -1.43784,1.01979 -2.21801,1.42376l-1.29086,0.33835c0,0 -1.21754,0.28299 -1.50054,-0.93455c-0.28299,-1.21754 0.93455,-1.50054 0.93455,-1.50054z" data-paper-data="{&quot;index&quot;:null}" fill="#9f7140" stroke="#7b4d00" stroke-width="0" stroke-linecap="butt"/><path d="M230.28791,342.90853l0.71716,-0.12837c0.71081,-0.35924 1.38039,-0.80559 2.00429,-1.30063c1.84411,-0.94023 3.59165,-1.61832 5.70978,-1.22946c0.82256,0.15101 1.48185,0.91683 2.3169,0.96269c1.09468,0.06012 1.93808,-1.02755 2.87881,-1.59054c2.99955,-1.79512 5.5828,-4.01594 8.50411,-5.84033c2.70659,-1.6903 5.522,-1.14278 8.5227,-2.10261c0,0 1.1911,-0.37918 1.57029,0.81192c0.37919,1.1911 -0.81191,1.57028 -0.81191,1.57028c-2.07667,0.65823 -4.04018,0.43471 -5.9974,0.77178c-1.68669,0.29048 -3.39575,2.25502 -4.62032,3.25032c-2.30691,1.87502 -5.4463,3.81627 -8.15397,5.02932c-3.02788,1.35652 -5.23854,-1.24675 -8.56559,0.46861c-0.68822,0.54608 -1.43784,1.01979 -2.21801,1.42376l-1.29086,0.33835c0,0 -1.21754,0.28299 -1.50054,-0.93455c-0.28299,-1.21754 0.93455,-1.50054 0.93455,-1.50054z" data-paper-data="{&quot;index&quot;:null}" fill="#9f7140" stroke="#7b4d00" stroke-width="0" stroke-linecap="butt"/><path d="M189.78792,358.40853l0.71716,-0.12837c0.71081,-0.35924 1.38039,-0.80559 2.00429,-1.30063c1.84411,-0.94023 3.59165,-1.61832 5.70978,-1.22946c0.82256,0.15101 1.48185,0.91683 2.3169,0.96269c1.09468,0.06012 1.93808,-1.02755 2.87881,-1.59054c2.99955,-1.79512 5.5828,-4.01594 8.50411,-5.84033c2.70659,-1.6903 5.522,-1.14278 8.52271,-2.10261c0,0 1.1911,-0.37918 1.57029,0.81192c0.37919,1.1911 -0.81191,1.57028 -0.81191,1.57028c-2.07668,0.65823 -4.04019,0.43471 -5.9974,0.77178c-1.68669,0.29048 -3.39575,2.25502 -4.62032,3.25032c-2.30691,1.87502 -5.4463,3.81627 -8.15397,5.02932c-3.02788,1.35652 -5.23854,-1.24675 -8.56559,0.46861c-0.68822,0.54608 -1.43784,1.01979 -2.21801,1.42376l-1.29086,0.33835c0,0 -1.21754,0.28299 -1.50054,-0.93455c-0.28299,-1.21754 0.93455,-1.50054 0.93455,-1.50054z" data-paper-data="{&quot;index&quot;:null}" fill="#9f7140" stroke="#7b4d00" stroke-width="0" stroke-linecap="butt"/><path d="M197.78792,349.15853l0.71716,-0.12837c0.71081,-0.35924 1.38039,-0.80559 2.00429,-1.30063c1.84411,-0.94023 3.59165,-1.61832 5.70978,-1.22946c0.82256,0.15101 1.48185,0.91683 2.3169,0.96269c1.09468,0.06012 1.93808,-1.02755 2.87881,-1.59054c2.99955,-1.79512 5.5828,-4.01594 8.50411,-5.84033c2.70659,-1.6903 5.522,-1.14278 8.52271,-2.10261c0,0 1.1911,-0.37918 1.57029,0.81192c0.37919,1.1911 -0.81191,1.57028 -0.81191,1.57028c-2.07667,0.65823 -4.04019,0.43471 -5.9974,0.77178c-1.68669,0.29048 -3.39575,2.25502 -4.62032,3.25032c-2.30691,1.87502 -5.4463,3.81627 -8.15397,5.02932c-3.02788,1.35652 -5.23854,-1.24675 -8.56559,0.46861c-0.68822,0.54608 -1.43784,1.01979 -2.21801,1.42376l-1.29086,0.33835c0,0 -1.21754,0.28299 -1.50054,-0.93455c-0.28299,-1.21754 0.93455,-1.50054 0.93455,-1.50054z" data-paper-data="{&quot;index&quot;:null}" fill="#9f7140" stroke="#7b4d00" stroke-width="0" stroke-linecap="butt"/><path d="M253.86644,342.19565c-0.55302,-1.12101 0.56798,-1.67403 0.56798,-1.67403l1.2128,-0.55669c0.85945,-0.18219 1.7395,-0.29107 2.61793,-0.30506c3.66049,-0.78264 3.71975,-4.19739 6.92138,-5.06789c2.86304,-0.77844 6.52161,-1.26742 9.49438,-1.27985c1.57802,-0.0066 4.14519,0.4292 5.63376,-0.41545c1.72733,-0.98013 3.10412,-2.39779 5.12744,-3.20528c0,0 1.16154,-0.46187 1.62341,0.69967c0.46187,1.16154 -0.69967,1.62341 -0.69967,1.62341c-2.92913,1.16005 -4.75934,3.36836 -7.92411,3.77703c-3.41583,0.44109 -6.82154,0.36129 -10.27932,0.87463c-1.08444,0.16099 -2.42624,-0.14548 -3.23471,0.59501c-0.61672,0.56486 -0.64108,1.57507 -1.18148,2.21334c-1.39155,1.64355 -3.17292,2.22703 -5.19515,2.66899c-0.79634,0.01268 -1.59714,0.09198 -2.3746,0.26479l-0.63601,0.35538c0,0 -1.12101,0.55302 -1.67404,-0.56799z" data-paper-data="{&quot;index&quot;:null}" fill="#9f7140" stroke="#7b4d00" stroke-width="0" stroke-linecap="butt"/><path d="M258.86645,347.19565c-0.55302,-1.12101 0.56798,-1.67404 0.56798,-1.67404l1.21281,-0.55669c0.85945,-0.18219 1.7395,-0.29107 2.61793,-0.30505c3.66049,-0.78265 3.71974,-4.1974 6.92137,-5.06789c2.86304,-0.77844 6.52161,-1.26742 9.49439,-1.27985c1.57802,-0.0066 4.14518,0.4292 5.63376,-0.41546c1.72733,-0.98012 3.10412,-2.39779 5.12744,-3.20528c0,0 1.16154,-0.46188 1.62341,0.69966c0.46187,1.16154 -0.69967,1.62342 -0.69967,1.62342c-2.92913,1.16005 -4.75934,3.36835 -7.92411,3.77703c-3.41583,0.4411 -6.82154,0.3613 -10.27933,0.87464c-1.08445,0.16099 -2.42623,-0.14548 -3.2347,0.59501c-0.61672,0.56486 -0.64109,1.57507 -1.18149,2.21333c-1.39155,1.64355 -3.17292,2.22703 -5.19515,2.66899c-0.79634,0.01268 -1.59713,0.09198 -2.37459,0.26479l-0.63601,0.35538c0,0 -1.12101,0.55302 -1.67404,-0.56799z" data-paper-data="{&quot;index&quot;:null}" fill="#9f7140" stroke="#7b4d00" stroke-width="0" stroke-linecap="butt"/><path d="M263.86645,352.19565c-0.55302,-1.12101 0.56798,-1.67404 0.56798,-1.67404l1.21281,-0.55669c0.85945,-0.18219 1.7395,-0.29107 2.61793,-0.30505c3.66049,-0.78265 3.71974,-4.1974 6.92137,-5.06789c2.86304,-0.77844 6.52161,-1.26742 9.49439,-1.27985c1.57802,-0.0066 4.14518,0.4292 5.63376,-0.41546c1.72733,-0.98012 3.10412,-2.39779 5.12744,-3.20528c0,0 1.16154,-0.46188 1.62341,0.69966c0.46187,1.16154 -0.69967,1.62342 -0.69967,1.62342c-2.92913,1.16005 -4.75934,3.36835 -7.92411,3.77703c-3.41583,0.4411 -6.82154,0.3613 -10.27933,0.87464c-1.08445,0.16099 -2.42623,-0.14548 -3.2347,0.59501c-0.61672,0.56486 -0.64109,1.57507 -1.18149,2.21333c-1.39155,1.64355 -3.17292,2.22703 -5.19515,2.66899c-0.79634,0.01268 -1.59713,0.09198 -2.37459,0.26479l-0.63601,0.35538c0,0 -1.12101,0.55302 -1.67404,-0.56799z" data-paper-data="{&quot;index&quot;:null}" fill="#9f7140" stroke="#7b4d00" stroke-width="0" stroke-linecap="butt"/><path d="M268.86645,357.19565c-0.55302,-1.12101 0.56798,-1.67404 0.56798,-1.67404l1.21281,-0.55669c0.85945,-0.18219 1.7395,-0.29107 2.61793,-0.30505c3.66049,-0.78265 3.71974,-4.1974 6.92137,-5.06789c2.86304,-0.77844 6.52161,-1.26742 9.49439,-1.27985c1.57802,-0.0066 4.14518,0.4292 5.63376,-0.41546c1.72733,-0.98012 3.10412,-2.39779 5.12744,-3.20528c0,0 1.16154,-0.46188 1.62341,0.69966c0.46187,1.16154 -0.69967,1.62342 -0.69967,1.62342c-2.92913,1.16005 -4.75934,3.36835 -7.92411,3.77703c-3.41583,0.4411 -6.82154,0.3613 -10.27933,0.87464c-1.08445,0.16099 -2.42623,-0.14548 -3.2347,0.59501c-0.61672,0.56486 -0.64109,1.57507 -1.18149,2.21333c-1.39155,1.64355 -3.17292,2.22703 -5.19515,2.66899c-0.79634,0.01268 -1.59713,0.09198 -2.37459,0.26479l-0.63601,0.35538c0,0 -1.12101,0.55302 -1.67404,-0.56799z" data-paper-data="{&quot;index&quot;:null}" fill="#9f7140" stroke="#7b4d00" stroke-width="0" stroke-linecap="butt"/><path d="M205.98324,353.15567c-0.52901,0.24252 -1.09773,-0.04184 -1.09773,-0.04184c-2.41584,-1.22799 -6.75301,-3.95837 -3.7848,-7.52897c1.11447,-1.34065 2.51712,-0.64048 3.36319,0.18626c0.00224,-0.57922 0.10799,-1.21308 0.26939,-1.58418c0.52224,-1.20076 1.06017,-3.04967 2.36679,-3.13519c0.97837,-0.06403 1.44763,1.11417 2.00347,2.08113l0.03099,-0.04958l0.30475,0.19047c0.96971,-2.1465 3.70078,-4.67734 5.91242,-3.09128c1.24646,0.89389 1.6424,2.77326 1.95668,4.27412l0.42154,-0.12646l0.09353,0.31178c3.89133,-1.60806 7.93603,4.26134 5.09484,7.63764c-1.31337,1.56074 -3.43649,0.86978 -4.93688,0.37727c-0.41415,-0.13594 -3.27585,-1.89828 -3.84978,-1.08379c-0.27732,0.39357 0.02832,1.15936 -0.39461,1.38942c-1.28495,0.69896 -5.3076,0.78055 -6.78763,0.50905l-0.90014,-0.28987c0,0 -0.02479,-0.00826 -0.066,-0.02598z" fill="#13fc2c" stroke="none" stroke-width="0.5" stroke-linecap="butt"/><path d="M231.49802,360.50604c-0.3955,0.18132 -0.82068,-0.03128 -0.82068,-0.03128c-1.80612,-0.91807 -5.04867,-2.95935 -2.82959,-5.62879c0.8332,-1.00229 1.88184,-0.47884 2.51438,0.13925c0.00167,-0.43303 0.08073,-0.90692 0.2014,-1.18436c0.39044,-0.89771 0.7926,-2.27999 1.76945,-2.34392c0.73145,-0.04787 1.08227,0.83298 1.49783,1.55589l0.02317,-0.03707l0.22783,0.14239c0.72498,-1.60476 2.76677,-3.49686 4.42023,-2.3111c0.93187,0.66828 1.22788,2.07334 1.46285,3.19541l0.31515,-0.09454l0.06993,0.2331c2.90923,-1.20222 5.93311,3.18585 3.80899,5.71003c-0.9819,1.16683 -2.56918,0.65026 -3.69089,0.28205c-0.30962,-0.10163 -2.44909,-1.41919 -2.87816,-0.81026c-0.20733,0.29424 0.02117,0.86676 -0.29502,1.03876c-0.96065,0.52256 -3.96805,0.58355 -5.07455,0.38057l-0.67296,-0.21671c0,0 -0.01853,-0.00618 -0.04934,-0.01943z" fill="#13fc2c" stroke="none" stroke-width="0.5" stroke-linecap="butt"/><path d="M230.74802,347.25604c-0.3955,0.18131 -0.82068,-0.03127 -0.82068,-0.03127c-1.80613,-0.91807 -5.04867,-2.95935 -2.82959,-5.62879c0.8332,-1.0023 1.88184,-0.47884 2.51438,0.13925c0.00168,-0.43303 0.08073,-0.90692 0.2014,-1.18436c0.39044,-0.89771 0.7926,-2.27999 1.76945,-2.34393c0.73145,-0.04787 1.08228,0.83298 1.49783,1.55589l0.02316,-0.03707l0.22783,0.1424c0.72498,-1.60476 2.76677,-3.49686 4.42023,-2.3111c0.93187,0.66829 1.22789,2.07333 1.46285,3.1954l0.31515,-0.09454l0.06993,0.2331c2.90923,-1.20222 5.93311,3.18585 3.80899,5.71003c-0.9819,1.16683 -2.56918,0.65026 -3.6909,0.28205c-0.30962,-0.10163 -2.44908,-1.41919 -2.87816,-0.81026c-0.20734,0.29424 0.02117,0.86677 -0.29503,1.03876c-0.96065,0.52256 -3.96805,0.58356 -5.07455,0.38058l-0.67296,-0.21671c0,0 -0.01853,-0.00618 -0.04934,-0.01943z" fill="#13fc2c" stroke="none" stroke-width="0.5" stroke-linecap="butt"/><path d="M217.49802,338.25604c-0.3955,0.18131 -0.82068,-0.03127 -0.82068,-0.03127c-1.80613,-0.91807 -5.04867,-2.95935 -2.82959,-5.62879c0.8332,-1.0023 1.88184,-0.47884 2.51438,0.13925c0.00168,-0.43303 0.08073,-0.90692 0.2014,-1.18436c0.39044,-0.89771 0.7926,-2.27999 1.76945,-2.34393c0.73145,-0.04787 1.08228,0.83298 1.49783,1.55589l0.02316,-0.03707l0.22783,0.1424c0.72498,-1.60476 2.76677,-3.49686 4.42023,-2.3111c0.93187,0.66829 1.22789,2.07333 1.46285,3.1954l0.31515,-0.09454l0.06993,0.2331c2.90923,-1.20222 5.93311,3.18585 3.80899,5.71003c-0.9819,1.16683 -2.56918,0.65026 -3.6909,0.28205c-0.30962,-0.10163 -2.44908,-1.41919 -2.87816,-0.81026c-0.20734,0.29424 0.02117,0.86677 -0.29503,1.03876c-0.96065,0.52256 -3.96805,0.58356 -5.07455,0.38058l-0.67296,-0.21671c0,0 -0.01853,-0.00618 -0.04934,-0.01943z" fill="#13fc2c" stroke="none" stroke-width="0.5" stroke-linecap="butt"/><path d="M255.79749,341.58033c-0.31005,0.14214 -0.64337,-0.02452 -0.64337,-0.02452c-1.41592,-0.71972 -3.95792,-2.31999 -2.21826,-4.41271c0.65319,-0.78575 1.47527,-0.37539 1.97116,0.10916c0.00131,-0.33948 0.06329,-0.71098 0.15789,-0.92848c0.30609,-0.70376 0.62136,-1.7874 1.38717,-1.83753c0.57342,-0.03753 0.84846,0.65301 1.17423,1.21974l0.01816,-0.02906l0.17861,0.11163c0.56835,-1.25805 2.16902,-2.74137 3.46525,-1.81179c0.73054,0.5239 0.9626,1.6254 1.14681,2.50505l0.24706,-0.07411l0.05482,0.18274c2.2807,-0.94248 4.65128,2.49756 2.98607,4.4764c-0.76976,0.91474 -2.01411,0.50977 -2.89349,0.22111c-0.24273,-0.07968 -1.91997,-1.11258 -2.25634,-0.63521c-0.16254,0.23067 0.0166,0.6795 -0.23129,0.81434c-0.7531,0.40966 -3.11076,0.45748 -3.97821,0.29835l-0.52757,-0.16989c0,0 -0.01453,-0.00484 -0.03868,-0.01523z" fill="#13fc2c" stroke="none" stroke-width="0.5" stroke-linecap="butt"/></g></g></svg>