<svg version="1.1" xmlns="http://www.w3.org/2000/svg" xmlns:xlink="http://www.w3.org/1999/xlink" width="731.01051" height="582.4955" viewBox="0,0,731.01051,582.4955"><g transform="translate(125.50526,98.2455)"><g data-paper-data="{&quot;isPaintingLayer&quot;:true}" fill-rule="nonzero" stroke-linejoin="miter" stroke-miterlimit="10" stroke-dasharray="" stroke-dashoffset="0" style="mix-blend-mode: normal"><path d="M-125.25525,451.28379v-542.07958h730.51051v542.07958z" fill="#65bae1" stroke="#ffffff" stroke-width="0.5" stroke-linecap="butt"/><path d="M553,452.0163c0,17.66411 -18.46825,31.9837 -41.25,31.9837c-22.78175,0 -41.25,-14.31959 -41.25,-31.9837c0,-17.66411 18.46825,-31.9837 41.25,-31.9837c22.78175,0 41.25,14.31959 41.25,31.9837z" fill="#4e9543" stroke="#ffffff" stroke-width="0.5" stroke-linecap="butt"/><path d="M142.4024,146.74925c0,64.682 -58.40465,117.11711 -130.45044,117.11711c-72.04579,0 -130.45045,-52.43512 -130.45045,-117.11711c0,-64.68199 58.40466,-117.11712 130.45045,-117.11712c72.0458,0 130.45045,52.43512 130.45045,117.11712z" fill="#7ce065" stroke="#ffffff" stroke-width="0.5" stroke-linecap="butt"/><path d="M528.28829,71.67418c0,72.97456 -57.81308,132.13213 -129.12913,132.13213c-71.31605,0 -129.12913,-59.15757 -129.12913,-132.13213c0,-72.97456 57.81308,-132.13213 129.12913,-132.13213c71.31605,0 129.12913,59.15758 129.12913,132.13214z" fill="#7ce065" stroke="#ffffff" stroke-width="0.5" stroke-linecap="butt"/><path d="M143.90391,-43.94144c0,29.85323 -27.22593,54.05406 -60.81081,54.05406c-33.58488,0 -60.81082,-24.20082 -60.81082,-54.05405c0,-29.85323 27.22593,-54.05406 60.81082,-54.05406c33.58489,0 60.81081,24.20083 60.81081,54.05406z" fill="#7ce065" stroke="#ffffff" stroke-width="0.5" stroke-linecap="butt"/><path d="M432.1922,344.63213c0,46.85298 -41.67921,84.83484 -93.0931,84.83484c-51.41389,0 -93.09309,-37.98185 -93.09309,-84.83483c0,-46.85298 41.6792,-84.83483 93.09309,-84.83483c51.41389,0 93.0931,37.98185 93.0931,84.83484z" fill="#7ce065" stroke="#ffffff" stroke-width="0.5" stroke-linecap="butt"/><path d="M223.48349,135.92343c0,16.99975 -13.4449,30.78078 -30.03003,30.78078c-16.58513,0 -30.03003,-13.78102 -30.03003,-30.78078c0,-16.99975 13.4449,-30.78078 30.03003,-30.78078c16.58513,0 30.03003,13.78103 30.03003,30.78078z" fill="#7ce065" stroke="#ffffff" stroke-width="0.5" stroke-linecap="butt"/><path d="M451.35135,259.7973c0,32.341 27.37307,58.55856 61.13947,58.55856c33.7664,0 61.13947,-26.21756 61.13947,-58.55856c0,-32.341 -27.37307,-58.55856 -61.13947,-58.55856c-33.7664,0 -61.13947,26.21756 -61.13947,58.55856z" fill="#7ce065" stroke="#ffffff" stroke-width="0.5" stroke-linecap="butt"/><path d="M31.29129,409.94745c0,29.02398 -25.54531,52.55255 -57.05705,52.55255c-31.51174,0 -57.05706,-23.52858 -57.05706,-52.55255c0,-29.02398 25.54532,-52.55255 57.05706,-52.55255c31.51174,0 57.05706,23.52857 57.05706,52.55255z" fill="#7ce065" stroke="#ffffff" stroke-width="0.5" stroke-linecap="butt"/><path d="M178.43844,361.14865c0,26.95083 -24.53695,48.7988 -54.80481,48.7988c-30.26786,0 -54.8048,-21.84797 -54.8048,-48.7988c0,-26.95083 24.53695,-48.7988 54.80481,-48.7988c30.26786,0 54.80481,21.84797 54.80481,48.7988z" fill="#7ce065" stroke="#ffffff" stroke-width="0.5" stroke-linecap="butt"/><path d="M127.38739,236.23874l-109.72972,-87.98799l85.20521,120.12012" fill="none" stroke="#65bae1" stroke-width="6.5" stroke-linecap="round"/><path d="M86.84685,245.84835l-58.55855,-87.08709c0,0 49.64231,44.21269 67.38459,60.01441c11.58129,10.31459 28.7115,25.57118 28.7115,25.57118" fill="none" stroke="#65bae1" stroke-width="6.5" stroke-linecap="round"/><path d="M103.36337,253.33934c-2.5,0 -2.5,-2.5 -2.5,-2.5l0.73223,0.26627c-2.20974,-2.20974 -4.39327,-4.46234 -6.58864,-6.70656c-0.92492,0.03447 -1.89847,-0.06745 -2.72848,-0.13559c-5.25168,-0.43117 -9.10693,-7.6614 -11.82476,-11.30563c-1.71613,-1.74061 -3.72756,-3.22597 -5.88514,-4.37475l-0.20515,-0.78131l-0.26315,0.13157l-2.21358,-4.42715c-0.18291,-0.34741 -0.28642,-0.74312 -0.28642,-1.16302c0,-1.29991 0.99212,-2.36811 2.26046,-2.48868c-0.20755,-0.19741 -0.41406,-0.39841 -0.61949,-0.60325l-3,-3c-0.45241,-0.45241 -0.73223,-1.07741 -0.73223,-1.76776c0,-0.53022 0.16506,-1.02189 0.4466,-1.42642c-2.00873,-1.86332 -4.07371,-3.67115 -5.89755,-5.495c0,0 -1.17087,-1.17086 -0.65389,-2.5597c-1.4228,0.27759 -2.39515,-1.01888 -2.39515,-1.01888c-6.16741,-8.22322 -12.03817,-16.65163 -18.01309,-25.01746l-2.97176,-3.96234c-0.32311,-0.42123 -0.51515,-0.94829 -0.51515,-1.5202c0,-1.38071 1.11929,-2.5 2.5,-2.5c0.57191,0 1.09896,0.19204 1.5202,0.51515l3.9798,2.98485l-0.02155,0.02872c0.05331,0.02728 0.10649,0.05483 0.15955,0.08265c3.21483,1.68571 4.75384,5.79954 6.48862,8.5743c1.46132,2.33737 3.08864,4.57368 4.80673,6.72935c2.54344,3.19125 5.59276,4.82559 8.83748,7.14509c0.04166,0.02979 0.08328,0.05965 0.12484,0.08957c0.4447,-0.69159 1.22102,-1.14969 2.10433,-1.14969c0.29691,0 0.58173,0.05176 0.84593,0.14675l2.94464,0.98154l-0.00447,0.01341c0.01607,0.00048 0.03215,0.00103 0.04823,0.00163c1.68091,0.06304 3.15015,1.1808 4.72513,1.77147c3.45597,1.2961 6.78697,3.07023 10.27802,4.22965c3.30484,1.09757 7.01356,1.60421 9.98299,3.61688c0.78661,0.53316 1.44474,1.22145 2.06632,1.95364c1.0699,0.72176 2.13383,1.48863 3.89544,2.38141c0.44931,-0.43182 1.0597,-0.69726 1.73209,-0.69726c0.58567,0 1.12431,0.20139 1.55043,0.5387l3.89973,3.02623c0.86256,0.40244 1.65161,0.85079 2.29033,1.37368c0.04033,0.03302 0.08033,0.06635 0.12002,0.10001l0.01192,-0.01787l2.96774,1.97849c0.68926,0.44513 1.14552,1.22011 1.14552,2.10164c0,0.24771 -0.03603,0.48701 -0.10313,0.71294c1.53137,1.58073 2.96221,3.21647 4.08962,4.90568l3.35752,3.69328c0.40739,0.44478 0.65599,1.03741 0.65599,1.68811c0,1.38071 -1.11929,2.5 -2.5,2.5c-0.29691,0 -0.58173,-0.05176 -0.84593,-0.14675l-2.5038,-0.8346l1.89344,1.51475c0.5823,0.45772 0.95629,1.16849 0.95629,1.9666c0,1.38071 -1.11929,2.5 -2.5,2.5c-0.52532,0 -1.0128,-0.16203 -1.41519,-0.43884l-2.79855,-1.8657c-2.02111,-0.77793 -3.95014,-1.71917 -5.8381,-2.73923c1.70927,1.88867 3.40848,3.75426 4.9304,5.88679l1.88921,1.88921c0.45241,0.45241 0.73224,1.07742 0.73224,1.76777c0,1.38071 -1.11929,2.5 -2.5,2.5c-0.15625,0 -0.30915,-0.01434 -0.45746,-0.04176l-4.88551,-0.81425l0.00806,-0.04837c-0.16575,-0.02349 -0.33113,-0.05162 -0.49612,-0.08488c-0.06251,-0.0126 -0.75086,-0.43889 -1.71185,-1.04721c-0.21734,1.15924 -1.23478,2.03646 -2.45711,2.03646c-0.29691,0 -0.58173,-0.05176 -0.84593,-0.14675l-2.94464,-0.98155l0.00737,-0.02212c-0.0747,-0.01924 -0.1492,-0.03962 -0.22346,-0.06121c-0.30303,-0.08812 -0.60523,-0.18547 -0.9065,-0.29137c1.34122,1.37095 2.68352,2.73783 4.03527,4.08959l0.73224,3.26927c0,0 0,2.5 -2.5,2.5zM120.19234,231.62859l0.08024,0.06419l0.02015,-0.06047zM117.69468,229.61011c-0.16642,-0.09985 -0.34283,-0.1781 -0.52551,-0.24275c0.40714,0.46211 0.81,0.92903 1.20821,1.40176l0.27058,-0.33823c-0.28638,-0.31378 -0.59143,-0.60366 -0.95328,-0.82077zM65.2481,201.39089c0.12977,0.26579 0.26919,0.64159 0.29623,1.06637c0.18585,-0.13458 0.39094,-0.24421 0.61037,-0.32399c-0.29995,-0.25946 -0.60185,-0.50818 -0.90659,-0.74238zM106.6653,235.64113c-0.76627,-0.84934 -1.53182,-1.70852 -2.28189,-2.60358c-0.08656,-0.01028 -0.17436,-0.02135 -0.26339,-0.03322c0.42314,0.60804 0.84987,1.21818 1.25722,1.83898c0.43185,0.26323 0.86164,0.52864 1.28806,0.79783z" fill="#65bae1" stroke="none" stroke-width="0.5" stroke-linecap="butt"/><path d="M215.97598,175.76427l-15.01502,-31.53153l16.51651,31.53153" fill="none" stroke="#65bae1" stroke-width="2.5" stroke-linecap="round"/><path d="M199.8989,145.05206c1.76776,-1.76776 3.53554,0 3.53554,0l0.35026,0.5317c1.78963,0.92899 3.28007,2.35323 4.82126,3.65344c1.44077,1.21549 3.3251,1.79703 4.86017,2.891c0.42746,0.30462 0.9803,0.54577 1.41298,0.8672c0.6921,0.05824 1.30396,0.39843 1.72033,0.9053l1.64394,1.97273c0.36806,0.43538 0.58996,0.99831 0.58996,1.61306c0,1.38071 -1.11929,2.5 -2.5,2.5c-0.10226,0 -0.20308,-0.00613 -0.30211,-0.01806l0.31237,1.62632c-0.51721,-0.14131 -1.04504,-0.25436 -1.57384,-0.36485c0.13559,0.22591 0.26937,0.45342 0.40086,0.68291c0,0 1.24034,2.17061 -0.93027,3.41096c-2.17061,1.24034 -3.41096,-0.93026 -3.41096,-0.93026c-1.93169,-3.39026 -4.25978,-6.36827 -5.81601,-9.97546l-0.00138,-0.06105l-0.01949,0.00731l-0.92742,-2.47313c-0.77993,-0.706 -1.57572,-1.38986 -2.51645,-1.83527l-1.64973,-1.46831c0,0 -1.76776,-1.76776 0,-3.53553z" fill="#65bae1" stroke="none" stroke-width="0.5" stroke-linecap="butt"/><path d="M206.66667,167.48648l-8.66666,-25.66666l23.66666,16.66666l-20.66666,-14.33333" fill="none" stroke="#65bae1" stroke-width="2.5" stroke-linecap="round"/><path d="M202.66667,149.15316l5.33334,14.66666" fill="none" stroke="#65bae1" stroke-width="2.5" stroke-linecap="round"/><path d="M247.50751,27.11562l160.66066,43.54355l-136.63664,-127.62763" fill="none" stroke="#65bae1" stroke-width="2.5" stroke-linecap="round"/><path d="M303.22234,-36.42527c2.63142,1.1446 5.54116,1.7914 7.89424,3.43379c1.10145,0.76879 1.19547,2.42654 2.02056,3.48648c0.11241,0.14441 0.2319,-0.43375 0.40407,-0.37171c1.24775,0.44965 2.43738,1.07499 3.55014,1.79668c2.40724,1.56124 4.97876,2.98 6.98202,5.03408c1.38094,1.41597 2.11632,3.35485 2.94899,5.14889c0.00344,0.00743 0.00558,0.01474 0.00653,0.02194c0.00851,0.00139 0.01712,0.00479 0.02584,0.01043c2.39778,1.55205 5.00768,2.94224 6.92135,5.05829c2.11605,1.91367 3.50624,4.52357 5.05829,6.92135c0.09945,0.15364 -0.52308,0.30122 -0.3717,0.40407c0.76309,0.51842 1.90099,0.42012 2.54996,1.07579c1.64164,1.65858 2.63969,3.85605 4.1184,5.6614c1.02736,1.2543 2.42741,2.18526 3.382,3.49579c0.36064,0.49511 0.03559,1.33752 0.46015,1.77904c1.27995,1.33109 2.95896,2.21017 4.43844,3.31525c0,1.001 -0.55525,2.17012 0,3.00301c0.62079,0.93119 2.45132,0.52777 3.003,1.5015c0.73327,1.29424 1.03311,2.80496 1.15353,4.31854c0.73007,0.25718 1.41315,0.81567 1.91553,1.37522c1.45638,1.6221 2.39979,3.65211 3.37471,5.60193c0.08184,0.16369 -0.51993,0.29673 -0.3717,0.40407c0.90643,0.65643 2.21164,0.71014 3.003,1.5015c0.79136,0.79136 0.71015,2.21165 1.50151,3.00301c0.79136,0.79136 2.25532,0.66874 3.003,1.5015c1.45638,1.6221 2.39979,3.65212 3.37471,5.60194c0.00421,0.00841 0.00666,0.01669 0.00754,0.02483c0.00815,0.00088 0.01641,0.00333 0.02483,0.00754c1.94982,0.97491 3.97983,1.91832 5.60193,3.3747c0.83276,0.74768 0.73493,2.1876 1.5015,3.003c1.26487,1.34543 3.96762,1.52965 4.43845,3.31526c1.14883,4.35696 1.92512,9.4437 0,13.51762c-1.56386,3.30942 -5.76316,4.75048 -9.21198,5.97668c-6.62434,2.35523 -12.83265,-1.80357 -17.15365,-6.12457c-2.75331,-1.1325 -5.62804,-2.44644 -8.18117,-3.96783c-0.29305,-0.17462 -6.6472,-4.57408 -7.78877,-4.92262c-0.95738,-0.2923 -2.03904,0.2698 -3.003,0c-1.81727,-0.50865 -3.48973,-1.44578 -5.17761,-2.28972c-1.16193,-0.58096 -2.57111,-0.39821 -3.8314,-0.71328c-1.2639,-0.31598 -2.49032,-1.69591 -3.70848,-1.234h-3.003c0,0 -1.09373,0 -2.55775,-0.36171c-4.95281,0.91347 -10.22905,0.70818 -15.46455,-0.89508c-7.83603,-2.39961 -14.97388,-7.06401 -22.76324,-9.44338c-3.55482,-1.08587 -7.55347,-1.05942 -10.7535,-2.95035c-3.25862,-1.92554 -6.71586,-4.13556 -8.59375,-7.42187c-2.47602,-4.33302 -3.15644,-9.51921 -3.90625,-14.45312c-0.21008,-1.38233 1.07493,-2.65126 1.09441,-4.04933c0.02976,-2.13598 -3.20562,-2.84997 -4.56506,-4.49776c-0.87601,-1.06183 -2.1215,-4.24299 -2.67413,-5.34825c-1.82906,-3.47409 -2.86424,-7.43125 -2.86424,-11.63018c0,-2.78436 0.45519,-5.46241 1.2952,-7.96379c3.4821,-10.81413 13.69872,-19.45639 27.19866,-17.36666c3.19022,0.49383 5.49214,1.5421 7.50491,2.87364c1.71938,0.8437 3.32767,1.87904 4.79704,3.07818c3.88439,-6.12375 11.3905,-3.62171 11.3905,-3.62171zM373.41178,37.84798c-0.13333,0.0742 -0.28772,0.14145 -0.21458,0.21458c0.07313,0.07314 0.14038,-0.08125 0.21458,-0.21458zM326.86553,-17.70789c-0.13339,0.07449 -0.28844,0.14135 -0.21488,0.21491c0.07187,0.07187 0.14116,-0.08143 0.21488,-0.21491z" fill="#65bae1" stroke="none" stroke-width="0.5" stroke-linecap="butt"/><path d="M309.06907,-38.95045c0,0 38.64242,41.86262 54.91754,59.494c13.02479,14.11018 35.17255,38.1036 35.17255,38.1036c0,0 -21.54235,-4.40639 -36.61966,-7.49039c-24.34988,-4.98066 -95.51247,-19.53664 -95.51247,-19.53664" fill="none" stroke="#65bae1" stroke-width="20" stroke-linecap="round"/><path d="M474.5,414.25c0,16.98276 16.22968,30.75 36.25,30.75c20.02032,0 36.25,-13.76724 36.25,-30.75c0,-16.98276 -16.22968,-30.75 -36.25,-30.75c-20.02032,0 -36.25,13.76724 -36.25,30.75z" fill="#4e9543" stroke="#ffffff" stroke-width="0.5" stroke-linecap="butt"/><path d="M498,388.5c0,8.56041 -7.61116,15.5 -17,15.5c-9.38884,0 -17,-6.93959 -17,-15.5c0,-8.56041 7.61116,-15.5 17,-15.5c9.38884,0 17,6.93959 17,15.5z" fill="#ffffff" stroke="#ffffff" stroke-width="0.5" stroke-linecap="butt"/><path d="M547,383c0,9.1127 -7.49923,16.5 -16.75,16.5c-9.25077,0 -16.75,-7.3873 -16.75,-16.5c0,-9.1127 7.49923,-16.5 16.75,-16.5c9.25077,0 16.75,7.3873 16.75,16.5z" fill="#ffffff" stroke="#ffffff" stroke-width="0.5" stroke-linecap="butt"/><path d="M531.5,412c1,0 1,1 1,1l-0.02675,1.22975c-0.97353,1.94705 -1.54975,4.15933 -2.57882,6.21746c-0.81171,1.61371 -1.36744,3.47847 -2.68732,4.75989c-0.53478,0.5192 -1.48814,0.45819 -2,1c-4.4744,4.73625 -11.44744,5.29289 -17.70711,5.29289c-4.40103,0 -8.1832,-1.7503 -11.88268,-3.57612c-0.86195,-0.4254 -2.37976,-0.622 -3.22651,-1.19696c-2.5431,-1.72681 -4.53993,-5.64897 -6.22286,-8.17222c0,0 -0.5547,-0.83205 0.27735,-1.38675c0.83205,-0.5547 1.38675,0.27735 1.38675,0.27735c1.42039,2.13159 3.32149,6.11713 5.49546,7.51453c0.83673,0.53784 2.22349,0.69606 3.05518,1.11629c3.47089,1.75377 7.00455,3.42388 11.11732,3.42388c5.95985,0 11.91629,-0.51099 16.29289,-4.70711c0.53802,-0.51584 1.4854,-0.4608 2,-1c1.12266,-1.17633 1.58743,-2.78189 2.31268,-4.24011c0.96477,-1.92955 1.51181,-3.9638 2.42118,-5.78254l-0.02675,-0.77025c0,0 0,-1 1,-1z" fill="#000000" stroke="none" stroke-width="0.5" stroke-linecap="butt"/><path d="M495.5,391.5c0,6.35127 -5.70837,11.5 -12.75,11.5c-7.04163,0 -12.75,-5.14873 -12.75,-11.5c0,-6.35127 5.70837,-11.5 12.75,-11.5c7.04163,0 12.75,5.14873 12.75,11.5z" fill="#000000" stroke="#ffffff" stroke-width="0.5" stroke-linecap="butt"/><path d="M539.5,387.75c0,5.93706 -5.14873,10.75 -11.5,10.75c-6.35127,0 -11.5,-4.81294 -11.5,-10.75c0,-5.93706 5.14873,-10.75 11.5,-10.75c6.35127,0 11.5,4.81294 11.5,10.75z" fill="#000000" stroke="#ffffff" stroke-width="0.5" stroke-linecap="butt"/><path d="M488.5,409.5c0,2.48528 -2.12665,4.5 -4.75,4.5c-2.62335,0 -4.75,-2.01472 -4.75,-4.5c0,-2.48528 2.12665,-4.5 4.75,-4.5c2.62335,0 4.75,2.01472 4.75,4.5z" fill="#ff89ca" stroke="#ffffff" stroke-width="0.5" stroke-linecap="butt"/><path d="M537,405.25c0,2.34721 -2.12665,4.25 -4.75,4.25c-2.62335,0 -4.75,-1.90279 -4.75,-4.25c0,-2.34721 2.12665,-4.25 4.75,-4.25c2.62335,0 4.75,1.90279 4.75,4.25z" fill="#ff89ca" stroke="#ffffff" stroke-width="0.5" stroke-linecap="butt"/><text transform="translate(-83.82883,9.85736) scale(1.34592,1.34592)" font-size="40" xml:space="preserve" fill="#188100" fill-rule="nonzero" stroke="#000000" stroke-width="1" stroke-linecap="butt" stroke-linejoin="miter" stroke-miterlimit="10" stroke-dasharray="" stroke-dashoffset="0" font-family="Marker" font-weight="normal" text-anchor="start" style="mix-blend-mode: normal"><tspan x="0" dy="0">Feiras e mercados locais</tspan></text><text transform="translate(-95.84084,84.95145) scale(0.92733,0.92733)" font-size="40" xml:space="preserve" fill="#188100" fill-rule="nonzero" stroke="none" stroke-width="1" stroke-linecap="butt" stroke-linejoin="miter" stroke-miterlimit="10" stroke-dasharray="" stroke-dashoffset="0" font-family="Malgun Gothic" font-weight="normal" text-anchor="start" style="mix-blend-mode: normal"><tspan x="0" dy="0">Feiras e mercados locais permitem </tspan><tspan x="0" dy="46.15px">que os vendedores do campo ofereçam</tspan><tspan x="0" dy="46.15px">seus produtos diretamente aos</tspan><tspan x="0" dy="46.15px">consumidores, fortalecendo a economia</tspan><tspan x="0" dy="46.15px">rural e enriquecendo a vida urbana com</tspan><tspan x="0" dy="46.15px">alimentos frescos, cultura e diversidade.</tspan></text></g></g></svg>