<svg version="1.1" xmlns="http://www.w3.org/2000/svg" xmlns:xlink="http://www.w3.org/1999/xlink" width="724.50451" height="538.29774" viewBox="0,0,724.50451,538.29774"><defs><linearGradient x1="223.91199" y1="-38.31319" x2="223.91199" y2="34.73338" gradientTransform="translate(38.39584,-10.82381) scale(0.5413,0.65711)" gradientUnits="userSpaceOnUse" id="color-1"><stop offset="0" stop-color="#ff0000"/><stop offset="1" stop-color="#ff9b00"/></linearGradient></defs><g transform="translate(123.00301,90.26276)"><g data-paper-data="{&quot;isPaintingLayer&quot;:true}" fill-rule="nonzero" stroke-linecap="butt" stroke-linejoin="miter" stroke-miterlimit="10" stroke-dasharray="" stroke-dashoffset="0" style="mix-blend-mode: normal"><path d="M-123.003,448.03498v-538.29774h724.50451v538.29774z" fill="#a1d9dd" stroke="#000000" stroke-width="0"/><path d="M258.01802,180c0,8.70719 -8.06694,15.76576 -18.01802,15.76576c-9.95108,0 -18.01801,-7.05857 -18.01801,-15.76576c0,-8.70719 8.06694,-15.76576 18.01801,-15.76576c9.95108,0 18.01802,7.05857 18.01802,15.76576z" fill="none" stroke="#9700ff" stroke-width="6"/><path d="M298.55856,180c0,29.02398 -26.21756,52.55256 -58.55856,52.55256c-32.341,0 -58.55856,-23.52858 -58.55856,-52.55256c0,-29.02398 26.21756,-52.55255 58.55856,-52.55255c32.341,0 58.55856,23.52858 58.55856,52.55256z" fill="none" stroke="#446fff" stroke-width="12.5"/><path d="M358.61862,180c0,61.36497 -53.10737,111.11111 -118.61862,111.11111c-65.51126,0 -118.61862,-49.74614 -118.61862,-111.11111c0,-61.36497 53.10737,-111.11111 118.61862,-111.11111c65.51126,0 118.61862,49.74614 118.61862,111.11111z" fill="none" stroke="#00ff6a" stroke-width="12.5"/><path d="M427.68769,180c0,93.29134 -84.03064,168.91892 -187.68769,168.91892c-103.65705,0 -187.68769,-75.62758 -187.68769,-168.91892c0,-93.29134 84.03064,-168.91892 187.68769,-168.91892c103.65705,0 187.68769,75.62757 187.68769,168.91892z" fill="none" stroke="#ffe900" stroke-width="12.5"/><ellipse cx="-150.63063" cy="673.81381" transform="scale(0.5,0.5)" rx="0" ry="0" fill="none" stroke="#ffe900" stroke-width="12.5"/><path d="M486.997,180c0,119.82755 -110.58432,216.96697 -246.997,216.96697c-136.41267,0 -246.997,-97.13942 -246.997,-216.96697c0,-119.82755 110.58432,-216.96697 246.997,-216.96697c136.41267,0 246.997,97.13942 246.997,216.96697z" fill="none" stroke="#ff8700" stroke-width="12.5"/><path d="M541.05105,180c0,143.46135 -134.78515,259.75976 -301.05105,259.75976c-166.2659,0 -301.05105,-116.29841 -301.05105,-259.75976c0,-143.46135 134.78515,-259.75976 301.05105,-259.75976c166.2659,0 301.05105,116.29841 301.05105,259.75976z" fill="none" stroke="#ff0000" stroke-width="12.5"/><text transform="translate(-93.3139,92.22597) scale(0.86279,1.27273)" font-size="40" xml:space="preserve" fill="#000000" fill-rule="nonzero" stroke="#000000" stroke-width="0" stroke-linecap="butt" stroke-linejoin="miter" stroke-miterlimit="10" stroke-dasharray="" stroke-dashoffset="0" font-family="&quot;ヒラギノ角ゴ Pro W3&quot;, &quot;Hiragino Kaku Gothic Pro&quot;, Osaka, &quot;メイリオ&quot;, Meiryo, &quot;ＭＳ Ｐゴシック&quot;, &quot;MS PGothic&quot;" font-weight="normal" text-anchor="start" style="mix-blend-mode: normal"><tspan x="0" dy="0"> A interação entre áreas rurais e urbanas</tspan><tspan x="0" dy="46.15px">enriquese a cultura local, promovendo o</tspan><tspan x="0" dy="46.15px">reconhecimento das tradições. Festas e</tspan><tspan x="0" dy="46.15px">eventos que celebram a agricultura familiar são</tspan><tspan x="0" dy="46.15px">exemplos de como essa cultura é valorizada.</tspan></text><text transform="translate(-70.93227,16.47184) scale(1.8474,1.52182)" font-size="40" xml:space="preserve" fill="url(#color-1)" fill-rule="nonzero" stroke="#000000" stroke-width="1" stroke-linecap="butt" stroke-linejoin="miter" stroke-miterlimit="10" stroke-dasharray="" stroke-dashoffset="0" font-family="Marker" font-weight="normal" text-anchor="start" style="mix-blend-mode: normal"><tspan x="0" dy="0">Impacto Cultural</tspan></text></g></g></svg>