<svg version="1.1" xmlns="http://www.w3.org/2000/svg" xmlns:xlink="http://www.w3.org/1999/xlink" width="739.12809" height="548.57358" viewBox="0,0,739.12809,548.57358"><defs><linearGradient x1="148.37903" y1="-31.21758" x2="148.37903" y2="35.40076" gradientTransform="translate(23.0501,-12.98648) scale(0.69275,0.69275)" gradientUnits="userSpaceOnUse" id="color-1"><stop offset="0" stop-color="#0026ff"/><stop offset="1" stop-color="#000a44"/></linearGradient></defs><g transform="translate(117.18627,87.01199)"><g data-paper-data="{&quot;isPaintingLayer&quot;:true}" fill-rule="nonzero" stroke-linecap="butt" stroke-linejoin="miter" stroke-miterlimit="10" stroke-dasharray="" stroke-dashoffset="0" style="mix-blend-mode: normal"><path d="M-117.18627,461.56158v-548.57357h738.55265v548.57358z" fill="#3dadff" stroke="none" stroke-width="0"/><text transform="translate(-33.27328,18.74625) scale(1.44352,1.44352)" font-size="40" xml:space="preserve" fill="url(#color-1)" fill-rule="nonzero" stroke="#000000" stroke-width="1" stroke-linecap="butt" stroke-linejoin="miter" stroke-miterlimit="10" stroke-dasharray="" stroke-dashoffset="0" font-family="Sans Serif" font-weight="normal" text-anchor="start" style="mix-blend-mode: normal"><tspan x="0" dy="0">Bem vindo(a)</tspan></text><text transform="translate(-70.81082,103.09309) scale(0.62689,0.62689)" font-size="40" xml:space="preserve" fill="#06121a" fill-rule="nonzero" stroke="none" stroke-width="1" stroke-linecap="butt" stroke-linejoin="miter" stroke-miterlimit="10" stroke-dasharray="" stroke-dashoffset="0" font-family="Sans Serif" font-weight="normal" text-anchor="start" style="mix-blend-mode: normal"><tspan x="0" dy="0"> "Festejando Conexões: Agricultura Familiar", é um jogo </tspan><tspan x="0" dy="46.150000000000006px">criado para entendermos de um jeito divertido a </tspan><tspan x="0" dy="46.150000000000006px">importância da agricultura familiar. Vamos festenjar essa </tspan><tspan x="0" dy="46.150000000000006px">conexão!</tspan><tspan x="0" dy="46.150000000000006px"> </tspan><tspan x="0" dy="46.150000000000006px"> Nesse jogo, você(s) vão explorar cenários diversos e </tspan><tspan x="0" dy="46.150000000000006px">descobrir como podemos festejar a conexão entre o</tspan><tspan x="0" dy="46.150000000000006px">campo e a cidade.</tspan></text><text transform="translate(-73.06306,346.50902) scale(0.66268,0.66268)" font-size="40" xml:space="preserve" fill="#bae2ff" fill-rule="nonzero" stroke="#000000" stroke-width="0" stroke-linecap="butt" stroke-linejoin="miter" stroke-miterlimit="10" stroke-dasharray="" stroke-dashoffset="0" font-family="Serif" font-weight="normal" text-anchor="start" style="mix-blend-mode: normal"><tspan x="0" dy="0">Bom jogo e divirta-se!!</tspan></text><path d="M388.76843,207.15942c0,4.12919 -3.42014,7.47656 -7.63909,7.47656c-4.21895,0 -7.63909,-3.34737 -7.63909,-7.47656c0,-4.12919 3.42014,-7.47656 7.63909,-7.47656c4.21895,0 7.63909,3.34737 7.63909,7.47656z" fill="#bae2ff" stroke="none" stroke-width="0"/><path d="M399.17059,192.85644c0,4.12919 -3.42014,7.47656 -7.63909,7.47656c-4.21895,0 -7.63909,-3.34737 -7.63909,-7.47656c0,-4.12919 3.42014,-7.47656 7.63909,-7.47656c4.21895,0 7.63909,3.34737 7.63909,7.47656z" fill="#bae2ff" stroke="none" stroke-width="0"/><path d="M400.47087,211.3853c0,4.12919 -3.42014,7.47656 -7.63909,7.47656c-4.21895,0 -7.63909,-3.34737 -7.63909,-7.47656c0,-4.12919 3.42014,-7.47656 7.63909,-7.47656c4.21895,0 7.63909,3.34737 7.63909,7.47656z" fill="#bae2ff" stroke="none" stroke-width="0"/><path d="M407.29729,200.65806c0,4.12919 -3.42014,7.47656 -7.63909,7.47656c-4.21895,0 -7.63909,-3.34737 -7.63909,-7.47656c0,-4.12919 3.42014,-7.47656 7.63909,-7.47656c4.21895,0 7.63909,3.34737 7.63909,7.47656z" fill="#bae2ff" stroke="none" stroke-width="0"/><path d="M389.09349,197.08232c0,4.12919 -3.42014,7.47656 -7.63909,7.47656c-4.21895,0 -7.63909,-3.34737 -7.63909,-7.47656c0,-4.12919 3.42014,-7.47656 7.63909,-7.47656c4.21895,0 7.63909,3.34737 7.63909,7.47656z" fill="#bae2ff" stroke="none" stroke-width="0"/><path d="M392.99431,201.7958c0,1.88506 -1.52815,3.41321 -3.41321,3.41321c-1.88506,0 -3.41321,-1.52815 -3.41321,-3.41321c0,-1.88506 1.52815,-3.41321 3.41321,-3.41321c1.88506,0 3.41321,1.52815 3.41321,3.41321z" fill="#efffba" stroke="none" stroke-width="0"/><path d="M340.68168,32.0803c0,3.57901 -2.96444,6.48037 -6.62125,6.48037c-3.65681,0 -6.62125,-2.90136 -6.62125,-6.48037c0,-3.57901 2.96443,-6.48037 6.62125,-6.48037c3.65681,0 6.62125,2.90136 6.62125,6.48037z" fill="#bae2ff" stroke="none" stroke-width="0"/><path d="M349.69785,19.68307c0,3.57901 -2.96444,6.48037 -6.62125,6.48037c-3.65681,0 -6.62125,-2.90136 -6.62125,-6.48037c0,-3.57901 2.96443,-6.48037 6.62125,-6.48037c3.65681,0 6.62125,2.90136 6.62125,6.48037z" fill="#bae2ff" stroke="none" stroke-width="0"/><path d="M350.82487,35.74312c0,3.57901 -2.96444,6.48037 -6.62125,6.48037c-3.65681,0 -6.62125,-2.90136 -6.62125,-6.48037c0,-3.57901 2.96443,-6.48037 6.62125,-6.48037c3.65681,0 6.62125,2.90136 6.62125,6.48037z" fill="#bae2ff" stroke="none" stroke-width="0"/><path d="M356.74173,26.4452c0,3.57901 -2.96444,6.48037 -6.62125,6.48037c-3.65681,0 -6.62125,-2.90136 -6.62125,-6.48037c0,-3.57901 2.96443,-6.48037 6.62125,-6.48037c3.65681,0 6.62125,2.90136 6.62125,6.48037z" fill="#bae2ff" stroke="none" stroke-width="0"/><path d="M340.96344,23.34589c0,3.57901 -2.96444,6.48037 -6.62125,6.48037c-3.65681,0 -6.62125,-2.90136 -6.62125,-6.48037c0,-3.57901 2.96444,-6.48037 6.62125,-6.48037c3.65681,0 6.62125,2.90136 6.62125,6.48037z" fill="#bae2ff" stroke="none" stroke-width="0"/><path d="M344.3445,27.43134c0,1.6339 -1.32453,2.95843 -2.95843,2.95843c-1.6339,0 -2.95843,-1.32454 -2.95843,-2.95843c0,-1.6339 1.32453,-2.95843 2.95843,-2.95843c1.6339,0 2.95843,1.32453 2.95843,2.95843z" fill="#efffba" stroke="none" stroke-width="0"/><path d="M380.21622,10.05328c0,3.57901 -2.96444,6.48037 -6.62125,6.48037c-3.65681,0 -6.62124,-2.90136 -6.62124,-6.48037c0,-3.57901 2.96443,-6.48038 6.62124,-6.48038c3.65682,0 6.62125,2.90136 6.62125,6.48038z" fill="#bae2ff" stroke="none" stroke-width="0"/><path d="M389.23239,-2.34396c0,3.57901 -2.96443,6.48037 -6.62125,6.48037c-3.65681,0 -6.62125,-2.90136 -6.62125,-6.48037c0,-3.57901 2.96444,-6.48037 6.62125,-6.48037c3.65682,0 6.62125,2.90135 6.62125,6.48037z" fill="#bae2ff" stroke="none" stroke-width="0"/><path d="M390.35941,13.71609c0,3.57901 -2.96443,6.48037 -6.62125,6.48037c-3.65682,0 -6.62125,-2.90136 -6.62125,-6.48037c0,-3.57901 2.96443,-6.48037 6.62125,-6.48037c3.65682,0 6.62125,2.90136 6.62125,6.48037z" fill="#bae2ff" stroke="none" stroke-width="0"/><path d="M396.27627,4.41817c0,3.57901 -2.96443,6.48037 -6.62125,6.48037c-3.65682,0 -6.62125,-2.90136 -6.62125,-6.48037c0,-3.57901 2.96443,-6.48038 6.62125,-6.48038c3.65681,0 6.62125,2.90136 6.62125,6.48038z" fill="#bae2ff" stroke="none" stroke-width="0"/><path d="M380.49797,1.31886c0,3.57901 -2.96443,6.48037 -6.62125,6.48037c-3.65681,0 -6.62125,-2.90136 -6.62125,-6.48037c0,-3.57901 2.96444,-6.48037 6.62125,-6.48037c3.65682,0 6.62125,2.90136 6.62125,6.48037z" fill="#bae2ff" stroke="none" stroke-width="0"/><path d="M383.87903,5.40431c0,1.63389 -1.32453,2.95844 -2.95842,2.95844c-1.63389,0 -2.95843,-1.32454 -2.95843,-2.95844c0,-1.63389 1.32454,-2.95843 2.95843,-2.95843c1.6339,0 2.95842,1.32454 2.95842,2.95843z" fill="#efffba" stroke="none" stroke-width="0"/><path d="M373.20421,42.08031c0,3.57901 -2.96444,6.48037 -6.62125,6.48037c-3.65681,0 -6.62124,-2.90136 -6.62124,-6.48037c0,-3.57901 2.96443,-6.48038 6.62124,-6.48038c3.65681,0 6.62125,2.90136 6.62125,6.48038z" fill="#bae2ff" stroke="none" stroke-width="0"/><path d="M382.22038,29.68307c0,3.57901 -2.96444,6.48037 -6.62125,6.48037c-3.65681,0 -6.62125,-2.90136 -6.62125,-6.48037c0,-3.57901 2.96443,-6.48037 6.62125,-6.48037c3.65681,0 6.62125,2.90136 6.62125,6.48037z" fill="#bae2ff" stroke="none" stroke-width="0"/><path d="M383.3474,45.74312c0,3.57901 -2.96444,6.48037 -6.62125,6.48037c-3.65681,0 -6.62125,-2.90136 -6.62125,-6.48037c0,-3.57901 2.96443,-6.48037 6.62125,-6.48037c3.65681,0 6.62125,2.90136 6.62125,6.48037z" fill="#bae2ff" stroke="none" stroke-width="0"/><path d="M389.26426,36.4452c0,3.57901 -2.96444,6.48037 -6.62125,6.48037c-3.65681,0 -6.62124,-2.90136 -6.62124,-6.48037c0,-3.57901 2.96443,-6.48038 6.62124,-6.48038c3.65681,0 6.62125,2.90137 6.62125,6.48038z" fill="#bae2ff" stroke="none" stroke-width="0"/><path d="M373.48596,33.34589c0,3.57901 -2.96443,6.48037 -6.62125,6.48037c-3.65681,0 -6.62125,-2.90136 -6.62125,-6.48037c0,-3.57901 2.96444,-6.48037 6.62125,-6.48037c3.65681,0 6.62125,2.90136 6.62125,6.48037z" fill="#bae2ff" stroke="none" stroke-width="0"/><path d="M376.86702,37.43134c0,1.6339 -1.32453,2.95844 -2.95842,2.95844c-1.63389,0 -2.95843,-1.32454 -2.95843,-2.95844c0,-1.63389 1.32454,-2.95843 2.95843,-2.95843c1.63389,0 2.95842,1.32454 2.95842,2.95843z" fill="#efffba" stroke="none" stroke-width="0"/><path d="M193.51953,326.35958c0,3.57901 -2.96443,6.48037 -6.62125,6.48037c-3.65681,0 -6.62124,-2.90136 -6.62124,-6.48037c0,-3.57901 2.96443,-6.48037 6.62124,-6.48037c3.65681,0 6.62125,2.90136 6.62125,6.48037z" fill="#bae2ff" stroke="none" stroke-width="0"/><path d="M202.5357,313.96235c0,3.57901 -2.96443,6.48037 -6.62125,6.48037c-3.65681,0 -6.62125,-2.90136 -6.62125,-6.48037c0,-3.57901 2.96443,-6.48037 6.62125,-6.48037c3.65681,0 6.62125,2.90136 6.62125,6.48037z" fill="#bae2ff" stroke="none" stroke-width="0"/><path d="M203.66272,330.0224c0,3.57901 -2.96443,6.48037 -6.62125,6.48037c-3.65681,0 -6.62125,-2.90136 -6.62125,-6.48037c0,-3.57901 2.96444,-6.48037 6.62125,-6.48037c3.65681,0 6.62125,2.90136 6.62125,6.48037z" fill="#bae2ff" stroke="none" stroke-width="0"/><path d="M209.57958,320.72448c0,3.57901 -2.96443,6.48037 -6.62125,6.48037c-3.65681,0 -6.62124,-2.90136 -6.62124,-6.48037c0,-3.57901 2.96443,-6.48037 6.62124,-6.48037c3.65681,0 6.62125,2.90136 6.62125,6.48037z" fill="#bae2ff" stroke="none" stroke-width="0"/><path d="M193.80128,317.62517c0,3.57901 -2.96444,6.48037 -6.62125,6.48037c-3.65681,0 -6.62125,-2.90136 -6.62125,-6.48037c0,-3.57901 2.96443,-6.48037 6.62125,-6.48037c3.65681,0 6.62125,2.90136 6.62125,6.48037z" fill="#bae2ff" stroke="none" stroke-width="0"/><path d="M197.18234,321.71062c0,1.63389 -1.32453,2.95843 -2.95843,2.95843c-1.63389,0 -2.95843,-1.32454 -2.95843,-2.95843c0,-1.63389 1.32453,-2.95843 2.95843,-2.95843c1.63389,0 2.95843,1.32453 2.95843,2.95843z" fill="#efffba" stroke="none" stroke-width="0"/><path d="M-49.76241,-22.39708c0,2.83831 -2.50873,5.13922 -5.6034,5.13922c-3.09467,0 -5.6034,-2.30091 -5.6034,-5.13922c0,-2.83831 2.50873,-5.13923 5.6034,-5.13923c3.09467,0 5.6034,2.30091 5.6034,5.13923z" fill="#bae2ff" stroke="none" stroke-width="0"/><path d="M-42.13224,-32.22865c0,2.83831 -2.50873,5.13922 -5.6034,5.13922c-3.09467,0 -5.6034,-2.30091 -5.6034,-5.13922c0,-2.83831 2.50873,-5.13922 5.6034,-5.13922c3.09467,0 5.6034,2.3009 5.6034,5.13922z" fill="#bae2ff" stroke="none" stroke-width="0"/><path d="M-41.17847,-19.49231c0,2.83831 -2.50873,5.13922 -5.6034,5.13922c-3.09467,0 -5.6034,-2.30091 -5.6034,-5.13922c0,-2.83831 2.50873,-5.13922 5.6034,-5.13922c3.09467,0 5.6034,2.30091 5.6034,5.13922z" fill="#bae2ff" stroke="none" stroke-width="0"/><path d="M-36.17118,-26.86597c0,2.83831 -2.50873,5.13922 -5.6034,5.13922c-3.09467,0 -5.6034,-2.30091 -5.6034,-5.13922c0,-2.83831 2.50873,-5.13923 5.6034,-5.13923c3.09467,0 5.6034,2.30091 5.6034,5.13923z" fill="#bae2ff" stroke="none" stroke-width="0"/><path d="M-49.52397,-29.32387c0,2.83831 -2.50873,5.13922 -5.6034,5.13922c-3.09467,0 -5.6034,-2.30091 -5.6034,-5.13922c0,-2.83831 2.50873,-5.13922 5.6034,-5.13922c3.09467,0 5.6034,2.30091 5.6034,5.13922z" fill="#bae2ff" stroke="none" stroke-width="0"/><path d="M-46.66266,-26.08392c0,1.29575 -1.12092,2.34617 -2.50364,2.34617c-1.38273,0 -2.50365,-1.05042 -2.50365,-2.34617c0,-1.29575 1.12092,-2.34617 2.50365,-2.34617c1.38273,0 2.50364,1.05042 2.50364,2.34617z" fill="#efffba" stroke="none" stroke-width="0"/><text transform="translate(-66.30631,63.76654) scale(0.67048,0.67048)" font-size="40" xml:space="preserve" fill="#06121a" fill-rule="nonzero" stroke="none" stroke-width="1" stroke-linecap="butt" stroke-linejoin="miter" stroke-miterlimit="10" stroke-dasharray="" stroke-dashoffset="0" font-family="Sans Serif" font-weight="normal" text-anchor="start" style="mix-blend-mode: normal"><tspan x="0" dy="0">Olá! Que bom ter você(s) aqui!</tspan></text></g></g></svg>