<svg version="1.1" xmlns="http://www.w3.org/2000/svg" xmlns:xlink="http://www.w3.org/1999/xlink" width="727.64715" height="542.64338" viewBox="0,0,727.64715,542.64338"><defs><linearGradient x1="244.17942" y1="-90.41991" x2="244.17942" y2="452.22348" gradientUnits="userSpaceOnUse" id="color-1"><stop offset="0" stop-color="#562b9a"/><stop offset="1" stop-color="#b46984"/></linearGradient></defs><g transform="translate(119.64415,90.4199)"><g data-paper-data="{&quot;isPaintingLayer&quot;:true}" fill-rule="nonzero" stroke-linecap="butt" stroke-linejoin="miter" stroke-miterlimit="10" stroke-dasharray="" stroke-dashoffset="0" style="mix-blend-mode: normal"><path d="M-119.64415,452.22348v-542.64338h727.64715v542.64338z" fill="url(#color-1)" stroke="#8e3000" stroke-width="0"/><path d="M434.5701,283.47648c0,7.9391 -6.88362,14.375 -15.375,14.375c-8.49138,0 -15.375,-6.4359 -15.375,-14.375c0,-7.9391 6.88362,-14.375 15.375,-14.375c8.49138,0 15.375,6.4359 15.375,14.375z" fill="#7a7a7a" stroke="none" stroke-width="0"/><text transform="translate(-79.81982,17.94947) scale(1.47606,1.47606)" font-size="40" xml:space="preserve" fill="#ffcc00" fill-rule="nonzero" stroke="#000000" stroke-width="1" stroke-linecap="butt" stroke-linejoin="miter" stroke-miterlimit="10" stroke-dasharray="" stroke-dashoffset="0" font-family="Pixel" font-weight="normal" text-anchor="start" style="mix-blend-mode: normal"><tspan x="0" dy="0">Troca de Saberes</tspan></text><path d="M537.1951,272.72648c0,15.46398 -10.35342,28 -23.125,28c-12.77159,0 -23.125,-12.53602 -23.125,-28c0,-15.46398 10.35341,-28 23.125,-28c12.77158,0 23.125,12.53602 23.125,28z" fill="none" stroke="#000000" stroke-width="2"/><path d="M489.9451,311.22648v-41h43.5v41z" fill="#ffcc00" stroke="#000000" stroke-width="0.5"/><path d="M528.56559,311.22648v-41h9.87951v41z" fill="#f3c200" stroke="#000000" stroke-width="0.5"/><path d="M507.84872,262.70743c0.23973,0.05541 0.48059,0.08143 0.72464,0.04683c0.08225,-0.01166 0.16134,-0.03314 0.23792,-0.06229c-0.14711,-0.0061 -0.29307,-0.00761 -0.43704,-0.00126zM506.50947,262.29398c-0.137,-0.08441 -0.27296,-0.18532 -0.3997,-0.30579c-0.35433,0.04652 -0.7065,0.09634 -1.05537,0.15092c0.38864,0.0338 0.75601,0.06652 1.09691,0.09588c0.12018,0.01035 0.23949,0.03123 0.35816,0.05899zM482.53411,264.69246c0,0 -2.46599,-0.411 -2.05499,-2.87698c0.14457,-0.86739 0.54339,-1.37884 0.99971,-1.67742c-0.02218,-0.1339 -0.03372,-0.27139 -0.03372,-0.41158c0,-1.38071 1.11929,-2.5 2.5,-2.5c0.08031,0 0.15973,0.00378 0.2381,0.01119l0.05126,-0.33319l0.27382,0.04212c-0.05351,-0.44221 -0.00333,-0.8597 0.24914,-1.22897c1.79865,-2.63073 3.88506,-2.52411 5.99818,-1.68904c3.4805,-0.78348 8.07302,0.13337 11.06019,0.15293c1.05475,0.00691 2.1372,-0.73392 3.13859,-0.40262c1.82281,0.60307 3.26171,2.02489 4.88808,3.04691l2.21687,1.16208c0.58178,0.29014 1.03456,0.80039 1.24926,1.4217c1.36717,0.55698 2.61862,1.20995 3.11492,2.48909c0.91493,2.35807 -5.92053,5.58473 -7.10668,5.8c-2.25908,0.40999 -4.57576,-0.47269 -6.87174,-0.4722c-0.06953,0.00002 -0.13905,0.00043 -0.20856,0.00123c-0.38606,0.88229 -1.26675,1.49877 -2.29144,1.49877h-0.49706c-0.23094,1.3779 -1.71237,1.87171 -1.71237,1.87171l-2.29057,0.62829c-4.10093,-0.02214 -6.90459,0.8646 -10.92848,-0.67881c0,0 -2.32119,-0.92847 -1.39271,-3.24966c0.55658,-1.39144 1.61362,-1.61514 2.37111,-1.5711c0.0426,-0.21007 0.11155,-0.41058 0.20324,-0.59793c-1.06025,-0.1205 -2.11564,-0.26458 -3.16415,-0.43651z" fill="#93538b" stroke="none" stroke-width="0.5"/><path d="M512.9451,287.22648c0,3.03756 -2.46244,5.5 -5.5,5.5c-3.03756,0 -5.5,-2.46244 -5.5,-5.5c0,-3.03756 2.46244,-5.5 5.5,-5.5c3.03756,0 5.5,2.46244 5.5,5.5z" fill="#000000" stroke="#000000" stroke-width="2"/><path d="M503.9451,297.72648v-8.5h5.5v8.5z" fill="#000000" stroke="#000000" stroke-width="2"/><path d="M421.5701,284.85148v-8.25h51.75v8.25z" fill="#7a7a7a" stroke="none" stroke-width="0"/><path d="M437.0701,286.85148v-4h1.75v4z" fill="#7a7a7a" stroke="none" stroke-width="0"/><path d="M438.8201,289.35148v-8.75h2.75v8.75z" fill="#7a7a7a" stroke="none" stroke-width="0"/><path d="M440.8201,287.60148v-5.5h1.75v5.5z" fill="#7a7a7a" stroke="none" stroke-width="0"/><path d="M446.0701,287.35148v-6h3.13043v6z" fill="#7a7a7a" stroke="none" stroke-width="0"/><path d="M449.5701,289.01813v-6h1.559v6z" fill="#7a7a7a" stroke="none" stroke-width="0"/><path d="M469.3791,289.18481v-6h3.691v6z" fill="#7a7a7a" stroke="none" stroke-width="0"/><path d="M454.90344,289.10148v-6h1.55901v6z" fill="#7a7a7a" stroke="none" stroke-width="0"/><path d="M459.73677,287.93482v-6h1.55901v6z" fill="#7a7a7a" stroke="none" stroke-width="0"/><path d="M460.8201,290.26813v-6h2.72567v6z" fill="#7a7a7a" stroke="none" stroke-width="0"/><path d="M420.38066,281.30965c0,2.48528 -2.16396,4.5 -4.83333,4.5c-2.66938,0 -4.83333,-2.01472 -4.83333,-4.5c0,-2.48528 2.16395,-4.5 4.83333,-4.5c2.66938,0 4.83333,2.01472 4.83333,4.5z" fill="#99578b" stroke="none" stroke-width="0"/><text transform="translate(-97.08007,298.96146) scale(0.59504,0.59504)" font-size="40" xml:space="preserve" fill="#e8ff00" fill-rule="nonzero" stroke="none" stroke-width="1" stroke-linecap="butt" stroke-linejoin="miter" stroke-miterlimit="10" stroke-dasharray="" stroke-dashoffset="0" font-family="Curly" font-weight="normal" text-anchor="start" style="mix-blend-mode: normal"><tspan x="0" dy="0"> A chave do conhecimento destranca o cadeado da</tspan><tspan x="0" dy="48px">conexão campo-cidade.</tspan></text><text transform="translate(-87.97567,64.65436) scale(0.88741,0.88741)" font-size="40" xml:space="preserve" fill="#000000" fill-rule="nonzero" stroke="none" stroke-width="1" stroke-linecap="butt" stroke-linejoin="miter" stroke-miterlimit="10" stroke-dasharray="" stroke-dashoffset="0" font-family="&quot;ヒラギノ角ゴ Pro W3&quot;, &quot;Hiragino Kaku Gothic Pro&quot;, Osaka, &quot;メイリオ&quot;, Meiryo, &quot;ＭＳ Ｐゴシック&quot;, &quot;MS PGothic&quot;" font-weight="normal" text-anchor="start" style="mix-blend-mode: normal"><tspan x="0" dy="0"> A troca de saberes entre o campo e a cidade</tspan><tspan x="0" dy="46.150000000000006px">enriquece a experiência de todos os</tspan><tspan x="0" dy="46.150000000000006px">envolvidos. Conhecimentos sobre práticas</tspan><tspan x="0" dy="46.150000000000006px">agrícolas sustentáveis e tradições locais são</tspan><tspan x="0" dy="46.150000000000006px">compartilhados promovendo o</tspan><tspan x="0" dy="46.150000000000006px">desenvolimento mútuo.</tspan></text></g></g></svg>