<svg version="1.1" xmlns="http://www.w3.org/2000/svg" xmlns:xlink="http://www.w3.org/1999/xlink" width="732.29179" height="547.07207" viewBox="0,0,732.29179,547.07207"><defs><linearGradient x1="238.49851" y1="-92.29729" x2="238.49851" y2="454.77479" gradientUnits="userSpaceOnUse" id="color-1"><stop offset="0" stop-color="#663b00"/><stop offset="1" stop-color="#553300"/></linearGradient></defs><g transform="translate(125.64564,92.29729)"><g data-paper-data="{&quot;isPaintingLayer&quot;:true}" fill-rule="nonzero" stroke-linecap="butt" stroke-linejoin="miter" stroke-miterlimit="10" stroke-dasharray="" stroke-dashoffset="0" style="mix-blend-mode: normal"><path d="M-125.64563,454.77479v-547.07207h728.28829v547.07207z" fill="url(#color-1)" stroke="none" stroke-width="0"/><path d="M193.45347,448.97148c-15,0 -15,-15 -15,-15c0,-1.001 0,-5.00501 0,-6.00601c0.13376,-2.14977 -0.49743,-4.49182 0.40126,-6.4493c1.12924,-2.45963 2.53857,-4.78722 4.10324,-7.01234c0,-2.5198 0,-5.03959 0,-7.55939c0,-2.3595 0,-16.51651 0,-16.51651c0.02542,-3.2289 -0.45104,-6.51485 0.15899,-9.6857c2.61346,-13.58438 4.79375,-15.04161 7.94671,-26.03965c3.2637,-11.38431 3.88138,-23.71452 10.74815,-33.87716c7.25341,-10.73487 17.06887,-20.67236 28.93818,-25.83311c-0.17549,-0.23397 -0.34476,-0.47285 -0.50675,-0.71745c-2.18061,-3.29262 -2.71868,-7.46206 -4.71839,-10.86757c-2.87359,-4.89373 -4.50821,-5.36959 -6.12958,-11.59012c-0.54326,-2.08429 -0.32242,-4.29681 -0.40126,-6.4493c-0.20027,-5.46695 -0.72348,-12.0559 0.19368,-17.41775c0.26685,-1.56007 1.19415,-2.95191 1.50151,-4.5045c0.52498,-2.6519 -0.19369,-5.40441 -0.19369,-8.10778c0,-4.00401 0,-8.00801 0,-12.01201c0,-3.98263 0.84998,-8.07477 -0.73175,-11.7731c0,0 -1.20118,-3.60354 -0.58125,-7.78833c-1.23025,-0.04423 -2.45807,-0.1075 -3.64981,-0.37437c-2.7459,-0.6149 -5.22011,-2.17801 -7.96545,-2.79542c-1.17352,-0.26391 -2.40056,0.17718 -3.60327,0.19369c-3.50317,0.04808 -7.00701,0 -10.51051,0c-3.79315,0 -7.58629,0 -11.37944,0c-2.1248,9.15021 -7.6432,18.34965 -16.10119,22.28333c-1.27373,2.11252 -3.68238,3.58052 -5.79076,4.91533c-8.40563,9.26843 -19.3429,15.50449 -29.10506,23.30069c-1.96319,1.56782 -3.46573,3.66072 -5.42948,5.22784c-0.87475,0.69808 -2.10768,0.83001 -3.003,1.5015c-1.1325,0.84938 -1.8705,2.15363 -3.00301,3.00301c-0.89532,0.67149 -2.10653,0.83154 -3.00301,1.5015c-2.96055,2.21248 -5.56272,4.9386 -8.74926,6.81103c-6.61848,3.88905 -14.07797,6.37553 -20.66396,10.29662c-3.12962,1.86327 -5.80076,4.54023 -9.14856,5.975c-0.61409,0.26318 -0.77291,-1.78574 -1.36196,-1.47049c-0.98673,0.52809 -0.48613,2.53234 -1.5015,3.003c-2.7615,1.28006 -6.01285,1.01936 -8.94418,1.83897c-1.07782,0.30136 -1.90036,1.30997 -3.003,1.50151c-2.60045,0.45172 -7.69253,0.40126 -10.95381,0.40126c-10.07811,0 -20.97657,1.11311 -30.93126,-0.19369c-1.56926,-0.20601 -2.94198,-1.24946 -4.5045,-1.5015c-2.66069,-0.42918 -5.41924,0.52159 -8.08434,0.12068c-8.48483,-1.27637 -14.6212,-3.97138 -22.2802,-7.07481c-1.75371,-0.7106 -3.67991,-1.00399 -5.35452,-1.88496c-0.91462,-0.48116 -1.3118,-1.71262 -2.261,-2.12136c-0.64796,-0.27902 -1.42529,0.43997 -2.10253,0.24236c-2.11195,-0.61623 -4.10299,-1.60298 -6.07208,-2.5874c-3.78839,0.05541 -7.56189,-1.01502 -11.19196,-2.11403c-3.78052,-1.05347 -7.84656,-0.4808 -11.72244,-1.09699c-2.70461,-0.42998 -5.2782,-1.48701 -7.84202,-2.44962c-0.32458,-0.12187 -0.36931,-0.69181 -0.70904,-0.76096c-0.18165,-0.03697 -2.22678,0.0661 -3.39514,0.1005c-0.22769,0.33107 -2.18717,1.33032 -2.96688,1.72017c-1.001,0.5005 -2.002,1.001 -3.00301,1.5015c-3.90801,1.954 -8.10182,4.47953 -12.27092,5.68683c-0.9615,0.27844 -2.03189,-0.24278 -3.00301,0c-1.08574,0.27143 -1.90586,1.28065 -3.00301,1.50151c-9.41592,1.89544 -21.7028,0.81332 -29.06791,-5.49364c-0.40123,-0.34359 -0.75519,-0.72784 -1.07569,-1.14088c-3.3183,-2.04933 -6.32071,-5.75783 -6.32071,-12.46872c0,-15 15,-15 15,-15l14.91791,8.2918c-1.76861,-1.21042 -3.65115,-2.24547 -5.46561,-3.38602c-0.16874,-0.10607 -0.6402,-0.3704 -0.44329,-0.40126c1.97785,-0.31005 4.02816,-0.31005 6.00601,0c0.19691,0.03087 -0.6264,0.47997 -0.44329,0.40126c1.02819,-0.44195 1.91726,-1.23007 3.003,-1.50151c0.97111,-0.24278 2.00871,0.11565 3.00301,0c0.13608,-0.01583 -0.37306,-0.24344 -0.2589,-0.31918c0.93255,-0.61874 2.002,-1.001 3.003,-1.5015c4.74077,-2.37038 10.15785,-5.94692 15.27393,-7.18833c3.86078,-0.93681 13.82944,-0.71304 17.40309,0c2.30213,0.45934 4.12042,2.65892 6.46395,2.79542c2.30875,0.13449 4.64258,-0.36711 6.93752,-0.0813c2.84464,0.35426 5.57805,1.32488 8.36708,1.98731c3.04391,1.2306 6.57232,0.53036 9.76299,1.30457c2.20779,0.53572 4.2329,1.66782 6.26491,2.68382c0.12253,0.06126 -0.3943,0.29832 -0.25891,0.31918c1.28846,0.19851 2.68787,-0.22864 3.90347,0.24236c2.42012,0.93769 4.40901,2.7598 6.74802,3.88466c1.14804,0.55211 2.46906,0.6516 3.65449,1.11804c3.19425,1.25685 6.38836,3.16856 9.63831,4.1746c4.6361,1.43513 9.26623,0.25514 14.05121,0.88329c1.56926,0.20601 2.94197,1.24946 4.5045,1.5015c3.65688,0.58987 7.40662,-0.19369 11.11078,-0.19369c5.005,0 10.01001,0 15.01501,0c1.36033,0 2.74822,0.75698 4.06122,0.40127c1.08022,-0.29264 1.89056,-1.62387 3.00301,-1.50151c0.6097,0.06707 -0.42748,2.20484 0.06483,1.83898c0.89827,-0.66755 0.49611,-2.51139 1.5015,-3.00301c2.33187,-1.14024 5.26122,-0.44798 7.64706,-1.47048c1.27819,-0.5478 1.70615,-2.26299 2.86346,-3.03402c2.23652,-1.49001 4.78411,-2.44977 7.18377,-3.65964c4.86759,-2.45416 12.2904,-5.01913 16.71789,-8.69423c3.31166,-2.7489 6.3358,-5.51672 9.74819,-8.07601c0.89532,-0.67149 2.13017,-0.80102 3.00301,-1.5015c1.35359,-1.0863 2.22524,-2.69575 3.57954,-3.78117c3.53615,-2.83408 7.44432,-5.17576 11.0391,-7.9351c3.4105,-2.61789 6.52608,-5.60882 9.96581,-8.18819c0.71623,-0.53708 1.71212,-0.59901 2.44258,-1.11656c2.8877,-2.04602 4.95038,-5.06086 7.50751,-7.50751c1.20188,0.06233 1.59842,-1.70128 2.41061,-2.67586c-2.76107,0.06478 -5.51928,0.06157 -8.2168,-0.22328c-3.51951,-0.37164 -6.99076,-1.13222 -10.51051,-1.5015c-9.03086,-0.94749 -18.38323,0.7882 -27.44175,-0.03527c-2.95206,-0.26836 -5.81583,-1.15185 -8.73365,-1.67427c-8.69499,-1.5568 -17.50307,-2.6062 -26.11213,-4.62417c-3.5395,-0.82967 -6.98891,-2.03795 -10.55395,-2.74995c-1.36986,-0.27358 -2.85415,0.22665 -4.18624,-0.19395c-4.39633,-1.38812 -8.5086,-3.5583 -12.82523,-5.17735c-7.47345,-2.80307 -8.41269,-2.19082 -14.2102,-5.55168c-2.95136,-1.71093 -5.75177,-3.68075 -8.74926,-5.30953c-3.5638,-3.36207 -6.98516,-7.22665 -11.12732,-9.91938c-1.2339,-0.80213 -2.70438,-1.21759 -3.88769,-2.09263c-1.13821,-0.8417 -1.88331,-2.13681 -3.003,-3.00301c-1.50997,-1.16812 -3.45957,-1.74374 -4.83895,-3.06353c-0.80864,-0.7737 -0.88015,-2.07218 -1.5015,-3.00301c-0.16078,-0.24086 0.31901,1.02102 0.0747,0.86555c-2.87033,-1.82665 -5.90314,-3.55882 -8.22078,-6.04961c-1.32327,-1.42213 -1.40734,-3.63603 -2.36443,-5.32645c-0.11664,-0.20601 -0.08312,0.7795 -0.28237,0.65166c-2.78249,-1.78529 -5.41437,-3.8088 -7.94806,-5.93246c-2.92423,-2.451 -4.66915,-6.05217 -7.2907,-8.82454c-1.8347,-1.94027 -4.5409,-3.00188 -6.15155,-5.13181c-0.60377,-0.79842 0.43052,-2.09932 0,-3.00301c-0.21305,-0.44721 -0.51678,1.58583 -0.84985,1.21914c-1.73369,-1.90874 -2.97109,-4.23282 -4.13115,-6.54187c-2.1249,-1.27007 -3.59873,-3.68856 -4.93839,-5.8046c-1.5015,-1.5015 -3.19483,-2.83305 -4.5045,-4.5045c-0.24025,-0.30662 0.33597,-0.89161 0.06053,-1.16706c-0.27544,-0.27545 -0.84878,0.28512 -1.16706,0.06053c-1.39296,-0.9829 -2.63846,-2.15984 -3.94355,-3.25673c-0.10487,-0.08814 0.39518,-0.33316 0.2589,-0.31917c-4.22482,0.4339 -6.77661,0.10343 -10.51051,-1.5015c-0.18311,-0.0787 0.64182,0.41898 0.4433,0.40126c-2.92754,-0.2612 -5.97158,-0.16378 -8.74326,-1.1418c-0.82152,-0.28988 -1.69339,-0.82951 -2.28917,-1.52832c-0.8231,-0.08964 -1.68589,-0.31734 -2.48109,-0.33288c-1.80272,-0.03524 -3.62848,0.11032 -5.40574,-0.19369c-1.56006,-0.26686 -2.94437,-1.23503 -4.5045,-1.5015c-1.17691,-0.20102 -2.39545,0.27159 -3.57984,0.12069c-3.02043,-0.38483 -5.98079,-1.14652 -8.97119,-1.71979c0,0 -14.70871,-2.94174 -11.76697,-17.65045c2.94174,-14.70871 17.65045,-11.76697 17.65045,-11.76697c3.76885,0.8002 7.67051,0.78295 11.47301,1.4039c1.56203,0.25508 2.9713,1.1087 4.5045,1.5015c1.64954,0.42261 3.40825,-0.33991 5.10478,-0.19369c2.92831,0.25239 5.97158,0.16379 8.74326,1.14181c0.82509,0.29115 1.70098,0.83422 2.29693,1.53745c3.55784,-0.38239 4.12127,0.80814 7.42112,2.22651c0.18311,0.0787 -0.6426,-0.40126 -0.44329,-0.40126c2.65364,0 5.35753,-0.16153 7.9508,0.40126c1.74195,0.37803 9.58626,4.18967 11.33037,5.4331c1.15268,0.82179 1.88331,2.1368 3.00301,3.003c1.50997,1.16812 3.48904,1.71363 4.83895,3.06354c1.34991,1.34991 1.86194,3.35547 3.06353,4.83895c1.33653,1.65006 3.00301,3.00301 4.50451,4.50451c-0.06858,1.32233 2.07312,1.66981 2.94247,2.66855c1.78089,2.04594 3.09827,4.4753 4.31131,6.9014c0.12462,0.24924 -0.35712,-0.10944 -0.78177,-0.45354c3.19257,2.59891 4.80223,2.46723 4.81076,4.96341c2.75359,2.68766 4.42224,6.43723 7.39765,8.88455c3.05807,2.51529 7.12951,3.7964 9.78759,6.73121c1.70354,1.88089 2.23352,4.57437 3.64157,6.68556c0.14601,0.21893 0.55833,-0.17163 0.78824,-0.04361c2.09886,1.16875 4.30063,2.25532 6.0807,3.86856c0.82927,0.75154 0.74967,2.17399 1.50151,3.003c0.26169,0.28855 0.84877,-0.28511 1.16705,-0.06053c1.15667,0.81617 1.87818,2.14348 3.003,3.00301c0.61068,0.46663 1.48271,0.47831 2.11831,0.91037c4.86399,3.3064 9.22454,6.5676 12.8967,11.10164c2.72083,1.07594 4.75453,3.35625 7.48011,4.31644c2.84728,1.00307 5.79393,1.72586 8.59947,2.84038c2.8027,1.11339 5.36122,2.80212 8.19579,3.83166c0.57337,0.20826 1.22162,-0.31374 1.81977,-0.19395c4.5294,0.90711 8.96577,2.23156 13.47008,3.25605c8.23687,1.87346 16.63989,2.84999 24.93892,4.38484c2.10443,0.3892 4.15002,1.13496 6.28136,1.32872c5.43246,0.49389 10.95681,0.04162 16.46225,-0.17658c-0.24407,-0.2019 -0.4908,-0.3997 -0.74132,-0.59163c-1.98651,-1.52194 -4.11077,-2.87031 -6.00601,-4.5045c-2.34247,-2.01984 -3.9229,-4.88742 -6.45014,-6.67068c-0.91442,-0.64524 -2.1462,-0.7815 -3.003,-1.5015c-5.45886,-4.58727 -8.27918,-7.72549 -10.33259,-14.72835c-0.60607,-2.0669 -0.30991,-4.29731 -0.40126,-6.4493c-0.32402,-7.63255 -0.0034,-14.30105 3.74174,-21.39948c1.75075,-3.31832 4.1328,-3.63124 5.49044,-6.60477c1.11943,-2.45181 1.74393,-5.12438 3.00301,-7.5075c1.31504,-2.48905 2.95316,-4.80649 4.67821,-7.03111c0.47025,-0.60644 1.46173,-0.71337 1.84337,-1.37914c0.54767,-0.95543 0.29726,-2.2222 0.78654,-3.20881c0.95869,-1.93318 2.33606,-3.62875 3.50408,-5.44313c2.4256,-4.9997 4.76102,-10.18911 7.50751,-15.01502c1.28993,-2.26656 2.90716,-4.3484 4.06175,-6.68681c0.49547,-1.0035 0.88276,-2.07044 1.5015,-3.003c0.07574,-0.11415 0.3102,0.39561 0.31918,0.25891c0.04301,-0.65539 -0.37932,-1.3255 -0.20758,-1.95945c0.21577,-0.79644 1.30782,-1.27662 1.30782,-2.10177c0,-0.82515 -1.20547,-1.28299 -1.30782,-2.10177c-0.95171,-7.61366 0.8185,-15.52629 -0.0813,-23.09251c-0.2437,-2.04917 -1.19766,-3.96488 -1.5015,-6.00601c-0.50261,-3.37642 -0.4505,-8.92125 -0.11239,-12.34325c0.01959,-0.19834 0.50456,0.61374 0.40127,0.44329c-2.33808,-3.85824 -2.35486,-8.44851 -3.76396,-12.72106c-2.2235,-4.40082 -4.17163,-8.94828 -6.62297,-13.22636c-1.00019,-1.74553 -2.40306,-3.25175 -3.30468,-5.05017c-2.59541,-5.17697 -4.07083,-13.37357 -9.00883,-17.33712c-1.12209,-0.90066 -2.65933,-1.10637 -3.94356,-1.75523c-4.49514,-2.27116 -9.34087,-3.77083 -14.04706,-5.56422c-2.95882,-1.12752 -5.50124,-3.20132 -8.47295,-4.29442c-1.74254,-0.64097 -3.66245,-0.68964 -5.41685,-1.29738c-3.35603,-1.16255 -6.68181,-2.4465 -9.87569,-4.00007c-4.00908,-1.95009 -6.18621,-4.72816 -11.03479,-4.28134c0,0 -15,0 -15,-15c0,-15 15,-15 15,-15c6.86646,0.19254 13.76276,1.88694 20.10379,4.52827c1.80055,0.75001 3.16617,2.30399 4.89746,3.2024c3.6414,1.88961 7.89959,2.25416 11.73448,3.71156c3.31717,1.26065 6.21462,3.48944 9.54507,4.71458c11.74735,4.32143 22.9794,8.06457 31.38541,17.86187c5.27217,6.14478 7.18261,13.51773 10.68421,20.54462c0.71251,1.42986 1.91028,2.57088 2.70132,3.95883c3.10016,5.43948 5.61109,11.1943 8.39205,16.80367c1.40828,4.20664 2.11931,8.61734 3.3329,12.88422c0.43956,1.54546 1.5778,2.85318 1.91214,4.42476c0.85744,4.03034 -0.11336,8.35038 0.00763,12.4209c1.34933,-1.45063 2.80167,-2.81791 4.41232,-4.05822c6.89659,-5.31084 14.17951,-7.80562 22.6921,-9.29349c0.98605,-0.17234 2.01563,0.16457 3.00301,0c2.03554,-0.33926 3.95627,-1.26256 6.006,-1.5015c5.95535,-0.69421 12.34735,-0.11238 18.34927,-0.11238c5.47401,0 12.08272,-0.4258 17.68677,0.11238c2.002,-0.5005 3.9598,-1.23396 6.006,-1.5015c3.82627,-0.50029 8.21054,0.60853 12.01201,0c2.46667,-0.39486 4.89829,-1.1457 7.39547,-1.21262c0.13694,-0.00367 -0.36378,-0.23103 -0.25891,-0.31917c2.11475,-1.77738 4.03123,-3.81701 6.32974,-5.34936c1.03522,-0.69015 2.5704,-0.242 3.61982,-0.91037c1.06848,-0.68051 0.73494,-2.44688 1.36025,-3.54858c1.88961,-3.32917 3.47179,-6.8756 5.81281,-9.9044c0.45195,-0.58472 1.15697,-0.8876 1.8872,-1.13442c0.62189,-1.62249 1.49737,-3.16451 2.55677,-4.53714c2.74318,-3.55424 6.61721,-6.08565 10.16631,-8.83549c1.78894,-1.38607 3.12432,-3.39317 5.12236,-4.45587c2.2489,-1.19613 4.99378,-1.14695 7.32818,-2.16622c1.76111,-0.76895 3.2217,-2.09565 4.83256,-3.14348c12.33209,-2.80924 24.57644,-7.14782 37.27179,-7.14782h3.003c0,0 15,0 15,15c0,15 -15,15 -15,15h-3.003c-8.65571,0 -17.13083,3.5349 -25.79128,4.8642c-1.39215,0.95417 -2.61899,2.21226 -4.17645,2.86253c-0.02305,0.00962 -0.04618,0.01899 -0.06937,0.02812c4.21373,1.31639 8.41508,2.72925 10.75649,3.55544c4.07031,1.43625 8.35161,2.42639 12.15156,4.47349c1.88585,1.01593 11.48201,10.88366 12.14416,12.00991c2.35476,4.00524 3.9074,8.46836 5.20973,12.92826c0.5462,1.87051 0.21969,3.89166 0.27066,5.83961c0.03996,1.52743 0.00577,8.74418 -0.19369,9.91024c-0.26686,1.56007 -1.228,2.94559 -1.5015,4.5045c-0.18253,1.04042 0.27817,2.11589 0.15595,3.16511c-0.54066,4.64146 -1.16753,9.28339 -2.13249,13.8555c1.4688,-0.04084 2.93146,-0.01971 4.36344,0.27019c5.80111,1.17442 11.37231,3.28623 17.05242,4.95007c4.09248,1.19879 8.34257,1.965 12.26523,3.6378c9.62911,4.10627 20.16649,12.4906 26.30896,20.88969c1.22179,1.67066 1.28527,3.95176 2.21647,5.8002c1.80671,3.58634 4.43977,6.81574 5.62851,10.65148c0.29632,0.95614 -0.24278,2.03189 0,3.003c0.27143,1.08574 1.28064,1.90586 1.5015,3.00301c0.34205,1.69918 0.62169,9.77957 0.20758,11.85504c-0.53586,2.68564 -1.48701,5.27821 -2.44962,7.84202c-0.12187,0.32457 -0.67079,0.37427 -0.76096,0.70904c-0.79158,2.93903 -0.12423,6.4294 -1.83897,8.94418c-4.96398,7.28001 -13.81272,9.62202 -21.76877,10.11704c-4.30097,0 -9.98655,0.56713 -13.9568,-0.40127c-2.17455,-0.53041 -3.83453,-2.46014 -6.00601,-3.00301c-1.94223,-0.48556 -4.03125,0.32913 -6.00601,0c-1.10393,-0.18399 -1.92278,-1.20885 -3.003,-1.5015c-1.313,-0.35571 -2.70089,0.40126 -4.06122,0.40126c-0.96556,0 -1.94236,0.14424 -2.89787,0.01532c-3.74741,4.21041 -12.87438,2.38715 -17.22192,2.79399c-0.97135,0.0909 -1.77356,0.83537 -2.71342,1.09699c-2.76162,0.76871 -5.52925,1.58209 -8.36707,1.98731c-0.9735,0.13901 -9.10337,0.11239 -10.84175,0.11239c-6.49549,0 -14.07577,0.6664 -20.42075,-0.19369c-2.36289,-0.3203 -4.56346,-1.38504 -6.84519,-2.07756c-2.66891,-1.14146 -5.84022,-0.72096 -8.50435,-1.87356c-1.83952,-0.79585 -2.86545,-2.90208 -4.65323,-3.8082c-1.14486,-0.58026 -2.58989,-0.11891 -3.81972,-0.48622c-2.76644,-0.82624 -5.39501,-2.06373 -8.04357,-3.21309c-0.31804,-0.13802 -0.36529,-0.71588 -0.70905,-0.76096c-0.96023,-0.12592 -1.93138,0.41966 -2.89096,0.28887c-2.04471,-0.27868 -3.96313,-1.20968 -6.00601,-1.5015c-1.67471,-0.23923 -3.41434,0.244 -5.07449,-0.0813c-5.09126,-0.9976 -11.24592,-3.6846 -15.63668,-6.33716c-0.5967,-0.36048 -0.651,-1.4325 -1.32236,-1.62028c-1.15956,-0.32433 -2.42127,0.46777 -3.60404,0.24236c-1.09937,-0.20951 -1.9179,-1.22752 -3.003,-1.5015c-1.26399,-0.31915 -2.7112,0.28492 -3.90348,-0.24235c-6.31159,-2.79121 -12.77863,-7.37315 -16.83088,-13.09324c-1.77444,-2.50477 -2.62107,-5.55157 -3.9316,-8.32736l-0.40126,-10.9538c0,0 0,-15 15,-15c15,0 15,15 15,15l-0.22244,2.25137c0.28472,0.37532 0.54134,0.84469 0.73828,1.16351c0.1232,0.19944 -0.89299,0.24604 -0.65857,0.24676c0.70548,0.00215 1.41758,-0.41129 2.10254,-0.24236c1.08659,0.26798 1.90717,1.27422 3.00301,1.5015c1.76588,0.36625 3.70462,-0.35874 5.40497,0.24236c1.32282,0.46764 3.68729,2.16044 6.17905,3.77267c0.00879,-2.19099 0.04744,-4.67568 0.19341,-5.33254c1.63613,-7.36281 4.41286,-14.86707 6.26018,-22.25632c0,0 3.63803,-14.55214 18.19017,-10.9141c14.55214,3.63804 10.91411,18.19017 10.91411,18.19017c-0.14809,0.59235 -3.0749,12.31349 -3.15334,12.56779c-0.75371,2.44354 -1.8467,4.7738 -2.5985,7.21793c-0.35363,1.14966 0.19369,2.40044 0.19369,3.60327v1.5015c0,0 0,1.22912 -0.35184,2.98367c1.87977,0.89366 3.74239,1.81426 5.57105,2.46758c2.69019,0.96112 5.63097,1.25167 8.1923,2.51678c0.7713,0.38097 0.80938,1.53091 1.35277,2.19781c0.2117,0.25981 -0.66472,-1.0054 -0.33452,-0.94812c2.34942,0.40757 4.56346,1.38505 6.84519,2.07757c3.69833,1.58173 7.79046,0.73175 11.7731,0.73175c4.04859,0 9.13416,0.69127 13.18227,0.11238c3.41888,-0.48891 6.51333,-2.49488 9.94052,-2.9217c2.97998,-0.37112 6.01044,0.16307 9.00901,0c2.34404,-0.12747 4.17372,-2.28005 6.46395,-2.79542c5.17089,-1.16362 15.38589,-0.87205 20.4061,0c1.10264,0.19154 1.89908,1.31751 3.00301,1.5015c1.97476,0.32913 4.06378,-0.48556 6.006,0c2.17147,0.54287 3.90562,2.22944 6.00601,3.003c0.354,0.13038 0.6828,-0.36417 1.05822,-0.40126c0.69208,-0.06838 1.38649,-0.08925 2.08203,-0.08737c0.20769,-0.38421 0.40635,-0.77045 0.57629,-1.16339c0.23863,-0.55178 -0.1198,-1.40464 0.35969,-1.76725c0.15897,-0.12022 0.47997,0.6264 0.40126,0.44329c-0.6933,-1.61297 -1.3895,-3.33801 -1.50036,-5.0851c-1.2746,-1.65894 -2.45263,-3.4111 -3.38164,-5.28444c-0.48928,-0.98661 -0.17404,-2.29358 -0.78654,-3.20881c-0.7417,-1.10828 -2.02299,-1.73967 -3.07427,-2.56016c-1.85669,-1.44907 -7.51234,-5.72058 -9.65582,-6.58018c-2.80622,-1.12538 -5.85645,-1.51079 -8.75579,-2.36821c-4.34644,-1.28535 -8.56242,-3.03433 -12.9776,-4.05894c-2.81314,-0.65283 -5.86927,0.77589 -8.66356,0.0466c-4.6273,-1.20767 -9.03945,-3.12565 -13.55917,-4.68848c-2.73861,-4.75344 -6.10834,-9.19539 -8.21582,-14.26034c-0.82745,-1.98864 -0.40127,-4.29537 -0.40127,-6.4493c0,-3.1536 -0.10299,-6.33928 0.40127,-9.4523c0.23483,-1.44974 1.44367,-2.60021 1.78253,-4.02922c0.9987,-4.21147 0.32838,-8.67144 1.01289,-12.94523c0.53181,-3.32038 3.29882,-8.70842 0.7822,-11.86243c-0.70027,-0.87762 -1.81292,-1.34342 -2.58849,-2.15526c-0.2062,-0.21585 -0.00403,-0.742 -0.28237,-0.84984c-4.73244,-1.83358 -9.73037,-2.89237 -14.56521,-4.43583c-2.70736,-0.86429 -5.3436,-2.08212 -8.15787,-2.47793c-2.90274,-0.40825 -5.84888,-0.10276 -8.78857,0.06007c-1.34438,1.69993 -2.77222,3.32334 -4.38428,4.76105c-1.4382,1.28265 -3.78577,1.02368 -5.38919,2.09263c-1.4785,0.98567 -2.20994,2.83182 -3.61982,3.91337c-1.72028,1.31966 -9.61659,4.96492 -11.33037,5.43311c-1.48735,0.40633 -3.09614,0.03262 -4.61655,0.28888c-2.03492,0.34297 -3.9598,1.23396 -6.006,1.5015c-3.82627,0.50029 -8.21054,-0.60853 -12.01201,0c-2.03768,0.32618 -4.00401,1.001 -6.00601,1.5015c-8.11697,0.18865 -16.23625,0.11239 -24.35528,0.11239c-3.89377,0 -7.82275,-0.63888 -11.68076,-0.11239c-2.04467,0.27903 -3.97047,1.16225 -6.00601,1.5015c-2.92124,0.48687 -5.92025,0.28256 -8.75599,1.59012c-3.65914,1.68722 -7.25817,7.24436 -9.3602,10.20387c-4.34391,6.11596 -8.43126,11.50314 -13.6505,16.95803c0,0 -0.13282,0.13283 -0.3836,0.35388c-0.00149,1.00776 0.1412,2.03354 -0.12877,2.99632c-1.79229,6.39177 -5.89389,11.95511 -9.13259,17.59613c-2.76941,4.82363 -4.98409,10.0523 -7.50751,15.01502c-0.83398,1.18863 -1.84865,2.26912 -2.50192,3.56587c-0.9312,1.84844 -1.13633,4.03464 -2.21647,5.8002c-0.92901,1.51852 -4.44733,4.32014 -5.49043,6.60477c-1.11944,2.45181 -1.74392,5.12438 -3.003,7.5075c-1.53075,2.89733 -2.90558,6.72596 -5.77819,8.11728c0.06815,1.23841 0.16944,2.48784 0.15959,3.72905c3.79656,2.29532 6.26194,5.96925 9.6788,8.87767c1.82137,1.55035 4.04099,2.62582 5.76938,4.27225c1.03459,0.25872 1.90554,0.99066 2.8639,1.46984c-1.15403,-1.04463 -0.80017,-0.54389 2.55971,-0.40126c2.15198,0.09135 4.35612,-0.10665 6.4493,0.40126c2.20779,0.53572 4.19396,1.74976 6.26491,2.68383c8.46521,3.81807 17.25863,7.29246 23.03343,15.34754c1.11164,1.55058 0.91178,3.65841 1.17236,5.59139c4.71035,0 9.4207,0 14.13105,0c0.28886,0 17.43136,-0.08068 18.91925,0.19369c3.45928,0.63789 6.62886,2.40324 10.05257,3.21058c4.08532,0.96335 8.40856,0.84543 12.41775,2.08811c2.14756,0.66565 3.72927,2.53683 5.74124,3.5404c1.85214,0.92385 4.02523,1.15187 5.8002,2.21647c1.51349,0.90776 2.43039,2.59868 3.88769,3.59414c4.41331,3.01464 11.72426,4.73322 16.00323,7.15352c1.10767,0.62653 1.54035,2.11115 2.6316,2.76586c1.12595,0.67553 2.68255,0.3745 3.78681,1.08493c4.66751,3.0028 8.42535,7.23758 12.85206,10.58521c5.39821,4.08231 11.69914,7.25423 17.53859,10.63849c2.3612,1.36844 5.01969,2.23208 7.24776,3.80803c1.73361,1.22621 2.84637,3.178 4.5045,4.5045c0.87391,0.69913 2.11781,0.81671 3.003,1.5015c0.67784,0.52437 1.31357,1.09798 1.93161,1.6923c2.55814,-0.41473 5.2532,-0.25464 7.75904,0.3821c4.5913,1.16666 8.36541,4.55006 12.06955,7.50311c1.41105,1.12492 3.12355,1.84133 4.5045,3.003c0.57401,0.48287 9.40827,9.16235 10.16631,10.33699c1.66442,2.57918 2.90948,5.43293 3.9316,8.32736c0.11379,0.32225 -0.96043,0.44743 -0.74054,0.70905c0.28175,0.33523 1.0125,-0.34552 1.31345,-0.0274c0.76911,0.813 0.85627,2.08858 1.5015,3.00301c0.88682,1.2568 2.12602,2.24127 3.34721,3.17653c3.49493,2.67663 7.40959,4.80538 10.74435,7.6791c0.62585,0.53933 0.31125,1.70846 0.86293,2.32344c0.26012,0.28996 0.84877,-0.28511 1.16706,-0.06052c1.15666,0.81617 1.91147,2.10157 3.003,3.003c1.40517,1.16044 4.23253,1.90571 5.97861,2.81495c4.08921,1.36307 8.70916,2.90235 12.29916,5.38904c0.57308,0.39695 0.65987,1.40327 1.32236,1.62027c0.56376,0.18466 1.06809,-0.59398 1.65924,-0.64362c2.19182,-0.18404 4.39495,-0.09848 6.59695,-0.03952c1.16467,-1.92329 2.31597,-3.07459 2.31597,-3.07459c2.70809,-2.68114 5.72818,-5.08014 8.12427,-8.04342c3.66776,-4.53596 6.52585,-9.67515 9.99494,-14.36479c1.47963,-2.00022 3.50015,-3.58639 4.83657,-5.685c1.41576,-2.22319 1.78936,-5.03735 3.34603,-7.16425c1.07698,-1.47148 1.91746,-2.57573 2.55775,-3.37253c2.77082,-4.61276 7.01058,-11.53535 8.76692,-13.79187c9.85979,-12.66768 21.69412,-22.37526 33.98316,-32.60821c3.12944,-2.60585 11.59174,-9.34482 15.19507,-11.71767c1.30982,-0.86254 2.73953,-1.53972 4.18076,-2.15815c0.89099,-0.38232 2.07423,-0.17471 2.78717,-0.83177c0.35492,-0.3271 0.64387,-0.70982 0.90108,-1.11953c-2.82427,-6.69953 -1.46954,-15.40012 -1.46954,-22.16984c0,-6.84749 -0.88984,-15.10908 0.19369,-21.92226c0.26372,-1.65827 2.4724,-7.54544 2.9217,-9.94052c0.49647,-2.64647 -0.31434,-5.41408 0.0813,-8.07749c0.23256,-1.56555 1.1911,-2.95252 1.5015,-4.5045c0.19631,-0.98156 -0.19631,-2.02144 0,-3.00301c1.01522,-5.0761 2.14643,-8.6638 2.88232,-14.09034c0.58673,-4.32667 -0.43106,-8.75049 -0.03527,-13.09879c0.42556,-4.67539 1.43071,-9.27979 2.14606,-13.91969c2.33457,-5.08994 5.04218,-12.97976 8.80743,-17.15071c1.88145,-2.08418 4.64864,-3.2076 6.62548,-5.20152c1.36668,-1.3785 1.85286,-3.50153 3.2932,-4.80288c2.55934,-2.31236 5.44277,-4.31462 8.52084,-5.87113c9.45876,-4.78311 21.7776,-3.02677 32.11579,-3.02677c3.99797,0 8.57741,-0.37936 12.45531,0.40127c1.09714,0.22086 1.97481,1.05956 3.003,1.5015c0.18311,0.0787 -0.6402,-0.3704 -0.44329,-0.40127c0.98892,-0.15503 2.002,0 3.003,0l15,16.50151c0,0 0,15 -15,15c-3.52287,0 -6.21837,-0.82738 -8.28081,-2.0935c-1.37479,-0.2824 -2.74993,-0.69846 -4.17449,-1.31077c-0.18311,-0.0787 0.6402,0.3704 0.4433,0.40127c-4.73283,0.74192 -10.21598,0 -15.01502,0c-2.98388,0 -6.02992,0.16013 -9.00901,0c-0.32389,-0.01741 -1.08814,-0.31916 -1.40541,0.1111c-0.99014,1.34278 -1.52683,3.03272 -2.7128,4.20614c-1.56302,1.54648 -3.65564,2.45152 -5.38653,3.80749c-0.23974,0.18782 -2.27306,5.68245 -3.20458,6.87331c-0.84864,7.03252 -0.07847,14.05761 -0.89221,21.02958c-0.29585,2.53485 -1.14306,4.98074 -1.5015,7.5075c-0.18397,1.29686 0.12676,2.64142 -0.12069,3.92768c-0.299,1.55422 -1.1911,2.95252 -1.5015,4.5045c-0.19631,0.98156 0.19631,2.02144 0,3.003c-0.31039,1.55199 -1.19414,2.95191 -1.5015,4.5045c-0.44911,2.26864 0.44453,4.65356 0.0813,6.93752c-0.60216,3.78634 -2.37742,7.31231 -3.08431,11.0805c-0.31396,1.67362 0.19369,3.40196 0.19369,5.10477c0,4.00401 0,8.00801 0,12.01201c0,3.00301 0.06673,6.00675 0,9.00901c-0.02356,1.06005 -0.53353,2.14218 -0.27066,3.16939c2.01175,7.86112 5.49983,7.70747 2.87239,16.79342c-1.06979,3.69944 -3.66242,6.77554 -5.49363,10.16331c-1.22752,0.71336 -2.67557,1.13925 -3.68257,2.14007c-1.27995,1.2721 -1.58804,3.38451 -3.00301,4.5045c-3.28878,2.60318 -7.58327,3.65819 -11.05008,6.01909c-7.8704,5.35978 -14.99202,12.09879 -22.22744,18.21612c-7.41694,6.27081 -12.72007,10.86334 -18.68442,18.53907c-0.94361,1.21436 -1.61801,2.62078 -2.5414,3.85059c-1.30345,1.736 -3.16785,3.08946 -4.13038,5.03527c-0.99529,2.01203 -0.43661,4.62043 -1.59662,6.54221c-0.96666,1.60145 -3.28693,1.96361 -4.43095,3.44356c-0.38252,0.49485 0.66929,1.31114 0.34303,1.84476c-2.04658,3.34729 -4.86589,6.15843 -7.17543,9.33002c-1.51716,2.08344 -2.94821,4.23102 -4.38093,6.37687c3.89873,0.73876 8.44901,2.08801 12.13245,3.43512c2.56838,0.9393 5.27465,1.61161 7.64706,2.97199c0.60396,0.34632 0.25248,1.55975 0.85729,1.90458c0.48789,0.27816 1.07301,-0.33213 1.60951,-0.49819c4.37351,2.49537 8.43725,4.72863 12.87196,6.94598c1.001,0.5005 2.07045,0.88276 3.00301,1.5015c0.11415,0.07574 -0.39431,0.29832 -0.25891,0.31918c1.28846,0.19851 2.69276,-0.2411 3.90347,0.24235c2.42978,0.97024 4.64604,2.41143 6.84565,3.84062c1.73111,-0.05782 3.49091,-0.14135 5.15771,0.29092c7.52812,1.95234 13.9978,6.85699 21.32157,9.47361c2.6221,0.93682 5.57831,0.51075 8.25495,1.27798c7.78032,2.23014 15.31394,5.25453 22.87667,8.13758c1.32745,0.50605 2.61646,1.12963 3.83486,1.86097c1.96949,-0.0005 3.95642,0.01363 5.8832,0.4015c1.83129,0.36865 4.07313,2.47018 2.55971,1.10023c1.65202,0 3.30406,0 4.95608,0c2.55364,-1.65168 5.26081,-3.09075 8.11414,-4.10324c2.56565,-0.91041 10.33294,-0.15963 12.89859,0l6.26492,2.68383c0,0 13.41641,6.70821 6.7082,20.12462c-4.70952,9.41903 -12.72535,8.91907 -17.08387,7.785c-0.61704,0.51371 -1.29834,0.94565 -1.96008,1.26956c-5.98461,2.92928 -13.41686,2.24024 -19.89798,2.24024c-3.20777,-0.19958 -6.49954,-0.63358 -9.4523,-1.90276c-0.18311,-0.07871 0.6426,0.40126 0.44329,0.40126c-2.15392,0 -4.35612,0.10665 -6.4493,-0.40126c-2.94946,-0.71569 -5.45049,-2.69856 -8.29997,-3.74355c-6.37234,-2.33691 -12.63754,-5.01859 -19.16537,-6.87743c-3.17841,-0.90508 -6.65073,-0.61381 -9.76307,-1.72503c-6.17496,-2.20466 -11.60131,-6.18153 -17.71747,-8.5444c-2.05746,-0.79487 -4.48134,0.4257 -6.61568,-0.13061c-2.49813,-0.65113 -4.83756,-1.85741 -7.08562,-3.12659c-0.60706,-0.34273 -0.67561,-1.36007 -1.32236,-1.62027c-0.6545,-0.26332 -1.42529,0.43997 -2.10253,0.24236c-4.15531,-1.21245 -8.37651,-3.72114 -12.27092,-5.68683c-1.86282,-0.94025 -3.82668,-1.94792 -5.14607,-3.56454c-1.46549,-0.16606 -3.06784,0.14207 -4.3965,-0.49818c-1.97668,-0.95252 -3.29616,-2.92559 -5.14871,-4.10144c-0.3834,-0.24335 -0.92204,0.08159 -1.36196,-0.03101c-3.87881,-0.99286 -3.76822,-1.62685 -7.59984,-2.34564c-1.36773,-0.25658 -2.78167,0.11239 -4.17326,0.11239c-2.70337,0 -5.45588,-0.71868 -8.10778,-0.19369c-1.55259,0.30736 -2.93896,1.26894 -4.5045,1.5015c-7.68041,1.14091 -17.15411,0.49944 -24.92525,0.19369c-3.45491,-0.13593 -7.0222,0.28494 -10.35277,-0.64362c-2.84157,-0.79222 -5.10369,-2.96077 -7.68664,-4.38573c-2.85902,-1.57726 -5.59706,-2.57837 -8.72186,-3.61997c-3.85586,-1.88696 -8.55625,-3.7108 -12.03941,-6.19406c-1.15268,-0.82178 -1.88331,-2.1368 -3.003,-3.003c-1.50997,-1.16812 -3.46633,-1.73672 -4.83895,-3.06354c-1.0208,-0.98674 -1.0591,-2.76215 -2.14008,-3.68257c-2.14875,-1.82959 -4.99683,-2.66545 -7.27367,-4.33292c-4.30364,-3.15181 -7.26168,-7.60098 -10.16631,-11.83848c-1.44049,-2.1015 -3.59095,-3.73606 -4.69257,-6.03341c-0.52502,-1.0949 -0.73056,-2.33015 -0.77273,-3.56882c-0.17323,-0.22082 -0.34134,-0.43989 -0.48019,-0.57384c-1.17372,-1.13241 -2.14861,-2.47437 -3.40774,-3.51098c-1.39318,-1.14697 -3.09769,-1.87279 -4.5045,-3.003c-0.25801,-0.20728 -0.56761,-0.40913 -0.87384,-0.6198c-2.90744,0.60618 -5.84184,1.22552 -8.63534,0.47239c-3.79745,-1.0238 -6.40374,-4.56809 -9.6056,-6.85213c-1.07072,-1.32202 -2.84162,-1.87972 -4.17006,-2.94247c-1.65813,-1.3265 -2.78381,-3.26023 -4.5045,-4.50451c-1.41722,-1.02483 -3.23902,-1.34213 -4.76425,-2.19798c-3.519,-1.97463 -7.06703,-3.90244 -10.51051,-6.006c-3.76554,-2.30031 -7.45294,-4.74129 -10.98994,-7.37953c-2.95098,-2.20112 -5.01047,-5.54149 -8.16896,-7.43281c-1.591,-0.9527 -3.63205,-0.96393 -5.22219,-1.91807c-0.92436,-0.55465 -1.53854,-1.51722 -2.27537,-2.31698c-0.00036,5.58919 -0.36418,11.31984 -0.36418,16.58425c0,2.02792 0.05612,11.23159 -0.19369,12.91324c-0.23256,1.56554 -1.1087,2.9713 -1.5015,4.5045c-0.81092,3.16527 0.3631,8.20467 0.24442,11.81659c2.38235,3.1748 5.11924,8.74236 6.31497,11.57196c0.23879,0.56509 0.30418,1.18646 0.35588,1.80455c2.26189,1.75664 4.89553,3.13477 6.71553,5.3413c1.10529,1.34003 1.58317,3.08605 2.06585,4.78214c1.48811,0.72902 2.93738,1.58631 4.12766,2.72517c0.80863,0.7737 0.74312,2.17998 1.5015,3.003c1.50532,1.63362 4.0137,2.31701 5.15616,4.22214c1.31428,2.19164 1.06057,5.00862 1.83897,7.44268c0.34089,1.06597 1.30997,1.90036 1.50151,3.003c0.5736,3.30212 -0.44329,6.76481 0.20757,10.05257c0.30736,1.55259 1.19084,2.95257 1.5015,4.5045c0.12892,0.64402 -0.37329,1.32389 -0.20758,1.95944c0.28237,1.08294 1.30996,1.90036 1.5015,3.003c0.50218,2.89091 0.40126,10.62299 0.40126,13.9568c0,6.00601 0,12.01201 0,18.01802v3.003c0,0 0,15 -15,15c-15,0 -15,-15 -15,-15c0,-6.00601 0,-15.01502 0,-21.02102c0,-2.002 -0.11354,-4.00722 0,-6.006c0.0214,-0.37664 0.49991,-0.69409 0.40126,-1.05821c-0.29264,-1.08022 -1.23781,-1.91536 -1.5015,-3.003c-0.31823,-1.31261 0.05713,-2.72213 -0.20758,-4.04656c-0.3102,-1.55203 -1.26894,-2.93896 -1.5015,-4.5045c-0.11501,-0.77425 -0.18115,-1.55404 -0.216,-2.33657c-1.76096,0.35426 -2.99571,0.35425 -2.99571,0.35425c0.10807,-2.54938 -8.70175,4.37532 -9.36287,5.04724c-7.43008,7.55136 -9.68797,8.6857 -12.34819,17.43498c-1.91669,6.30386 -2.62264,12.9274 -4.42767,19.26414c-1.73279,6.08312 -5.85374,16.26427 -7.0683,22.00841c-0.36766,1.73879 0.14115,3.55217 0.159,5.32931c0.05526,5.50523 0,11.01101 0,16.51651c0,9.12033 1.02511,17.17934 -4.3934,25.62162c-0.03399,0.05295 -0.0711,0.10663 -0.11111,0.16085v1.24456c0,0 0,15 -15,15z" fill="#874f00" stroke="none" stroke-width="0.5"/><path d="M502.79168,357.66668c0.2046,0.35087 0.35914,0.74716 0.47916,1.17272c0.89569,1.92253 1.39584,4.0665 1.39584,6.32728c0,0.20209 -0.004,0.40324 -0.01192,0.60339c0.00395,0.00525 0.00793,0.01047 0.01192,0.01568c1.34913,1.75922 5.2101,3.51836 6.93993,5.10766c9.4468,8.67935 20.76904,21.99345 17.25834,36.03625c-1.61637,6.4655 -6.68375,11.12388 -8.19828,17.60106c-1.94474,8.31703 3.81633,19.49539 -6.32812,25.29222c-2.59981,1.48561 -5.67753,2.34375 -8.67187,2.34375c-10.87808,0 -13.98909,-7.56846 -15,-16.66667c-0.77808,-7.0027 -0.34555,-14.89904 1.91692,-21.70821c1.4855,-4.47077 4.47458,-8.53794 5.85096,-13.03525c0.54439,-1.7788 -4.28863,-4.3345 -5.04115,-5.31661c-5.35026,-6.98255 -15.12565,-9.34105 -17.62365,-18.52985c-0.69889,-2.57087 -1.18473,-6.44683 -1.04228,-10.3837c-0.04024,-0.44786 -0.0608,-0.90139 -0.0608,-1.35971c0,-2.07795 0.42253,-4.05723 1.18636,-5.85658c1.08539,-3.46716 3.03572,-6.23047 6.24851,-7.09879c2.22096,-1.29971 4.80605,-2.04463 7.56513,-2.04463c2.99972,0 5.79378,0.88053 8.13781,2.39723c1.844,0.92501 3.38748,2.35943 4.98719,5.10277z" fill="#723d00" stroke="none" stroke-width="0.5"/><path d="M494.41218,409.6843l2.24239,-6.21934l32.51661,6.10941l-2.24239,6.21934z" fill="#643600" stroke="#000000" stroke-width="0"/><path d="M490.41218,416.1843l2.24239,-6.21934l32.51661,6.10941l-2.24239,6.21934z" fill="#643600" stroke="#000000" stroke-width="0"/><path d="M486.16668,362.62501c0,2.8995 -2.40647,5.25 -5.375,5.25c-2.96853,0 -5.375,-2.3505 -5.375,-5.25c0,-2.8995 2.40647,-5.25 5.375,-5.25c2.96853,0 5.375,2.3505 5.375,5.25z" fill="#f6f6f6" stroke="none" stroke-width="0"/><path d="M499.41668,364.75001c0,2.96853 -2.29454,5.375 -5.125,5.375c-2.83046,0 -5.125,-2.40647 -5.125,-5.375c0,-2.96853 2.29454,-5.375 5.125,-5.375c2.83046,0 5.125,2.40647 5.125,5.375z" fill="#f6f6f6" stroke="none" stroke-width="0"/><path d="M483.66668,360.87501c0,1.79492 -1.567,3.25 -3.5,3.25c-1.933,0 -3.5,-1.45508 -3.5,-3.25c0,-1.79492 1.567,-3.25 3.5,-3.25c1.933,0 3.5,1.45508 3.5,3.25z" fill="#000000" stroke="none" stroke-width="0"/><path d="M493.04168,366.62501c-1.86396,0 -3.375,-1.567 -3.375,-3.5c0,-1.933 1.51104,-3.5 3.375,-3.5c1.86396,0 3.375,1.567 3.375,3.5c0,1.933 -1.51104,3.5 -3.375,3.5z" fill="#000000" stroke="none" stroke-width="0"/><path d="M490.45786,370.56516c0.23543,0.08409 0.15135,0.31952 0.15135,0.31952l-0.21467,0.39948c-0.58421,0.29842 -1.18171,0.73228 -1.81291,0.73831c-2.71798,2.58085 -5.58239,-0.71602 -8.21376,-1.30421c0,0 -0.24313,-0.05822 -0.18491,-0.30134c0.05822,-0.24313 0.30134,-0.18491 0.30134,-0.18491c2.62897,0.66297 5.20468,3.73217 7.91355,1.32547c0.61822,-0.00727 1.19394,-0.42282 1.76868,-0.71829l-0.02819,-0.12266c0,0 0.08408,-0.23543 0.31952,-0.15135z" fill="#000000" stroke="none" stroke-width="0.5"/><path d="M512.54141,348.44464c-1.30097,-1.22911 -0.07185,-2.53008 -0.07185,-2.53008l0.34143,-0.35371c3.50637,-4.30563 7.6471,-8.08149 11.48688,-12.04087c0.60707,-1.36845 1.72455,-2.96838 1.94827,-4.45097c0.07988,-0.52933 -0.59381,-1.75783 -0.7824,-2.12014c-0.94914,-1.82343 -2.88366,-3.46691 -5.10741,-3.29179c-1.70713,0.13443 -2.32448,0.59664 -3.67069,1.51682c-0.47864,0.32717 -1.74737,0.8287 -2.17952,1.43564c-0.73578,1.03337 -0.92424,2.65627 -1.15196,3.8522c0,0 -0.3385,1.75746 -2.09595,1.41896c-1.75746,-0.3385 -1.41896,-2.09596 -1.41896,-2.09596c0.34078,-1.75174 0.6922,-3.82945 1.79085,-5.30627c1.09636,-1.47375 1.65498,-1.33278 3.05336,-2.27176c1.78975,-1.20178 3.20983,-2.03222 5.47875,-2.12387c4.59492,-0.18561 10.12753,4.28407 9.65204,9.27151c-0.19445,2.03961 -1.67616,4.34607 -2.5543,6.17532c-3.82033,4.12847 -8.126,7.87251 -11.66617,12.2826l-0.5223,0.56051c0,0 -1.22911,1.30097 -2.53008,0.07186z" fill="#000000" stroke="none" stroke-width="0.5"/><path d="M508.37445,354.50346c0.41677,-0.89629 1.48123,-1.28502 2.37752,-0.86825c0.89629,0.41677 1.28502,1.48123 0.86825,2.37752c-0.41677,0.89629 -1.48123,1.28502 -2.37752,0.86825c-0.89629,-0.41677 -1.28502,-1.48123 -0.86825,-2.37752z" fill="#000000" stroke="none" stroke-width="0.5"/><path d="M451.08421,368.43534c-1.01365,-0.73043 -0.05599,-1.50357 -0.05599,-1.50357l0.26603,-0.2102c2.732,-2.55874 5.95829,-4.80265 8.95007,-7.15561c0.473,-0.81324 1.34369,-1.76404 1.51801,-2.64511c0.06224,-0.31457 -0.46267,-1.04464 -0.60961,-1.25995c-0.73952,-1.08362 -2.24682,-2.0603 -3.97947,-1.95623c-1.33012,0.07989 -1.81113,0.35457 -2.86004,0.90141c-0.37294,0.19443 -1.36148,0.49248 -1.69819,0.85317c-0.57329,0.61411 -0.72013,1.57856 -0.89755,2.28928c0,0 -0.26374,1.04441 -1.63307,0.84325c-1.36933,-0.20116 -1.10559,-1.24558 -1.10559,-1.24558c0.26552,-1.04102 0.53933,-2.27575 1.39535,-3.15339c0.85424,-0.87582 1.28948,-0.79204 2.37904,-1.35005c1.39449,-0.71419 2.50096,-1.2077 4.2688,-1.26217c3.58016,-0.1103 7.89092,2.54592 7.52044,5.50984c-0.15151,1.21209 -1.30599,2.58277 -1.99019,3.66985c-2.97663,2.45346 -6.33142,4.67845 -9.08977,7.29926l-0.40696,0.3331c0,0 -0.95767,0.77314 -1.97133,0.0427z" fill="#000000" stroke="none" stroke-width="0.5"/><path d="M447.83751,372.03596c0.32473,-0.53265 1.15411,-0.76366 1.85246,-0.51598c0.69835,0.24768 1.00123,0.88026 0.6765,1.41291c-0.32473,0.53265 -1.15411,0.76366 -1.85246,0.51598c-0.69835,-0.24768 -1.00123,-0.88026 -0.6765,-1.41291z" fill="#000000" stroke="none" stroke-width="0.5"/><path d="M476.92842,344.21452c-1.24631,-0.08805 -0.83848,-1.24932 -0.83848,-1.24932l0.11569,-0.3187c0.97767,-3.61319 2.54132,-7.21861 3.84816,-10.79343c-0.02547,-0.94044 0.21493,-2.20707 -0.10025,-3.04809c-0.11253,-0.30027 -0.94296,-0.6451 -1.18119,-0.75093c-1.19893,-0.53262 -2.9946,-0.57046 -4.41346,0.42941c-1.08924,0.76758 -1.35385,1.2542 -1.9583,2.27099c-0.21491,0.36152 -0.89889,1.13498 -0.99554,1.61884c-0.16456,0.82384 0.21785,1.72134 0.44078,2.41911c0,0 0.32504,1.02699 -0.94537,1.57616c-1.27041,0.54917 -1.59546,-0.47782 -1.59546,-0.47782c-0.32175,-1.02504 -0.73833,-2.21918 -0.47192,-3.41587c0.26585,-1.19419 0.68009,-1.35188 1.31324,-2.39956c0.81035,-1.3409 1.4918,-2.34262 2.96669,-3.31882c2.98687,-1.97694 8.05028,-1.98527 9.29419,0.73038c0.50869,1.11056 0.24779,2.88355 0.23767,4.16799c-1.2411,3.65232 -2.92398,7.30925 -3.89141,10.98909l-0.17091,0.49735c0,0 -0.40783,1.16128 -1.65413,1.07322z" data-paper-data="{&quot;index&quot;:null}" fill="#000000" stroke="none" stroke-width="0.5"/><path d="M476.06102,348.98454c-0.00398,-0.62382 0.57987,-1.25654 1.30409,-1.41321c0.72422,-0.15668 1.31455,0.22201 1.31854,0.84583c0.00398,0.62382 -0.57987,1.25654 -1.3041,1.41322c-0.72422,0.15668 -1.31455,-0.22201 -1.31853,-0.84583z" data-paper-data="{&quot;index&quot;:null}" fill="#000000" stroke="none" stroke-width="0.5"/><path d="M539.41353,354.24445c-1.49368,-0.40372 -0.72158,-1.71792 -0.72158,-1.71792l0.21647,-0.35978c2.04835,-4.15837 4.80699,-8.1678 7.24625,-12.20118c0.19293,-1.14899 0.78663,-2.63109 0.60381,-3.72822c-0.06527,-0.39171 -0.99241,-1.00848 -1.25673,-1.19381c-1.33027,-0.93273 -3.50354,-1.4062 -5.46592,-0.52884c-1.50649,0.67353 -1.94392,1.20192 -2.92057,2.29374c-0.34725,0.38819 -1.36262,1.16534 -1.59527,1.73038c-0.39611,0.96204 -0.14504,2.14381 -0.04023,3.04489c0,0 0.15053,1.32549 -1.52415,1.69045c-1.67468,0.36496 -1.82521,-0.96053 -1.82521,-0.96053c-0.14699,-1.32233 -0.36898,-2.87275 0.23968,-4.26367c0.60739,-1.38802 1.14835,-1.48104 2.16724,-2.60356c1.30404,-1.43668 2.37069,-2.49185 4.39552,-3.3271c4.1006,-1.69151 10.25616,-0.4962 11.12138,3.10028c0.35382,1.47077 -0.38534,3.56338 -0.70342,5.12196c-2.37781,4.14321 -5.29362,8.18685 -7.34539,12.42866l-0.32611,0.56374c0,0 -0.7721,1.31421 -2.26577,0.9105z" fill="#000000" stroke="none" stroke-width="0.5"/><path d="M537.2238,359.83499c0.14367,-0.75907 1.00386,-1.38902 1.92131,-1.40702c0.91745,-0.018 1.54473,0.58276 1.40106,1.34184c-0.14367,0.75907 -1.00386,1.38903 -1.92131,1.40703c-0.91745,0.018 -1.54472,-0.58276 -1.40105,-1.34184z" fill="#000000" stroke="none" stroke-width="0.5"/><path d="M500.69109,317.56758c-2.18087,-1.51178 -0.17722,-3.1907 -0.17722,-3.1907l0.55676,-0.45671c5.70225,-5.53957 12.46633,-10.42976 18.72821,-15.54245c0.97288,-1.74528 2.78494,-3.79814 3.12092,-5.67588c0.11996,-0.67041 -1.02301,-2.20037 -1.3434,-2.6519c-1.61245,-2.27241 -4.85114,-4.28797 -8.52646,-3.99975c-2.82147,0.22125 -3.83225,0.82321 -6.03842,2.02514c-0.7844,0.42734 -2.87204,1.09862 -3.57307,1.87762c-1.19357,1.32633 -1.46797,3.38008 -1.81716,4.89619c0,0 -0.51955,2.22809 -3.43518,1.85403c-2.91563,-0.37406 -2.39609,-2.60214 -2.39609,-2.60214c0.52345,-2.22095 1.057,-4.85356 2.84073,-6.75048c1.78003,-1.89297 2.70755,-1.73196 4.99962,-2.9592c2.93356,-1.5707 5.26402,-2.66163 9.016,-2.84588c7.59832,-0.37313 16.85544,5.10022 16.1837,11.40859c-0.27471,2.5798 -2.67309,5.53526 -4.08386,7.87028c-6.2258,5.32549 -13.2635,10.18052 -19.01928,15.85293l-0.85126,0.72313c0,0 -2.00367,1.67894 -4.18454,0.16717z" fill="#000000" stroke="none" stroke-width="0.5"/><path d="M493.93629,325.3396c0.66892,-1.14369 2.42115,-1.66644 3.91374,-1.16758c1.49259,0.49886 2.16032,1.83042 1.4914,2.97411c-0.66892,1.14369 -2.42115,1.66645 -3.91375,1.16758c-1.49259,-0.49886 -2.16032,-1.83043 -1.49139,-2.97412z" fill="#000000" stroke="none" stroke-width="0.5"/><text transform="translate(-76.81682,23.88657) scale(1.83973,1.83973)" font-size="40" xml:space="preserve" fill="#000000" fill-rule="nonzero" stroke="#ffffff" stroke-width="1" stroke-linecap="butt" stroke-linejoin="miter" stroke-miterlimit="10" stroke-dasharray="" stroke-dashoffset="0" font-family="Marker" font-weight="normal" text-anchor="start" style="mix-blend-mode: normal"><tspan x="0" dy="0">Novas Iniciativas</tspan></text><text transform="translate(-99.33934,81.45334) scale(0.78253,0.78253)" font-size="40" xml:space="preserve" fill="#ffffff" fill-rule="nonzero" stroke="none" stroke-width="1" stroke-linecap="butt" stroke-linejoin="miter" stroke-miterlimit="10" stroke-dasharray="" stroke-dashoffset="0" font-family="Marker" font-weight="normal" text-anchor="start" style="mix-blend-mode: normal"><tspan x="0" dy="0"> Iniciativas como cooperativas e associações</tspan><tspan x="0" dy="46.15px">de agricultores ganham força, promovendo a</tspan><tspan x="0" dy="46.15px">colaboração entre pequenos produtores.</tspan><tspan x="0" dy="46.15px"> Esses grupos buscam aumentar a </tspan><tspan x="0" dy="46.15px">visibilidade do trabalho familiar e fortalecer</tspan><tspan x="0" dy="46.15px">a comercialização dos seus produtos.</tspan></text></g></g></svg>