<svg version="1.1" xmlns="http://www.w3.org/2000/svg" xmlns:xlink="http://www.w3.org/1999/xlink" width="1076.27405" height="570.74346" viewBox="0,0,1076.27405,570.74346"><defs><linearGradient x1="365.4923" y1="-44.13872" x2="365.4923" y2="20.09845" gradientTransform="translate(-10.81221,-3.01818) scale(0.46625,0.74723)" gradientUnits="userSpaceOnUse" id="color-1"><stop offset="0" stop-color="#ff0000"/><stop offset="1" stop-color="#ff9b00"/></linearGradient></defs><g transform="translate(169.94664,116.25663)"><g data-paper-data="{&quot;isPaintingLayer&quot;:true}" fill-rule="nonzero" stroke-linecap="butt" stroke-linejoin="miter" stroke-miterlimit="10" stroke-dasharray="" stroke-dashoffset="0" style="mix-blend-mode: normal"><path d="M-125.39764,343.48639v-459.74302h1031.72505v459.74303z" fill="#66cfff" stroke="none" stroke-width="0"/><path d="M-169.94664,454.48683v-167.16862h993.40587v167.16862z" fill="#00c617" stroke="none" stroke-width="0"/><path d="" fill="#5ed6d4" stroke="none" stroke-width="0"/><path d="" data-paper-data="{&quot;index&quot;:null}" fill="#00c617" stroke="none" stroke-width="0"/><path d="M641.85014,404.12785h-0.01484c0.00496,-0.0678 0.00992,-0.13531 0.01484,-0.20252z" fill="#5ed6d4" stroke="none" stroke-width="0"/><path d="M101.99582,328.44766c-0.15538,0.00988 -0.31064,0.02022 -0.46579,0.03106c-0.0279,1.37325 -1.23352,2.47852 -2.71667,2.47852c-0.57097,0 -1.1008,-0.16379 -1.53812,-0.44362l-2.17159,-1.34651c-2.78142,0.25475 -5.78096,0.12325 -7.46037,-2.13888c-0.1188,-0.16003 -0.22975,-0.32378 -0.33383,-0.49083l-0.07294,0.04523l-2.30841,-3.22048c-0.30086,-0.40675 -0.47696,-0.89956 -0.47696,-1.43059c0,-1.39574 1.21652,-2.52718 2.71717,-2.52718c0.36592,0 0.71493,0.06725 1.03354,0.18923l1.39776,0.50002c-0.06663,-0.21909 -0.10229,-0.4503 -0.10229,-0.68924c0,-1.39574 1.21652,-2.52719 2.71717,-2.52719c0.39422,0 0.76885,0.07809 1.10694,0.21852l2.606,1.01669c3.5815,0.70486 7.06325,1.16136 10.59307,1.41233l-0.07892,-0.18529l-0.13508,0.08974l-1.92245,-2.50327c-0.32976,-0.41828 -0.52451,-0.9344 -0.52451,-1.49283c0,-1.39574 1.21653,-2.5272 2.71718,-2.5272c0.1149,0 0.22814,0.00663 0.33928,0.01952l3.45428,0.35699l-0.01084,0.09071c0.22743,0.01033 0.45471,0.03001 0.6818,0.06072c2.41635,0.32671 7.70347,4.70389 9.12132,6.33161c0.47803,0.54877 0.0043,-1.38732 0.0233,-2.11834l-0.00231,-0.00026l0.3837,-2.85496c0.14987,-1.26387 1.30184,-2.24701 2.70066,-2.24701c1.40851,0 2.56675,0.99681 2.70364,2.27334c0.64337,-0.48011 1.30506,-0.94453 1.8663,-1.39954l0.17146,-0.03541l-0.03793,-0.05291l2.2981,-1.42495c0.43734,-0.27983 0.96718,-0.44361 1.53812,-0.44361c1.50065,0 2.71717,1.13145 2.71717,2.52718c0,0.53104 -0.17611,1.02384 -0.47695,1.43059l-1.53208,2.13741l-0.54944,-0.34067c-1.23524,2.84927 -2.49687,5.42616 -2.48773,9.04761v1.08309c0,0 0,2.5272 -2.71718,2.5272c-0.27011,0 -0.51332,-0.02496 -0.73239,-0.06993c-1.56348,1.66102 -3.57244,0.31571 -3.57244,0.31571c-0.30221,-0.20236 -0.60452,-0.40452 -0.90693,-0.60645l-2.10489,0.3263l-0.04953,-0.27642c-2.10975,0.70022 -4.27247,1.03422 -7.45378,1.03202c-3.33156,-0.00232 -6.68571,-1.32667 -9.94564,-2.14772z" fill="#00a413" stroke="none" stroke-width="0.5"/><path d="M-67.94738,316.75487c-0.5403,1.08107 -1.50339,2.0088 -3.44152,2.8404c-1.38958,0.59623 -3.06726,-0.04537 -4.58407,-0.23397c-3.24533,-0.4035 -6.37863,-0.94793 -9.46946,-1.71682l-0.03586,0.30023l-3.44927,-0.35645c-0.01036,0.01932 -0.02069,0.03867 -0.03105,0.05799c0,0 -1.21516,2.26038 -3.64548,1.13018c-2.43032,-1.13018 -1.21515,-3.39058 -1.21515,-3.39058c0.61312,-1.13583 1.22624,-2.27164 1.83936,-3.40748l1.09874,-3.06574c0.34146,-1.03268 1.37524,-1.78332 2.59754,-1.78332c0.92458,0 1.7413,0.4295 2.2321,1.08571l1.75427,2.28426c0.81837,-0.09125 1.64838,-0.16841 2.48527,-0.22891c1.12441,-0.93545 2.20596,-2.26441 3.59321,-2.03562c0.82254,0.13565 1.84795,0.98735 2.60088,1.92826c0.33468,0.01445 0.66861,0.03252 1.0015,0.05439c1.27692,-1.91113 3.07786,-3.77236 4.11415,-5.71124l0.04437,-0.03986l-0.01626,-0.00842l1.91447,-3.20513c0.45628,-0.7995 1.36056,-1.34399 2.4016,-1.34399c1.50065,0 2.71716,1.13146 2.71716,2.5272v2.52719h-0.54306c0.48357,1.70734 1.02348,3.38603 1.68993,4.44783c0.82363,1.31218 2.27316,2.1857 3.32382,3.3499l2.04764,1.26964c0.74913,0.44999 1.24503,1.23337 1.24503,2.12448c0,1.39574 -1.21652,2.52721 -2.71717,2.52721c-0.1149,0 -0.22814,-0.00663 -0.33929,-0.01952l-3.45427,-0.35696l0.00406,-0.0341c-0.06148,0.00371 -0.12303,0.00696 -0.18463,0.0097c-1.88991,0.08429 -3.7401,-0.73206 -5.57859,-1.52648z" fill="#00a413" stroke="none" stroke-width="0.5"/><path d="M193.77477,303.21567c1.18313,-0.32147 2.34449,-0.62907 3.44677,-0.84865c-0.20298,-0.2692 -0.40673,-0.54493 -0.61092,-0.82877l-0.02782,-0.16264l-0.0524,0.02436l-1.52822,-2.84276c-0.1988,-0.35119 -0.31131,-0.75122 -0.31131,-1.17569c0,-1.39574 1.21653,-2.52719 2.71718,-2.52719c0.54402,0 1.05071,0.14871 1.47563,0.40479l3.06982,1.78449l-0.32129,0.47815c1.20758,0.60465 2.27423,1.36908 3.05391,2.38968c0.31064,0.40666 0.64024,0.81561 0.92423,1.2443c0.3763,-1.77795 1.47825,-3.75221 2.02311,-4.92734l1.11169,-3.79119c0.29417,-1.10003 1.36319,-1.91521 2.63696,-1.91521c1.31673,0 2.41474,0.87113 2.66409,2.02756l0.76473,3.20065l-0.11504,0.02378c0.07007,0.20177 0.12998,0.40704 0.17795,0.61639c0.01944,0.08479 0.03308,0.16944 0.04148,0.2539l2.15564,-2.33907c0.49841,-0.54745 1.24284,-0.89499 2.07452,-0.89499c1.50065,0 2.71716,1.13145 2.71716,2.52719c0,0.18775 -0.022,0.37073 -0.06376,0.5468l-0.26415,1.22845c0.52656,-0.80971 1.1135,-1.47161 2.01174,-1.40289c2.26362,0.1732 3.84817,2.42518 5.13444,4.16626c0.04424,0.05989 0.08451,0.12552 0.12086,0.19605c0.01701,-0.00269 0.03366,-0.0052 0.04991,-0.00756c0.03062,-0.02834 0.06079,-0.05534 0.09038,-0.0809c1.16285,-1.00457 2.27734,-2.37539 3.56304,-3.29075c0.07692,-0.70266 0.67813,-1.13752 2.39209,-0.96798c0.09344,-0.00813 0.18795,-0.01289 0.2836,-0.01413c1.06862,-0.01395 1.95397,0.22171 2.70965,0.627c0.20803,0.05703 0.42354,0.11815 0.64678,0.18354c0.65777,0.19266 1.27046,0.99966 1.75901,2.0792c1.18188,1.65044 2.04023,3.65523 3.24505,5.01476l2.1705,1.68229c0.60666,0.4635 0.99362,1.16661 0.99362,1.9538c0,1.33315 -1.10987,2.42521 -2.51713,2.52045l-4.63241,0.35905l-0.00423,-0.04724c-0.1002,0.01912 -0.20059,0.03744 -0.30123,0.05488c-2.43427,0.42174 -6.94434,-0.58971 -9.37158,-0.72411c-1.48978,-0.08249 -3.0275,-0.13345 -4.57627,-0.15329c-3.35253,1.22922 -7.59955,1.83049 -9.89961,2.27453c-4.90558,0.94707 -9.9457,0.85795 -14.95617,0.56773c-2.62495,0.32653 -5.25808,0.46182 -7.90389,0.19502c-1.11612,-0.11256 -2.98218,-0.42363 -4.97296,-0.97662c-4.90742,-0.3002 -9.79957,-0.72124 -14.61642,-1.58967v0.40748h-4.26985c-1.50065,0 -2.71717,-1.13145 -2.71717,-2.52719c0,-1.06279 0.70534,-1.97233 1.70439,-2.3458l2.60453,-1.0382c1.66449,-0.77448 3.10132,-1.50246 4.48201,-2.01179c-0.27565,-0.39381 -0.53957,-0.78243 -0.79314,-1.15887l0.02136,-0.37282l-0.15125,0.0402l-0.7591,-2.47109c-0.07916,-0.23708 -0.12178,-0.4891 -0.12178,-0.7504c0,-1.39574 1.21652,-2.52719 2.71718,-2.52719c0.75033,0 1.42963,0.28287 1.92134,0.7402l1.68802,1.57002c1.74977,0.71828 3.46771,1.48368 5.19434,2.39957l0.06038,0.07259l0.01833,-0.02558l1.5645,0.97007c2.58105,0.57051 5.10076,1.2883 7.65723,1.9124z" fill="#00a413" stroke="none" stroke-width="0.5"/><path d="M212.86662,380.99184c0.37065,-0.14882 0.71419,-0.28196 1.00727,-0.39581c1.63969,-0.63698 10.3783,-3.84101 11.81349,-3.00987c1.34077,0.77645 1.29818,5.94686 1.2214,7.52522c-0.06046,1.24262 0.43638,2.6948 -0.32152,3.71967c-1.0154,1.3731 -2.71672,2.45318 -4.47625,2.76824c-0.18508,0.03314 -0.62078,-0.07073 -1.18892,-0.24978c-0.43675,0.47707 -0.94969,0.71562 -0.94969,0.71562l-2.76784,0.98883c-9.06789,-0.01738 -17.86833,-0.15127 -26.95812,-0.72727c-2.80159,-0.17753 -6.63405,0.42311 -9.64428,0.03051c-10.96917,1.38578 -21.93608,1.3775 -31.41505,-4.50936l-0.09648,-0.12937l-0.03108,0.03374l-2.70378,-2.15546c-0.58862,-0.46359 -0.96226,-1.15593 -0.96226,-1.92948c0,-1.3118 1.07458,-2.39014 2.44969,-2.51511l3.46094,-0.35764l0.00877,0.07342c0.19085,-0.03183 0.3833,-0.05709 0.57755,-0.07482c1.39557,-0.12736 2.66879,0.80211 4.01029,1.18188c2.77307,0.7851 5.26157,1.62987 7.89939,2.1838c-0.48377,-0.92424 -1.01472,-1.83008 -1.64723,-2.69999l-1.53207,-2.1374c-0.30086,-0.40675 -0.47697,-0.89957 -0.47697,-1.43059c0,-1.39574 1.21653,-2.52718 2.71718,-2.52718c0.54402,0 1.05071,0.14871 1.47563,0.40479l3.06982,1.78449l-0.24377,0.36275c1.04099,0.43768 2.01941,0.97249 2.88661,1.65528c0.88925,0.70017 1.98309,1.23487 2.70214,2.07718c0.64426,-1.14312 1.75957,-2.03143 2.60449,-3.06599l0.45737,-0.13112l-0.09732,-0.13574l2.2981,-1.42496c0.43734,-0.27983 0.96718,-0.44362 1.53812,-0.44362c1.50065,0 2.71718,1.13145 2.71718,2.52719c0,0.25045 -0.03916,0.49238 -0.11212,0.72079l-1.07049,3.65069c0.06378,-0.05071 0.12413,-0.09896 0.18013,-0.14436c1.92979,-1.56444 3.97693,-3.03265 6.19399,-4.22304l3.03706,-1.76544c0.42492,-0.25608 0.9316,-0.40478 1.47563,-0.40478c1.50065,0 2.71716,1.13146 2.71716,2.52719c0,0.1198 -0.00895,0.23764 -0.02628,0.353l-0.13905,1.0347c2.59109,-1.96877 6.9083,-3.13974 9.61826,-4.08862l2.61925,-1.04406c0.34295,-0.14535 0.72409,-0.22634 1.12556,-0.22634c1.50065,0 2.71716,1.13146 2.71716,2.5272c0,0.23121 -0.03339,0.45515 -0.09591,0.66791l-0.53463,1.989c0.37106,0.10154 0.74333,0.19477 1.11775,0.27226c0.34676,0.04584 0.98199,0.1016 1.77369,0.17183z" fill="#00a413" stroke="none" stroke-width="0.5"/><path d="M10.18187,399.09936c-0.5403,1.08107 -1.50339,2.00881 -3.44151,2.84041c-1.38958,0.59623 -3.06726,-0.04538 -4.58407,-0.23398c-3.24533,-0.4035 -6.37862,-0.94793 -9.46947,-1.71682l-0.03585,0.30024l-3.44926,-0.35646c-0.01036,0.01932 -0.0207,0.03866 -0.03106,0.05798c0,0 -1.21517,2.26038 -3.64548,1.13019c-2.43032,-1.13018 -1.21514,-3.39058 -1.21514,-3.39058c0.61312,-1.13583 1.22625,-2.27164 1.83938,-3.40747l1.09873,-3.06573c0.34146,-1.03268 1.37525,-1.78333 2.59755,-1.78333c0.92458,0 1.74131,0.4295 2.2321,1.08571l1.75427,2.28426c0.81837,-0.09125 1.64839,-0.16841 2.48528,-0.22892c1.12441,-0.93545 2.20595,-2.26441 3.5932,-2.03561c0.82254,0.13565 1.84795,0.98734 2.60088,1.92825c0.33468,0.01445 0.66861,0.03253 1.0015,0.05439c1.27692,-1.91113 3.07787,-3.77234 4.11416,-5.71123l0.04437,-0.03987l-0.01626,-0.00841l1.91447,-3.20513c0.45628,-0.7995 1.36056,-1.344 2.4016,-1.344c1.50066,0 2.71717,1.13146 2.71717,2.5272v2.52718h-0.54306c0.48357,1.70734 1.02348,3.38602 1.68994,4.44783c0.82363,1.31218 2.27315,2.1857 3.32381,3.3499l2.04765,1.26965c0.74913,0.44999 1.24502,1.23338 1.24502,2.12449c0,1.39574 -1.21652,2.5272 -2.71718,2.5272c-0.1149,0 -0.22813,-0.00662 -0.33929,-0.01952l-3.45428,-0.35697l0.00407,-0.03409c-0.06148,0.00371 -0.12303,0.00695 -0.18463,0.00969c-1.8899,0.08429 -3.74009,-0.73206 -5.57859,-1.52648z" fill="#00a413" stroke="none" stroke-width="0.5"/><path d="M41.74891,348.11521l-0.42604,-0.10573c-0.12643,-0.13954 -0.36118,-0.21994 -0.62885,-0.28412c0.63318,0.37284 1.30128,0.7152 1.79725,1.23908l0.05213,0.02425l0.08619,-0.08016l0.30311,0.28192c0.07025,0.06532 0.11369,0.1556 0.11369,0.25527c0,0.19939 -0.17379,0.36104 -0.38817,0.36104c-0.0652,0 -0.12663,-0.01495 -0.18058,-0.04137l-0.59923,-0.27866l0.00357,-0.00665l-0.02481,-0.00401c-1.27361,-0.78874 -2.79454,-1.32339 -4.18927,-1.97075c-2.06061,0.0372 -4.14022,0.35385 -5.70097,0.88605c-0.09456,0.00068 -0.18953,0.00174 -0.28493,0.00319c-0.29299,0.09242 -0.58935,0.17792 -0.88987,0.25615c0.11357,0.02678 0.19973,0.04895 0.24871,0.06501c1.30934,1.8968 -3.30524,0.70161 -4.79176,0.54369c-0.70407,0.1418 -1.37481,0.18855 -1.72424,-0.18865c-1.88343,0.30564 -3.72992,0.6984 -5.40288,1.14496c0,0 -0.37323,0.09919 -0.47986,-0.24795c-0.10663,-0.34713 0.2666,-0.44632 0.2666,-0.44632c1.28338,-0.33961 2.68383,-0.65897 4.12971,-0.93338c-0.06795,-0.16606 0.04909,-0.32935 0.04909,-0.32935c0.26088,-0.34043 3.80569,-3.21143 4.26045,-2.95249c0.75666,0.43081 0.2586,1.96123 0.35997,2.58191c2.335,-0.64135 4.92058,-0.82574 7.04075,-2.28625l0.06527,-0.00074l-0.00787,-0.02196l0.44608,-0.1383c0.04102,-0.01372 0.08524,-0.02118 0.13134,-0.02118c0.21249,0 0.38512,0.15882 0.38812,0.3558c0.17314,-0.09706 0.34671,-0.19622 0.52092,-0.29738c0.78537,-0.73791 1.87731,-1.30527 2.78541,-1.73908l0.06884,0.01377c0.00852,-0.00455 0.01706,-0.00905 0.02562,-0.01358v-0.01105h0.02101c0.26381,-0.13824 0.54003,-0.26368 0.86857,-0.38682l0.01087,-0.00064l-0.00096,-0.00263l0.48307,-0.15202c0.04149,-0.01406 0.08626,-0.02175 0.13298,-0.02175c0.21437,0 0.38817,0.16165 0.38817,0.36103c0,0.06063 -0.01608,0.11777 -0.04447,0.16796l-0.3437,0.63933l-0.10866,-0.05051c-0.57898,1.08688 -1.48146,1.76313 -2.58042,2.27058c0.1718,0.05639 0.34669,0.12175 0.52317,0.19413c0.06376,-0.11828 0.1953,-0.19944 0.34721,-0.19944h0.45466v0.14188c0.54852,-0.00991 1.13493,0.09356 1.65055,0.29329c0.70302,0.10345 1.36459,0.24606 1.958,0.4291l0.18036,-0.01853c0,0 0.38818,0 0.38818,0.36104c0,0.36104 -0.38818,0.36104 -0.38818,0.36104l-0.42586,-0.01853c-0.19059,-0.05941 -0.38803,-0.11413 -0.59146,-0.16427c-0.1001,0.18281 -0.34669,0.1828 -0.34669,0.1828zM35.16757,346.93294c-0.00682,0.00351 -0.01364,0.00703 -0.02046,0.01054c0.00585,-0.0007 0.01168,-0.00142 0.01751,-0.00213c0.00095,-0.00282 0.00194,-0.00562 0.00295,-0.00842zM24.08325,348.31808c0,-0.00711 0.00022,-0.01416 0.00066,-0.02117c-0.05471,0.04037 -0.10672,0.08312 -0.15531,0.12906c0.05465,-0.00954 0.10934,-0.01899 0.16409,-0.02839c-0.00617,-0.02558 -0.00943,-0.05219 -0.00943,-0.07951zM29.3606,349.08357c-0.1269,-0.01963 -0.25432,-0.03929 -0.38105,-0.05982c-0.06135,0.00936 -0.12293,0.01843 -0.18474,0.02721c0.07986,0.01395 0.16043,0.02658 0.24187,0.03751c0.04162,0.00558 0.16365,0.00116 0.3239,-0.00491zM26.91195,347.82784c-0.02779,0.05654 -0.0557,0.11245 -0.08321,0.16739c0.03733,-0.00455 0.07462,-0.00903 0.11192,-0.01346c-0.01221,-0.04996 -0.02167,-0.10136 -0.02873,-0.15393zM26.91653,345.86384c0.03142,-0.01051 0.06473,-0.01737 0.09932,-0.02001c-0.03341,-0.03428 -0.08893,-0.01605 -0.15965,0.03868z" fill="#009311" stroke="none" stroke-width="0.5"/><path d="M20.03219,349.60719c-0.17359,-0.32292 0.17358,-0.48437 0.17358,-0.48437l0.47669,-0.17907c0.37722,0.00446 0.96268,0.05739 1.65809,0.15145c-0.07277,-0.08747 -0.14856,-0.2437 0.00163,-0.42994c0.23289,-0.28881 0.54343,-0.0722 0.54343,-0.0722c0.36561,0.25524 0.72732,0.51034 1.0858,0.76559c1.8086,0.33666 3.81742,0.85576 4.9021,1.47407c0.13119,0.03409 0.25055,0.06447 0.3538,0.08722l0.7492,0.14013c0.18122,0.03046 0.31873,0.17793 0.31873,0.35525c0,0.19939 -0.1738,0.36104 -0.38817,0.36104c-0.02414,0 -0.0478,-0.00204 -0.07071,-0.00597l-0.75868,-0.11704l0.00429,-0.02409l-0.01253,-0.00234l0.00126,-0.00584l-0.00768,0.00457c-0.78387,-0.17251 -1.80601,-0.16719 -2.54423,-0.41583c-0.00199,-0.00068 -0.00394,-0.00133 -0.00585,-0.00195c0.80237,0.59584 1.59575,1.19579 2.38816,1.80309c0.9886,-0.59272 3.57126,0.72541 4.66372,0.72541h0.45468c0.21437,0 0.38818,0.16164 0.38818,0.36104c0,0.17182 -0.12905,0.31559 -0.3019,0.35208l-0.59835,0.13912l-0.02094,-0.07792c-0.69864,0.27889 -1.30185,0.35068 -1.84954,0.28987c1.52933,0.82845 3.13786,1.82738 3.06346,2.05804c-0.33855,1.04942 -3.1852,-0.32823 -3.66325,-0.79694c-0.25317,-0.24822 -0.33959,-0.49402 -0.3702,-0.73715c-0.03068,-0.02609 -0.06132,-0.05227 -0.09192,-0.07853c-0.14977,-0.11685 -0.29931,-0.23334 -0.44864,-0.34951c-0.07301,0.73407 -0.25935,1.11424 -0.4905,1.2509c0.02454,0.05388 0.02199,0.06236 -0.01774,0.00997c-0.52339,0.2788 -1.2633,-0.65317 -1.44659,-1.55149c-0.07777,-0.13619 -0.09924,-0.30989 -0.03691,-0.52607c0.01807,-0.21281 0.08237,-0.40721 0.20569,-0.56264c-0.33033,-0.25295 -0.66082,-0.5047 -0.99209,-0.75545c-0.01412,-0.00523 -0.02826,-0.01044 -0.04244,-0.01557c0.154,0.47483 0.31859,0.85995 0.30138,1.35128h0.13199v0.42288c0,0.19939 -0.17379,0.36103 -0.38816,0.36103c-0.1503,0 -0.28066,-0.07946 -0.34515,-0.19567l-0.19364,-0.33274c-0.51575,-0.68288 -0.95945,-1.22546 -1.17685,-1.90051l-0.1765,0.04103l-0.14945,-0.55598c-0.00892,-0.03039 -0.0137,-0.06239 -0.0137,-0.09542c0,-0.18539 0.15022,-0.33814 0.34361,-0.35868c-0.54292,-0.401 -1.09062,-0.80034 -1.64568,-1.19894c-1.06927,-0.34812 -2.14982,-0.62912 -3.31113,-0.61864l-0.12953,0.10285c0,0 -0.34719,0.16145 -0.52078,-0.16146zM29.38474,355.665c-0.04617,-0.20614 -0.05232,-0.43283 -0.04382,-0.65915c-0.0992,0.0087 -0.20126,0.0104 -0.30224,0.00442c0.12127,0.23374 0.24323,0.46205 0.34607,0.65473zM31.45312,354.06799c-0.11343,-0.03634 -0.22705,-0.07349 -0.34181,-0.1107c0.01275,0.04938 0.02406,0.10008 0.0343,0.1517c0.10112,-0.0108 0.2039,-0.02502 0.3075,-0.041z" fill="#00750e" stroke="none" stroke-width="0.5"/><path d="M59.04044,343.19394l-0.23206,0.34872c-0.18017,0.0722 -0.33084,0.25796 -0.47433,0.47771c0.56688,-0.45588 1.11249,-0.9517 1.79512,-1.24176l0.04004,-0.0394l-0.05758,-0.09992l0.37784,-0.18831c0.08755,-0.04363 0.19301,-0.05623 0.29563,-0.02738c0.20522,0.05766 0.32131,0.25916 0.2593,0.45001c-0.01887,0.05804 -0.05201,0.10843 -0.09479,0.14881l-0.46013,0.45292l-0.00581,-0.00509l-0.01131,0.02093c-1.18017,0.9058 -2.17036,2.10527 -3.24005,3.15979c-0.55774,1.84537 -0.83335,3.78849 -0.73705,5.33199c-0.02665,0.08438 -0.05301,0.16926 -0.07911,0.25462c0.01038,0.2876 0.01263,0.5762 0.00626,0.86636c0.06043,-0.09336 0.10816,-0.16368 0.13885,-0.20265c2.33093,-0.6171 -0.2339,3.14567 -0.82643,4.4235c-0.0577,0.66786 -0.20359,1.27857 -0.69288,1.48056c-0.23021,1.76527 -0.36004,3.52285 -0.38434,5.14151c0,0 -0.00587,0.36097 -0.39399,0.35553c-0.38812,-0.00545 -0.38226,-0.36644 -0.38226,-0.36644c0.02167,-1.24086 0.09803,-2.5801 0.23384,-3.94678c-0.19056,0.01247 -0.32478,-0.13897 -0.32478,-0.13897c-0.2749,-0.33074 -2.20446,-4.31719 -1.80642,-4.64719c0.66228,-0.54906 2.09333,0.33705 2.76147,0.42632c0.01531,-2.26441 0.57339,-4.61974 -0.31655,-6.92985l0.01812,-0.05833l-0.02489,0.00064l-0.01332,-0.43715c-0.00225,-0.0405 0.00286,-0.08204 0.01619,-0.12308c0.06148,-0.18919 0.27486,-0.29695 0.47846,-0.24264c-0.0498,-0.18222 -0.10166,-0.36544 -0.1554,-0.5498c-0.53233,-0.91269 -0.80042,-2.04894 -0.98425,-2.98291l0.03409,-0.05732c-0.00222,-0.00892 -0.0044,-0.01782 -0.00659,-0.02674l-0.01136,-0.0032l0.00608,-0.0187c-0.06595,-0.27486 -0.11518,-0.55708 -0.14688,-0.88524l0.0025,-0.00986l-0.00299,0.00009l-0.01673,-0.47405c-0.00249,-0.04102 0.00255,-0.08308 0.01608,-0.12468c0.06201,-0.19087 0.27865,-0.29883 0.48385,-0.24116c0.06242,0.01756 0.11657,0.04839 0.15998,0.08816l0.55861,0.49091l-0.08344,0.08215c0.95117,0.82984 1.38616,1.82895 1.59056,2.95415c0.10775,-0.13665 0.22558,-0.27345 0.35112,-0.40962c-0.10328,-0.09096 -0.1488,-0.23156 -0.10486,-0.36683l0.13151,-0.40479l0.14604,0.04105c0.14846,-0.49123 0.42455,-0.9834 0.77927,-1.3847c0.30981,-0.596 0.64793,-1.14375 1.00796,-1.61913l0.03311,-0.16595c0,0 0.11227,-0.3456 0.48384,-0.24116c0.37157,0.10441 0.2593,0.45003 0.2593,0.45003l-0.14226,0.37382c-0.11628,0.15249 -0.22971,0.31246 -0.34015,0.47906c0.1592,0.14201 0.08786,0.36154 0.08786,0.36154zM55.91994,348.71144c0.00164,0.00709 0.00329,0.01417 0.00493,0.02127c0.00096,-0.00541 0.00192,-0.0108 0.00288,-0.01622c-0.00262,-0.00167 -0.00522,-0.00335 -0.0078,-0.00505zM54.13953,358.98079c-0.00731,-0.00206 -0.01451,-0.00428 -0.02159,-0.0067c0.0257,0.06041 0.05468,0.11906 0.08793,0.17561c0.00599,-0.05142 0.01206,-0.10287 0.01825,-0.15431c-0.02811,-0.00189 -0.05645,-0.00668 -0.08458,-0.0146zM56.45381,354.50364c-0.05692,0.10729 -0.11402,0.21507 -0.17179,0.32196c-0.00812,0.05735 -0.01658,0.1148 -0.02542,0.17237c0.03747,-0.06708 0.07375,-0.13517 0.10856,-0.20451c0.01779,-0.03543 0.04853,-0.14536 0.08863,-0.2898zM54.45312,356.32046c0.05015,0.04111 0.09962,0.08211 0.1482,0.12251c0.00614,-0.03454 0.0123,-0.06905 0.01852,-0.10352c-0.05497,-0.00358 -0.1106,-0.01003 -0.16672,-0.01896zM52.43311,355.74837c-0.00173,-0.03102 0.00085,-0.06267 0.00814,-0.09424c-0.04496,0.01984 -0.04223,0.07456 -0.00635,0.15336z" fill="#009311" stroke="none" stroke-width="0.5"/><path d="M49.45808,342.15722l-0.09817,0.39983c-0.14535,0.12255 -0.22325,0.34367 -0.28251,0.59477c0.37767,-0.60203 0.72133,-1.23541 1.26625,-1.71537l0.02416,-0.04935l-0.08926,-0.0772l0.29193,-0.29193c0.06764,-0.06766 0.16305,-0.11131 0.27018,-0.11492c0.21423,-0.00723 0.39421,0.14846 0.40197,0.34773c0.00236,0.06061 -0.01145,0.11828 -0.0379,0.16935l-0.27772,0.56707l-0.00727,-0.0031l-0.00341,0.02322c-0.80135,1.21235 -1.32071,2.64538 -1.96576,3.96519c0.11461,1.91395 0.53018,3.83542 1.15852,5.26678c0.00416,0.08786 0.00874,0.17609 0.01376,0.26472c0.10993,0.269 0.21251,0.54133 0.30746,0.81782c0.02466,-0.10654 0.04538,-0.1874 0.06086,-0.23354c1.99062,-1.28569 0.87358,3.04672 0.75772,4.4341c0.17788,0.64925 0.2524,1.27103 -0.14023,1.60947c0.39663,1.73953 0.88552,3.44157 1.42594,4.98037c0,0 0.12007,0.34331 -0.24905,0.455c-0.36912,0.11169 -0.4892,-0.23164 -0.4892,-0.23164c-0.41138,-1.18057 -0.80528,-2.47069 -1.15247,-3.80466c-0.17597,0.06918 -0.35566,-0.0337 -0.35566,-0.0337c-0.37524,-0.23014 -3.5884,-3.42095 -3.32667,-3.85301c0.43549,-0.71889 2.09791,-0.31139 2.76114,-0.42809c-0.77368,-2.14707 -1.06546,-4.54363 -2.71153,-6.46137l-0.00314,-0.06065l-0.02332,0.00811l-0.16475,-0.40962c-0.01622,-0.03765 -0.02586,-0.07847 -0.02752,-0.12131c-0.00768,-0.19752 0.15669,-0.36371 0.36825,-0.37363c-0.11056,-0.1574 -0.22339,-0.31516 -0.3384,-0.47341c-0.82133,-0.70326 -1.47048,-1.69762 -1.96948,-2.52594l0.01232,-0.0645c-0.00521,-0.00777 -0.01036,-0.01554 -0.01552,-0.02332l-0.01186,0.00042l-0.00076,-0.01954c-0.15808,-0.24021 -0.30288,-0.49241 -0.4471,-0.79331l-0.00106,-0.01011l-0.0028,0.00099l-0.18084,-0.44348c-0.01661,-0.03805 -0.02648,-0.07941 -0.02818,-0.12282c-0.00778,-0.19927 0.15962,-0.36665 0.37385,-0.37387c0.06515,-0.0022 0.12716,0.01066 0.18207,0.03525l0.69939,0.2963l-0.05035,0.10285c1.18881,0.49876 1.94811,1.31312 2.53316,2.31619c0.05436,-0.16174 0.11827,-0.32666 0.18964,-0.49331c-0.12938,-0.05496 -0.22139,-0.17432 -0.22689,-0.31553l-0.01647,-0.42261l0.15245,-0.00515c-0.03052,-0.50949 0.05941,-1.05828 0.25535,-1.54475c0.08567,-0.65719 0.21491,-1.27726 0.39012,-1.83545l-0.02643,-0.16697c0,0 -0.01405,-0.36078 0.37385,-0.37385c0.38792,-0.01308 0.40197,0.34772 0.40197,0.34772l-0.00447,0.39648c-0.05694,0.1793 -0.10859,0.3648 -0.15508,0.5557c0.20004,0.08642 0.20898,0.31563 0.20898,0.31563zM48.42608,348.31719c0.00402,0.00621 0.00805,0.01243 0.01208,0.01865c-0.00098,-0.00541 -0.00197,-0.0108 -0.00292,-0.01621c-0.00306,-0.00079 -0.00612,-0.0016 -0.00914,-0.00244zM50.31588,358.56959c-0.00763,0.00027 -0.01523,0.00032 -0.02277,0.00016c0.04536,0.0494 0.0932,0.09618 0.14433,0.13968c-0.01223,-0.05045 -0.02439,-0.10093 -0.03646,-0.15148c-0.02725,0.00666 -0.05573,0.01067 -0.08508,0.01166zM50.94721,353.63667c-0.01651,0.11867 -0.03299,0.23781 -0.05048,0.35632c0.01229,0.0567 0.02428,0.11358 0.03595,0.17071c0.0121,-0.07474 0.02274,-0.15008 0.03153,-0.22616c0.0045,-0.03888 -0.00468,-0.15215 -0.01702,-0.30087zM49.68666,355.9581c0.06174,0.02378 0.12284,0.04769 0.18288,0.07126c-0.00623,-0.03453 -0.01237,-0.06904 -0.01851,-0.10353c-0.05324,0.01317 -0.10813,0.02384 -0.16435,0.03228zM47.57627,356.02498c-0.01243,-0.02884 -0.02101,-0.05954 -0.02509,-0.09159c-0.03562,0.03231 -0.01402,0.08324 0.04736,0.147z" fill="#009311" stroke="none" stroke-width="0.5"/><path d="M54.14706,341.63727l-0.23295,0.34821c-0.18035,0.0718 -0.33151,0.2572 -0.47555,0.47663c0.56806,-0.45463 1.11495,-0.9492 1.79833,-1.23768l0.04014,-0.03933l-0.05731,-0.10005l0.37832,-0.18748c0.08767,-0.04345 0.19317,-0.05579 0.29571,-0.02671c0.20506,0.05813 0.32066,0.2599 0.25814,0.45062c-0.01901,0.05802 -0.0523,0.10829 -0.09519,0.14858l-0.46131,0.45189l-0.00579,-0.00511l-0.01137,0.02091c-1.18251,0.90314 -2.1758,2.10041 -3.24823,3.15251c-0.56251,1.84412 -0.84316,3.78661 -0.75086,5.33034c-0.02689,0.08432 -0.05345,0.16913 -0.07978,0.25442c0.00962,0.28762 0.01115,0.57624 0.004,0.86639c0.06067,-0.09323 0.10858,-0.16344 0.13938,-0.20232c2.33253,-0.61188 -0.24207,3.14515 -0.8379,4.42163c-0.05942,0.66774 -0.2069,1.27809 -0.69672,1.479c-0.23478,1.76477 -0.36917,3.52203 -0.39767,5.1406c0,0 -0.00681,0.36098 -0.39493,0.35465c-0.38811,-0.00633 -0.38128,-0.36731 -0.38128,-0.36731c0.0249,-1.2408 0.10473,-2.57988 0.24406,-3.94624c-0.19058,0.01202 -0.3244,-0.13971 -0.3244,-0.13971c-0.27405,-0.33134 -2.19327,-4.32212 -1.79437,-4.65122c0.66369,-0.54756 2.09246,0.34173 2.76036,0.43249c0.02118,-2.26439 0.58537,-4.61845 -0.29858,-6.93052l0.01826,-0.05829l-0.02488,0.00061l-0.01219,-0.43719c-0.00214,-0.0405 0.00306,-0.082 0.0165,-0.12302c0.06196,-0.18905 0.27563,-0.29635 0.4791,-0.24159c-0.04935,-0.18233 -0.1007,-0.36566 -0.15398,-0.55014c-0.52996,-0.91385 -0.7951,-2.05073 -0.97651,-2.98514l0.03424,-0.05723c-0.00219,-0.00892 -0.00436,-0.01781 -0.00652,-0.02677l-0.01136,-0.00322l0.00612,-0.01867c-0.06524,-0.27501 -0.11374,-0.55733 -0.1446,-0.88554l0.00252,-0.00987l-0.00297,0.00009l-0.01552,-0.4741c-0.00238,-0.04102 0.00278,-0.0831 0.0164,-0.12466c0.06249,-0.19072 0.27942,-0.29823 0.48448,-0.24008c0.06238,0.01767 0.11645,0.04865 0.15977,0.08853l0.55733,0.49217l-0.08366,0.08195c0.94903,0.83197 1.38141,1.83207 1.58291,2.95774c0.10808,-0.13643 0.22629,-0.27295 0.35219,-0.40886c-0.10305,-0.09119 -0.14819,-0.23189 -0.1039,-0.36705l0.13257,-0.40451l0.14592,0.04136c0.14972,-0.4909 0.4271,-0.98242 0.78287,-1.38293c0.31136,-0.5953 0.65088,-1.14233 1.01215,-1.61689l0.03352,-0.16585c0,0 0.11317,-0.34536 0.48448,-0.24008c0.37131,0.10526 0.25813,0.4506 0.25813,0.4506l-0.14322,0.3735c-0.11667,0.15224 -0.23053,0.31194 -0.34141,0.47831c0.15883,0.14235 0.08694,0.36174 0.08694,0.36174zM51.01236,347.14775c0.00161,0.00709 0.00327,0.0142 0.00488,0.02129c0.00098,-0.00541 0.00194,-0.0108 0.0029,-0.01621c-0.00262,-0.00167 -0.00521,-0.00336 -0.00778,-0.00505zM49.20528,357.41307c-0.00731,-0.00208 -0.0145,-0.00431 -0.02158,-0.00676c0.02557,0.06045 0.05438,0.11921 0.08748,0.17582c0.00614,-0.0514 0.01234,-0.10285 0.01864,-0.15428c-0.0281,-0.00196 -0.05643,-0.00681 -0.08454,-0.01477zM51.53114,352.94108c-0.0572,0.10716 -0.11456,0.21482 -0.17261,0.32159c-0.00827,0.0573 -0.01688,0.11475 -0.02586,0.17228c0.03763,-0.067 0.0741,-0.135 0.10909,-0.20425c0.01789,-0.03541 0.04889,-0.14526 0.08938,-0.2896zM49.52578,354.75348c0.05004,0.0412 0.09941,0.08233 0.1479,0.12283c0.00623,-0.03453 0.01248,-0.06901 0.01878,-0.10348c-0.05495,-0.00371 -0.11056,-0.01027 -0.16668,-0.01934zM47.50723,354.17681c-0.00164,-0.03102 0.00102,-0.06266 0.0084,-0.09421c-0.045,0.01974 -0.04243,0.07446 -0.00675,0.15333z" fill="#009311" stroke="none" stroke-width="0.5"/><path d="M31.51502,346.65626c-1.04462,-0.7287 -1.40896,-1.54778 -1.45465,-2.28909c-0.73286,-0.12652 -1.5059,-0.52677 -2.16675,-1.44876c-1.94642,-2.71549 0.9732,-4.52582 0.9732,-4.52582c2.15856,-0.74892 4.36461,-3.1049 6.47567,-2.24679c2.14902,0.87355 1.85529,4.00684 2.78295,6.01028l-1.69788,3.84743c0,0 -2.10537,2.61089 -4.91253,0.65274z" fill="#ffffff" stroke="none" stroke-width="0.5"/><path d="M-22.20349,392.25506c0,0 -0.05099,-6.94764 0.05261,-10.88076c0.10267,-3.89684 -2.59666,-12.46459 -2.59666,-12.46459l10.17291,0.23181l-0.6188,23.49093z" fill="#ffffff" stroke="none" stroke-width="0"/><path d="M-18.96286,356.15659l31.29199,-16.04459l6.19257,10.44764l-31.292,16.04458z" fill="#ffffff" stroke="none" stroke-width="0"/><path d="M37.72741,355.3425c0,9.91344 -8.48343,17.94985 -18.94832,17.94985c-10.46486,0 -18.94832,-8.03641 -18.94832,-17.94985c0,-9.91344 8.48343,-17.94984 18.94832,-17.94984c7.83019,0 13.84929,4.49923 16.73712,10.91751c0.97169,2.15961 2.21119,4.53646 2.21119,7.03231z" fill="#ffffff" stroke="none" stroke-width="0"/><path d="M10.29577,341.44606c-0.17797,1.58001 -1.09622,2.31032 -1.9919,2.64378c0.37954,0.83126 0.47307,1.96308 -0.62866,3.19865c-2.24,2.51211 -4.94094,0.42871 -4.94094,0.42871c-1.40945,-1.68968 -4.4602,-2.94138 -4.22836,-5.06908c0.23994,-2.2022 3.51262,-2.98744 5.26892,-4.48113l3.39669,-0.3068c0,0 3.48986,0.34003 3.12427,3.58588z" fill="#000000" stroke="none" stroke-width="0.5"/><path d="M34.97732,365.58011c0,5.04683 -6.67677,9.1381 -14.91302,9.1381c-8.23625,0 -14.91302,-4.09126 -14.91302,-9.1381c0,-5.04681 6.67678,-9.1381 14.91302,-9.1381c8.23625,0 14.91302,4.09127 14.91302,9.1381z" fill="#ffadcd" stroke="none" stroke-width="0"/><path d="M16.33323,363.32848c0,0.72099 -0.39275,1.30544 -0.87725,1.30544c-0.48448,0 -0.87725,-0.58445 -0.87725,-1.30544c0,-0.72099 0.39275,-1.30546 0.87725,-1.30546c0.48448,0 0.87725,0.58447 0.87725,1.30546z" fill="#000000" stroke="none" stroke-width="0"/><path d="M26.09756,362.91095c0,0.72099 -0.39275,1.30546 -0.87725,1.30546c-0.48448,0 -0.87725,-0.58446 -0.87725,-1.30546c0,-0.72099 0.39275,-1.30546 0.87725,-1.30546c0.48448,0 0.87725,0.58447 0.87725,1.30546z" fill="#000000" stroke="none" stroke-width="0"/><path d="M16.70432,350.70259c0,1.44196 -0.94259,2.61089 -2.10537,2.61089c-1.16277,0 -2.10538,-1.16894 -2.10538,-2.61089c0,-1.44196 0.94259,-2.61086 2.10538,-2.61086c1.16277,0 2.10537,1.16893 2.10537,2.61086z" fill="#000000" stroke="none" stroke-width="0"/><path d="M26.45143,350.66663c0,1.44196 -0.94259,2.61086 -2.10536,2.61086c-1.16277,0 -2.10538,-1.16893 -2.10538,-2.61086c0,-1.44196 0.9426,-2.61088 2.10538,-2.61088c1.16277,0 2.10536,1.16893 2.10536,2.61088z" fill="#000000" stroke="none" stroke-width="0"/><path d="M6.08435,345.28264c0,-0.32637 -0.35351,-0.32508 -0.35351,-0.32508c-1.36655,0.1071 -5.56029,-4.22805 -5.20798,-4.21961c3.26881,-0.6069 8.32067,-3.83589 7.36073,1.47496c-0.17678,0.76839 -1.06319,1.70593 -1.5087,2.41835c-0.10457,0.16724 -0.20809,0.47478 -0.29138,0.67431c0.00039,-0.00743 0.0008,-0.01515 0.0008,-0.02294z" data-paper-data="{&quot;noHover&quot;:false,&quot;origItem&quot;:[&quot;Path&quot;,{&quot;applyMatrix&quot;:true,&quot;segments&quot;:[[[70.92446,485.69324],[0.00056,-0.01138],[0.11867,-0.30571]],[[71.32457,484.67046],[-0.149,0.2562],[0.63479,-1.09147]],[[73.43797,481.04323],[-0.25189,1.1772],[1.36784,-8.13646]],[[63.14124,478.8225],[4.65782,-0.92983],[-0.50203,-0.01294]],[[70.4253,485.15827],[-1.94723,0.16408],[0,0]],[[70.9253,485.65827],[0,-0.5],[0,0.01194]]],&quot;closed&quot;:true}]}" fill="#ff7cae" stroke="none" stroke-width="0.5"/><path d="M30.73731,341.02433c-0.24643,-0.0573 -0.24645,-0.31517 -0.24645,-0.31517c0,-0.8136 2.11801,-4.35606 3.40154,-3.78559c0.80922,0.35966 0.10479,2.51832 0.1074,3.13286c0,1.3492 0.05596,4.48746 -2.34751,2.62949c-0.52739,-0.4077 -0.43961,-1.40648 -0.8882,-1.59645z" fill="#ff7cae" stroke="none" stroke-width="0.5"/><path d="M30.40319,353.81962c-3.77269,-1.03255 -3.45274,-7.30771 1.53433,-4.59668c0.17748,1.6864 1.62099,2.44031 1.80235,3.38291c0.55239,2.8711 -1.5964,2.82831 -3.28467,1.26212z" fill="#000000" stroke="none" stroke-width="0.5"/><path d="M24.86884,337.5358c0,0 4.66513,0.20216 6.09962,0.05694c1.43448,-0.14524 3.52712,-1.03155 3.52712,-1.03155l-3.88242,4.90654z" data-paper-data="{&quot;index&quot;:null}" fill="#c57c00" stroke="none" stroke-width="0"/><path d="M-10.64934,369.42326c0.69724,0.96981 0.43654,4.01678 -0.7605,4.64766c-2.45328,1.29296 -3.92898,-3.6163 -4.00498,-3.57725c-2.21602,1.10915 -10.18412,6.52645 -8.65548,0.6749c0.28815,-0.53886 0.65204,-0.96614 1.03457,-1.36895c-0.46451,-0.29503 -0.85341,-0.64691 -1.11758,-1.06101c-0.89171,-1.3977 -0.74683,-3.55608 1.38242,-3.54728c0.71712,0.1334 1.51542,0.16897 2.34788,0.17366c0.56603,-1.55122 1.34785,-2.9299 3.67096,-2.72452c0.0296,0.06504 4.12177,3.19849 4.23349,3.21874c0.55385,0.10044 2.09769,-0.58116 2.55146,-0.28085c0.68991,0.45664 -0.05197,2.55428 -0.35391,3.11748c-0.10459,0.24257 -0.21811,0.48485 -0.32832,0.72742z" fill="#000000" stroke="none" stroke-width="0.5"/><path d="M-0.9698,357.88916c0.69724,0.96979 0.43654,4.01678 -0.7605,4.64769c-2.45328,1.29296 -3.92898,-3.61633 -4.00498,-3.57727c-2.21602,1.10915 -10.18412,6.52645 -8.65548,0.67492c0.28815,-0.53886 0.65205,-0.96613 1.03457,-1.36896c-0.46451,-0.29503 -0.85341,-0.64691 -1.11758,-1.06101c-0.89171,-1.3977 -0.74683,-3.55606 1.38242,-3.54728c0.71712,0.1334 -4.33285,-2.00679 -3.50038,-2.0021c0.56603,-1.55122 7.1961,-0.75415 9.51922,-0.54875c0.0296,0.06504 4.12177,3.19851 4.23349,3.21875c0.55385,0.10044 2.09768,-0.58118 2.55144,-0.28086c0.68991,0.45664 -0.05197,2.55428 -0.3539,3.11748c-0.10459,0.24257 -0.21811,0.48483 -0.32834,0.72741z" fill="#000000" stroke="none" stroke-width="0.5"/><path d="M-22.39656,393.0392v-1.30546h7.36879v1.30546z" fill="#ca6200" stroke="none" stroke-width="0"/><path d="M-38.96554,352.43226c-0.40946,-0.0097 -0.81684,-0.01972 -1.22203,-0.03003c0.02016,-0.64309 0.02987,-1.2905 0.0247,-1.94688c1.37012,0.04036 2.67624,0.08081 3.88657,0.12026c-0.88155,0.29539 -1.76638,0.59003 -2.65408,0.88106c-0.04605,0.32111 -0.04954,0.64739 -0.03514,0.9756z" data-paper-data="{&quot;index&quot;:null}" fill="#00c617" stroke="none" stroke-width="0"/><path d="M-35.01322,350.15141c1.04628,0.21198 2.08617,0.42721 3.13822,0.57924c-1.22592,-0.04755 -2.72133,-0.10031 -4.4013,-0.15506c0.42179,-0.14134 0.84281,-0.28283 1.26306,-0.42419z" data-paper-data="{&quot;index&quot;:null}" fill="#00c617" stroke="none" stroke-width="0"/><path d="M-31.875,350.73066c3.14738,0.1221 4.51825,0.21003 2.67457,0.21003c-0.90724,0 -1.79515,-0.08294 -2.67456,-0.21003z" data-paper-data="{&quot;index&quot;:null}" fill="#00c617" stroke="none" stroke-width="0"/><path d="M-25.94403,392.73937c0,0 1.06332,-3.81194 1.06332,-6.63599c0,-4.57027 -1.06332,-18.16743 -1.06332,-18.16743h7.45956v24.80342z" fill="#ffffff" stroke="none" stroke-width="0"/><path d="M-37.74691,366.73931h2.23296v25.7825l-6.38256,0.3401c0.18939,-3.30543 -0.27031,-6.8842 -0.23753,-9.67489c0.04914,-4.18227 0.73896,-8.5579 1.25302,-12.87608c1.66202,-2.06747 3.1341,-3.57166 3.1341,-3.57166z" fill="#ffffff" stroke="none" stroke-width="0"/><path d="M-7.9166,347.57928c1.87039,0.28291 -1.05303,-1.18442 0.79322,-0.42161c22.51081,9.30084 12.33406,21.19634 0,26.76158c-7.54842,3.40593 -20.65145,6.55515 -34.88759,6.39119c0.41121,-5.87372 1.68913,-12.00711 1.68913,-17.74135c0,-1.73874 -1.10805,-7.11728 -0.76066,-9.13504c0.25646,-1.48958 0.45425,-2.97462 0.55214,-4.45361c9.46431,-0.79217 23.28134,-2.81276 32.61376,-1.40118z" fill="#ffffff" stroke="none" stroke-width="0"/><path d="M-33.55867,353.8069c1.62216,1.66573 0.58447,3.14661 1.22357,5.00521c0.78122,2.27184 2.41462,3.35809 4.59883,3.79276c3.20046,0.63943 3.85994,1.78501 5.50957,4.37653c0.27693,0.43504 1.21287,0.47949 1.16971,0.99678c-0.09825,1.17734 -2.60549,1.95549 -3.44176,2.3617c-4.50143,1.69835 -8.45505,2.72006 -13.09477,0.97757c-0.62154,-0.29014 -1.72729,0.6057 -2.27005,0.92197c-0.07682,0.04476 -0.15381,0.08895 -0.23093,0.13251c-0.02152,0.09663 -0.08657,0.22147 -0.27738,0.24036c-0.05405,0.00535 -0.0998,0.00038 -0.13848,-0.01156c-0.23229,0.12446 -0.46584,0.24424 -0.70058,0.36009c0.05341,-0.41928 0.10674,-0.83847 0.15925,-1.25739c0.08749,-0.04163 0.17466,-0.08257 0.26137,-0.12275c-0.03549,-0.37019 -0.07171,-0.7417 -0.10934,-1.1141c0.32067,-2.67316 0.57776,-5.32548 0.57776,-7.8975c0,-1.73874 -1.10805,-7.11728 -0.76066,-9.13504c0.13108,-0.76141 0.24685,-1.52164 0.34177,-2.28045c2.64906,0.32369 5.64402,1.10548 7.18207,2.65329z" fill="#000000" stroke="none" stroke-width="0.5"/><path d="M-15.31583,355.49856c0.63385,0.96979 0.39687,4.0168 -0.69136,4.6477c-2.23025,1.29296 -3.46549,2.25816 -3.53455,2.29721c-2.01456,1.10915 -9.36458,0.65196 -7.97492,-5.19957c0.26195,-0.53886 0.59277,-0.96614 0.9405,-1.36896c-0.42228,-0.29503 -0.77582,-0.64691 -1.01599,-1.06103c-0.81064,-1.3977 -0.67896,-3.55605 1.25674,-3.54728c0.65191,0.1334 1.37766,0.16895 2.13443,0.17364c0.51455,-1.55122 1.22532,-2.9299 3.33723,-2.72452c0.0269,0.06504 3.74704,3.19849 3.84861,3.21874c0.50351,0.10044 1.90699,-0.58117 2.31949,-0.28084c0.62719,0.45666 -0.04726,2.55428 -0.32174,3.11748c-0.09507,0.24257 -0.19827,0.48483 -0.29847,0.7274z" fill="#000000" stroke="none" stroke-width="0.5"/><path d="M-26.36942,392.95687v-1.63181h8.29385v1.63181z" fill="#ca6200" stroke="none" stroke-width="0"/><path d="M-35.51387,390.99875v2.3933h-6.41896c0.06284,-0.7837 0.08495,-1.5863 0.082,-2.3933z" fill="#ca6200" stroke="none" stroke-width="0"/><path d="M8.07325,340.92926l-2.63281,-5.57824c0,0 1.83312,1.29104 3.19859,1.72496c1.36546,0.43389 5.96495,1.18689 5.96495,1.18689z" fill="#c57c00" stroke="none" stroke-width="0"/><path d="M32.36452,346.09324c0.03793,0.58859 -0.0574,1.07272 -0.37201,1.28467c-1.07281,0.72283 -4.03525,-1.38063 -4.48641,-2.18038c-1.8743,-3.11352 -5.02779,-1.92074 -6.3144,-5.19311c-0.27602,-0.10012 -0.39905,-0.32716 -0.09316,-0.82268c0.44803,-0.72575 5.86483,0.06882 6.79217,0.35631c3.25484,1.0091 4.73044,2.72051 4.67825,5.91946c-0.08769,0.20391 -0.16671,0.41801 -0.20441,0.63572z" fill="#000000" stroke="none" stroke-width="0.5"/><path d="M25.9555,346.72022c0.01427,-0.00005 0.02853,-0.00007 0.04281,-0.00007h0.41917c0.1938,0 0.3509,0.14611 0.3509,0.32636c0,0.18024 -0.1571,0.32636 -0.3509,0.32636h-0.41917c-1.31582,0 -2.6206,0.19493 -3.98222,0.19493c-2.13269,0 -8.41216,0.63842 -10.75649,-0.22691c-0.00265,0.00237 -0.00531,0.00474 -0.00796,0.00712l-0.06259,-0.0341c-0.02437,-0.00964 -0.04827,-0.01948 -0.07171,-0.02946v0.08842h-0.41917v0c-0.19379,0 -0.35089,-0.14611 -0.35089,-0.32636c0,-0.18024 0.15711,-0.32636 0.35089,-0.32636h0.31156c0.44084,-0.39808 1.49357,-0.74747 2.51905,-0.87688c-0.0231,-0.0421 -0.03761,-0.09497 -0.03761,-0.1613c0,-0.32637 0.35089,-0.32635 0.35089,-0.32635l0.49981,0.00872c0.02145,0.01597 0.04294,0.03191 0.06439,0.04788l0.01191,-0.02215l0.41239,0.19178c0.07126,0.03141 0.12929,0.08449 0.16433,0.15008c0.0106,0.0002 0.02126,0.00043 0.03195,0.00064c1.91586,-0.34526 3.97323,-0.32927 5.93555,-0.1356c0.4198,-0.02603 0.84072,-0.04269 1.26332,-0.04643c1.11783,0 2.23563,0 3.35346,0h0.41917c0.1938,0 0.35089,0.14611 0.35089,0.32636c0,0.13029 -0.08207,0.24274 -0.20076,0.29508l-0.41239,0.19177l-0.05067,-0.0943c-0.06777,0.03692 -0.13753,0.07227 -0.20918,0.10602l0.66342,0.28117c-0.06053,0.0236 -0.12194,0.04477 -0.18412,0.06357z" fill="#ffffff" stroke="none" stroke-width="0.5"/><path d="M43.45348,373.26759l-0.38513,-0.09558c-0.11429,-0.12612 -0.32649,-0.19882 -0.56846,-0.25684c0.57238,0.33706 1.17632,0.64652 1.62467,1.12009l0.04715,0.02192l0.07791,-0.07246l0.274,0.25483c0.0635,0.05906 0.10276,0.14064 0.10276,0.23078c0,0.18024 -0.15709,0.32637 -0.35089,0.32637c-0.05894,0 -0.11449,-0.01353 -0.16324,-0.0374l-0.5417,-0.25191l0.00324,-0.00599l-0.02244,-0.00364c-1.15131,-0.71301 -2.5262,-1.1963 -3.78699,-1.78152c-1.86274,0.03362 -3.74267,0.31986 -5.15355,0.80097c-0.08548,0.00061 -0.17133,0.00159 -0.25757,0.0029c-0.26487,0.08354 -0.53278,0.16082 -0.80443,0.23156c0.10269,0.02422 0.18057,0.04423 0.22484,0.05877c1.18362,1.71467 -2.98785,0.63424 -4.33164,0.49147c-0.63645,0.1282 -1.2428,0.17046 -1.55869,-0.17052c-1.70258,0.27629 -3.37176,0.63133 -4.88406,1.03502c0,0 -0.3374,0.08965 -0.43378,-0.22416c-0.09641,-0.31381 0.24099,-0.40344 0.24099,-0.40344c1.16014,-0.30701 2.42613,-0.59572 3.73316,-0.84376c-0.06142,-0.15011 0.04438,-0.29771 0.04438,-0.29771c0.23584,-0.30773 3.44026,-2.90302 3.85135,-2.66897c0.684,0.38945 0.23378,1.77291 0.32541,2.33398c2.11078,-0.57977 4.44807,-0.74644 6.36466,-2.0667l0.059,-0.00066l-0.00711,-0.01986l0.40324,-0.12502c0.03708,-0.01241 0.07706,-0.01916 0.11874,-0.01916c0.1921,0 0.34813,0.14357 0.35085,0.32163c0.15651,-0.08774 0.31342,-0.17737 0.4709,-0.26883c0.70996,-0.66706 1.69704,-1.17994 2.51794,-1.5721l0.06223,0.01247c0.00771,-0.00412 0.01541,-0.00821 0.02316,-0.01229v-0.00999h0.01899c0.23848,-0.12496 0.48818,-0.23836 0.78517,-0.34968l0.00985,-0.00056l-0.00086,-0.00238l0.43668,-0.13743c0.0375,-0.0127 0.07798,-0.01965 0.12024,-0.01965c0.1938,0 0.35089,0.14613 0.35089,0.32637c0,0.05482 -0.01453,0.10647 -0.04021,0.15181l-0.31068,0.57795l-0.09824,-0.04567c-0.52337,0.98251 -1.3392,1.59384 -2.33264,2.05256c0.15532,0.05096 0.31341,0.11005 0.47293,0.17548c0.05764,-0.10692 0.17655,-0.18029 0.31387,-0.18029h0.411v0.12826c0.49587,-0.00898 1.02595,0.08458 1.49206,0.26514c0.63551,0.0935 1.23356,0.22241 1.76998,0.38789l0.16303,-0.01675c0,0 0.3509,0 0.3509,0.32635c0,0.32635 -0.3509,0.32637 -0.3509,0.32637l-0.38495,-0.01674c-0.17229,-0.05371 -0.35077,-0.10319 -0.53467,-0.14852c-0.09049,0.16525 -0.31341,0.16525 -0.31341,0.16525zM37.50414,372.19884c-0.00617,0.00318 -0.01235,0.00635 -0.01849,0.00952c0.00527,-0.00063 0.01056,-0.00128 0.01583,-0.00193c0.00086,-0.00255 0.00177,-0.00509 0.00268,-0.0076zM27.48418,373.45096c0,-0.00642 0.0002,-0.01282 0.00059,-0.01913c-0.04946,0.0365 -0.09647,0.07515 -0.14039,0.11669c0.04941,-0.00861 0.09886,-0.01717 0.14832,-0.02565c-0.00559,-0.02312 -0.00853,-0.04719 -0.00853,-0.07189zM32.25477,374.14295c-0.11471,-0.01774 -0.22991,-0.03552 -0.34446,-0.05405c-0.05548,0.00845 -0.11114,0.01666 -0.16701,0.02461c0.0722,0.01261 0.14504,0.02402 0.21865,0.03392c0.03764,0.00506 0.14794,0.00104 0.29281,-0.00444zM30.04127,373.00781c-0.02513,0.0511 -0.05035,0.10163 -0.07521,0.1513c0.03374,-0.0041 0.06746,-0.00814 0.10117,-0.01218c-0.01103,-0.04517 -0.01959,-0.09163 -0.02596,-0.13915zM30.04538,371.23239c0.02842,-0.0095 0.05852,-0.0157 0.08978,-0.01807c-0.03021,-0.03098 -0.08039,-0.0145 -0.14434,0.03498z" fill="#009311" stroke="none" stroke-width="0.5"/><path d="M5.99479,354.19041c0.06216,0.05874 0.12169,0.11345 0.1782,0.16364c0,0 0.24811,0.23078 0,0.46154c-0.24811,0.23076 -0.49625,0 -0.49625,0c-1.44376,-1.38725 -3.39113,-3.81036 -3.80898,-5.67546c-0.20188,-0.90106 -0.33344,-2.46899 0.89904,-2.60553c1.51833,0.00385 3.41216,-0.29528 4.86392,-0.61412c2.11696,-0.46492 2.0851,-5.41765 5.5345,-2.35795c0.43511,0.26804 1.78807,1.65173 1.98459,1.68063c0.69982,0.10287 1.65657,-0.94218 2.28834,-0.20481c1.19587,1.39571 -1.69713,1.76234 -2.73472,1.8154c0.01426,0.19945 -0.20019,0.29913 -0.20019,0.29913l-0.19622,0.08844c-1.25756,0.77974 -2.20168,0.88442 -3.48244,1.27034c-1.4953,1.37709 -2.66352,3.31492 -3.57806,4.59795c-0.49286,1.03203 -0.92775,1.27335 -1.25176,1.08082z" fill="#000000" stroke="none" stroke-width="0.5"/><path d="M87.1714,306.09381c-0.79488,-0.24644 -1.26295,-0.64486 -1.53017,-1.07809c-0.48798,-0.36753 -0.74609,-0.78763 -0.74609,-0.78763c-0.51781,-0.8428 -1.0353,-1.68577 -1.55248,-2.52891c-0.17673,-0.15432 -0.2837,-0.34056 -0.33631,-0.54836c-0.43009,-0.70137 -0.85999,-1.40287 -1.28968,-2.10447l-0.00687,-0.15423l-0.05833,0.02325l-1.14084,-2.47584c-0.15627,-0.31898 -0.24335,-0.67346 -0.24335,-1.04686c0,-1.39574 1.21652,-2.52719 2.71717,-2.52719c0.75033,0 1.42964,0.28286 1.92135,0.74018l1.47517,1.37204l0.27277,-0.1436l-0.15627,-0.14534l1.94084,-1.80514c0.49171,-0.45733 1.17098,-0.7402 1.92131,-0.7402c1.50065,0 2.71717,1.13145 2.71717,2.52718v0.49975l1.59163,-0.63443c0.34296,-0.14537 0.72407,-0.22634 1.12555,-0.22634c1.50065,0 2.71717,1.13146 2.71717,2.5272c0,0.64179 -0.2572,1.22765 -0.68095,1.67339l-2.70852,2.879l-0.056,-0.04557c-0.06421,0.09461 -0.12992,0.18842 -0.19725,0.28138c-0.03336,0.04607 -2.60102,1.64042 -4.02538,2.52307l-0.14009,0.19541c-0.03823,0.05505 -0.07867,0.10864 -0.12124,0.16062l0.02661,-0.0086c0,0 -0.85925,2.3975 -3.43698,1.59833z" fill="#00a413" stroke="none" stroke-width="0.5"/><path d="M-120.56005,272.72197c-0.45091,-0.00987 -0.89951,-0.02008 -1.34571,-0.03058c0.02219,-0.65476 0.0329,-1.31393 0.02721,-1.98222c1.50879,0.04109 2.94708,0.08228 4.27992,0.12245c-0.97077,0.30075 -1.94514,0.60073 -2.92269,0.89704c-0.05071,0.32693 -0.05455,0.65915 -0.03871,0.99331z" data-paper-data="{&quot;index&quot;:null}" fill="#00c617" stroke="none" stroke-width="0"/><path d="M-116.20772,270.39972c1.15218,0.21582 2.29732,0.43496 3.45584,0.58975c-1.35,-0.04841 -2.99676,-0.10213 -4.84677,-0.15787c0.46448,-0.1439 0.92812,-0.28796 1.39091,-0.43188z" data-paper-data="{&quot;index&quot;:null}" fill="#00c617" stroke="none" stroke-width="0"/><path d="M-112.7519,270.98949c3.46593,0.12431 4.97556,0.21384 2.94527,0.21384c-0.99906,0 -1.97684,-0.08445 -2.94527,-0.21384z" data-paper-data="{&quot;index&quot;:null}" fill="#00c617" stroke="none" stroke-width="0"/><path d="M428.27704,343.58999c0.88392,1.911 1.3806,4.00164 1.17295,4.95328c-1.10861,5.08059 -8.05689,4.26019 -11.69796,4.07241c-5.7449,-0.29627 -11.23914,-0.67077 -16.94781,-1.46742c-0.1019,-0.01421 -4.29646,-0.48354 -5.61202,-0.67953c-0.40251,0.21925 -0.87109,0.34494 -1.37122,0.34494c-0.58089,0 -1.1192,-0.16954 -1.56087,-0.45831c-0.10928,0.14607 -0.24138,0.29311 -0.39948,0.44016c-1.92133,1.78701 -3.84267,0 -3.84267,0c-3.84832,-3.58513 -7.76112,-7.46846 -10.70925,-11.71585l0.09487,-0.57731l-0.24651,0.03274l-0.38156,-2.48414c-0.02232,-0.13042 -0.03391,-0.26417 -0.03391,-0.40043c0,-1.39574 1.21653,-2.52721 2.71718,-2.52721c0.75033,0 1.42961,0.28289 1.92133,0.7402l2.329,2.16616l-0.29668,0.27594c3.11846,2.05556 5.79438,4.35449 8.82719,6.7898c0.0118,-2.62746 1.7498,-5.81976 2.46226,-8.13917l0.75983,-2.4735c0.30489,-1.08555 1.36643,-1.88666 2.62913,-1.88666c1.29312,0 2.37525,0.84015 2.64983,1.96555l0.76256,2.83693l-0.03547,0.00825c0.02695,0.06047 0.0531,0.12134 0.07841,0.18256c0.44931,1.08668 0.59773,2.29783 0.51586,3.47398c2.57601,-2.69432 7.69844,-5.703 9.19278,-4.98877c1.76042,0.84139 1.61528,3.39802 1.97448,5.20834c0.09922,0.50004 -0.76693,0.89524 -0.66438,1.3947c0.16962,0.82607 1.86464,0.40339 2.71028,0.1056c3.05386,-1.0754 9.08113,-7.30197 12.25455,-6.3594c3.09381,0.91892 2.18142,7.28377 0.74732,9.16616z" fill="#00a413" stroke="none" stroke-width="0.5"/><path d="M-10.07497,281.94917l-0.23206,0.34872c-0.18017,0.0722 -0.33084,0.25795 -0.47433,0.47771c0.56688,-0.45588 1.11248,-0.95171 1.79512,-1.24176l0.04005,-0.03939l-0.05758,-0.09992l0.37783,-0.18831c0.08756,-0.04363 0.193,-0.05623 0.29563,-0.02738c0.20522,0.05766 0.32131,0.25916 0.2593,0.45001c-0.01886,0.05804 -0.05202,0.10842 -0.09479,0.1488l-0.46012,0.45291l-0.00581,-0.00509l-0.0113,0.02093c-1.18018,0.9058 -2.17035,2.10528 -3.24004,3.1598c-0.55774,1.84537 -0.83336,3.78848 -0.73705,5.33198c-0.02665,0.08438 -0.05302,0.16925 -0.07911,0.25462c0.01037,0.2876 0.01263,0.57621 0.00625,0.86638c0.06043,-0.09336 0.10816,-0.16368 0.13885,-0.20265c2.33093,-0.6171 -0.2339,3.14566 -0.82641,4.42349c-0.0577,0.66786 -0.20359,1.27857 -0.69288,1.48057c-0.2302,1.76527 -0.36005,3.52285 -0.38434,5.14151c0,0 -0.00586,0.36097 -0.39398,0.35553c-0.38812,-0.00545 -0.38226,-0.36645 -0.38226,-0.36645c0.02167,-1.24086 0.09803,-2.5801 0.23383,-3.94678c-0.19056,0.01247 -0.32477,-0.13896 -0.32477,-0.13896c-0.27491,-0.33074 -2.20448,-4.31718 -1.80644,-4.64718c0.66228,-0.54906 2.09333,0.33704 2.76147,0.42631c0.01531,-2.26441 0.57339,-4.61974 -0.31655,-6.92984l0.01812,-0.05832l-0.02489,0.00063l-0.01332,-0.43715c-0.00225,-0.0405 0.00286,-0.08204 0.01618,-0.12308c0.06147,-0.18919 0.27486,-0.29695 0.47846,-0.24264c-0.0498,-0.18222 -0.10166,-0.36544 -0.15542,-0.5498c-0.53233,-0.91269 -0.80041,-2.04895 -0.98423,-2.98293l0.0341,-0.05731c-0.00222,-0.00892 -0.00439,-0.01781 -0.00658,-0.02674l-0.01137,-0.00321l0.00607,-0.01871c-0.06596,-0.27486 -0.11518,-0.55706 -0.14689,-0.88521l0.0025,-0.00986l-0.00299,0.00009l-0.01674,-0.47405c-0.00249,-0.04102 0.00257,-0.08308 0.01609,-0.12466c0.06202,-0.19087 0.27865,-0.29885 0.48385,-0.24117c0.06241,0.01756 0.11657,0.04839 0.15999,0.08816l0.5586,0.49092l-0.08343,0.08214c0.95117,0.82984 1.38616,1.82895 1.59056,2.95415c0.10775,-0.13665 0.22557,-0.27344 0.35112,-0.40962c-0.10328,-0.09096 -0.14879,-0.23156 -0.10484,-0.36683l0.13151,-0.40479l0.14603,0.04105c0.14846,-0.49123 0.42456,-0.9834 0.77929,-1.3847c0.30981,-0.596 0.64793,-1.14376 1.00796,-1.61913l0.0331,-0.16594c0,0 0.11228,-0.3456 0.48385,-0.24116c0.37157,0.10441 0.25929,0.45003 0.25929,0.45003l-0.14224,0.37381c-0.11628,0.15249 -0.22973,0.31248 -0.34017,0.47906c0.1592,0.14201 0.08787,0.36154 0.08787,0.36154zM-13.19547,287.46667c0.00164,0.00709 0.00329,0.01417 0.00493,0.02127c0.00096,-0.00541 0.00192,-0.0108 0.00287,-0.01623c-0.00262,-0.00167 -0.00521,-0.00334 -0.00779,-0.00504zM-14.97586,297.736c-0.00732,-0.00206 -0.01451,-0.00428 -0.0216,-0.00669c0.02571,0.06041 0.05469,0.11906 0.08793,0.17561c0.006,-0.05142 0.01206,-0.10287 0.01824,-0.15431c-0.02811,-0.00189 -0.05644,-0.00669 -0.08457,-0.01461zM-12.66159,293.25886c-0.05692,0.10729 -0.11402,0.21508 -0.17179,0.32197c-0.00812,0.05735 -0.01658,0.1148 -0.02542,0.17237c0.03747,-0.06708 0.07375,-0.13517 0.10857,-0.20451c0.01779,-0.03543 0.04852,-0.14537 0.08863,-0.2898zM-14.66228,295.07569c0.05016,0.04111 0.09961,0.08211 0.1482,0.12251c0.00615,-0.03454 0.0123,-0.06906 0.01852,-0.10353c-0.05497,-0.00358 -0.11059,-0.01002 -0.16671,-0.01896zM-16.68229,294.50359c-0.00173,-0.03102 0.00086,-0.06266 0.00815,-0.09423c-0.04496,0.01984 -0.04223,0.07455 -0.00636,0.15334z" fill="#009311" stroke="none" stroke-width="0.5"/><path d="M-26.8742,12.1778c-0.10227,-0.36219 -0.20003,-0.70457 -0.30204,-0.9994c-0.18596,-0.53743 -0.37193,-1.07479 -0.55789,-1.61219c0.16792,0.26833 0.30936,0.5334 0.40749,0.78936c0.22408,0.58436 0.57814,1.25486 0.45244,1.82224z" data-paper-data="{&quot;index&quot;:null}" fill="#000000" stroke="none" stroke-width="0.5"/><path d="M-26.12533,14.39135c-0.30708,-0.646 -0.52847,-1.43235 -0.73054,-2.14853c0.27747,0.69839 0.48416,1.43657 0.72465,2.13152z" data-paper-data="{&quot;index&quot;:null}" fill="#000000" stroke="none" stroke-width="0.5"/><path d="M-34.67576,290.92309l-0.38512,-0.09559c-0.11429,-0.12612 -0.32649,-0.19882 -0.56846,-0.25685c0.57238,0.33706 1.17632,0.64653 1.62467,1.1201l0.04713,0.02192l0.07791,-0.07246l0.27399,0.25483c0.0635,0.05906 0.10278,0.14065 0.10278,0.23079c0,0.18024 -0.15711,0.32637 -0.35089,0.32637c-0.05894,0 -0.11448,-0.01353 -0.16324,-0.0374l-0.5417,-0.25191l0.00323,-0.006l-0.02244,-0.00362c-1.15131,-0.71301 -2.52619,-1.1963 -3.78699,-1.78152c-1.86274,0.03362 -3.74267,0.31986 -5.15356,0.80097c-0.08548,0.00061 -0.17133,0.00159 -0.25757,0.0029c-0.26487,0.08354 -0.53277,0.16082 -0.80443,0.23156c0.10269,0.02422 0.18057,0.04423 0.22484,0.05877c1.18362,1.71467 -2.98786,0.63425 -4.33165,0.49147c-0.63645,0.1282 -1.2428,0.17045 -1.55869,-0.17052c-1.70258,0.27629 -3.37175,0.63132 -4.88405,1.03502c0,0 -0.3374,0.08966 -0.43379,-0.22415c-0.09641,-0.31381 0.24099,-0.40344 0.24099,-0.40344c1.16014,-0.30701 2.42613,-0.59573 3.73317,-0.84377c-0.06142,-0.15011 0.04438,-0.29771 0.04438,-0.29771c0.23584,-0.30773 3.44026,-2.90302 3.85135,-2.66897c0.684,0.38945 0.23377,1.77291 0.32541,2.33398c2.11078,-0.57977 4.44807,-0.74644 6.36466,-2.0667l0.059,-0.00067l-0.00711,-0.01985l0.40324,-0.12501c0.03708,-0.01241 0.07706,-0.01915 0.11874,-0.01915c0.1921,0 0.34814,0.14356 0.35086,0.32164c0.15651,-0.08774 0.31342,-0.17737 0.47089,-0.26883c0.70996,-0.66706 1.69704,-1.17994 2.51794,-1.57209l0.06223,0.01245c0.00771,-0.00412 0.01541,-0.00821 0.02317,-0.01229v-0.00998h0.01899c0.23848,-0.12496 0.48818,-0.23837 0.78518,-0.34969l0.00984,-0.00056l-0.00087,-0.00237l0.43668,-0.13742c0.0375,-0.0127 0.07797,-0.01964 0.12022,-0.01964c0.1938,0 0.35089,0.14612 0.35089,0.32637c0,0.05482 -0.01452,0.10647 -0.0402,0.15181l-0.31069,0.57794l-0.09823,-0.04567c-0.52337,0.98251 -1.33922,1.59384 -2.33265,2.05256c0.15532,0.05096 0.31341,0.11006 0.47293,0.17548c0.05764,-0.10692 0.17654,-0.18029 0.31388,-0.18029h0.411v0.12826c0.49587,-0.00898 1.02595,0.08459 1.49206,0.26515c0.63551,0.0935 1.23356,0.2224 1.76998,0.38788l0.16305,-0.01674c0,0 0.35088,0 0.35088,0.32635c0,0.32635 -0.35088,0.32637 -0.35088,0.32637l-0.38498,-0.01674c-0.17229,-0.05371 -0.35075,-0.10319 -0.53466,-0.14851c-0.09049,0.16525 -0.31342,0.16524 -0.31342,0.16524zM-40.62511,289.85434c-0.00617,0.00318 -0.01235,0.00636 -0.01849,0.00954c0.00527,-0.00063 0.01056,-0.00128 0.01583,-0.00193c0.00086,-0.00255 0.00175,-0.00509 0.00267,-0.0076zM-50.64507,291.10647c0,-0.00642 0.0002,-0.01281 0.00059,-0.01914c-0.04946,0.0365 -0.09646,0.07515 -0.14039,0.11669c0.04941,-0.00861 0.09886,-0.01718 0.14832,-0.02567c-0.00559,-0.02312 -0.00854,-0.04719 -0.00854,-0.07188zM-45.87447,291.79846c-0.11471,-0.01774 -0.22991,-0.03552 -0.34447,-0.05405c-0.05548,0.00845 -0.11114,0.01666 -0.167,0.02461c0.0722,0.01261 0.14504,0.02402 0.21865,0.03391c0.03764,0.00506 0.14794,0.00105 0.29281,-0.00443zM-48.08798,290.66331c-0.02513,0.0511 -0.05035,0.10163 -0.07521,0.15131c0.03374,-0.0041 0.06746,-0.00814 0.10117,-0.01217c-0.01103,-0.04517 -0.01959,-0.09164 -0.02596,-0.13915zM-48.08387,288.88789c0.02842,-0.0095 0.05853,-0.01569 0.0898,-0.01806c-0.03021,-0.03098 -0.0804,-0.0145 -0.14434,0.03497z" fill="#009311" stroke="none" stroke-width="0.5"/><path d="M523.9284,65.46706c-0.07225,-0.25585 -0.1413,-0.49772 -0.21338,-0.70597c-0.13137,-0.37963 -0.26272,-0.75922 -0.39408,-1.13885c0.11861,0.18955 0.21853,0.37679 0.28786,0.55759c0.15829,0.41278 0.4084,0.88644 0.3196,1.28723z" data-paper-data="{&quot;index&quot;:null}" fill="#000000" stroke="none" stroke-width="0.5"/><path d="M524.45738,67.03073c-0.2169,-0.45633 -0.37331,-1.01182 -0.51605,-1.51774c0.19601,0.49336 0.34199,1.0148 0.51189,1.50572z" data-paper-data="{&quot;index&quot;:null}" fill="#000000" stroke="none" stroke-width="0.5"/><path d="M571.57051,199.01998c0.22254,-0.65593 0.41382,-1.35258 0.67057,-2.01175c-0.18698,0.67596 -0.39186,1.41809 -0.67602,2.0278z" data-paper-data="{&quot;index&quot;:null}" fill="#000000" stroke="none" stroke-width="0.5"/><path d="M491.43404,129.50409l-0.17326,0.30585c0.00262,0.16177 0.00525,0.32348 0.00788,0.48525c-0.06412,0.57706 0.9633,0.9338 1.55725,0.66047c0.62612,-0.28815 1.30741,-3.14181 0.53067,-3.32155c-0.6576,-0.15217 -1.51283,0.25533 -2.12304,0.41617c-0.57496,0.15154 -0.88,0.31163 -1.4008,0.59577c-2.8903,1.15519 -5.92969,2.41237 -8.72323,3.71055c-0.0221,0.11677 -0.04237,0.23442 -0.06059,0.35301c0,0 -0.04168,0.27136 -0.33342,0.23259c-0.29174,-0.03877 -0.25007,-0.31014 -0.25007,-0.31014c0.49282,-3.20862 2.48736,-5.72602 1.99722,-9.13317c-0.86635,-0.79282 -5.14762,-1.8329 -6.21362,-0.86655c-0.83414,0.75614 0.76699,2.25552 1.44579,2.46584c0.16418,0.09086 0.41119,0.11265 0.57286,0.01792l0.39295,-0.18272c0,0 0.26358,-0.12258 0.39539,0.12256c0.1318,0.24519 -0.1318,0.36774 -0.1318,0.36774l-0.39295,0.18271c-0.32382,0.13098 -0.73452,0.12797 -1.05939,-0.00082c-1.05007,-0.32573 -2.80282,-2.29492 -1.63734,-3.36306c1.39754,-1.28081 6.07468,-0.07473 7.15549,1.01132c0.619,3.16917 -1.01173,5.57173 -1.72943,8.42071c2.67627,-1.23003 5.55853,-2.42573 8.30624,-3.51784c0.69082,-0.37858 1.29483,-0.57213 2.05737,-0.79849c3.13968,-0.93207 3.60412,3.08595 1.42732,4.10385c-1.03981,0.48623 -2.31343,-0.25521 -2.37227,-1.16695c0.00262,-0.20373 0.00526,-0.40745 0.0079,-0.61117l0.2197,-0.42508c0,0 0.13179,-0.24516 0.39541,-0.12258c0.26362,0.12258 0.13178,0.36776 0.13178,0.36776z" data-paper-data="{&quot;index&quot;:null}" fill="#000000" stroke="none" stroke-width="0.5"/><path d="M474.56681,133.92183c-0.75171,-0.52436 -1.50344,-1.04875 -2.25517,-1.57312l-2.38015,-2.16923c0,0 -2.38015,-2.21375 0,-4.42749c2.38015,-2.21371 4.76029,0 4.76029,0l1.6591,1.58758c1.79521,1.25227 3.59042,2.50455 5.38567,3.75684c0,0 2.69282,1.87843 0.6732,4.38295c-0.37027,0.45918 -0.76318,0.77102 -1.15797,0.97416c-0.25486,0.38442 -0.5011,0.61344 -0.5011,0.61344c-1.80298,1.66991 -3.71414,3.24936 -5.74617,4.67377l-2.69286,0.62617c0,0 -3.36602,0.00001 -3.36602,-3.13068c0,-2.33659 1.87501,-2.92928 2.82619,-3.07962c0.96499,-0.70665 1.89579,-1.45534 2.79498,-2.23479z" data-paper-data="{&quot;index&quot;:null}" fill="#2bffe6" stroke="none" stroke-width="0.5"/><path d="M477.57338,137.85078l0.61849,-2.25994c0.22441,-1.25227 0.44879,-2.50454 0.6732,-3.75681c0,0 0.55338,-3.08811 3.87359,-2.57341c3.32025,0.51468 2.76688,3.60277 2.76688,3.60277c-0.22441,1.25227 -0.4488,2.50454 -0.67321,3.75682l-0.72792,2.74918c0,0 -0.8164,3.03721 -4.08193,2.27792c-3.26553,-0.75931 -2.44915,-3.79653 -2.44915,-3.79653z" data-paper-data="{&quot;index&quot;:null}" fill="#ecff2c" stroke="none" stroke-width="0.5"/><path d="M478.60744,133.52299l0.25791,-0.79963l6.44815,1.79919l-0.25793,0.79963z" data-paper-data="{&quot;index&quot;:null}" fill="#000000" stroke="none" stroke-width="0"/><path d="M477.7098,137.27982l0.25794,-0.79965l6.44815,1.79918l-0.25791,0.79966z" data-paper-data="{&quot;index&quot;:null}" fill="#000000" stroke="none" stroke-width="0"/><path d="M514.60248,162.1129c0.26361,-0.12258 0.3954,0.12258 0.3954,0.12258l0.21971,0.42507c0.00262,0.20373 0.00526,0.40748 0.00788,0.6112c-0.05886,0.91174 -1.33245,1.65319 -2.37224,1.16695c-2.1768,-1.01792 -1.7124,-5.03595 1.42732,-4.10387c0.76253,0.22638 1.36658,0.41993 2.05739,0.79848c2.7477,1.09211 5.62995,2.28782 8.30624,3.51785c-0.7177,-2.84898 -2.34843,-5.25156 -1.72943,-8.42071c1.0808,-1.08606 5.75794,-2.29217 7.15549,-1.01132c1.16545,1.06809 -0.58729,3.03733 -1.63733,3.36306c-0.32488,0.12877 -0.73554,0.1318 -1.0594,0.00082l-0.39298,-0.18273c0,0 -0.26358,-0.12258 -0.13179,-0.36776c0.13181,-0.24518 0.39538,-0.12257 0.39538,-0.12257l0.39295,0.18275c0.16166,0.09473 0.40867,0.07294 0.57285,-0.01792c0.67876,-0.21033 2.27991,-1.7097 1.44576,-2.46584c-1.06603,-0.96633 -5.34727,0.07373 -6.21361,0.86656c-0.49011,3.40714 1.50439,5.92452 1.99723,9.1332c0,0 0.04169,0.27136 -0.25008,0.31016c-0.29174,0.03877 -0.33346,-0.2326 -0.33346,-0.2326c-0.01821,-0.1186 -0.03845,-0.23622 -0.06058,-0.353c-2.79352,-1.2982 -5.83292,-2.55539 -8.72322,-3.71055c-0.5208,-0.2841 -0.82586,-0.4442 -1.40082,-0.59576c-0.61019,-0.16085 -1.46542,-0.56834 -2.123,-0.41619c-0.77672,0.17975 -0.09546,3.03344 0.53065,3.32156c0.59394,0.27335 1.62139,-0.08337 1.55728,-0.66047c0.00262,-0.16177 0.00524,-0.32349 0.00788,-0.48525l-0.17327,-0.30589c0,0 -0.13178,-0.24517 0.13181,-0.36775z" data-paper-data="{&quot;index&quot;:null}" fill="#000000" stroke="none" stroke-width="0.5"/><path d="M534.13294,169.13318c0.95118,0.15034 2.82622,0.74301 2.82622,3.07961c0,3.1307 -3.36603,3.13066 -3.36603,3.13066l-2.69284,-0.62614c-2.03202,-1.42441 -3.9432,-3.00381 -5.74618,-4.67377c0,0 -0.24625,-0.22905 -0.50113,-0.61347c-0.3948,-0.20311 -0.78767,-0.51497 -1.15797,-0.97415c-2.0196,-2.50455 0.67321,-4.38295 0.67321,-4.38295c1.79524,-1.25227 3.59043,-2.50455 5.38567,-3.75682l1.65911,-1.58758c0,0 2.38015,-2.21372 4.7603,0c2.38014,2.21372 0,4.42747 0,4.42747l-2.38016,2.16923c-0.75171,0.52438 -1.50345,1.04873 -2.25517,1.57312c0.8992,0.77946 1.83,1.52816 2.79498,2.23481z" data-paper-data="{&quot;index&quot;:null}" fill="#2bffe6" stroke="none" stroke-width="0.5"/><path d="M525.88219,174.62387c-3.26553,0.75931 -4.0819,-2.27792 -4.0819,-2.27792l-0.72792,-2.74917c-0.22441,-1.25227 -0.4488,-2.50454 -0.67321,-3.75682c0,0 -0.55337,-3.0881 2.76688,-3.60278c3.32023,-0.51468 3.87359,2.57341 3.87359,2.57341c0.22439,1.25227 0.4488,2.50455 0.67321,3.75684l0.61849,2.25993c0,0 0.81639,3.03721 -2.44916,3.7965z" data-paper-data="{&quot;index&quot;:null}" fill="#ecff2c" stroke="none" stroke-width="0.5"/><path d="M520.84917,168.2987l-0.25793,-0.79964l6.44815,-1.79918l0.25793,0.79963z" data-paper-data="{&quot;index&quot;:null}" fill="#000000" stroke="none" stroke-width="0"/><path d="M521.74671,172.05556l-0.25792,-0.79965l6.44814,-1.79917l0.25793,0.79963z" data-paper-data="{&quot;index&quot;:null}" fill="#000000" stroke="none" stroke-width="0"/><path d="M506.97281,131.64088c0.26362,-0.12258 0.39541,0.12256 0.39541,0.12256l0.2197,0.42509c0.00262,0.20373 0.00525,0.40745 0.00788,0.6112c-0.05886,0.91174 -1.33244,1.6532 -2.37226,1.16695c-2.1768,-1.01792 -1.71238,-5.03594 1.42732,-4.10387c0.76254,0.22637 1.36656,0.41992 2.05738,0.79848c2.7477,1.09211 5.62995,2.28781 8.30624,3.51783c-0.7177,-2.84898 -2.34841,-5.25155 -1.72943,-8.4207c1.0808,-1.08606 5.75793,-2.29214 7.15548,-1.01131c1.16545,1.06811 -0.58728,3.03733 -1.63731,3.36306c-0.32488,0.12878 -0.73559,0.13177 -1.05942,0.0008l-0.39296,-0.18272c0,0 -0.26358,-0.12256 -0.13181,-0.36775c0.13181,-0.24519 0.3954,-0.12258 0.3954,-0.12258l0.39294,0.18275c0.16166,0.09471 0.40868,0.07292 0.57286,-0.01794c0.67876,-0.21032 2.27991,-1.70967 1.44578,-2.4658c-1.06603,-0.96634 -5.34726,0.07372 -6.21365,0.86655c-0.49011,3.40715 1.50438,5.92452 1.99723,9.13319c0,0 0.04168,0.27136 -0.25006,0.31015c-0.29174,0.03877 -0.33342,-0.23259 -0.33342,-0.23259c-0.01821,-0.1186 -0.03848,-0.23622 -0.06059,-0.35299c-2.79352,-1.2982 -5.83293,-2.55539 -8.72323,-3.71056c-0.52079,-0.2841 -0.82586,-0.4442 -1.40082,-0.59578c-0.61018,-0.16085 -1.46542,-0.56834 -2.123,-0.41617c-0.77672,0.17975 -0.09545,3.03343 0.53066,3.32156c0.59394,0.27335 1.62138,-0.08338 1.55725,-0.66047c0.00262,-0.16177 0.00528,-0.32349 0.00789,-0.48526l-0.17327,-0.30586c0,0 -0.13179,-0.24516 0.1318,-0.36774z" data-paper-data="{&quot;index&quot;:null}" fill="#000000" stroke="none" stroke-width="0.5"/><path d="M526.50326,138.66115c0.95118,0.15034 2.82619,0.74298 2.82619,3.0796c0,3.1307 -3.36602,3.13068 -3.36602,3.13068l-2.69285,-0.62616c-2.03202,-1.42441 -3.94318,-3.00383 -5.74618,-4.67378c0,0 -0.24627,-0.22906 -0.50115,-0.61347c-0.3948,-0.20311 -0.78767,-0.51497 -1.15797,-0.97415c-2.0196,-2.50455 0.67321,-4.38294 0.67321,-4.38294c1.79521,-1.25227 3.59044,-2.50455 5.38566,-3.75682l1.65911,-1.58758c0,0 2.38014,-2.21371 4.76028,0c2.38014,2.21372 0,4.42747 0,4.42747l-2.38014,2.16922c-0.75171,0.52438 -1.50346,1.04873 -2.25517,1.57312c0.8992,0.77946 1.83001,1.52815 2.79498,2.2348z" data-paper-data="{&quot;index&quot;:null}" fill="#2bffe6" stroke="none" stroke-width="0.5"/><path d="M518.25251,144.15185c-3.26553,0.75931 -4.08191,-2.27793 -4.08191,-2.27793l-0.72793,-2.74918c-0.22441,-1.25228 -0.4488,-2.50454 -0.67321,-3.75682c0,0 -0.55336,-3.08811 2.76689,-3.60279c3.32023,-0.51468 3.87359,2.57342 3.87359,2.57342c0.22441,1.25227 0.44879,2.50454 0.6732,3.75681l0.61852,2.25994c0,0 0.81637,3.03721 -2.44916,3.7965z" data-paper-data="{&quot;index&quot;:null}" fill="#ecff2c" stroke="none" stroke-width="0.5"/><path d="M513.21947,137.82673l-0.25793,-0.79963l6.44814,-1.79918l0.25793,0.79963z" data-paper-data="{&quot;index&quot;:null}" fill="#000000" stroke="none" stroke-width="0"/><path d="M514.11711,141.58357l-0.25793,-0.79964l6.44815,-1.79918l0.25792,0.79964z" data-paper-data="{&quot;index&quot;:null}" fill="#000000" stroke="none" stroke-width="0"/><path d="M-21.8742,17.1778c-0.10227,-0.36219 -0.20003,-0.70457 -0.30204,-0.9994c-0.18596,-0.53743 -0.37193,-1.07479 -0.55789,-1.61219c0.16792,0.26833 0.30936,0.5334 0.40749,0.78936c0.22408,0.58436 0.57814,1.25487 0.45244,1.82224z" data-paper-data="{&quot;index&quot;:null}" fill="#000000" stroke="none" stroke-width="0.5"/><path d="M-21.12533,19.39135c-0.30708,-0.646 -0.52847,-1.43235 -0.73054,-2.14853c0.27747,0.6984 0.48416,1.43657 0.72465,2.13152z" data-paper-data="{&quot;index&quot;:null}" fill="#000000" stroke="none" stroke-width="0.5"/><text transform="translate(23.18953,4.03916) scale(2.14475,1.33828)" font-size="40" xml:space="preserve" fill="url(#color-1)" fill-rule="nonzero" stroke="#000000" stroke-width="1" stroke-linecap="butt" stroke-linejoin="miter" stroke-miterlimit="10" stroke-dasharray="" stroke-dashoffset="0" font-family="Marker" font-weight="normal" text-anchor="start" style="mix-blend-mode: normal"><tspan x="0" dy="0">Impacto Cultural</tspan></text><text transform="translate(28.85464,78.2207) scale(0.8962,1.32201)" font-size="40" xml:space="preserve" fill="#14001e" fill-rule="nonzero" stroke="#000000" stroke-width="0" stroke-linecap="butt" stroke-linejoin="miter" stroke-miterlimit="10" stroke-dasharray="" stroke-dashoffset="0" font-family="&quot; Pro W3&quot;, &quot;Hiragino Kaku Gothic Pro&quot;, Osaka, &quot;&quot;, Meiryo, &quot; &quot;, &quot;MS PGothic&quot;" font-weight="normal" text-anchor="start" style="mix-blend-mode: normal"><tspan x="0" dy="0"> A interao entre reas rurais e urbanas</tspan><tspan x="0" dy="46.15px">enriquese a cultura local, promovendo o</tspan><tspan x="0" dy="46.15px">reconhecimento das tradies. Festas e</tspan><tspan x="0" dy="46.15px">eventos que celebram a agricultura familiar so</tspan><tspan x="0" dy="46.15px">exemplos de como essa cultura  valorizada.</tspan></text></g></g></svg>