<svg version="1.1" xmlns="http://www.w3.org/2000/svg" xmlns:xlink="http://www.w3.org/1999/xlink" width="787.68769" height="549.89731" viewBox="0,0,787.68769,549.89731"><g transform="translate(121.84685,92.86278)"><g data-paper-data="{&quot;isPaintingLayer&quot;:true}" fill-rule="nonzero" stroke-linejoin="miter" stroke-miterlimit="10" stroke-dasharray="" stroke-dashoffset="0" style="mix-blend-mode: normal"><path d="M-121.84685,457.03453v-549.89731h787.68769v549.89731z" fill="#2fa800" stroke="none" stroke-width="0" stroke-linecap="butt"/><path d="M-57.29729,178.28078v-96.09609h108.10811v96.0961z" fill="#ff8200" stroke="none" stroke-width="0" stroke-linecap="butt"/><path d="M66.94667,49.15165c0,45.6091 -39.57724,82.58259 -88.39825,82.58259c-48.82101,0 -88.39826,-36.97349 -88.39826,-82.58259c0,-45.6091 39.57725,-82.58258 88.39826,-82.58258c48.82101,0 88.39826,36.97348 88.39826,82.58258z" fill="none" stroke="#fff000" stroke-width="9.5" stroke-linecap="butt"/><path d="M104.86487,56.65916c0,35.65802 -29.9149,64.56457 -66.81681,64.56457c-36.90191,0 -66.81682,-28.90654 -66.81682,-64.56456c0,-35.65802 29.91491,-64.56456 66.81682,-64.56456c36.90191,0 66.81681,28.90654 66.81681,64.56457z" fill="#47ff00" stroke="none" stroke-width="0" stroke-linecap="butt"/><path d="M166.60471,18.11561c0,28.19471 -24.46593,51.05105 -54.64619,51.05105c-30.18026,0 -54.6462,-22.85633 -54.6462,-51.05105c0,-28.19471 24.46594,-51.05105 54.6462,-51.05105c30.18026,0 54.64619,22.85634 54.64619,51.05105z" fill="none" stroke="#00aaff" stroke-width="9.5" stroke-linecap="butt"/><path d="M576.33634,123.47598c0,80.02324 -68.569,144.8949 -153.15315,144.8949c-84.58415,0 -153.15315,-64.87166 -153.15315,-144.8949c0,-80.02324 68.569,-144.8949 153.15315,-144.8949c84.58415,0 153.15315,64.87166 153.15315,144.8949z" fill="none" stroke="#00aaff" stroke-width="9.5" stroke-linecap="butt"/><path d="M184.44445,195.84931l207.20721,-232.28324" fill="none" stroke="#0022ff" stroke-width="5" stroke-linecap="round"/><path d="M258.01802,232.33484l199.6997,-240.24024" fill="none" stroke="#0022ff" stroke-width="5" stroke-linecap="round"/><path d="M330.07986,300.28618l219.23967,-253.01981" fill="none" stroke="#0022ff" stroke-width="5" stroke-linecap="round"/><path d="M163.42343,239.09159c0,49.34076 44.7043,89.33934 99.84985,89.33934c55.14555,0 99.84985,-39.99858 99.84985,-89.33934c0,-49.34075 -44.7043,-89.33934 -99.84985,-89.33934c-55.14555,0 -99.84985,39.99858 -99.84985,89.33934z" fill="#ffe500" stroke="none" stroke-width="0" stroke-linecap="butt"/><text transform="translate(-90.53399,99.45962) scale(0.86564,1.03901)" font-size="40" xml:space="preserve" fill="#000000" fill-rule="nonzero" stroke="none" stroke-width="1" stroke-linecap="butt" stroke-linejoin="miter" stroke-miterlimit="10" stroke-dasharray="" stroke-dashoffset="0" font-family="Sans Serif" font-weight="normal" text-anchor="start" style="mix-blend-mode: normal"><tspan x="0" dy="0"> Políticas públicas voltadas para a agricultura</tspan><tspan x="0" dy="46.15px">familiar têm evoluido, garantindo apoio</tspan><tspan x="0" dy="46.15px">técnico e financeiro. elas visam assegurar a</tspan><tspan x="0" dy="46.15px">segurança alimentar e ortalecer a conexão </tspan><tspan x="0" dy="46.15px">entre o campo e a cidade.</tspan></text><text transform="translate(-86.83183,45.63064) scale(2.31571,2.31571)" font-size="40" xml:space="preserve" fill="#ffffff" fill-rule="nonzero" stroke="none" stroke-width="1" stroke-linecap="butt" stroke-linejoin="miter" stroke-miterlimit="10" stroke-dasharray="" stroke-dashoffset="0" font-family="Serif" font-weight="normal" text-anchor="start" style="mix-blend-mode: normal"><tspan x="0" dy="0">Políticas públicas</tspan></text></g></g></svg>