<svg version="1.1" xmlns="http://www.w3.org/2000/svg" xmlns:xlink="http://www.w3.org/1999/xlink" width="722.79279" height="547.65727" viewBox="0,0,722.79279,547.65727"><g transform="translate(121.3964,93.82864)"><g data-paper-data="{&quot;isPaintingLayer&quot;:true}" fill-rule="nonzero" stroke-linecap="butt" stroke-linejoin="miter" stroke-miterlimit="10" stroke-dasharray="" stroke-dashoffset="0" style="mix-blend-mode: normal"><path d="M-121.3964,453.82864v-547.65727h722.79279v547.65727z" fill="#ffbce1" stroke="#000000" stroke-width="0"/><path d="M97.7926,180.64638c-2.54694,-2.43774 -5.19796,-5.06145 -6.55983,-7.62777c-0.19616,-0.36964 -2.34031,-9.59458 -2.51421,-10.33419c-1.75679,-7.47152 -2.70437,-15.03021 -4.32127,-22.50759c-0.99418,-4.5976 -1.90035,-5.64961 -1.50938,-10.55051c0.16948,-2.12445 1.90387,-8.0508 2.48659,-10.16171c2.9194,-10.5755 7.16755,-20.80912 12.09193,-30.61833c3.33343,-4.46774 7.07746,-11.41024 12.02125,-14.31466c1.68098,-0.98756 5.73678,-2.21871 7.86657,-3.20111c0.62099,-0.28644 8.78983,-4.43663 9.19255,-4.56809c6.09387,-1.98942 13.30328,-1.93036 19.62841,-2.41691c4.20499,-0.32346 8.51693,-0.96107 12.74372,-0.7419c1.9923,0.1033 4.33168,-0.67178 5.96628,0.4719c1.54315,1.0797 1.14695,3.63465 2.16635,5.21828c2.57903,4.00651 7.81101,7.13831 11.52339,9.93621c11.27183,11.24447 20.94611,23.94323 32.19383,35.18793c4.70012,4.69886 9.39087,10.80839 16.2611,12.30852c8.15649,1.78099 15.49172,-3.86848 22.40419,-7.32365c13.14244,-5.97518 25.68334,-13.20442 39.04054,-18.59996c3.18331,-1.28588 6.13078,-3.22601 9.45461,-4.08567c0.29239,-0.07563 9.86381,-0.74649 10.42582,-0.78663c12.68849,-0.90632 24.77005,-0.41757 37.42508,0.79896c7.56696,3.70583 14.23874,7.18681 20.76538,12.57919c1.60681,1.32757 3.93497,2.16652 4.72524,4.09519c0.79028,1.92866 -0.2798,4.16006 -0.49308,6.23341c-0.51063,4.96393 -1.31728,9.92258 -1.97402,14.86954c-2.41269,18.17389 -4.82539,36.34777 -7.23809,54.52165c-0.39583,2.79647 -0.41362,7.01972 -3.65785,8.57598c-1.18867,0.5702 -2.39945,-1.53106 -3.70849,-1.37466c-1.26387,0.151 -2.05294,1.50863 -3.1272,2.19138c-4.20851,2.6747 -8.63066,5.07686 -12.92901,7.6053c-1.43655,0.84503 -2.84096,1.74728 -4.30967,2.5351c-0.99553,0.53401 -2.54603,0.42744 -3.07459,1.42587c-0.58847,1.11159 0.27182,2.5024 0.32988,3.7588c0.20353,4.40501 1.87522,3.72004 4.58357,7.61019c1.78286,2.56081 2.18955,5.91536 3.97197,8.47647c1.21796,1.75005 3.36088,2.63971 5.17694,3.75684c5.08908,3.13048 9.28875,6.83382 14.6861,9.58312c7.49798,5.17812 18.01172,9.98369 22.32733,18.43054c0.76017,1.48787 0.97205,3.20309 1.61633,4.74468c1.69146,4.04725 4.14399,8.12776 4.66816,12.60471c0.72379,6.18189 0.61293,13.546 -1.66516,19.33873c-0.41589,1.05752 -3.42604,6.8036 -3.99838,7.17593c-2.8579,1.85916 -4.14398,-0.38075 -6.74595,0.30649c-1.08204,0.2858 -1.9021,1.3002 -3.003,1.5015c-0.55891,0.10219 -7.94779,0.0592 -9.33705,0.05471c-8.30753,1.68363 -16.30886,1.51367 -24.76586,1.51367c-13.17818,0 -26.35636,0 -39.53454,0c-8.58896,0 -16.78132,-0.23592 -25.22515,1.36634c-1.77607,0.71463 -3.10772,0.68222 -2.82168,3.46394c0.10153,0.98736 1.24386,1.63304 1.44091,2.60584c0.30961,1.52848 -0.2227,3.14029 0.0346,4.67844c0.26112,1.56103 1.19107,2.95252 1.5015,4.5045c0.18498,0.92478 -0.26464,1.91447 -0.0346,2.82907c0.27299,1.08535 1.2883,1.90434 1.5015,3.003c0.57209,2.94801 -0.6085,6.06831 0,9.00901c0.51752,2.50103 2.4307,5.21008 1.37808,7.5371c-1.39261,3.07864 -5.50311,4.98282 -7.98086,6.82569c-5.23631,3.8946 -9.90016,9.19275 -15.61507,12.40853c-2.37275,1.33515 -5.20577,1.71001 -7.57993,3.04264c-2.96056,1.66179 -5.85949,3.47641 -8.9959,4.77616c-11.03038,4.53578 -23.96232,7.06854 -35.86205,7.37574c-4.76023,0.12289 -10.7564,0.98762 -15.43636,0.08128c-1.2537,-0.2428 -2.28372,-1.14645 -3.45525,-1.65462c-2.52008,-1.09312 -5.24638,-1.73626 -7.64724,-3.07104c-10.8998,-6.05987 -17.84573,-15.67185 -26.18745,-24.56196c-3.81083,-7.21319 -10.06061,-10.46718 -16.72239,-14.63504c-3.27447,-2.04863 -7.07922,-4.40696 -10.72986,-5.66455c-2.40237,-0.82758 -5.05769,-0.71399 -7.47331,-1.50207c-2.66675,-0.87002 -5.2678,-1.94594 -7.81633,-3.11788c-0.87453,-0.40215 -1.60652,-1.17505 -2.55325,-1.34898c-6.70522,-1.23183 -14.23887,1.51884 -20.9194,0.02177c-2.63005,-0.58938 -4.84104,-2.60995 -7.50751,-3.003c-1.51897,-0.22391 -3.07074,-0.01452 -4.60612,-0.02177c-3.14768,-1.52823 -6.46742,-2.67939 -9.63657,-4.16256c-4.60032,-2.15296 -8.75994,-5.18649 -13.08486,-7.79963c-1.24824,-0.75419 -2.7635,-1.10613 -3.84918,-2.0799c-2.71587,-2.4359 -2.75151,-4.00579 -4.77366,-6.27254c-1.0306,-1.15526 -2.44301,-2.00004 -3.24099,-3.32668c-0.8841,-1.46982 -1.04581,-3.27028 -1.68458,-4.86212c-1.36496,-3.40155 -2.57585,-6.70281 -1.62492,-10.5401c2.29138,-9.2464 14.14161,-18.26804 23.45414,-18.44214c5.33201,0 10.67588,-0.11142 16.00601,0c1.3499,0.02822 2.73821,0.52416 4.04618,0.18911c2.55467,-0.65442 1.38171,-2.29984 1.47668,-3.85046c0.08269,-1.35017 1.13224,-8.50209 1.24269,-9.9567c0.23835,-3.13926 0.21093,-6.29348 0.25421,-9.44147c0.03162,-2.2996 0.63112,-4.66966 0.06665,-6.89912c-0.99359,-3.92434 -4.82464,-9.77949 -8.05529,-12.07261c-1.33049,-0.94439 -3.03149,-1.26388 -4.38502,-2.17493c-3.78069,-2.54473 -6.26064,-5.41216 -10.21979,-7.77661c-3.32265,-2.01449 -4.42231,-2.30017 -6.96491,-5.61698c-0.68088,-0.8882 -0.83866,-2.10126 -1.5015,-3.00301c-0.94877,-1.29072 -2.68204,-2.02381 -3.2846,-3.50807c-0.61292,-1.50979 0.15624,-3.28154 -0.12342,-4.88683c-0.39817,-2.28555 -2.94039,-3.49112 -4.09949,-5.11861c-2.91484,-4.0927 -2.01489,-8.7661 -1.97339,-13.47379c0.01051,-1.19262 -0.3073,-2.44493 0.06688,-3.57738c0.54957,-1.66326 1.22837,-3.49176 2.6203,-4.55525c0.99472,-0.76 2.5338,0.01757 3.74295,-0.3065c1.081,-0.28972 1.91434,-1.24203 3.003,-1.5015c2.18308,-0.52032 10.13268,-0.54829 11.87547,0.06141c1.82236,0.63754 3.14811,2.23605 4.70943,3.37171c3.19367,2.323 5.6265,3.63362 8.54012,6.54723c0.56982,1.11558 1.21598,2.19536 1.70946,3.34674c0.27273,0.63634 0.01648,1.59188 0.57976,1.99441c0.46904,0.33517 1.11401,-0.32763 1.68868,-0.37337c0.99784,-0.07941 2.002,0 3.00301,0c4.75146,0 9.64226,0.88979 13.89698,-1.23757c1.17242,-0.58621 2.27782,-1.36951 3.54665,-1.69855c0.34285,-0.08891 0.68178,-0.12929 1.00962,-0.14122z" fill="#ff61a0" stroke="none" stroke-width="0.5"/><path d="M411.09362,9.41268c-0.68662,-1.1127 -1.33021,-2.23294 -1.89907,-3.36166c-0.71706,-1.42277 -0.76292,-3.14385 -1.58233,-4.51024c-0.82945,-1.38312 -2.59158,-2.10551 -3.26416,-3.57134c-0.548,-1.19431 -0.12093,-2.62527 -0.18139,-3.93791c0.12903,-6.90213 5.3705,-14.94509 12.14314,-17.35973c4.25925,-1.51854 8.43897,-1.66764 12.87938,-1.65679c4.63521,0.01133 6.49467,-0.43218 10.93769,1.57618c3.6074,1.63064 2.77792,2.6298 4.70245,5.6155c1.38759,2.1527 3.50206,3.84256 4.59233,6.16007c0.68349,1.45286 0.82233,3.12656 1.53284,4.56639c0.73366,1.48676 2.01839,2.65463 2.76176,4.13657c0.77137,1.53776 1.09312,3.26532 1.74898,4.85578c1.06904,2.59238 1.94747,5.26362 2.74592,7.95169c0.15347,0.51669 0.15913,1.33088 0.68072,1.46674c1.23771,0.3224 2.55056,-0.19526 3.82583,-0.29289c3.33333,0 6.66667,0 10,0c2.37405,0 4.80217,0.53644 7.12207,0.03228c7.30701,-1.58794 13.54396,-6.62001 20.59766,-8.90166c6.79995,-2.19957 13.20026,-2.17855 19.87132,0.06829c1.60196,0.53955 3.34618,0.78681 4.78935,1.66695c1.37219,0.83685 2.31224,2.23313 3.45644,3.36186c0.06859,0.06766 6.30359,6.22344 6.50221,6.71338c0.24369,0.60112 1.03823,9.7375 1.13112,10.79298c0.31126,3.5368 0.06911,7.15957 -0.68291,10.62948c-1.4446,6.49126 -2.91294,12.97366 -4.22904,19.49223c-0.44265,2.19242 -0.39088,4.45767 -0.48764,6.69224c-0.02711,0.62594 -0.66237,1.36499 -0.27708,1.85905c0.79247,1.01619 2.22731,1.29995 3.29884,2.01581c2.11134,1.41052 3.91982,3.30108 6.18814,4.44215c2.37823,1.19635 5.05588,1.73101 7.41902,2.95689c1.00472,0.5212 6.14735,3.72744 7.59962,4.55261c1.17494,0.66759 2.64388,0.93903 3.56775,1.92525c2.82304,3.01357 3.04702,8.90813 2.19362,12.72434c-0.94254,4.21478 -3.14572,8.50739 -4.67279,12.56524c-1.98133,3.95112 -2.77328,7.93965 -4.47254,11.93525c-1.95594,4.59915 -4.88907,8.54019 -7.80633,12.55592c-2.95568,4.06862 -4.89537,7.1983 -9.56743,9.54712c-5.01408,2.52076 -8.54957,1.74652 -13.85706,1.99423c-4.90435,0.22889 -9.90104,0.86051 -14.78278,1.38794c-5.4419,0.58795 -10.88312,1.71543 -16.37002,1.61779c-1.26505,-0.02251 -2.62357,0.35331 -3.79357,-0.12829c-1.78533,-0.73488 -3.13962,-2.24781 -4.70943,-3.37171c-4.67426,-3.52072 -9.9062,-5.45221 -15.00579,-8.12619c-4.07617,-2.13735 -7.13431,-5.95506 -10.32304,-9.15809c-3.10031,-3.11421 -6.49155,-6.71348 -7.64033,-11.17136c-0.21823,-0.84686 0.52406,-1.84332 0.12342,-2.62068c-1.01946,-1.97809 -5.33748,-3.86933 -6.75206,-5.00457c-2.38647,-1.91522 -4.68268,-4.0258 -6.47986,-6.50237c-0.58124,-0.80096 -0.56378,-1.97554 -1.24116,-2.69701c-1.62777,-1.73373 -4.50105,-1.54689 -6.69645,-2.46107c-3.86684,-1.61018 -7.40292,-3.08583 -11.41931,-4.34085c-6.12596,0.0352 -11.41382,-0.72277 -17.4396,-1.98307c-1.85295,-0.38755 -3.84494,-0.38251 -5.54969,-1.20559c-1.28387,-0.61987 -1.75574,-2.44608 -3.08439,-2.96305c-2.69389,-1.04819 -5.87392,0.834 -8.67124,0.10547c-4.59077,-1.19562 -9.86843,-4.82725 -13.95155,-7.21351c-1.65003,-0.96431 -3.61446,-1.5454 -4.92367,-2.93768c-0.33105,-0.35205 -4.45685,-8.80778 -4.83739,-9.58103c-0.38717,-0.78672 -4.56736,-9.20575 -4.64294,-9.69296c-0.06909,-0.44535 1.35161,-9.81345 1.48786,-10.64409c0.31464,-1.91812 0.08502,-4.03298 1.00839,-5.74341c1.49081,-2.76154 6.21545,-5.38902 8.7522,-7.01623c1.61338,-0.99309 3.03374,-2.40821 4.84015,-2.97927c1.62454,-0.51356 3.41297,0.00004 5.10867,-0.16583c3.03626,-0.297 5.98581,-1.27437 9.02797,-1.50314c0.12722,-0.00957 9.94926,-0.01013 10.2062,-0.00852c1.85741,0.01165 3.76008,-0.3426 5.57196,0.06631c0.74003,0.16701 0.92181,1.76605 1.65313,1.56428c0.67824,-0.18713 -0.11848,-1.50484 0.26633,-2.09386c0.84727,-1.29692 2.16859,-2.21292 3.26334,-3.30899c3.35978,-3.36385 5.55739,-7.28308 7.69622,-11.37962z" fill="#ff61a0" stroke="none" stroke-width="0.5"/><path d="M-73.15674,376.69959c-3.12125,-1.33519 -6.20546,-2.7681 -9.25025,-4.28968c-4.66661,-2.33206 -9.10933,-4.46107 -13.35745,-7.51795c-1.39365,-1.00285 -3.22151,-1.61979 -4.13195,-3.07549c-1.12948,-1.8059 -1.10151,-4.11518 -1.65226,-6.17277c1.08091,-6.77468 2.40499,-13.5027 3.7652,-20.2271c0.72703,-3.59419 2.65927,-8.27311 6.10486,-10.15702c5.07299,-2.7737 10.83896,-2.61137 15.96015,-0.14051c1.40804,0.67935 2.41907,2.06513 3.86779,2.65275c0.93576,0.37956 2.04054,-0.07686 3.02601,0.14347c3.06163,0.68451 5.82349,2.51449 8.92479,2.98785c3.3149,0.50597 9.2321,0.75165 12.53868,0.0346c3.81421,-0.82714 7.95986,-5.47595 10.65304,-8.16086c0.81217,-1.22019 3.31926,-5.53951 5.0896,-6.52631c8.62648,-4.80846 19.43026,-3.42063 28.63692,-2.07875c6.46165,0.94179 13.82728,1.30782 20.09245,3.08611c8.18115,2.32211 14.38317,7.64665 19.48211,14.22088c1.04071,1.34182 2.51626,2.46245 3.06419,4.06972c0.57346,1.68216 0.11484,3.55279 0.14016,5.32983c0.0428,3.0027 0,6.00601 0,9.00901c0,9.06987 0.55603,17.58705 5.21921,25.52375c0.51635,0.87882 0.74265,1.97556 1.48692,2.67198c0.74471,0.69684 1.9628,0.67936 2.76615,1.3077c1.49294,1.1677 2.8388,2.53667 4.0319,4.00939c0.89893,1.10961 1.18423,2.67082 2.19622,3.67838c0.81932,0.81573 -2.19542,-0.77534 -1.41763,0.08007c1.7126,1.88349 2.76914,5.03354 1.11487,7.5896c-2.9445,4.54963 -1.58077,4.63919 -5.31125,5.6203c-1.00426,0.26412 -1.77503,1.12293 -2.76604,1.43306c-5.51456,1.72574 -11.48333,2.64241 -17.07472,4.23169c-1.41073,0.61793 -2.74013,1.47206 -4.2322,1.8538c-0.98678,0.25246 -2.0651,-0.22643 -3.05567,0.01073c-0.26396,0.0632 -6.3262,2.65571 -7.2111,2.92685c-4.80493,1.47226 -9.83854,2.46668 -14.71497,3.68466c-2.7567,0.68854 -5.37366,1.94252 -8.17627,2.41033c-4.6109,0.76965 -9.85983,0.59873 -14.56772,1.12131c-4.22193,0.46864 -8.43173,1.58797 -12.65356,1.90546c-10.05882,0.75645 -19.34455,-1.02093 -28.31889,-5.49448c-0.54132,-0.27066 -9.15315,-4.55778 -9.3889,-4.75677c-1.5971,-1.3481 -3.12722,-2.9705 -3.89265,-4.91529c-1.34111,-3.40745 -0.00788,-11.66664 1.96807,-14.48846c0.57463,-0.82062 2.21238,-0.34223 2.76501,-1.17782c0.55218,-0.83492 -0.55526,-2.17012 0,-3.003c0.62079,-0.93119 2.19971,-0.72225 3.003,-1.5015c0.75108,-0.7286 -0.36359,-2.2253 -1.14264,-2.92391c-0.9651,-0.86545 -2.66014,-0.86498 -3.36186,-1.95494c-0.54933,-0.85325 -0.20264,-1.98659 -0.2193,-3.03065z" fill="#ff61a0" stroke="none" stroke-width="0.5"/><text transform="translate(-97.4222,81.68074) scale(0.84571,0.89126)" font-size="40" xml:space="preserve" fill="#810047" fill-rule="nonzero" stroke="none" stroke-width="1" stroke-linecap="butt" stroke-linejoin="miter" stroke-miterlimit="10" stroke-dasharray="" stroke-dashoffset="0" font-family="Serif" font-weight="normal" text-anchor="start" style="mix-blend-mode: normal"><tspan x="0" dy="0"> A agricultura familiar refere-se à produção de </tspan><tspan x="0" dy="46.15px">alimentos realizadas por famílias geralmente do </tspan><tspan x="0" dy="46.15px">campo, utilizando mão de obra familiar e pequenas</tspan><tspan x="0" dy="46.15px">propiedades. Essa prática é crucial para segurança </tspan><tspan x="0" dy="46.15px">alimentar e preservação do meio ambiente.</tspan></text><text transform="translate(-93.88466,35.26278) scale(1.94026,1.94026)" font-size="40" xml:space="preserve" fill="#9b0056" fill-rule="nonzero" stroke="none" stroke-width="1" stroke-linecap="butt" stroke-linejoin="miter" stroke-miterlimit="10" stroke-dasharray="" stroke-dashoffset="0" font-family="Serif" font-weight="normal" text-anchor="start" style="mix-blend-mode: normal"><tspan x="0" dy="0">Definição e conceito</tspan></text></g></g></svg>