<svg version="1.1" xmlns="http://www.w3.org/2000/svg" xmlns:xlink="http://www.w3.org/1999/xlink" width="726.44527" height="544.5946" viewBox="0,0,726.44527,544.5946"><defs><linearGradient x1="219.97011" y1="-40.2269" x2="219.97011" y2="47.41309" gradientTransform="translate(35.70674,-13.42956) scale(0.52659,0.52659)" gradientUnits="userSpaceOnUse" id="color-1"><stop offset="0" stop-color="#cfff00"/><stop offset="1" stop-color="#ffc000"/></linearGradient></defs><g transform="translate(118.52853,92.2973)"><g data-paper-data="{&quot;isPaintingLayer&quot;:true}" fill-rule="nonzero" stroke-linecap="butt" stroke-linejoin="miter" stroke-miterlimit="10" stroke-dasharray="" stroke-dashoffset="0" style="mix-blend-mode: normal"><path d="M-118.52853,452.29729v-544.59459h724.92493v544.5946z" fill="#0091a6" stroke="none" stroke-width="0"/><path d="M505.53035,313.97801c-3.66509,15.56648 -20.40255,24.94434 -37.38416,20.94606c-16.98161,-3.99829 -27.77678,-19.85865 -24.11168,-35.42513c3.66509,-15.56648 20.40255,-24.94434 37.38416,-20.94606c16.98161,3.99829 27.77678,19.85865 24.11168,35.42513z" fill="#ffbe01" stroke="#000000" stroke-width="0"/><path d="M515.009,270.8257c1.4443,1.20394 0.24036,2.64823 0.24036,2.64823l-2.6085,2.97858c-2.24994,0.5903 -4.3619,1.89547 -6.68565,1.99948c-1.18356,0.05298 -2.31816,-0.49055 -3.47724,-0.73582c-2.15627,-0.52934 -5.83404,-1.69359 -7.23292,-3.61295c-0.61079,-0.83805 -0.29372,-2.13414 -0.89383,-2.97988c-0.19368,-0.27295 -0.42392,0.56194 -0.73592,0.68305c-1.16857,0.45361 -2.41513,0.67259 -3.6227,1.00888c-1.63499,0.45533 -3.25762,0.95911 -4.893,1.41294c-0.25112,0.59624 -0.52808,1.18443 -0.73021,1.73925c-0.44713,1.22729 -1.40135,2.20596 -2.04753,3.34114c-1.38304,2.42964 -2.42384,5.86525 -5.6313,6.78828c-1.49054,0.42895 -3.05005,-0.56575 -4.57507,-0.84862c0,0 -1.83023,-0.43092 -1.39931,-2.26116c0.43092,-1.83023 2.26116,-1.39931 2.26116,-1.39931c0.91529,0.29169 1.80886,1.08686 2.74587,0.87508c1.29105,-0.29181 3.03235,-4.48764 3.3281,-5.01044c0.34608,-0.61174 0.71986,-1.20709 1.09855,-1.79949c-0.7429,0.20761 -1.48406,0.31615 -2.21414,0.12894c-1.62188,-0.41589 -3.9156,-6.36647 -2.79989,-7.34196c0.85483,-0.7474 7.97231,0.63527 9.89016,1.85305c0.11183,-0.03002 0.22352,-0.06047 0.33503,-0.09152c2.41513,-0.67259 4.79188,-1.50252 7.2454,-2.01776c1.10566,-0.23219 2.40267,-1.05971 3.35834,-0.45715c1.25436,0.79087 1.21188,2.73864 2.11977,3.91109c0.99468,1.28452 3.77383,2.08863 5.25529,2.41808c2.9704,0.80284 4.30923,-0.18944 7.32212,-0.80095l1.69883,-2.18869c0,0 1.20394,-1.4443 2.64823,-0.24036zM479.21228,272.24379c0.01409,0.01986 0.03506,0.03226 0.06502,0.03522c-0.02176,-0.0115 -0.04344,-0.02324 -0.06502,-0.03522z" fill="#73f524" stroke="none" stroke-width="0.5"/><path d="M512.94506,53.62115c-4.18434,10.82123 -17.14624,15.89312 -28.95122,11.32839c-11.80498,-4.56473 -17.98273,-17.03752 -13.79839,-27.85875c4.18434,-10.82123 17.14624,-15.89312 28.95122,-11.32839c11.80498,4.56473 17.98273,17.03752 13.79839,27.85875z" fill="#ff9a00" stroke="#000000" stroke-width="0"/><path d="M524.05486,23.5554c0.91797,1.00903 -0.09106,1.927 -0.09106,1.927l-2.1712,1.88062c-1.67564,0.20009 -3.32333,0.92763 -5.00358,0.77091c-0.8558,-0.07982 -1.617,-0.58342 -2.4255,-0.87513c-1.4968,-0.59517 -4.02374,-1.79816 -4.83781,-3.31678c-0.35545,-0.66307 0.00151,-1.56288 -0.3455,-2.23042c-0.11199,-0.21544 -0.3606,0.36159 -0.59688,0.41755c-0.88493,0.20958 -1.80255,0.24277 -2.70382,0.36415c-1.22029,0.16434 -2.43651,0.36474 -3.65692,0.52797c-0.23985,0.40345 -0.49746,0.79855 -0.69798,1.17711c-0.44357,0.83741 -1.22676,1.44565 -1.80419,2.19704c-1.23589,1.60821 -2.32603,3.97342 -4.72291,4.31724c-1.11385,0.15978 -2.13546,-0.71037 -3.20318,-1.06555c0,0 -1.27231,-0.49197 -0.78034,-1.76428c0.49198,-1.27231 1.76429,-0.78034 1.76429,-0.78034c0.62869,0.30079 1.19161,0.96121 1.88606,0.90236c0.95684,-0.0811 2.62609,-2.92284 2.89071,-3.26907c0.30963,-0.40513 0.63754,-0.79573 0.96867,-1.18372c-0.55454,0.07519 -1.09796,0.07937 -1.60395,-0.12788c-1.12408,-0.46042 -2.17966,-4.96506 -1.28073,-5.55494c0.68874,-0.45194 5.66574,1.25062 6.92264,2.31677c0.08335,-0.01043 0.16665,-0.02119 0.24988,-0.0324c1.80255,-0.24276 3.59318,-0.60242 5.40764,-0.7283c0.81767,-0.05672 1.83215,-0.52219 2.45889,0.006c0.82263,0.69328 0.59808,2.08874 1.13372,3.02171c0.58684,1.02215 2.50389,1.87683 3.53567,2.26114c2.05461,0.87281 3.11555,0.2931 5.34157,0.15377l1.43882,-1.40361c0,0 1.00903,-0.91797 1.927,0.09106zM498.18955,21.00882c0.00815,0.01568 0.02198,0.02667 0.04322,0.03178c-0.0145,-0.01043 -0.02891,-0.02102 -0.04322,-0.03178z" fill="#73f524" stroke="none" stroke-width="0.5"/><path d="M-41.36046,47.27892c11.80498,-4.56473 24.76688,0.50715 28.95122,11.32838c4.18434,10.82123 -1.99341,23.29402 -13.79839,27.85875c-11.80498,4.56473 -24.76688,-0.50715 -28.95122,-11.32838c-4.18434,-10.82123 1.99341,-23.29402 13.79839,-27.85875z" data-paper-data="{&quot;index&quot;:null}" fill="#ff9a00" stroke="#000000" stroke-width="0"/><path d="M-64.34167,44.98085l1.43882,1.40362c2.22602,0.13934 3.28696,0.71904 5.34157,-0.15377c1.03178,-0.38431 2.94883,-1.23898 3.53566,-2.26114c0.53564,-0.93297 0.3111,-2.32844 1.13373,-3.02172c0.62675,-0.52819 1.64122,-0.06273 2.45889,-0.006c1.81446,0.12588 3.6051,0.48553 5.40764,0.7283c0.08323,0.01121 0.16653,0.02197 0.24988,0.0324c1.25689,-1.06615 6.2339,-2.76871 6.92264,-2.31677c0.89893,0.58987 -0.15665,5.09452 -1.28073,5.55494c-0.506,0.20726 -1.04942,0.20308 -1.60395,0.12788c0.33114,0.38799 0.65904,0.77858 0.96867,1.18372c0.26461,0.34623 1.93387,3.18797 2.89071,3.26907c0.69444,0.05886 1.25737,-0.60157 1.88605,-0.90235c0,0 1.27231,-0.49198 1.76429,0.78033c0.49198,1.27231 -0.78034,1.76429 -0.78034,1.76429c-1.06772,0.35518 -2.08932,1.22532 -3.20318,1.06555c-2.39688,-0.34382 -3.48703,-2.70902 -4.72291,-4.31724c-0.57743,-0.75139 -1.36063,-1.35962 -1.80419,-2.19704c-0.20052,-0.37856 -0.45813,-0.77366 -0.69798,-1.17712c-1.22042,-0.16323 -2.43664,-0.36363 -3.65693,-0.52797c-0.90127,-0.12139 -1.81889,-0.15457 -2.70382,-0.36415c-0.23627,-0.05596 -0.48488,-0.63299 -0.59688,-0.41755c-0.34701,0.66754 0.00995,1.56734 -0.3455,2.23042c-0.81407,1.51863 -3.341,2.7216 -4.83781,3.31678c-0.8085,0.29171 -1.5697,0.79532 -2.4255,0.87514c-1.68025,0.15672 -3.32794,-0.57083 -5.00357,-0.77092l-2.1712,-1.88062c0,0 -1.00903,-0.91797 -0.09106,-1.927c0.91797,-1.00903 1.927,-0.09106 1.927,-0.09106zM-40.44656,42.55712c0.02123,-0.00511 0.03507,-0.01611 0.04322,-0.03178c-0.01431,0.01076 -0.02872,0.02135 -0.04322,0.03178z" data-paper-data="{&quot;index&quot;:null}" fill="#73f524" stroke="none" stroke-width="0.5"/><text transform="translate(-67.8078,25.50301) scale(1.89902,1.89902)" font-size="40" xml:space="preserve" fill="url(#color-1)" fill-rule="nonzero" stroke="#000000" stroke-width="1" stroke-linecap="butt" stroke-linejoin="miter" stroke-miterlimit="10" stroke-dasharray="" stroke-dashoffset="0" font-family="Marker" font-weight="normal" text-anchor="start" style="mix-blend-mode: normal"><tspan x="0" dy="0">Produtos Locais</tspan></text><text transform="translate(-91.11017,83.43002) scale(0.84253,1.03429)" font-size="40" xml:space="preserve" fill="#f5ff00" fill-rule="nonzero" stroke="none" stroke-width="1" stroke-linecap="butt" stroke-linejoin="miter" stroke-miterlimit="10" stroke-dasharray="" stroke-dashoffset="0" font-family="Sans Serif" font-weight="normal" text-anchor="start" style="mix-blend-mode: normal"><tspan x="0" dy="0"> Produtos locais oriundos da agricultura</tspan><tspan x="0" dy="46.15px">familiar incluem ortaliças, frutas, carnes e </tspan><tspan x="0" dy="46.15px">artesanatos. O consumo de produtos locais</tspan><tspan x="0" dy="46.15px">não apenas formenta a econômia regional,</tspan><tspan x="0" dy="46.15px">mas também valoriza a cultura e as </tspan><tspan x="0" dy="46.15px">tradições locais.</tspan></text></g></g></svg>