<svg version="1.1" xmlns="http://www.w3.org/2000/svg" xmlns:xlink="http://www.w3.org/1999/xlink" width="295.28829" height="130.12312" viewBox="0,0,295.28829,130.12312"><g transform="translate(-64.82583,-83.65465)"><g data-paper-data="{&quot;isPaintingLayer&quot;:true}" fill-rule="nonzero" stroke="#000000" stroke-width="2" stroke-linecap="butt" stroke-linejoin="miter" stroke-miterlimit="10" stroke-dasharray="" stroke-dashoffset="0" style="mix-blend-mode: normal"><path d="M65.82583,212.28228v-63.06306h52.55255v63.06306z" fill="#000000"/><path d="M109.36937,212.28228v-90.09009h45.04505v90.09009z" fill="#000000"/><path d="M151.41141,212.28228v-127.62763h64.56456v127.62763z" fill="#000000"/><path d="M306.56156,212.77778v-63.06306h52.55255v63.06306z" data-paper-data="{&quot;index&quot;:null}" fill="#000000"/><path d="M216.47147,212.77778v-90.09009h45.04504v90.09009z" data-paper-data="{&quot;index&quot;:null}" fill="#000000"/><path d="M260.01501,212.77778v-127.62762h64.56457v127.62762z" data-paper-data="{&quot;index&quot;:null}" fill="#000000"/><path d="M118.37838,144.71471v-13.51351h10.51051v13.51351z" fill="#f4ff00"/><path d="M158.91892,98.16817v-7.50751h3.003v7.50751z" fill="#f4ff00"/><path d="M179.93994,105.67568v-7.50751h10.51051v7.50751z" fill="#f4ff00"/><path d="M157.41742,113.18318v-7.50751h9.00901v7.50751z" fill="#f4ff00"/><path d="M265.52553,111.68168v-16.51652h16.51652v16.51652z" fill="#f4ff00"/><path d="M188.94895,135.70571v-13.51351h16.51652v13.51351z" fill="#f4ff00"/><path d="M154.41441,152.22222v-18.01802h9.00901v18.01802z" fill="#f4ff00"/><path d="M280.54054,158.22823v-22.52252h25.52553v22.52252z" fill="#f4ff00"/><path d="M203.96396,153.72372v-12.01201h16.51652v12.01201z" fill="#f4ff00"/></g></g></svg>