<svg version="1.1" xmlns="http://www.w3.org/2000/svg" xmlns:xlink="http://www.w3.org/1999/xlink" width="109.69407" height="105.99652" viewBox="0,0,109.69407,105.99652"><defs><radialGradient cx="89.41729" cy="94.88145" r="54.84704" gradientUnits="userSpaceOnUse" id="color-1"><stop offset="0" stop-color="#ff0000"/><stop offset="1" stop-color="#ff0000" stop-opacity="0"/></radialGradient></defs><g transform="translate(-34.57025,-41.88319)"><g data-paper-data="{&quot;isPaintingLayer&quot;:true}" fill-rule="nonzero" stroke-linecap="butt" stroke-linejoin="miter" stroke-miterlimit="10" stroke-dasharray="" stroke-dashoffset="0" style="mix-blend-mode: normal"><path d="M144.26433,94.88145c0,29.27013 -24.55585,52.99826 -54.84704,52.99826c-30.29118,0 -54.84704,-23.72813 -54.84704,-52.99826c0,-29.27013 24.55585,-52.99826 54.84704,-52.99826c30.29118,0 54.84704,23.72813 54.84704,52.99826z" fill="url(#color-1)" stroke="none" stroke-width="0"/><path d="M62.96411,122.24526l16.05259,-46.21237l9.561,-30.22844l12.18775,32.02793l16.05025,43.15724z" fill="#ff6900" stroke="#000000" stroke-width="0.5"/><path d="M53.08142,132.01233v-13.29625h72.01012v13.29625z" fill="#ff6900" stroke="#000000" stroke-width="0.5"/><path d="M65.61873,112.70341l4.2806,-11.98567l39.95225,0.28537l4.2806,11.41493z" fill="#ffe500" stroke="#000000" stroke-width="0"/><path d="M72.41251,94.30281l3.08155,-11.12955l28.00015,0.83573l4.50841,11.17032z" fill="#ffe500" stroke="#000000" stroke-width="0"/><path d="M79.04321,75.78134l2.54558,-7.58421l15.76827,0.13981l2.83095,7.3046z" fill="#ffe500" stroke="#000000" stroke-width="0"/></g></g></svg>