<?xml version="1.0" standalone="no"?>
<!DOCTYPE svg PUBLIC "-//W3C//DTD SVG 20010904//EN"
 "http://www.w3.org/TR/2001/REC-SVG-20010904/DTD/svg10.dtd">
<svg version="1.0" xmlns="http://www.w3.org/2000/svg"
 width="500.000000pt" height="500.000000pt" viewBox="0 0 500.000000 500.000000"
 preserveAspectRatio="xMidYMid meet">

<g transform="translate(0.000000,500.000000) scale(0.100000,-0.100000)"
fill="#000000" stroke="none">
<path d="M1023 4945 c-198 -26 -364 -85 -511 -182 -130 -86 -279 -255 -343
-389 -72 -152 -102 -273 -119 -479 -17 -206 -10 -2377 8 -2383 6 -2 12 -11 12
-20 0 -12 3 -13 11 -5 9 9 16 8 27 -4 15 -14 17 -13 23 9 8 30 39 68 55 68 7
0 14 3 16 8 3 7 74 56 113 78 11 6 44 25 73 42 29 18 57 32 62 32 6 0 10 4 10
8 0 5 17 9 37 10 21 1 39 6 41 12 2 5 10 10 18 10 8 0 25 9 37 21 12 11 29 18
39 16 10 -3 15 0 12 8 -3 7 -1 16 5 20 7 4 11 -4 11 -21 0 -15 3 -24 8 -20 4
4 10 350 13 769 7 838 10 875 71 1067 54 168 123 283 239 397 117 115 223 178
389 231 191 61 236 64 983 69 889 6 1067 -4 1278 -76 163 -55 266 -119 380
-237 119 -125 173 -216 227 -385 65 -202 67 -238 67 -1114 0 -841 -2 -885 -50
-1067 -50 -194 -123 -324 -253 -454 -162 -163 -367 -255 -637 -286 -117 -14
-150 -35 -110 -68 8 -7 15 -25 15 -40 0 -15 6 -33 14 -39 8 -7 17 -34 21 -62
4 -27 10 -49 14 -49 11 0 32 -66 26 -82 -3 -8 3 -25 15 -38 11 -13 21 -37 22
-54 4 -73 2 -101 -7 -108 -5 -4 1 -8 14 -8 20 0 23 -4 18 -28 -7 -33 -1 -42
35 -61 22 -11 77 -13 285 -8 320 7 438 27 601 103 263 122 462 344 553 616 67
203 64 118 64 1733 0 1363 -1 1466 -18 1550 -49 245 -141 428 -292 578 -190
189 -420 291 -718 316 -197 17 -2769 13 -2904 -4z"/>
<path d="M1785 3980 c-165 -10 -250 -26 -362 -70 -198 -76 -331 -246 -379
-484 -24 -122 -36 -524 -31 -1021 3 -275 9 -482 15 -500 6 -17 11 -22 11 -12
1 23 41 23 41 0 0 -14 3 -13 20 5 18 19 31 22 100 22 51 0 80 4 82 12 3 9 29
9 109 0 57 -7 131 -13 164 -14 55 -1 63 -4 92 -35 37 -40 62 -36 35 5 -9 14
-12 23 -5 19 6 -4 13 -3 15 3 2 6 25 -11 53 -37 27 -26 45 -42 41 -35 -4 7 -2
19 4 27 10 12 7 17 -14 25 -14 5 -26 12 -26 15 0 4 5 3 11 -1 18 -11 -5 27
-37 61 -16 17 -29 35 -29 40 0 6 -14 37 -32 70 -83 160 -119 379 -91 551 37
222 112 375 258 524 92 94 186 160 296 208 234 102 507 102 744 2 209 -88 401
-280 491 -490 96 -228 99 -499 5 -729 -79 -194 -245 -375 -434 -473 -49 -25
-87 -49 -84 -53 4 -3 -1 -3 -10 0 -9 4 -19 1 -23 -4 -3 -6 -10 -9 -14 -7 -4 3
-30 -2 -57 -10 -27 -8 -76 -19 -109 -24 -98 -16 -144 -28 -115 -29 14 0 33 -9
42 -18 28 -30 46 -43 65 -46 16 -3 93 -69 93 -80 0 -3 34 -40 76 -83 133 -137
135 -140 128 -158 -4 -9 -3 -16 2 -15 21 4 34 -2 34 -15 0 -8 13 -29 28 -46
21 -22 36 -30 53 -27 13 2 18 2 11 0 -7 -3 -10 -8 -7 -13 3 -4 -5 -6 -17 -4
-21 4 -21 3 2 -7 32 -14 278 -4 384 16 230 44 397 165 479 346 78 170 86 253
93 929 7 581 -4 973 -30 1106 -42 208 -157 376 -316 458 -71 37 -198 73 -301
86 -114 15 -1346 22 -1554 10z m1805 -325 c24 -16 55 -47 69 -69 22 -34 26
-50 26 -115 0 -70 -3 -80 -34 -125 -118 -170 -382 -97 -399 110 -4 44 1 64 22
107 29 60 43 75 101 106 60 33 157 26 215 -14z m-1850 -1735 c-7 -4 -9 -13 -6
-19 4 -6 5 -11 2 -11 -3 0 -10 10 -17 21 -8 15 -8 19 0 15 6 -4 11 -2 11 4 0
6 5 8 11 4 8 -5 8 -9 -1 -14z m50 -44 c0 -3 -4 -8 -10 -11 -5 -3 -10 -1 -10 4
0 6 5 11 10 11 6 0 10 -2 10 -4z"/>
<path d="M2356 3084 c-196 -47 -364 -203 -427 -396 -34 -104 -34 -272 0 -373
35 -102 138 -254 161 -240 6 3 7 -1 4 -10 -5 -12 -2 -16 12 -13 11 2 18 -2 17
-9 -6 -29 149 -108 253 -129 374 -78 724 206 724 586 0 230 -130 439 -340 545
-102 51 -281 69 -404 39z"/>
<path d="M1884 1742 c4 -3 14 -7 22 -8 9 -1 13 0 10 4 -4 3 -14 7 -22 8 -9 1
-13 0 -10 -4z"/>
<path d="M51 1464 c0 -11 3 -14 6 -6 3 7 2 16 -1 19 -3 4 -6 -2 -5 -13z"/>
</g>
</svg>
