<?xml version="1.0" standalone="no"?>
<!DOCTYPE svg PUBLIC "-//W3C//DTD SVG 20010904//EN"
 "http://www.w3.org/TR/2001/REC-SVG-20010904/DTD/svg10.dtd">
<svg version="1.0" xmlns="http://www.w3.org/2000/svg"
 width="452.000000pt" height="455.000000pt" viewBox="0 0 452.000000 455.000000"
 preserveAspectRatio="xMidYMid meet">

<g transform="translate(0.000000,455.000000) scale(0.100000,-0.100000)"
fill="#000000" stroke="none">
<path d="M485 4469 c-205 -29 -394 -223 -425 -434 -13 -96 -13 -3434 0 -3530
31 -216 220 -405 435 -435 95 -13 3435 -13 3530 0 215 30 404 219 435 435 13
94 13 3434 0 3530 -30 215 -219 404 -435 435 -87 12 -3453 11 -3540 -1z m1550
-1280 l389 -521 36 41 c19 22 235 256 480 521 l445 480 133 0 c108 0 132 -2
125 -13 -4 -8 -251 -276 -548 -596 -297 -321 -541 -586 -543 -591 -2 -4 276
-381 617 -838 342 -456 621 -832 621 -836 0 -3 -204 -6 -454 -6 l-454 0 -423
565 -422 565 -31 -35 c-17 -19 -251 -273 -521 -565 l-490 -529 -133 -1 c-74 0
-132 4 -130 9 2 4 266 292 588 640 322 347 586 636 588 640 2 7 -1079 1464
-1170 1579 -8 9 83 12 449 12 l459 0 389 -521z"/>
<path d="M1152 3478 c14 -18 431 -576 927 -1240 l903 -1208 209 0 209 0 -443
593 c-244 325 -661 883 -927 1240 l-484 647 -209 0 -209 0 24 -32z"/>
</g>
</svg>
